<?xml version="1.0" encoding="utf-8"?>
<!-- Generator: Adobe Illustrator 19.0.0, SVG Export Plug-In . SVG Version: 6.00 Build 0)  -->
<svg version="1.1" id="Layer_1" xmlns="http://www.w3.org/2000/svg" xmlns:xlink="http://www.w3.org/1999/xlink" x="0px" y="0px"
	 width="71px" height="44px" viewBox="-270 375 71 44" style="enable-background:new -270 375 71 44;" xml:space="preserve">
<path style="fill:#FFFFFF;" d="M-202.8,409.3l2.2,8.7c0.1,0.3,0,0.5-0.2,0.7c-0.1,0.2-0.4,0.2-0.6,0.2c0,0-0.1,0-0.1,0l-10.6-1.9
	c-2.9,1.3-5.9,1.9-9.1,1.9c-5,0-9.6-1.7-13.3-4.5c-3.7,2.8-8.3,4.5-13.3,4.5c-3.1,0-6.2-0.7-9.1-1.9l-10.6,1.9c0,0-0.1,0-0.1,0
	c-0.2,0-0.4-0.1-0.6-0.2c-0.2-0.2-0.3-0.5-0.2-0.7l2.2-8.7c-2.5-3.7-3.8-7.9-3.8-12.3c0-12.1,9.9-22,22.2-22c5,0,9.6,1.7,13.3,4.5
	c3.7-2.8,8.3-4.5,13.3-4.5c12.2,0,22.2,9.9,22.2,22C-199,401.4-200.3,405.7-202.8,409.3z M-247.8,376.6c-11.4,0-20.6,9.2-20.6,20.4
	c0,4.2,1.3,8.3,3.8,11.8c0.2,0.3,0.2,0.6,0,0.9l-1.9,7.6l9.3-1.7c0.1-0.1,0.2-0.1,0.4-0.1c0.1,0,0.2,0,0.3,0.1
	c2.8,1.3,5.7,1.9,8.7,1.9c11.4,0,20.6-9.2,20.6-20.4S-236.5,376.6-247.8,376.6z M-221.2,376.6c-4.5,0-8.7,1.5-12.1,3.9
	c4.6,4,7.6,9.9,7.6,16.5c0,6.6-3,12.5-7.6,16.5c3.4,2.5,7.6,3.9,12.1,3.9c3,0,6-0.7,8.7-1.9c0.3-0.1,0.5-0.1,0.8,0.1l9.2,1.7l-2-7.7
	c-0.1-0.2-0.1-0.6,0-0.8c2.5-3.5,3.8-7.5,3.8-11.8C-200.6,385.7-209.8,376.6-221.2,376.6z"/>
</svg>
