<?xml version="1.0" encoding="utf-8"?>
<!-- Generator: Adobe Illustrator 19.0.0, SVG Export Plug-In . SVG Version: 6.00 Build 0)  -->
<svg version="1.1" id="Layer_1" xmlns="http://www.w3.org/2000/svg" xmlns:xlink="http://www.w3.org/1999/xlink" x="0px" y="0px"
	 width="44px" height="44px" viewBox="-283 375 44 44" style="enable-background:new -283 375 44 44;" xml:space="preserve">
<path style="fill:#FFFFFF;" d="M-245.4,412.5C-245.4,412.5-245.4,412.5-245.4,412.5c-0.1,0.1-0.1,0.1-0.1,0.1c-4,4-9.5,6.4-15.5,6.4
	c-6,0-11.5-2.5-15.5-6.4c0,0,0,0-0.1,0c0,0,0,0,0-0.1c-4-4-6.4-9.5-6.4-15.5c0-6,2.5-11.5,6.4-15.5c0,0,0,0,0-0.1c0,0,0,0,0.1,0
	c4-4,9.5-6.4,15.5-6.4c6,0,11.5,2.4,15.5,6.4c0,0,0,0,0.1,0c0,0,0,0,0,0.1c4,4,6.4,9.5,6.4,15.5C-239,403-241.4,408.5-245.4,412.5z
	 M-246,383.1l-3.5,3.5c-0.2,0.2-0.3,0.2-0.5,0.2c-0.2,0-0.4-0.1-0.6-0.2c-0.3-0.3-0.3-0.8,0-1.1l3.5-3.5c-3.5-3.2-8.1-5.2-13.1-5.4
	v5c0,0.4-0.3,0.8-0.8,0.8c-0.4,0-0.8-0.3-0.8-0.8v-5c-5.1,0.2-9.6,2.2-13.1,5.4l3.5,3.5c0.3,0.3,0.3,0.8,0,1.1
	c-0.2,0.2-0.4,0.2-0.5,0.2c-0.2,0-0.4-0.1-0.5-0.2l-3.5-3.5c-3.2,3.5-5.2,8.1-5.4,13.1h5c0.4,0,0.8,0.3,0.8,0.8
	c0,0.4-0.3,0.8-0.8,0.8h-5c0.2,5.1,2.2,9.6,5.4,13.1l3.5-3.5c0.3-0.3,0.8-0.3,1.1,0c0.3,0.3,0.3,0.8,0,1.1l-3.5,3.5
	c3.5,3.2,8.1,5.2,13.1,5.4v-5c0-0.4,0.3-0.8,0.8-0.8c0.4,0,0.8,0.3,0.8,0.8v5c5.1-0.2,9.6-2.2,13.1-5.4l-3.5-3.5
	c-0.3-0.3-0.3-0.8,0-1.1c0.3-0.3,0.8-0.3,1.1,0l3.5,3.5c3.2-3.5,5.2-8.1,5.4-13.1h-5c-0.4,0-0.8-0.3-0.8-0.8c0-0.4,0.3-0.8,0.8-0.8
	h5C-240.8,391.2-242.8,386.6-246,383.1z M-258.8,396.1c0.1,0.2,0.1,0.4,0.1,0.7c0,1.2-0.9,2.1-2.1,2.1c-1.2,0-2.1-0.9-2.1-2.1
	s0.9-2.1,2.1-2.1c0.3,0,0.7,0.1,1,0.2l6.6-6.6c0.3-0.3,0.8-0.3,1.1,0c0.3,0.3,0.3,0.8,0,1.1L-258.8,396.1z"/>
</svg>
