<?xml version="1.0" encoding="utf-8"?>
<!-- Generator: Adobe Illustrator 19.0.0, SVG Export Plug-In . SVG Version: 6.00 Build 0)  -->
<svg version="1.1" id="Layer_1" xmlns="http://www.w3.org/2000/svg" xmlns:xlink="http://www.w3.org/1999/xlink" x="0px" y="0px"
	 width="123px" height="123px" viewBox="-244 335 123 123" style="enable-background:new -244 335 123 123;" xml:space="preserve">
<g>
	<circle style="fill:#44a1d7;" cx="-182.5" cy="396.5" r="61.5"/>
	<path style="fill:#FFFFFF;" d="M-155.3,378.5l-12.3-12.2c-0.2-0.2-0.5-0.3-0.7-0.3h-32.4c-1.8,0-3.3,1.5-3.3,3.2v57.5
		c0,1.8,1.5,3.2,3.3,3.2h42.4c1.8,0,3.3-1.5,3.3-3.2v-47.6C-155,378.9-155.1,378.7-155.3,378.5z"/>
	<path style="fill:#322525;" d="M-161.2,428h-41.6c-1.8,0-3.2-1.4-3.2-3.2v-56.6c0-1.8,1.4-3.2,3.2-3.2h31.7c0.3,0,0.5,0.1,0.7,0.3
		l12,12c0.2,0.2,0.3,0.5,0.3,0.7v46.8C-158,426.6-159.4,428-161.2,428z M-170,368.5v7.3c0,0.6,0.5,1.2,1.2,1.2h7.4L-170,368.5z
		 M-160.1,379h-8.8c-1.8,0-3.2-1.4-3.2-3.2V367h-30.7c-0.6,0-1.2,0.5-1.2,1.2v56.6c0,0.6,0.5,1.2,1.2,1.2h41.6
		c0.6,0,1.2-0.5,1.2-1.2V379z M-170,420.4c-3,0-5.4-2.4-5.4-5.4s2.4-5.4,5.4-5.4c3,0,5.4,2.4,5.4,5.4S-167,420.4-170,420.4z
		 M-170,411.7c-1.8,0-3.4,1.5-3.4,3.3c0,1.8,1.5,3.3,3.4,3.3c1.8,0,3.4-1.5,3.4-3.3C-166.6,413.2-168.1,411.7-170,411.7z
		 M-170,416.8c-1,0-1.8-0.8-1.8-1.8c0-1,0.8-1.8,1.8-1.8s1.8,0.8,1.8,1.8C-168.1,416-168.9,416.8-170,416.8z M-165.6,404.1h-32.8
		c-0.6,0-1-0.5-1-1c0-0.6,0.5-1,1-1h32.8c0.6,0,1,0.5,1,1C-164.6,403.6-165,404.1-165.6,404.1z M-165.6,398.6h-32.8
		c-0.6,0-1-0.5-1-1c0-0.6,0.5-1,1-1h32.8c0.6,0,1,0.5,1,1C-164.6,398.2-165,398.6-165.6,398.6z M-165.6,393.2h-32.8
		c-0.6,0-1-0.5-1-1c0-0.6,0.5-1,1-1h32.8c0.6,0,1,0.5,1,1C-164.6,392.7-165,393.2-165.6,393.2z M-175.4,387.7h-13.1
		c-0.6,0-1-0.5-1-1s0.5-1,1-1h13.1c0.6,0,1,0.5,1,1S-174.9,387.7-175.4,387.7z M-186.4,379h-12c-0.6,0-1-0.5-1-1c0-0.6,0.5-1,1-1h12
		c0.6,0,1,0.5,1,1C-185.4,378.6-185.8,379-186.4,379z M-190.8,373.6h-7.7c-0.6,0-1-0.5-1-1c0-0.6,0.5-1,1-1h7.7c0.6,0,1,0.5,1,1
		C-189.7,373.1-190.2,373.6-190.8,373.6z M-186.4,410.7h7.7c0.6,0,1,0.5,1,1c0,0.6-0.5,1-1,1h-7.7c-0.6,0-1-0.5-1-1
		C-187.4,411.2-186.9,410.7-186.4,410.7z M-186.4,416.2h7.7c0.6,0,1,0.5,1,1c0,0.6-0.5,1-1,1h-7.7c-0.6,0-1-0.5-1-1
		C-187.4,416.6-186.9,416.2-186.4,416.2z"/>
</g>
</svg>
