<svg xmlns="http://www.w3.org/2000/svg" xmlns:xlink="http://www.w3.org/1999/xlink" preserveAspectRatio="xMidYMid" width="30.062" height="30" viewBox="0 0 30.062 30">
  <path style=" fill: #30488c; fill-rule:evenodd;" d="M15.028,0.016 C6.742,0.016 -0.001,6.740 -0.001,15.003 C-0.001,23.269 6.742,29.993 15.028,29.993 C23.318,29.993 30.062,23.269 30.062,15.003 C30.062,6.740 23.318,0.016 15.028,0.016 L15.028,0.016 ZM18.768,15.531 L16.323,15.531 L16.323,24.225 L12.699,24.225 L12.699,15.531 L10.976,15.531 L10.976,12.459 L12.699,12.459 L12.699,10.472 C12.699,9.051 13.376,6.826 16.356,6.826 L19.040,6.837 L19.040,9.818 L17.092,9.818 C16.773,9.818 16.323,9.977 16.323,10.655 L16.323,12.462 L19.085,12.462 L18.768,15.531 Z" class=""/>
</svg>
