<?xml version="1.0" encoding="utf-8"?>
<!-- Generator: Adobe Illustrator 19.0.0, SVG Export Plug-In . SVG Version: 6.00 Build 0)  -->
<svg version="1.1" id="Layer_1" xmlns="http://www.w3.org/2000/svg" xmlns:xlink="http://www.w3.org/1999/xlink" x="0px" y="0px"
	 width="24.3px" height="24px" viewBox="-293 385 24.3 24" style="enable-background:new -293 385 24.3 24;" xml:space="preserve">
<path style="fill:#FFFFFF;" d="M-280.8,385c-6.7,0-12.2,5.4-12.2,12c0,6.6,5.5,12,12.2,12c6.7,0,12.2-5.4,12.2-12
	C-268.6,390.4-274.1,385-280.8,385L-280.8,385z M-277.8,397.4h-2v7h-2.9v-7h-1.4V395h1.4v-1.6c0-1.1,0.5-2.9,3-2.9l2.2,0v2.4h-1.6
	c-0.3,0-0.6,0.1-0.6,0.7v1.4h2.2L-277.8,397.4z"/>
</svg>
