<?xml version="1.0" encoding="utf-8"?>
<!-- Generator: Adobe Illustrator 19.0.0, SVG Export Plug-In . SVG Version: 6.00 Build 0)  -->
<svg version="1.1" id="Layer_1" xmlns="http://www.w3.org/2000/svg" xmlns:xlink="http://www.w3.org/1999/xlink" x="0px" y="0px"
	 width="24.4px" height="23.9px" viewBox="-293 385.1 24.4 23.9" style="enable-background:new -293 385.1 24.4 23.9;"
	 xml:space="preserve">
<path style="fill:#30488C;" d="M-280.8,385.1c-6.7,0-12.2,5.4-12.2,12c0,6.6,5.5,12,12.2,12c6.7,0,12.2-5.4,12.2-12
	C-268.6,390.4-274.1,385.1-280.8,385.1L-280.8,385.1z M-277.8,397.5h-2v6.9h-2.9v-6.9h-1.4V395h1.4v-1.6c0-1.1,0.5-2.9,3-2.9l2.2,0
	v2.4h-1.6c-0.3,0-0.6,0.1-0.6,0.7v1.4h2.2L-277.8,397.5z"/>
</svg>
