<?xml version="1.0" encoding="utf-8"?>
<!-- Generator: Adobe Illustrator 19.0.0, SVG Export Plug-In . SVG Version: 6.00 Build 0)  -->
<svg version="1.1" id="Layer_1" xmlns="http://www.w3.org/2000/svg" xmlns:xlink="http://www.w3.org/1999/xlink" x="0px" y="0px"
	 width="59.3px" height="43.3px" viewBox="-275 375.7 59.3 43.3" style="enable-background:new -275 375.7 59.3 43.3;"
	 xml:space="preserve">
<path style="fill:#FFFFFF;" d="M-216.9,405.6l-6.5,9.8c-1.8,2.2-3.7,3.3-5.8,3.5c-0.2,0-0.4,0-0.6,0c-2.6,0-4.5-1.5-4.8-1.7
	l-10.7-7.2l-10.7,7.2c-0.3,0.3-2.2,1.7-4.8,1.7c-0.2,0-0.4,0-0.6,0c-2.1-0.2-4.1-1.3-5.8-3.4l-6.6-9.9c-0.1-0.1-2.6-3.5-0.3-9
	c1.3-2.4,4.6-8.8,4.9-10.7l1.4-4.7c0.4-1.2,2-3.2,4.9-2.7c1.1,0.2,3.2,1.3,3.3,4c0,0,0,0.1,0,0.1l-0.9,5.4l2.6-1.8
	c-0.9-0.8-1.5-1.7-1.6-2.7c-0.2-1.6,0.8-2.7,0.8-2.7c1.7-2.6,4.5-1.9,5.7-1.1l0.2,0.1c-0.1-0.9,0.2-1.7,0.4-2.3c0,0,0-0.1,0.1-0.1
	c0.6-0.9,1.3-1.4,2.2-1.6c1.7-0.3,3.2,0.8,3.3,0.9l1.5,1l1.5-1c1.2-0.8,4-1.6,5.5,0.7c0,0,0.8,1,0.7,2.3c1.3-0.8,4-1.4,5.7,1.2l0,0
	c0,0,0.9,1.1,0.8,2.7c-0.1,1-0.7,1.9-1.6,2.7l2.6,1.8l-0.9-5.4c0,0,0-0.1,0-0.1c0-2.8,2.2-3.8,3.3-4c2.8-0.5,4.4,1.5,4.8,2.7
	l1.4,4.6c0.4,2,3.7,8.4,4.9,10.7C-214.3,402.1-216.8,405.5-216.9,405.6z M-260.6,390c0.8,2.1,2.9,9.2-2.8,13.7
	c-0.1,0.1-0.3,0.2-0.5,0.2c-0.2,0-0.5-0.1-0.6-0.3c-0.3-0.3-0.2-0.8,0.1-1.1c5.8-4.6,2.3-12.2,2.1-12.5c0,0,0,0,0,0c0,0,0,0,0,0
	c0-0.1-0.1-0.2,0-0.4c0,0,0,0,0-0.1l1.2-7.2c0-2-1.8-2.4-2-2.4c-0.2,0-0.4-0.1-0.6-0.1c-1.8,0-2.4,1.6-2.5,1.7l-1.4,4.6
	c-0.5,2.5-4.9,10.7-5,11c-1.9,4.7,0.1,7.4,0.2,7.5l6.6,9.9c1.4,1.7,3,2.7,4.6,2.8c2.4,0.2,4.3-1.4,4.3-1.4c0,0,0,0,0.1-0.1l10.2-6.9
	l-10.1-6.9c-1.4-1-2.3-2.1-2.4-3.2c-0.2-1.2,0.4-2.1,0.5-2.2c0.5-0.8,1.1-1.4,1.8-1.7l-1.1-0.7c-1.2-0.8-1.8-1.8-2-2.8
	c-0.1-0.8,0.1-1.5,0.4-2.1L-260.6,390z M-239.6,378.3c-1.2-1.7-3.3-0.4-3.4-0.3l-1,0.7l3.9,2.6c0.5-0.5,0.8-1.1,0.9-1.6
	C-239.1,378.8-239.5,378.3-239.6,378.3z M-234,385.3c0.8-0.6,1.2-1.3,1.3-1.9c0.1-0.9-0.4-1.6-0.5-1.6c-1.4-2.1-3.4-0.9-3.6-0.8
	l-1.8,1.3L-234,385.3L-234,385.3z M-218.1,397.1c-0.2-0.3-4.6-8.5-5-11l-1.4-4.5c-0.1-0.2-0.8-2-3.1-1.6c-0.2,0-1.9,0.4-2,2.4
	l1.2,7.2c0.1,0.3-0.1,0.6-0.4,0.8c-0.3,0.2-0.6,0.2-0.9,0l-18.2-12.5c0,0-1.1-0.8-2.1-0.6c-0.5,0.1-0.8,0.4-1.2,0.8
	c-0.1,0.3-0.8,2.3,0.9,3.4l14.9,10.3c0.4,0.2,0.4,0.7,0.2,1.1c-0.2,0.4-0.7,0.4-1.1,0.2l-14.9-10.3c0,0,0,0,0,0l-2.8-1.9
	c-0.2-0.1-2.2-1.3-3.6,0.8c-0.1,0.1-0.6,0.8-0.5,1.7c0.1,0.7,0.5,1.3,1.3,2l3.1,2.1c0.1,0,0.1,0.1,0.2,0.1l13.9,9.5
	c0.4,0.2,0.4,0.7,0.2,1.1c-0.2,0.4-0.7,0.4-1.1,0.2l-14-9.6c-0.5-0.3-2.4-1.2-3.6,0.6c0,0,0,0.1-0.1,0.1c0,0-0.8,0.9-0.6,1.9
	c0.1,0.6,0.5,1.2,1.3,1.7l3.1,2.1c0.3,0.2,0.5,0.3,0.5,0.3l11,7.4c0.4,0.2,0.5,0.7,0.2,1.1c-0.2,0.4-0.7,0.4-1.1,0.2l-11.4-7.7
	c-0.3-0.1-0.6-0.3-1-0.2c-0.6,0.1-1.1,0.5-1.6,1.3c0,0.1-0.3,0.5-0.2,1.1c0.1,0.7,0.7,1.5,1.8,2.2l22.2,15.1c0,0,0,0,0.1,0.1
	c0,0,1.9,1.6,4.3,1.4c1.7-0.1,3.2-1.1,4.7-2.9l6.5-9.8C-218.1,404.6-216.1,401.8-218.1,397.1z"/>
</svg>
