<svg xmlns="http://www.w3.org/2000/svg" xmlns:xlink="http://www.w3.org/1999/xlink" preserveAspectRatio="xMidYMid" width="183" height="52" viewBox="0 0 183 52">
  <defs>
    <style>
      .cls-1 {
        fill: #fff;
        fill-rule: evenodd;
      }
    </style>
  </defs>
  <path d="M180.064,22.673 L180.064,31.363 L177.625,31.363 L177.625,22.673 L174.741,22.673 L174.741,20.636 L182.997,20.636 L182.997,22.673 L180.064,22.673 ZM170.996,22.625 L168.555,22.625 L168.555,25.170 C168.555,27.925 168.205,30.041 166.579,30.996 C166.037,31.300 165.304,31.524 164.444,31.524 L164.140,29.563 C164.667,29.499 165.096,29.275 165.368,28.991 C166.021,28.324 166.181,26.954 166.181,25.329 L166.181,20.636 L173.418,20.636 L173.418,31.363 L170.996,31.363 L170.996,22.625 ZM160.138,28.608 L157.061,28.608 L156.297,31.363 L153.777,31.363 L157.061,20.636 L160.250,20.636 L163.581,31.363 L160.966,31.363 L160.138,28.608 ZM159.117,24.518 C158.926,23.883 158.735,23.088 158.575,22.449 L158.544,22.449 C158.383,23.088 158.225,23.899 158.049,24.518 L157.411,26.794 L159.787,26.794 L159.117,24.518 ZM150.383,22.465 C148.455,22.465 146.956,23.627 146.956,26.012 C146.956,28.164 148.231,29.518 150.399,29.518 C151.133,29.518 151.945,29.358 152.424,29.167 L152.790,31.060 C152.344,31.281 151.339,31.524 150.033,31.524 C146.318,31.524 144.406,29.212 144.406,26.159 C144.406,22.497 147.020,20.460 150.271,20.460 C151.531,20.460 152.488,20.716 152.918,20.936 L152.424,22.864 C151.930,22.657 151.244,22.465 150.383,22.465 ZM140.339,26.874 L136.338,26.874 L136.338,31.363 L133.900,31.363 L133.900,20.636 L136.338,20.636 L136.338,24.757 L140.339,24.757 L140.339,20.636 L142.764,20.636 L142.764,31.363 L140.339,31.363 L140.339,26.874 ZM127.012,31.536 C123.824,31.536 121.959,29.135 121.959,26.076 C121.959,22.864 124.016,20.460 127.188,20.460 C130.487,20.460 132.290,22.928 132.290,25.888 C132.290,29.403 130.153,31.536 127.012,31.536 ZM127.124,22.385 C125.482,22.385 124.525,23.947 124.525,26.031 C124.525,28.133 125.514,29.610 127.140,29.610 C128.783,29.610 129.723,28.050 129.723,25.968 C129.723,24.039 128.798,22.385 127.124,22.385 ZM120.303,27.989 C120.685,29.135 121.035,30.297 121.545,31.363 L118.931,31.363 C118.564,30.629 118.358,29.802 118.102,29.007 C117.736,27.797 117.242,26.874 115.934,26.874 L115.472,26.874 L115.472,31.363 L113.065,31.363 L113.065,20.636 L115.472,20.636 L115.472,25.093 L115.680,25.093 L118.644,20.636 L121.593,20.636 L117.848,25.393 C119.234,25.744 119.856,26.699 120.303,27.989 ZM108.172,28.608 L105.095,28.608 L104.331,31.363 L101.810,31.363 L105.095,20.636 L108.284,20.636 L111.615,31.363 L109.000,31.363 L108.172,28.608 ZM107.152,24.518 C106.960,23.883 106.769,23.088 106.609,22.449 L106.577,22.449 C106.418,23.088 106.259,23.899 106.083,24.518 L105.445,26.794 L107.822,26.794 L107.152,24.518 ZM98.422,31.363 L95.983,31.363 L95.983,20.636 L102.487,20.636 L102.487,22.625 L98.422,22.625 L98.422,31.363 ZM87.457,20.636 L94.088,20.636 L94.088,22.625 L89.896,22.625 L89.896,24.853 L93.849,24.853 L93.849,26.826 L89.896,26.826 L89.896,29.371 L94.312,29.371 L94.312,31.363 L87.457,31.363 L87.457,20.636 ZM83.037,27.258 C82.989,25.968 82.941,24.410 82.941,22.848 L82.893,22.848 C82.559,24.218 82.113,25.744 81.699,27.002 L80.391,31.185 L78.494,31.185 L77.346,27.034 C76.996,25.776 76.629,24.250 76.373,22.848 L76.342,22.848 C76.278,24.294 76.230,25.952 76.152,27.289 L75.959,31.363 L73.711,31.363 L74.397,20.636 L77.634,20.636 L78.686,24.218 C79.020,25.457 79.354,26.794 79.594,28.050 L79.642,28.050 C79.944,26.811 80.311,25.393 80.662,24.199 L81.811,20.636 L84.981,20.636 L85.572,31.363 L83.197,31.363 L83.037,27.258 ZM0.011,36.855 L24.363,12.632 L35.485,21.346 L44.724,13.490 L51.675,21.340 L51.675,52.003 L0.011,52.003 L0.011,36.855 ZM35.261,16.786 L24.229,7.981 L0.011,32.318 L0.011,-0.010 L51.675,-0.010 L51.675,16.013 L44.858,8.388 L35.261,16.786 Z" class="cls-1"/>
</svg>
