<?xml version="1.0" encoding="utf-8"?>
<!-- Generator: Adobe Illustrator 19.0.0, SVG Export Plug-In . SVG Version: 6.00 Build 0)  -->
<svg version="1.1" id="Layer_1" xmlns="http://www.w3.org/2000/svg" xmlns:xlink="http://www.w3.org/1999/xlink" x="0px" y="0px"
	 width="122px" height="122px" viewBox="-244 336 122 122" style="enable-background:new -244 336 122 122;" xml:space="preserve">
<g>
	<circle style="fill:#FDCA00;" cx="-183" cy="397" r="61"/>
	<path style="fill:#FFFFFF;" d="M-157.8,409.8l-10.4-2.6c0-0.1-0.1-0.1-0.1-0.2l-3.1-3.1v-2.9c0.3-0.3,0.5-0.5,0.8-0.8
		c2.9-3.3,4.6-7.7,4.9-12.5c0-0.2,0-0.4,0-0.6c0-0.6,0.1-1.2,0.1-1.8l1-10.1c0.3-3.1-0.7-6.3-2.9-8.6c-2.1-2.3-5.2-3.7-8.3-3.7
		h-11.4c-3.2,0-6.2,1.3-8.3,3.7c-2.1,2.3-3.2,5.5-2.9,8.6l1,10.1c0.1,0.6,0.1,1.2,0.1,1.8c0,0.2,0,0.4,0,0.6c0.3,4.8,2,9.2,4.9,12.5
		c0.2,0.3,0.5,0.5,0.8,0.8v2.9l-3.1,3.1c0,0-0.1,0.1-0.1,0.2l-10.4,2.6c-4.4,1.1-6.8,3.8-6.8,7.5v7.3c0,1.8,1.5,3.3,3.3,3.3h54.3
		c1.8,0,3.3-1.5,3.3-3.3v-7.3C-151,413.6-153.4,410.9-157.8,409.8z"/>
	<path style="fill:#322525;" d="M-159.9,407.6l-10.5-2.6c0-0.1-0.1-0.1-0.1-0.2l-3.1-3.1v-3c0.3-0.3,0.5-0.5,0.8-0.8
		c2.9-3.3,4.7-7.9,5-12.7c0-0.2,0-0.4,0-0.6c0-0.6,0.1-1.2,0.1-1.9l1-10.3c0.3-3.2-0.7-6.4-2.9-8.7c-2.2-2.4-5.3-3.7-8.5-3.7h-11.6
		c-3.2,0-6.3,1.4-8.5,3.7c-2.2,2.4-3.2,5.6-2.9,8.7l1,10.3c0.1,0.6,0.1,1.2,0.1,1.9c0,0.2,0,0.4,0,0.6c0.3,4.8,2,9.4,5,12.7
		c0.2,0.3,0.5,0.6,0.8,0.8v3l-3.1,3.1c-0.1,0-0.1,0.1-0.1,0.2l-10.5,2.6c-4.5,1.1-6.9,3.8-6.9,7.6v7.5c0,1.8,1.5,3.4,3.4,3.4h55.2
		c1.9,0,3.4-1.5,3.4-3.4v-7.5C-153,411.4-155.5,408.7-159.9,407.6L-159.9,407.6z M-185.2,419.2h2.3c0.1,0,0.2,0,0.2,0l0.8,4.7h-4.4
		l0.8-4.7C-185.3,419.2-185.2,419.2-185.2,419.2L-185.2,419.2z M-181.6,415.8c0,0.7-0.5,1.2-1.2,1.2h-2.3c-0.7,0-1.2-0.5-1.2-1.2
		v-1.7l2.4-1.6l2.4,1.6V415.8z M-192.1,400.5c2.4,1.7,5.2,2.7,8.1,2.7s5.7-0.9,8.1-2.7v1.1l-8.1,8.1l-8.1-8.1V400.5z M-179.9,412.6
		C-179.9,412.6-179.9,412.6-179.9,412.6l-2.4-1.6l7.5-7.4l2.1,2.1c-0.7,1.3-2.4,4.3-4.8,8.5c0,0,0,0,0,0c0,0-0.1,0-0.1,0
		L-179.9,412.6z M-196.7,365.2c1.8-1.9,4.3-3,6.9-3h11.6c2.6,0,5.1,1.1,6.9,3c1.8,1.9,2.6,4.5,2.4,7.1l-0.7,6.5
		c-1.5-3.4-3.1-5.6-3.2-5.8c-0.3-0.5-1-0.6-1.5-0.3c-2.8,1.9-15.5,2.2-20.1,2.1c-0.3,0-0.6,0.1-0.8,0.4c-1.3,1.5-2.4,3.1-3.1,4.5
		l-0.8-7.5C-199.3,369.7-198.5,367.1-196.7,365.2L-196.7,365.2z M-197.8,385.1c0-0.2,0-0.4,0-0.6c0-0.1,0-0.3,0-0.4
		c0.2-0.7,1.6-4.3,4-7.1c3,0,15.2,0,19.9-2c0.9,1.4,2.9,4.8,3.9,9.1c0,0.1,0,0.3,0,0.4c0,0.2,0,0.4,0,0.6c-0.5,9-6.6,16-13.8,16
		C-191.3,401.1-197.4,394-197.8,385.1L-197.8,385.1z M-193.2,403.6l7.5,7.4l-2.4,1.6c0,0,0,0,0,0l-2.4,1.6c0,0,0,0-0.1,0
		c0,0,0,0,0,0c-2.4-4.2-4-7.2-4.8-8.5L-193.2,403.6z M-212.8,422.6v-7.5c0-2.8,1.8-4.7,5.3-5.6l10.5-2.6c0.6,1.1,1.9,3.4,4.6,8.2
		c0.3,0.5,0.8,0.9,1.4,1.1c0.2,0,0.3,0.1,0.5,0.1c0.4,0,0.9-0.1,1.2-0.4l0.7-0.5v0.3c0,1,0.4,1.9,1.1,2.5l-1,5.6h-14.1v-5.8
		c0-0.6-0.5-1.1-1.1-1.1c-0.6,0-1.1,0.5-1.1,1.1v5.8h-7C-212.3,423.9-212.8,423.3-212.8,422.6L-212.8,422.6z M-155.2,422.6
		c0,0.7-0.5,1.2-1.2,1.2h-7v-5.8c0-0.6-0.5-1.1-1.1-1.1c-0.6,0-1.1,0.5-1.1,1.1v5.8h-14.1l-1-5.6c0.7-0.6,1.1-1.5,1.1-2.5v-0.3
		l0.7,0.5c0.4,0.2,0.8,0.4,1.2,0.4c0.2,0,0.3,0,0.5-0.1c0.6-0.1,1.1-0.5,1.4-1.1c2.7-4.8,4-7.1,4.6-8.2l10.5,2.6
		c3.5,0.9,5.3,2.7,5.3,5.6V422.6z"/>
</g>
</svg>
