<?xml version="1.0" encoding="utf-8"?>
<!-- Generator: Adobe Illustrator 19.0.0, SVG Export Plug-In . SVG Version: 6.00 Build 0)  -->
<svg version="1.1" id="Layer_1" xmlns="http://www.w3.org/2000/svg" xmlns:xlink="http://www.w3.org/1999/xlink" x="0px" y="0px"
	 width="123px" height="123px" viewBox="-244 335 123 123" style="enable-background:new -244 335 123 123;" xml:space="preserve">
<g>
	<circle style="fill:#44a1d7;" cx="-182.5" cy="396.5" r="61.5"/>
	<path style="fill:#FFFFFF;" d="M-146.9,423.6l-1.9,5.8v0.8c0,0.5-0.4,0.9-0.9,0.9c-0.5,0-0.9-0.4-0.9-0.9v-0.8l-1.9-5.8
		c0-0.1,0-0.2,0-0.3v-34.5c0-1.6,1.3-2.9,2.9-2.9c1.6,0,2.9,1.3,2.9,2.9v34.5C-146.8,423.5-146.8,423.6-146.9,423.6z M-156.5,427.2
		h-2v2c0,1.1-0.9,1.9-1.9,1.9h-43c-1,0-1.9-0.9-1.9-1.9v-55.2c0-1.1,0.9-1.9,1.9-1.9h2v-2c0-1.1,0.8-1.9,1.9-1.9h43
		c1,0,1.9,0.9,1.9,1.9v55.2C-154.6,426.4-155.5,427.2-156.5,427.2z"/>
	<path style="fill:#322525;" d="M-151.8,419.9l-1.9,5.6v0.8c0,0.5-0.4,0.9-0.9,0.9c-0.5,0-0.9-0.4-0.9-0.9v-0.8l-1.9-5.6
		c0-0.1,0-0.2,0-0.3v-33.7c0-1.6,1.3-2.8,2.8-2.8c1.5,0,2.8,1.3,2.8,2.8v33.7C-151.8,419.7-151.8,419.8-151.8,419.9z M-154.6,422.5
		l1-3h-2L-154.6,422.5z M-153.5,385.9c0-0.6-0.5-1-1-1c-0.6,0-1,0.5-1,1v1h2V385.9z M-153.5,388.7h-2v29h2V388.7z M-161.2,423.4h-2
		v2c0,1-0.8,1.9-1.8,1.9h-42c-1,0-1.8-0.8-1.8-1.9v-53.9c0-1,0.8-1.9,1.8-1.9h2v-2c0-1,0.8-1.9,1.8-1.9h42c1,0,1.8,0.8,1.8,1.9v53.9
		C-159.4,422.6-160.2,423.4-161.2,423.4z M-204.1,371.4C-204.1,371.4-204.1,371.4-204.1,371.4h-2.9c0,0-0.1,0-0.1,0.1v53.9
		c0,0,0,0.1,0.1,0.1h42c0,0,0.1,0,0.1-0.1v-2.9c0,0,0,0,0,0c0,0,0,0,0,0v-51c0,0,0-0.1-0.1-0.1H-204.1
		C-204.1,371.4-204.1,371.4-204.1,371.4z M-161.2,367.6C-161.2,367.6-161.2,367.6-161.2,367.6l-42-0.1c0,0-0.1,0-0.1,0.1v2h38.2
		c1,0,1.8,0.8,1.8,1.9v50.1h2c0,0,0.1,0,0.1-0.1V367.6z M-170.8,418.6h-30.5c-0.5,0-0.9-0.4-0.9-0.9c0-0.5,0.4-0.9,0.9-0.9h30.5
		c0.5,0,0.9,0.4,0.9,0.9C-169.9,418.2-170.3,418.6-170.8,418.6z M-170.8,414.7h-30.5c-0.5,0-0.9-0.4-0.9-0.9c0-0.5,0.4-0.9,0.9-0.9
		h30.5c0.5,0,0.9,0.4,0.9,0.9C-169.9,414.3-170.3,414.7-170.8,414.7z M-170.8,410.9h-3.8c-0.5,0-0.9-0.4-0.9-0.9
		c0-0.5,0.4-0.9,0.9-0.9h3.8c0.5,0,0.9,0.4,0.9,0.9C-169.9,410.5-170.3,410.9-170.8,410.9z M-170.8,407h-19.1
		c-0.5,0-0.9-0.4-0.9-0.9c0-0.5,0.4-0.9,0.9-0.9h19.1c0.5,0,0.9,0.4,0.9,0.9C-169.9,406.6-170.3,407-170.8,407z M-170.8,403.2h-30.5
		c-0.5,0-0.9-0.4-0.9-0.9c0-0.5,0.4-0.9,0.9-0.9h30.5c0.5,0,0.9,0.4,0.9,0.9C-169.9,402.8-170.3,403.2-170.8,403.2z M-170.8,399.3
		h-6.7c-0.5,0-0.9-0.4-0.9-0.9c0-0.5,0.4-0.9,0.9-0.9h6.7c0.5,0,0.9,0.4,0.9,0.9C-169.9,398.9-170.3,399.3-170.8,399.3z
		 M-170.8,395.5h-14.3c-0.5,0-0.9-0.4-0.9-0.9c0-0.5,0.4-0.9,0.9-0.9h14.3c0.5,0,0.9,0.4,0.9,0.9
		C-169.9,395.1-170.3,395.5-170.8,395.5z M-170.8,391.6h-30.5c-0.5,0-0.9-0.4-0.9-0.9c0-0.5,0.4-0.9,0.9-0.9h30.5
		c0.5,0,0.9,0.4,0.9,0.9C-169.9,391.2-170.3,391.6-170.8,391.6z M-170.8,387.8h-3.8c-0.5,0-0.9-0.4-0.9-0.9c0-0.5,0.4-0.9,0.9-0.9
		h3.8c0.5,0,0.9,0.4,0.9,0.9C-169.9,387.4-170.3,387.8-170.8,387.8z M-170.8,383.9h-19.1c-0.5,0-0.9-0.4-0.9-0.9
		c0-0.5,0.4-0.9,0.9-0.9h19.1c0.5,0,0.9,0.4,0.9,0.9C-169.9,383.5-170.3,383.9-170.8,383.9z M-170.8,380.1h-30.5
		c-0.5,0-0.9-0.4-0.9-0.9c0-0.5,0.4-0.9,0.9-0.9h30.5c0.5,0,0.9,0.4,0.9,0.9C-169.9,379.7-170.3,380.1-170.8,380.1z M-201.3,386
		h22.9c0.5,0,0.9,0.4,0.9,0.9c0,0.5-0.4,0.9-0.9,0.9h-22.9c-0.5,0-0.9-0.4-0.9-0.9C-202.2,386.4-201.8,386-201.3,386z M-201.3,382.1
		h7.6c0.5,0,0.9,0.4,0.9,0.9c0,0.5-0.4,0.9-0.9,0.9h-7.6c-0.5,0-0.9-0.4-0.9-0.9C-202.2,382.5-201.8,382.1-201.3,382.1z
		 M-201.3,397.5h20c0.5,0,0.9,0.4,0.9,0.9c0,0.5-0.4,0.9-0.9,0.9h-20c-0.5,0-0.9-0.4-0.9-0.9C-202.2,397.9-201.8,397.5-201.3,397.5z
		 M-201.3,393.7h12.4c0.5,0,0.9,0.4,0.9,0.9c0,0.5-0.4,0.9-0.9,0.9h-12.4c-0.5,0-0.9-0.4-0.9-0.9
		C-202.2,394.1-201.8,393.7-201.3,393.7z M-201.3,409.1h22.9c0.5,0,0.9,0.4,0.9,0.9c0,0.5-0.4,0.9-0.9,0.9h-22.9
		c-0.5,0-0.9-0.4-0.9-0.9C-202.2,409.5-201.8,409.1-201.3,409.1z M-201.3,405.2h7.6c0.5,0,0.9,0.4,0.9,0.9c0,0.5-0.4,0.9-0.9,0.9
		h-7.6c-0.5,0-0.9-0.4-0.9-0.9C-202.2,405.6-201.8,405.2-201.3,405.2z"/>
</g>
</svg>
