<?xml version="1.0" encoding="utf-8"?>
<!-- Generator: Adobe Illustrator 19.0.0, SVG Export Plug-In . SVG Version: 6.00 Build 0)  -->
<svg version="1.1" id="Layer_1" xmlns="http://www.w3.org/2000/svg" xmlns:xlink="http://www.w3.org/1999/xlink" x="0px" y="0px"
	 width="122px" height="122px" viewBox="-244 336 122 122" style="enable-background:new -244 336 122 122;" xml:space="preserve">
<g>
	<circle style="fill:#FDCA00;" cx="-183" cy="397" r="61"/>
	<path style="fill:#FFFFFF;" d="M-150.4,377.6c-0.2-0.3-0.6-0.5-1-0.4c-0.1,0-0.2,0-0.3,0l-67.3,18.3c-0.5,0.1-0.8,0.6-0.9,1.1
		c0,0.5,0.3,1,0.8,1.1l24.6,8.1l-2.2,17.6c-0.1,0.5,0.2,0.9,0.6,1.2c0.2,0.1,0.4,0.2,0.6,0.2c0.2,0,0.5-0.1,0.7-0.2l9-6.9l7.9,11.3
		c0.2,0.3,0.6,0.5,0.9,0.5c0,0,0.1,0,0.1,0c0.4,0,0.8-0.3,1-0.6l25.6-50C-150.1,378.5-150.1,378-150.4,377.6z"/>
	<path style="fill:#322525;" d="M-153.8,374.7c-0.2-0.3-0.6-0.5-1-0.4c-0.1,0-0.2,0-0.3,0l-67.3,18.3c-0.5,0.1-0.8,0.6-0.9,1.1
		c0,0.5,0.3,1,0.8,1.1l24.6,8.1l-2.2,17.6c-0.1,0.5,0.2,0.9,0.6,1.2c0.2,0.1,0.4,0.2,0.6,0.2c0.2,0,0.5-0.1,0.7-0.2l9-6.9l7.9,11.3
		c0.2,0.3,0.6,0.5,0.9,0.5c0,0,0.1,0,0.1,0c0.4,0,0.8-0.3,1-0.6l25.6-50C-153.4,375.6-153.5,375.1-153.8,374.7L-153.8,374.7z
		 M-161.8,378.6l-34.9,22.3l-21.3-7L-161.8,378.6z M-197.3,418.2l1.6-12.8l5.3,7.6L-197.3,418.2z M-180.4,423.2l-14.5-20.7
		l37.3-23.8L-180.4,423.2z"/>
</g>
</svg>
