<?xml version="1.0" encoding="utf-8"?>
<!-- Generator: Adobe Illustrator 19.0.0, SVG Export Plug-In . SVG Version: 6.00 Build 0)  -->
<svg version="1.1" id="Layer_1" xmlns="http://www.w3.org/2000/svg" xmlns:xlink="http://www.w3.org/1999/xlink" x="0px" y="0px"
	 width="45px" height="44px" viewBox="-283 375 45 44" style="enable-background:new -283 375 45 44;" xml:space="preserve">
<path style="fill:#FFFFFF;" d="M-250.8,419h-19.5c-7,0-12.8-5.7-12.8-12.7v-18.7c0-7,5.7-12.7,12.8-12.7h19.5
	c7,0,12.8,5.7,12.8,12.7v18.7C-238,413.3-243.7,419-250.8,419z M-239.6,387.6c0-6.1-5-11.1-11.2-11.1h-19.5c-6.2,0-11.2,5-11.2,11.1
	v18.7c0,6.1,5,11.1,11.2,11.1h19.5c6.2,0,11.2-5,11.2-11.1V387.6z M-266.8,402.3L-266.8,402.3l-5.3-5.1l3.4-3.5l5.3,5.2l10.8-10.7
	l3.6,3.4l-14.3,14.2L-266.8,402.3z"/>
</svg>
