<svg xmlns="http://www.w3.org/2000/svg" xmlns:xlink="http://www.w3.org/1999/xlink" preserveAspectRatio="xMidYMid" width="30.094" height="30" viewBox="0 0 30.094 30">
  <path style="fill: #49769c; fill-rule:evenodd;" d="M15.043,0.011 C6.738,0.011 0.005,6.723 0.005,15.007 C0.005,23.288 6.738,30.001 15.043,30.001 C23.348,30.001 30.080,23.288 30.080,15.007 C30.080,6.723 23.348,0.011 15.043,0.011 L15.043,0.011 ZM22.671,16.627 C23.372,17.310 24.113,17.954 24.742,18.705 C25.020,19.039 25.283,19.384 25.484,19.772 C25.770,20.323 25.511,20.930 25.016,20.963 L21.935,20.961 C21.140,21.027 20.506,20.708 19.972,20.166 C19.546,19.733 19.150,19.271 18.740,18.824 C18.572,18.641 18.396,18.469 18.186,18.332 C17.766,18.060 17.400,18.143 17.160,18.581 C16.915,19.026 16.859,19.519 16.836,20.015 C16.802,20.738 16.583,20.929 15.854,20.961 C14.297,21.034 12.818,20.800 11.445,20.016 C10.234,19.325 9.295,18.350 8.478,17.246 C6.887,15.097 5.669,12.734 4.574,10.306 C4.327,9.759 4.507,9.465 5.113,9.454 C6.118,9.435 7.123,9.437 8.130,9.453 C8.538,9.459 8.809,9.692 8.966,10.078 C9.510,11.412 10.176,12.680 11.011,13.856 C11.233,14.169 11.460,14.482 11.783,14.703 C12.141,14.947 12.413,14.865 12.581,14.469 C12.688,14.217 12.734,13.946 12.758,13.676 C12.838,12.749 12.849,11.823 12.708,10.899 C12.623,10.322 12.297,9.949 11.720,9.840 C11.425,9.784 11.469,9.675 11.612,9.508 C11.860,9.217 12.093,9.038 12.557,9.038 L16.039,9.038 C16.587,9.146 16.709,9.391 16.784,9.941 L16.787,13.799 C16.781,14.012 16.894,14.644 17.279,14.785 C17.587,14.885 17.789,14.640 17.974,14.444 C18.808,13.562 19.403,12.520 19.935,11.440 C20.171,10.965 20.373,10.471 20.570,9.979 C20.716,9.613 20.944,9.433 21.358,9.441 L24.709,9.444 C24.808,9.444 24.909,9.446 25.005,9.462 C25.570,9.558 25.725,9.800 25.550,10.350 C25.275,11.213 24.741,11.933 24.218,12.654 C23.659,13.426 23.061,14.171 22.507,14.947 C21.998,15.655 22.038,16.012 22.671,16.627 L22.671,16.627 Z" class=""/>
</svg>
