<?xml version="1.0" encoding="utf-8"?>
<!-- Generator: Adobe Illustrator 19.0.0, SVG Export Plug-In . SVG Version: 6.00 Build 0)  -->
<svg version="1.1" id="Layer_1" xmlns="http://www.w3.org/2000/svg" xmlns:xlink="http://www.w3.org/1999/xlink" x="0px" y="0px"
	 width="24.4px" height="24px" viewBox="-293 385 24.4 24" style="enable-background:new -293 385 24.4 24;" xml:space="preserve">
<path style="fill:#FFFFFF;" d="M-280.8,385c-6.7,0-12.2,5.4-12.2,12c0,6.6,5.5,12,12.2,12s12.2-5.4,12.2-12
	C-268.6,390.4-274.1,385-280.8,385L-280.8,385z M-274.6,398.3c0.6,0.5,1.2,1.1,1.7,1.7c0.2,0.3,0.4,0.5,0.6,0.9c0.2,0.4,0,0.9-0.4,1
	l-2.5,0c-0.6,0.1-1.2-0.2-1.6-0.6c-0.3-0.3-0.7-0.7-1-1.1c-0.1-0.1-0.3-0.3-0.4-0.4c-0.3-0.2-0.6-0.2-0.8,0.2
	c-0.2,0.4-0.2,0.8-0.3,1.1c0,0.6-0.2,0.7-0.8,0.8c-1.3,0.1-2.5-0.1-3.6-0.8c-1-0.6-1.7-1.3-2.4-2.2c-1.3-1.7-2.3-3.6-3.2-5.6
	c-0.2-0.4-0.1-0.7,0.4-0.7c0.8,0,1.6,0,2.4,0c0.3,0,0.6,0.2,0.7,0.5c0.4,1.1,1,2.1,1.7,3c0.2,0.2,0.4,0.5,0.6,0.7
	c0.3,0.2,0.5,0.1,0.6-0.2c0.1-0.2,0.1-0.4,0.1-0.6c0.1-0.7,0.1-1.5,0-2.2c-0.1-0.5-0.3-0.8-0.8-0.8c-0.2,0-0.2-0.1-0.1-0.3
	c0.2-0.2,0.4-0.4,0.8-0.4h2.8c0.4,0.1,0.5,0.3,0.6,0.7l0,3.1c0,0.2,0.1,0.7,0.4,0.8c0.2,0.1,0.4-0.1,0.6-0.3
	c0.7-0.7,1.2-1.5,1.6-2.4c0.2-0.4,0.4-0.8,0.5-1.2c0.1-0.3,0.3-0.4,0.6-0.4l2.7,0c0.1,0,0.2,0,0.2,0c0.5,0.1,0.6,0.3,0.4,0.7
	c-0.2,0.7-0.7,1.3-1.1,1.8c-0.5,0.6-0.9,1.2-1.4,1.8C-275.2,397.5-275.1,397.8-274.6,398.3L-274.6,398.3z"/>
</svg>
