<svg xmlns="http://www.w3.org/2000/svg" width="150" height="150" viewBox="0 0 150 150"><circle cx="74.759" cy="75" r="50.5" fill="#FDCA00"/><g fill="#3C3C3C"><path d="M93.66 56.1c-5.05-5.05-11.762-7.83-18.902-7.83s-13.852 2.78-18.9 7.83-7.83 11.76-7.83 18.9 2.78 13.852 7.83 18.9c5.048 5.05 11.76 7.83 18.9 7.83s13.852-2.78 18.9-7.83c5.05-5.05 7.83-11.76 7.83-18.9s-2.78-13.853-7.83-18.9zM74.757 99.548C61.222 99.548 50.21 88.535 50.21 75S61.224 50.452 74.76 50.452 99.306 61.465 99.306 75 88.294 99.548 74.758 99.548z"/><path d="M65.573 57.03c2.862-1.47 5.952-2.213 9.185-2.213s6.323.744 9.185 2.213c.16.082.33.12.497.12.396 0 .778-.216.972-.592.275-.537.063-1.194-.472-1.47-3.173-1.628-6.6-2.454-10.182-2.454-3.583 0-7.008.826-10.18 2.454-.537.275-.75.933-.473 1.47.275.536.933.748 1.468.472zM94.67 64.818c-.276-.535-.933-.747-1.47-.473-.536.276-.748.934-.472 1.47 1.47 2.86 2.214 5.952 2.214 9.185s-.745 6.323-2.214 9.185c-.275.536-.064 1.193.472 1.47.16.08.33.12.498.12.396 0 .778-.217.97-.594 1.63-3.17 2.456-6.597 2.456-10.18s-.826-7.01-2.455-10.182zM83.943 92.97c-2.862 1.47-5.952 2.213-9.185 2.213s-6.323-.744-9.185-2.213c-.536-.275-1.193-.063-1.468.472-.275.537-.064 1.194.472 1.47 3.173 1.628 6.6 2.454 10.18 2.454 3.584 0 7.01-.826 10.182-2.454.536-.275.747-.934.47-1.47-.273-.536-.93-.748-1.467-.472zM54.575 75c0-3.232.745-6.323 2.214-9.185.274-.536.063-1.193-.473-1.47-.537-.274-1.194-.062-1.47.473-1.628 3.173-2.454 6.6-2.454 10.182s.826 7.01 2.455 10.182c.193.377.575.593.97.593.17 0 .34-.04.5-.12.535-.276.747-.934.47-1.47-1.468-2.862-2.213-5.953-2.213-9.185zM79.387 75L91.73 62.657c.426-.426.426-1.117 0-1.543l-3.086-3.086c-.426-.426-1.117-.426-1.542 0L74.758 70.37 62.415 58.03c-.426-.426-1.117-.426-1.543 0l-3.086 3.086c-.426.426-.426 1.117 0 1.543L70.13 75 57.786 87.343c-.426.426-.426 1.117 0 1.543l3.086 3.086c.426.426 1.117.426 1.542 0L74.758 79.63 87.1 91.97c.214.213.494.32.772.32s.558-.107.77-.32l3.087-3.086c.425-.426.425-1.117 0-1.543L79.386 75zm8.486 14.657L75.53 77.314c-.213-.213-.492-.32-.77-.32s-.56.107-.772.32L61.644 89.657 60.1 88.115 72.445 75.77c.426-.426.426-1.116 0-1.542L60.1 61.885l1.544-1.542 12.343 12.343c.426.426 1.117.426 1.543 0l12.343-12.343 1.543 1.542L77.073 74.23c-.426.425-.426 1.115 0 1.542l12.343 12.344-1.543 1.54z"/></g></svg>