<svg xmlns="http://www.w3.org/2000/svg" width="150" height="150" viewBox="0 0 150 150"><circle cx="75.002" cy="75" r="50.5" fill="#FDCA00"/><g fill="#3C3C3C"><path d="M93.11 56.89c-4.837-4.837-11.27-7.502-18.11-7.502s-13.272 2.665-18.11 7.502c-4.835 4.838-7.5 11.27-7.5 18.11s2.665 13.272 7.5 18.11c4.838 4.836 11.27 7.502 18.11 7.502s13.273-2.666 18.11-7.502c4.836-4.838 7.502-11.27 7.502-18.11s-2.666-13.272-7.502-18.11zM75 98.57c-12.996 0-23.57-10.573-23.57-23.57S62.004 51.43 75 51.43c12.997 0 23.57 10.573 23.57 23.57S87.998 98.57 75 98.57z"/><path d="M75 53.61c-7.26 0-13.162 5.902-13.162 13.16 0 1.97 1.604 3.572 3.57 3.572 1.97 0 3.57-1.602 3.57-3.57 0-3.32 2.702-6.022 6.022-6.022 3.32 0 6.02 2.7 6.02 6.02 0 3.35-2.7 6.072-6.02 6.072-1.968 0-3.57 1.603-3.57 3.57v7.02c0 1.97 1.603 3.57 3.57 3.57 1.97 0 3.572-1.6 3.572-3.57V79.49c2.58-.732 4.905-2.262 6.618-4.364 1.917-2.35 2.973-5.318 2.973-8.354 0-7.26-5.904-13.163-13.163-13.163zm2.337 24.087c-.47.1-.806.516-.806.997v4.738c0 .844-.686 1.53-1.53 1.53-.843 0-1.53-.687-1.53-1.53v-7.02c0-.843.687-1.53 1.53-1.53 4.445 0 8.062-3.638 8.062-8.11 0-4.446-3.616-8.063-8.062-8.063s-8.06 3.615-8.06 8.06c0 .845-.688 1.53-1.53 1.53s-1.532-.686-1.532-1.53c0-6.132 4.99-11.12 11.122-11.12 6.133 0 11.123 4.988 11.123 11.12 0 5.234-3.695 9.828-8.786 10.927zM75 88.84c-1.968 0-3.57 1.603-3.57 3.57v.41c0 1.968 1.603 3.57 3.57 3.57 1.97 0 3.572-1.603 3.572-3.57v-.41c0-1.968-1.602-3.57-3.572-3.57zm1.53 3.98c0 .844-.686 1.53-1.53 1.53-.843 0-1.53-.687-1.53-1.53v-.41c0-.843.687-1.528 1.53-1.528.845 0 1.53.686 1.53 1.53v.408zM55.417 79.078C55.14 77.748 55 76.373 55 75c0-.563-.456-1.02-1.02-1.02s-1.02.456-1.02 1.02c0 1.513.153 3.023.457 4.493.102.48.525.813 1 .813.068 0 .136-.007.207-.022.553-.113.907-.653.793-1.206zM67.04 93.353c-4.49-1.95-8.103-5.468-10.174-9.906-.238-.51-.845-.732-1.356-.494s-.73.846-.492 1.356c2.28 4.89 6.263 8.766 11.21 10.914.132.058.27.085.404.085.395 0 .77-.23.937-.615.223-.517-.013-1.118-.53-1.342z"/></g></svg>