<svg xmlns="http://www.w3.org/2000/svg" width="150" height="150" viewBox="0 0 150 150"><circle cx="75.001" cy="75" r="50.5" fill="#FDCA00"/><g fill="#3C3C3C"><path d="M57.222 83.33c0 9.803 7.975 17.778 17.778 17.778 9.802 0 17.777-7.976 17.777-17.777 0-9.802-7.975-17.777-17.777-17.777-9.803 0-17.778 7.975-17.778 17.778zm33.283-1.113l-.034-.002h-2.38c-.615 0-1.115.5-1.115 1.116s.5 1.116 1.116 1.116h2.38c.012 0 .023 0 .035-.002-.546 7.686-6.705 13.845-14.39 14.392v-2.414c0-.616-.5-1.115-1.116-1.115s-1.117.5-1.117 1.115v2.414c-7.685-.547-13.842-6.705-14.39-14.39h2.414c.616 0 1.116-.5 1.116-1.115s-.5-1.115-1.116-1.115h-2.414c.548-7.685 6.705-13.842 14.39-14.39v2.414c0 .615.5 1.115 1.116 1.115.615 0 1.115-.5 1.115-1.116v-2.415c7.686.548 13.844 6.706 14.39 14.392z"/><path d="M76.553 80.2c-.468-.233-.995-.365-1.553-.365-1.538 0-2.846.998-3.312 2.38H70.24c-.616 0-1.116.5-1.116 1.116s.5 1.116 1.116 1.116h1.448c.05.15.11.297.18.438l-1.95 1.95c-.435.436-.435 1.143 0 1.578.22.218.504.326.79.326.286 0 .57-.108.79-.326l1.95-1.95c.468.232.995.364 1.553.364 1.54 0 2.847-.998 3.313-2.38h5.02c.615 0 1.115-.5 1.115-1.116 0-.616-.5-1.115-1.116-1.115h-5.02c-.05-.15-.11-.297-.18-.438l5.99-5.988c.435-.438.435-1.144 0-1.58-.437-.435-1.143-.435-1.58 0l-5.99 5.99zM75 84.595c-.698 0-1.265-.566-1.265-1.264s.567-1.264 1.265-1.264c.697 0 1.264.567 1.264 1.265s-.567 1.265-1.264 1.265z"/><path d="M100.587 59.92c-.324-1.208-1.1-2.218-2.184-2.844l-5.218-3.013.632-1.095c.308-.534.125-1.217-.408-1.524s-1.217-.126-1.525.408l-.632 1.095-3.237-1.868v-2.263c0-4.553-3.704-8.257-8.256-8.257h-9.52c-4.554 0-8.257 3.704-8.257 8.257v2.262l-3.236 1.867-.632-1.095c-.308-.534-.99-.716-1.524-.408-.532.308-.715.99-.407 1.524l.632 1.095-5.218 3.013c-1.084.626-1.86 1.636-2.184 2.845-.324 1.21-.158 2.473.468 3.558l1.786 3.092c.308.533.805.915 1.4 1.074.198.054.4.08.6.08.4 0 .794-.105 1.15-.31l7.28-4.203.686 1.19c-6.206 4.02-10.32 11.003-10.32 18.93 0 7.964 4.15 14.977 10.404 18.986l-3.116 5.453c-.306.534-.12 1.216.415 1.52.175.1.365.148.553.148.387 0 .764-.202.97-.562l3.115-5.45c3.064 1.56 6.53 2.442 10.198 2.442 3.59 0 6.985-.845 10-2.344l3.334 5.385c.21.34.576.528.95.528.2 0 .403-.054.586-.167.524-.324.686-1.012.36-1.535l-3.282-5.303c6.356-3.99 10.59-11.06 10.59-19.103 0-7.93-4.114-14.913-10.32-18.932l.688-1.19 7.28 4.203c.354.206.75.31 1.148.31.2 0 .402-.024.6-.078.596-.16 1.093-.54 1.4-1.074l1.786-3.092c.625-1.083.79-2.345.467-3.555zM53.7 65.48c-.006.004-.026.016-.056.008s-.042-.028-.045-.035l-1.786-3.092c-.328-.566-.415-1.228-.245-1.86.168-.635.575-1.164 1.143-1.49l12.368-7.143c.38-.218.8-.33 1.225-.33.213 0 .428.028.64.085.632.17 1.162.576 1.49 1.144l1.785 3.092c.02.036.008.082-.027.103L53.7 65.48zm41.606 17.85c0 11.198-9.11 20.307-20.306 20.307-11.197 0-20.307-9.108-20.307-20.306S63.803 63.025 75 63.025s20.306 9.11 20.306 20.307zM85.288 63.28c-2.774-1.43-5.88-2.3-9.172-2.46v-6.127h.074c.616 0 1.116-.5 1.116-1.116s-.5-1.115-1.116-1.115h-2.38c-.616 0-1.115.5-1.115 1.115s.5 1.116 1.115 1.116h.075v6.127c-3.29.16-6.397 1.03-9.172 2.46l-.685-1.186 7.28-4.202c1.1-.636 1.478-2.05.843-3.15l-1.784-3.092c-.626-1.084-1.636-1.86-2.845-2.184-1.116-.3-2.28-.18-3.305.335v-.983c0-3.322 2.703-6.025 6.025-6.025h9.52c3.323 0 6.026 2.703 6.026 6.025v.984c-1.025-.513-2.188-.634-3.306-.334-1.21.324-2.22 1.1-2.845 2.184l-1.785 3.092c-.636 1.102-.257 2.515.844 3.15l7.28 4.202-.686 1.187zm12.898-.92L96.4 65.454c-.003.007-.014.027-.044.035-.03.01-.05-.004-.057-.008l-16.49-9.52c-.037-.02-.05-.066-.028-.103l1.785-3.092c.328-.567.857-.974 1.49-1.144.212-.056.427-.084.64-.084.425 0 .845.112 1.223.33l12.368 7.14c.568.33.974.858 1.144 1.492.17.634.082 1.296-.246 1.863z"/></g><path d="M107.34 62.93c-.54 0-.983-.427-1-.968-.24-7.71-6.815-10.86-7.095-10.99-.5-.233-.718-.827-.486-1.328s.825-.72 1.323-.488c.326.15 7.977 3.772 8.256 12.744.016.552-.418 1.014-.97 1.03h-.03z" fill="#3C3C3C"/><path d="M112.828 64.994c-.538 0-.982-.428-1-.97-.442-14.2-12.893-20.095-13.02-20.152-.5-.23-.72-.824-.49-1.326.23-.502.827-.723 1.327-.49.137.062 13.702 6.48 14.183 21.907.017.552-.417 1.014-.968 1.03h-.032zM42.426 62.93h-.032c-.552-.017-.985-.478-.968-1.03.28-8.972 7.93-12.595 8.256-12.744.5-.23 1.095-.01 1.326.49s.012 1.094-.488 1.325c-.28.132-6.855 3.28-7.095 10.992-.017.54-.46.97-1 .97z" fill="#3C3C3C"/><path d="M36.938 64.994h-.032c-.552-.018-.985-.48-.968-1.03.48-15.427 14.045-21.846 14.183-21.908.502-.23 1.095-.012 1.326.49s.013 1.094-.488 1.326c-.126.058-12.58 5.99-13.02 20.153-.02.54-.462.97-1 .97z" fill="#3C3C3C"/></svg>