<svg xmlns="http://www.w3.org/2000/svg" width="150" height="150" viewBox="0 0 150 150"><circle cx="75.425" cy="75" r="50.5" fill="#FDCA00"/><g fill="#3C3C3C"><path d="M104.46 66.42c-.58-10.874-10.544-19.56-22.706-19.56-4.432 0-8.592 1.248-12.074 3.416-2.863-3.52-7.135-5.582-11.738-5.582-8.355 0-15.15 6.797-15.15 15.15 0 2.902.822 5.725 2.385 8.16.918 1.44 2.096 2.717 3.44 3.775-.263 1.022-.415 2.1-.415 3.216 0 6.273 4.55 10.824 10.824 10.824v-2.162c-5.1 0-8.654-3.56-8.654-8.662 0-5.37 3.883-9.74 8.654-9.74h3.06l.17-.88c1.67-8.896 9.872-15.355 19.5-15.355 11.337 0 20.563 8.257 20.563 18.403v1.084h1.083c3.826 0 6.494 4.56 6.494 8.656 0 3.94-2.553 6.494-6.494 6.494v2.162c5.094 0 8.656-3.558 8.656-8.657 0-4.86-3.015-10.045-7.6-10.742zm-44.146-3.323h-1.29c-4.2 0-7.837 2.648-9.634 6.5-.918-.81-1.738-1.732-2.395-2.76-1.336-2.082-2.04-4.502-2.04-6.992 0-7.16 5.823-12.984 12.985-12.984 3.89 0 7.5 1.708 9.957 4.642-3.74 2.874-6.48 6.9-7.583 11.595zm0 0M44.957 94.483h32.47c2.384 0 4.327 1.94 4.327 4.328s-1.943 4.33-4.326 4.33c-2.39 0-4.334-1.94-4.334-4.33h-2.162c0 3.583 2.912 6.495 6.496 6.495 3.578 0 6.488-2.912 6.488-6.494 0-3.583-2.91-6.495-6.488-6.495h-32.47v2.168zm0 0"/><path d="M91.494 87.987H47.12v2.166h44.374c3.584 0 6.496-2.916 6.496-6.494 0-3.585-2.912-6.495-6.496-6.495-3.582 0-6.494 2.91-6.494 6.494h2.168c0-2.39 1.938-4.33 4.326-4.33s4.33 1.94 4.33 4.33-1.94 4.327-4.33 4.327zm0 0"/></g></svg>