<svg xmlns="http://www.w3.org/2000/svg" width="150" height="150" viewBox="0 0 150 150"><circle cx="75.452" cy="75" r="50.5" fill="#FDCA00"/><path d="M112.465 75c0-2.376-1.638-4.36-3.84-4.927-.198-17.2-5.253-27.91-28.245-28.242-.565-2.202-2.552-3.845-4.93-3.845-2.377 0-4.363 1.643-4.93 3.846-22.993.333-28.046 11.042-28.245 28.243-2.2.566-3.84 2.55-3.84 4.926 0 2.376 1.64 4.36 3.84 4.927.2 17.2 5.254 27.91 28.246 28.242.566 2.202 2.553 3.845 4.93 3.845 2.378 0 4.364-1.643 4.93-3.846 22.993-.333 28.047-11.042 28.245-28.243 2.202-.567 3.84-2.55 3.84-4.928zm-6.39-4.92c-.563.145-1.095.368-1.564.685-.318-2.207-.916-4.36-1.73-6.44-.01-.028-.005-.06-.018-.09-.014-.034-.042-.058-.06-.09-.93-2.32-2.13-4.548-3.657-6.61-3.1-4.19-7.172-7.377-11.82-9.406-.027-.015-.046-.04-.074-.052-.032-.016-.067-.01-.102-.02-2.3-.987-4.726-1.712-7.265-2.09-.038-.007-.073-.007-.108-.013.32-.47.547-1.006.695-1.57 20.984.31 25.514 9.67 25.704 25.694zM86.452 99.432l-3.28-8.326c1.01-.488 1.986-1.062 2.908-1.744 2.212-1.637 3.962-3.723 5.198-6.092l8.216 3.57c-1.862 3.792-4.602 7.116-8.096 9.702-1.558 1.156-3.22 2.11-4.945 2.89zm-14.96 2.078c-1.917-.286-3.767-.786-5.54-1.454l3.564-8.2c1.06.37 2.16.65 3.295.82.894.132 1.786.198 2.675.198 1.814 0 3.6-.283 5.312-.822l3.278 8.322c-3.997 1.363-8.285 1.777-12.584 1.137zM53.908 90.95c-1.154-1.56-2.107-3.22-2.89-4.945l8.32-3.28c.487 1.01 1.068 1.987 1.75 2.91 1.638 2.208 3.723 3.958 6.094 5.196l-3.57 8.214c-3.793-1.86-7.117-4.604-9.703-8.096zm10.54-40.38l3.28 8.32c-1.01.487-1.986 1.067-2.91 1.75-2.21 1.636-3.96 3.722-5.195 6.09l-8.215-3.57c1.86-3.79 4.602-7.116 8.096-9.702 1.56-1.154 3.22-2.107 4.945-2.887zm10.946-2.376h.014c.015 0 .03.004.045.004l.02-.002c1.306.004 2.62.1 3.936.297 1.918.286 3.768.786 5.54 1.454l-3.562 8.2c-1.062-.37-2.162-.65-3.296-.82-2.72-.403-5.433-.167-7.98.636l-3.288-8.342c2.747-.935 5.636-1.426 8.57-1.426zm21.6 10.86c1.154 1.56 2.108 3.22 2.89 4.945l-8.32 3.28c-.487-1.01-1.067-1.985-1.75-2.907-1.637-2.21-3.723-3.96-6.093-5.197l3.57-8.215c3.794 1.86 7.118 4.602 9.704 8.094zm3.513 25.445l-8.2-3.562c.37-1.06.648-2.162.818-3.297.406-2.72.168-5.432-.633-7.98l8.335-3.285c1.365 3.998 1.776 8.285 1.136 12.584-.287 1.917-.786 3.77-1.454 5.54zm-19.29 4.682c-.056.01-.112.005-.167.028-.066.025-.112.074-.17.11-2.425.923-5.053 1.228-7.692.83-4.046-.605-7.616-2.747-10.048-6.036-.788-1.062-1.41-2.213-1.893-3.408-.01-.033-.005-.068-.018-.102-.017-.04-.05-.064-.067-.1-.945-2.445-1.26-5.102-.862-7.764.605-4.047 2.747-7.617 6.036-10.05 1.09-.806 2.263-1.446 3.49-1.933h.007c.003-.002.004-.004.006-.004 1.77-.7 3.655-1.07 5.576-1.07.76 0 1.526.056 2.294.17 1.295.194 2.535.562 3.71 1.058.043.025.072.06.117.08.053.023.106.018.158.033 2.383 1.062 4.47 2.712 6.063 4.866 2.434 3.287 3.442 7.326 2.84 11.373-.2 1.323-.577 2.59-1.092 3.79-.007.018-.022.027-.03.045-.01.018-.006.04-.013.06-1.058 2.42-2.72 4.54-4.9 6.153-1.046.777-2.174 1.39-3.348 1.87zM48.94 71.04c.286-1.918.786-3.766 1.454-5.54l8.2 3.563c-.37 1.06-.65 2.162-.818 3.297-.407 2.72-.17 5.432.632 7.98l-8.33 3.285C48.71 79.63 48.3 75.343 48.94 71.042zm26.51-30.504c1.41 0 2.553 1.146 2.553 2.553 0 1.41-1.144 2.554-2.552 2.554s-2.553-1.145-2.553-2.553c0-1.405 1.146-2.552 2.554-2.552zm-4.918 3.846c.146.56.368 1.09.684 1.557-2.21.32-4.363.917-6.446 1.733-.027.01-.056.004-.084.016-.033.013-.055.038-.085.056-2.322.928-4.552 2.13-6.616 3.66-4.187 3.102-7.377 7.172-9.405 11.82-.015.027-.04.045-.052.074-.014.033-.01.068-.02.104-.986 2.3-1.712 4.725-2.09 7.266-.006.035-.006.072-.013.107-.474-.322-1.01-.55-1.577-.697.19-16.024 4.72-25.384 25.704-25.696zM40.99 75c0-1.407 1.144-2.552 2.55-2.552 1.41 0 2.555 1.145 2.555 2.55 0 1.41-1.146 2.554-2.554 2.554-1.406 0-2.55-1.145-2.55-2.553zm3.837 4.92c.562-.145 1.094-.368 1.563-.685.318 2.207.915 4.36 1.73 6.44.01.03.005.06.02.09.017.046.05.083.07.124.93 2.308 2.126 4.524 3.645 6.577 3.1 4.188 7.173 7.377 11.822 9.404.026.015.044.04.072.052.032.016.065.01.1.02 2.3.985 4.728 1.712 7.268 2.09.035.007.07.01.108.013-.32.47-.547 1.006-.694 1.572-20.984-.313-25.515-9.673-25.705-25.696zm30.624 29.542c-1.407 0-2.553-1.145-2.553-2.553 0-1.4 1.13-2.536 2.525-2.552.03 0 .06.004.088.004 1.38.033 2.492 1.16 2.492 2.547 0 1.407-1.143 2.552-2.55 2.552zm4.92-3.844c-.148-.564-.375-1.098-.693-1.568 2.23-.322 4.405-.904 6.5-1.73.013-.004.025-.004.038-.006.01-.004.016-.014.025-.018 2.347-.932 4.593-2.158 6.676-3.7 4.18-3.093 7.367-7.157 9.396-11.796.02-.035.046-.06.06-.098.016-.033.012-.07.023-.104.985-2.3 1.71-4.725 2.09-7.266.004-.037.004-.072.01-.107.475.322 1.01.55 1.578.697-.19 16.022-4.72 25.382-25.703 25.696zm26.99-28.066c-1.41 0-2.554-1.145-2.554-2.553 0-1.407 1.145-2.552 2.553-2.552 1.406 0 2.552 1.145 2.552 2.55 0 1.41-1.145 2.554-2.553 2.554z" fill="#3C3C3C"/></svg>