<svg xmlns="http://www.w3.org/2000/svg" width="150" height="150" viewBox="0 0 150 150"><circle cx="74.781" cy="75" r="50.5" fill="#FDCA00"/><g fill="#3C3C3C"><path d="M104.22 93.482c-1.35 0-2.074.467-2.655.843-.48.312-.8.517-1.55.517-.752 0-1.07-.206-1.55-.517-.582-.376-1.305-.843-2.657-.843s-2.075.467-2.655.843c-.448.29-.755.487-1.4.513-3.977-4.854-9.727-7.734-15.967-8.015-.226-8.58-3.365-16.826-8.907-23.365.003-.204.006-.413.004-.63l9.854 1.65c.056.01.112.015.168.015.23 0 .456-.078.638-.225.227-.182.364-.45.38-.74.138-2.604-2.024-6.278-5.028-8.546-2.223-1.68-4.49-2.248-6.383-1.6-.365.126-.713.28-1.04.46-.886-.34-1.817-.515-2.776-.515-3.13 0-5.936 1.877-7.147 4.724-.356.114-.708.256-1.052.433-1.78.91-2.947 2.937-3.285 5.703-.453 3.735.688 7.843 2.656 9.552.186.162.423.25.667.25.043 0 .086-.002.13-.008.286-.037.546-.195.71-.434l4.047-5.892c.906 1.105 2.47 2.58 4.582 2.964.06.012.12.017.183.017.206 0 .41-.064.582-.185.065-.046.172-.13.305-.27 1.354 2.825 3.85 9.308 3.178 17.602-4.05 1.256-7.676 3.678-10.443 7.055-.646-.025-.953-.223-1.4-.513-.582-.376-1.305-.843-2.656-.843s-2.074.468-2.655.844c-.48.31-.798.517-1.55.517s-1.067-.205-1.55-.516c-.58-.376-1.303-.843-2.654-.843-.562 0-1.02.458-1.02 1.02s.457 1.02 1.02 1.02c.75 0 1.068.205 1.55.517.58.375 1.304.842 2.655.842s2.075-.468 2.656-.843c.48-.312.8-.517 1.55-.517s1.068.205 1.55.517c.58.375 1.304.842 2.655.842s2.075-.468 2.657-.843c.48-.312.8-.517 1.55-.517s1.07.205 1.55.517c.58.375 1.305.842 2.656.842s2.074-.468 2.654-.843c.482-.312.8-.517 1.55-.517.752 0 1.07.205 1.55.517.582.375 1.305.842 2.656.842s2.074-.468 2.655-.843c.48-.312.8-.517 1.55-.517s1.07.205 1.55.517c.58.375 1.304.842 2.655.842 1.353 0 2.076-.468 2.656-.843.48-.312.798-.517 1.55-.517.75 0 1.068.205 1.55.517.58.375 1.304.842 2.655.842s2.074-.468 2.656-.843c.48-.312.8-.517 1.55-.517s1.07.205 1.552.517c.58.375 1.304.842 2.655.842 1.353 0 2.075-.468 2.656-.843.48-.312.8-.517 1.55-.517.563 0 1.02-.456 1.02-1.02s-.46-1.018-1.022-1.018zm-37.048-38.17c1.664-.57 3.53.567 4.496 1.296 1.978 1.494 3.6 3.798 4.08 5.64L63.762 60.24c.154-1.364.793-4.033 3.41-4.93zm-4.477.053c.288 0 .572.022.854.064-.58.704-1.04 1.55-1.364 2.522-.14.42-.24.826-.313 1.202-.32-.207-.685-.417-1.083-.608-.926-.444-1.853-.7-2.764-.774 1.056-1.482 2.783-2.407 4.67-2.407zm-8.238 15.92c-.992-1.625-1.52-4.393-1.223-6.854.146-1.2.625-3.332 2.19-4.133.663-.34 1.357-.51 2.075-.51.76 0 1.546.19 2.354.57.607.286 1.116.63 1.483.91l-6.88 10.017zm9.36-2.813c-1.527-.507-2.65-1.842-3.18-2.582l2.53-3.684 1.674.28c.06 3.68-.633 5.346-1.024 5.986zm2.424-.477c.145-.452.274-.98.38-1.6 4.424 5.887 6.92 13.026 7.127 20.43-1.157.053-2.298.195-3.413.423.63-10.098-3.06-17.422-4.093-19.253zm18.5 26.33c-.48.31-.8.517-1.55.517s-1.07-.206-1.55-.517c-.582-.376-1.305-.843-2.656-.843s-2.074.467-2.655.843c-.482.31-.8.517-1.55.517s-1.07-.206-1.55-.517c-.582-.376-1.305-.843-2.656-.843s-2.074.467-2.656.843c-.48.31-.8.517-1.55.517s-1.07-.206-1.55-.517c-.58-.376-1.305-.843-2.655-.843-.06 0-.116.003-.173.005 3.55-2.99 8.037-4.65 12.79-4.65s9.242 1.66 12.792 4.65c-.06-.002-.116-.004-.177-.004-1.35 0-2.074.466-2.655.842z"/><path d="M81.643 75.63c.02 1.593 1.32 2.884 2.918 2.884h10.323c1.162 0 2.106-.944 2.106-2.105 0-.04.03-.07.066-.07h1.63c1.61 0 2.92-1.31 2.92-2.92 0-1.61-1.31-2.92-2.92-2.92h-5.89c.012-.157.018-.315.018-.476 0-3.857-3.14-6.994-6.994-6.994-3.857 0-6.996 3.137-6.996 6.994 0 2.24 1.044 4.29 2.82 5.607zm17.927-2.21c0 .487-.396.883-.884.883h-1.63c-1.16 0-2.105.944-2.105 2.105 0 .037-.03.067-.067.067H84.56c-.485 0-.882-.396-.882-.884 0-.484.396-.882.883-.882h1.632c1.16 0 2.104-.942 2.104-2.104 0-.037.03-.068.067-.068h10.323c.488 0 .884.398.884.883zm-13.75-8.354c2.732 0 4.957 2.224 4.957 4.957 0 .16-.01.318-.025.477h-2.39c-1.16 0-2.104.943-2.104 2.104 0 .038-.03.068-.066.068h-1.63c-.852 0-1.616.367-2.15.95-.983-.926-1.55-2.21-1.55-3.6 0-2.732 2.224-4.956 4.958-4.956z"/></g></svg>