<svg xmlns="http://www.w3.org/2000/svg" width="150" height="150" viewBox="0 0 150 150"><circle cx="75" cy="75" r="50.5" fill="#FDCA00"/><g fill="#3C3C3C"><path d="M107.612 107.73c-2.058-5.748-7.543-9.61-13.65-9.61-1.586 0-3.14.255-4.627.756-3.165-4.112-7.99-6.618-13.17-6.836-1.46-3.75-.655-5.706.27-7.952.955-2.324 2.03-4.94.346-9.415 2.885-1.855 5.287-4.203 6.982-6.83 1.93-2.997 2.95-6.377 2.95-9.777 0-1.447-.187-2.89-.548-4.303-.01-.08-.032-.155-.06-.23-.493-1.822-1.28-3.59-2.342-5.24-1.85-2.87-4.54-5.403-7.78-7.328l-.01-.007c-.078-.045-.16-.08-.247-.104l-.032-.008c-.033-.01-.066-.015-.1-.02l-.036-.007c-.042-.005-.084-.01-.127-.01h-.01c-.04 0-.084.005-.125.01-.012 0-.024.004-.036.005-.035.006-.068.012-.1.02l-.033.01c-.087.023-.17.06-.246.103l-.012.007c-3.24 1.925-5.93 4.46-7.778 7.328-1.062 1.65-1.848 3.414-2.34 5.235-.03.077-.052.158-.063.24-.36 1.41-.548 2.853-.548 4.298 0 3.4 1.02 6.78 2.95 9.776 1.79 2.774 4.366 5.235 7.467 7.137 1.634 3.962.81 5.967-.14 8.277-.914 2.22-1.936 4.71-.552 8.835-4.867.436-9.354 2.89-12.35 6.784-1.487-.5-3.04-.755-4.627-.755-6.107 0-11.592 3.862-13.65 9.61-.202.566.094 1.19.66 1.395.568.202 1.193-.092 1.397-.66.044-.123.09-.245.14-.366 1.845-4.68 6.398-7.796 11.454-7.796 1.593 0 3.145.3 4.61.894.474.19 1.015.03 1.306-.39 2.875-4.135 7.593-6.603 12.62-6.603s9.748 2.47 12.622 6.604c.29.418.833.58 1.305.388 1.467-.593 3.02-.894 4.613-.894 5.056 0 9.61 3.116 11.455 7.795.05.12.096.242.14.365.16.446.58.725 1.028.725.123 0 .246-.02.368-.064.564-.204.858-.83.656-1.397zM76.515 63.183l2.857-2.598c.446-.406.48-1.096.073-1.542-.405-.445-1.095-.48-1.54-.073l-1.39 1.265V43.91c3.675 2.6 6.203 5.948 7.336 9.654l-2.717 2.47c-.446.406-.48 1.097-.074 1.542.214.237.51.357.807.357.262 0 .525-.093.733-.283l1.79-1.627c.09.674.137 1.355.137 2.043 0 5.465-2.896 10.538-8.014 14.157v-9.04zm-2.182 9.04c-5.12-3.62-8.014-8.692-8.014-14.157 0-.688.047-1.37.137-2.043l7.876 7.16v9.04zm0-11.99l-7.337-6.67c1.133-3.706 3.66-7.056 7.337-9.655v16.324z"/><path d="M55.748 102.49c-.642 0-1.164.52-1.164 1.164 0 .642.52 1.164 1.164 1.164s1.164-.522 1.164-1.164c0-.642-.522-1.164-1.164-1.164zM85.427 102.49c-.643 0-1.165.52-1.165 1.164 0 .642.522 1.164 1.165 1.164.642 0 1.163-.522 1.163-1.164 0-.642-.52-1.164-1.163-1.164zM81.644 98.854c-.642 0-1.164.52-1.164 1.163s.522 1.164 1.164 1.164c.642 0 1.165-.52 1.165-1.163 0-.642-.524-1.163-1.166-1.163z"/></g></svg>