<svg xmlns="http://www.w3.org/2000/svg" width="150" height="150" viewBox="0 0 150 150"><circle cx="75.001" cy="74.999" r="50.5" fill="#FDCA00"/><g fill="#3C3C3C"><path d="M96.61 74.234c-2.7-4.002-6.15-7.076-8.922-9.547-2.485-2.213-4.676-4.166-5.227-5.853 1.157-.45 1.98-1.576 1.98-2.89 0-1.282-.782-2.384-1.892-2.856l2.292-8.993c.246-.868.09-1.67-.43-2.2-.523-.537-1.328-.712-2.208-.48l-.05.015c-.042.014-4.316 1.378-5.736 1.785-.923.265-2.542.266-3.467.004-1.436-.41-5.755-1.78-5.798-1.794-.016-.006-.033-.01-.05-.015-.88-.228-1.683-.053-2.206.482-.523.537-.678 1.346-.426 2.22l.01.03 2.91 8.974c-1.077.487-1.83 1.57-1.83 2.828 0 1.314.823 2.44 1.98 2.89-.552 1.688-2.743 3.64-5.228 5.854-2.773 2.47-6.223 5.545-8.92 9.547-3.183 4.717-4.73 9.79-4.73 15.508 0 5.157 2.072 9.888 5.834 13.322 4.03 3.68 9.66 5.623 16.28 5.623h8.448c6.62 0 12.25-1.944 16.28-5.623 3.76-3.435 5.833-8.166 5.833-13.322 0-5.72-1.545-10.792-4.727-15.51zM77.095 57.066h-8.433c-.618 0-1.122-.503-1.122-1.122 0-.618.503-1.12 1.12-1.122H81.336c.62 0 1.123.503 1.123 1.122s-.503 1.122-1.123 1.122h-4.24zM66.332 43.293c.047-.003.128 0 .25.03.408.13 4.408 1.395 5.826 1.8 1.278.363 3.28.362 4.556-.004 1.403-.403 5.36-1.665 5.765-1.796.118-.027.198-.03.246-.027.002.05-.003.137-.04.268-.004.01-.006.02-.008.028l-2.36 9.25h-3.242l.75-2.995c.132-.53-.19-1.068-.72-1.2-.53-.134-1.07.19-1.202.72l-.87 3.476h-.565l-.87-3.475c-.133-.53-.67-.855-1.2-.723-.53.133-.855.67-.722 1.2l.75 2.996h-3.294L66.37 43.55c-.035-.124-.04-.207-.038-.257zm27.837 58.31c-3.66 3.34-8.827 5.104-14.945 5.104h-8.45c-6.117 0-11.285-1.765-14.943-5.104-3.347-3.055-5.19-7.267-5.19-11.86 0-12.005 7.506-18.692 12.988-23.575 2.955-2.632 5.364-4.778 5.908-7.12h1.977l-.622 1.865c-.173.52.107 1.08.626 1.252.103.036.208.052.312.052.415 0 .8-.262.94-.677l.83-2.492H76.4l.83 2.492c.14.415.525.677.94.677.103 0 .208-.016.312-.052.52-.172.8-.732.626-1.252l-.62-1.865h1.976c.544 2.342 2.953 4.488 5.908 7.12 5.48 4.883 12.987 11.57 12.987 23.576-.002 4.592-1.844 8.804-5.19 11.86z"/><path d="M75 79.115c2.326 0 4.29 1.24 4.29 2.706 0 .547.445.99.99.99.548 0 .99-.443.99-.99 0-2.375-2.25-4.285-5.28-4.63v-1.18c0-.545-.443-.99-.99-.99-.547 0-.99.445-.99.99v1.18c-3.03.345-5.28 2.255-5.28 4.63 0 2.63 2.753 4.69 6.27 4.69 2.326 0 4.29 1.237 4.29 2.704 0 1.468-1.964 2.707-4.29 2.707s-4.29-1.238-4.29-2.706c0-.547-.445-.99-.99-.99-.548 0-.99.443-.99.99 0 2.377 2.25 4.286 5.28 4.63v1.18c0 .547.443.99.99.99.547 0 .99-.443.99-.99v-1.18c3.03-.344 5.28-2.253 5.28-4.63 0-2.628-2.753-4.687-6.27-4.687-2.326 0-4.29-1.24-4.29-2.706s1.964-2.705 4.29-2.705z"/><path d="M75 69.74c-8.7 0-15.777 7.078-15.777 15.778 0 8.698 7.078 15.776 15.777 15.776 8.7 0 15.777-7.078 15.777-15.776 0-8.7-7.077-15.777-15.777-15.777zm0 29.574c-7.607 0-13.796-6.19-13.796-13.796 0-7.608 6.188-13.798 13.796-13.798s13.796 6.19 13.796 13.798c0 7.607-6.19 13.796-13.796 13.796z"/><g><path d="M54.463 101.062c-.148-.163-.297-.31-.445-.46-1.935.622-4.082.95-6.408.95h-6.75c-4.89 0-9.02-1.41-11.943-4.078-2.674-2.44-4.146-5.808-4.146-9.477 0-9.595 6-14.938 10.378-18.84 2.362-2.103 4.286-3.818 4.722-5.69h1.58l-.498 1.49c-.138.416.086.864.5 1.002.083.027.168.04.25.04.332 0 .64-.21.75-.54l.665-1.992h2.235l.664 1.99c.11.333.42.542.75.542.083 0 .167-.013.25-.04.415-.14.64-.587.5-1.002l-.496-1.49h1.58c.435 1.87 2.36 3.587 4.722 5.69.76.677 1.57 1.4 2.388 2.18.375-.43.79-.76 1.23-1.013-.89-.854-1.764-1.635-2.567-2.35-1.986-1.77-3.736-3.33-4.176-4.678.924-.36 1.58-1.26 1.58-2.31 0-1.023-.623-1.904-1.51-2.282L52.1 51.52c.195-.695.07-1.335-.345-1.76-.418-.43-1.06-.568-1.764-.385-.012.006-.026.01-.04.013-.034.012-3.45 1.102-4.583 1.427-.737.21-2.032.212-2.77.003-1.146-.328-4.598-1.422-4.633-1.433l-.04-.012c-.703-.183-1.346-.043-1.764.386-.417.428-.542 1.073-.34 1.772l.008.024 2.325 7.17c-.86.39-1.462 1.256-1.462 2.26 0 1.05.658 1.95 1.582 2.31-.44 1.348-2.19 2.91-4.176 4.678-2.216 1.974-4.973 4.43-7.13 7.628-2.54 3.77-3.777 7.823-3.777 12.393 0 4.12 1.655 7.9 4.66 10.646 3.22 2.94 7.72 4.494 13.01 4.494h6.75c2.838 0 5.437-.46 7.744-1.328-.327-.207-.627-.453-.89-.744zm-5.165-39.176h-3.39H39.17c-.494 0-.897-.402-.897-.897 0-.494.4-.897.896-.897h10.126c.495 0 .897.402.897.896 0 .493-.4.896-.896.896zm-11.96-10.802c-.028-.1-.032-.165-.03-.205.037-.004.1 0 .198.022.326.104 3.522 1.116 4.655 1.44 1.022.29 2.622.288 3.642-.005 1.122-.32 4.282-1.33 4.607-1.434.094-.022.158-.025.196-.022.002.04-.003.11-.033.215l-.006.022-1.885 7.393H46.09l.598-2.394c.106-.425-.152-.854-.575-.96-.423-.106-.854.152-.96.576l-.693 2.777h-.453l-.694-2.778c-.106-.424-.536-.683-.96-.577-.422.106-.68.536-.575.96l.598 2.395h-2.63l-2.41-7.426z"/><path d="M44.234 79.504c1.858 0 3.428.99 3.428 2.162 0 .437.355.79.79.79.44 0 .793-.353.793-.79 0-1.898-1.798-3.425-4.22-3.7v-.94c0-.438-.354-.792-.79-.792-.44 0-.792.354-.792.79v.942c-2.422.275-4.22 1.802-4.22 3.7 0 2.1 2.2 3.746 5.01 3.746 1.86 0 3.43.99 3.43 2.16 0 1.175-1.57 2.164-3.43 2.164-1.858 0-3.428-.99-3.428-2.163 0-.437-.354-.79-.79-.79-.44 0-.793.354-.793.79 0 1.9 1.798 3.426 4.22 3.7v.942c0 .437.354.79.79.79.438 0 .792-.353.792-.79v-.94c2.42-.276 4.22-1.803 4.22-3.702 0-2.1-2.2-3.745-5.01-3.745-1.86 0-3.43-.99-3.43-2.162.002-1.172 1.57-2.162 3.43-2.162z"/><path d="M49.874 95.06c-.07-.292-.123-.588-.16-.887-1.617.93-3.485 1.472-5.48 1.472-6.08 0-11.024-4.945-11.024-11.023 0-6.08 4.945-11.025 11.024-11.025 3.415 0 6.47 1.56 8.494 4.006.185-.564.382-1.127.6-1.688-2.295-2.398-5.52-3.9-9.094-3.9-6.95 0-12.607 5.656-12.607 12.608 0 6.95 5.656 12.606 12.607 12.606 2.117 0 4.11-.53 5.864-1.457-.08-.23-.162-.455-.224-.712z"/></g><g><path d="M121.11 71.87c-2.504-3.715-5.707-6.568-8.28-8.86-2.307-2.055-4.34-3.868-4.85-5.434 1.072-.418 1.834-1.463 1.834-2.683 0-1.19-.725-2.212-1.755-2.65l2.126-8.348c.228-.806.083-1.55-.4-2.043-.485-.497-1.23-.66-2.048-.446-.015.006-.03.01-.046.015-.04.014-4.007 1.28-5.325 1.658-.856.246-2.36.247-3.218.004-1.333-.38-5.342-1.65-5.382-1.664-.015-.006-.03-.01-.045-.014-.817-.213-1.563-.05-2.05.446-.484.5-.628 1.25-.395 2.062.003.008.006.02.01.028l2.7 8.328c-1 .452-1.698 1.458-1.698 2.625 0 1.22.763 2.265 1.835 2.683-.512 1.565-2.545 3.38-4.852 5.433-.915.814-1.91 1.704-2.925 2.675.544.308 1.07.653 1.574 1.042.882-.832 1.753-1.613 2.574-2.345 2.743-2.442 4.98-4.435 5.484-6.608h1.834l-.577 1.73c-.16.482.1 1.003.582 1.163.095.033.193.048.29.048.385 0 .744-.243.872-.628l.77-2.313h2.597l.77 2.313c.13.385.487.628.872.628.096 0 .194-.015.29-.048.483-.16.743-.68.583-1.162l-.577-1.73h1.835c.505 2.173 2.74 4.165 5.484 6.607 5.087 4.532 12.054 10.74 12.054 21.884 0 4.263-1.71 8.172-4.816 11.007-3.395 3.1-8.192 4.738-13.87 4.738H97.13c-.593 0-1.17-.027-1.744-.062-.137.258-.267.52-.427.762-.242.36-.513.676-.796.974.966.1 1.95.166 2.968.166h7.842c6.145 0 11.37-1.805 15.11-5.22 3.492-3.187 5.416-7.58 5.416-12.364 0-5.31-1.436-10.018-4.39-14.396zM93.043 43.39c-.032-.115-.037-.192-.035-.24.044 0 .12 0 .23.028.38.12 4.092 1.297 5.41 1.672 1.186.337 3.042.336 4.228-.004 1.302-.373 4.974-1.545 5.35-1.666.11-.025.186-.03.23-.025.002.045-.003.127-.038.248l-.006.026-2.19 8.585h-3.01l.696-2.78c.124-.492-.176-.99-.668-1.114-.492-.123-.99.18-1.114.67l-.806 3.226h-.526l-.806-3.225c-.124-.49-.623-.793-1.115-.67-.49.124-.79.623-.668 1.115l.695 2.78H95.84l-2.798-8.626zm13.893 12.545H95.17c-.573 0-1.04-.467-1.04-1.04s.465-1.042 1.04-1.043h11.764c.575 0 1.042.467 1.042 1.042.002.574-.465 1.04-1.04 1.04z"/><path d="M101.972 74.614V73.52c0-.507-.41-.92-.92-.92-.506 0-.917.413-.917.92v1.095c-1.574.18-2.903.822-3.785 1.732.02.075.03.153.045.23.053.05.115.084.166.136.356.36.663.733.933 1.113.657-.833 2.016-1.426 3.56-1.426 2.16 0 3.982 1.15 3.982 2.512 0 .507.412.92.92.92s.918-.413.918-.92c0-2.205-2.088-3.978-4.9-4.298zM101.053 81.424c-.786 0-1.51-.166-2.136-.426.16.658.26 1.333.32 2.02.57.144 1.17.245 1.815.245 2.16 0 3.982 1.15 3.982 2.51 0 1.363-1.824 2.514-3.982 2.514-.547 0-1.06-.09-1.534-.226.052.642.078 1.28.064 1.918.18.04.362.073.552.095v1.094c0 .508.41.92.918.92s.92-.412.92-.92v-1.094c2.81-.32 4.9-2.092 4.9-4.3.002-2.438-2.555-4.35-5.82-4.35z"/><path d="M101.053 67.7c-3.148 0-6.06 1.007-8.45 2.704.475.396.92.83 1.328 1.303 2.04-1.37 4.49-2.17 7.123-2.17 7.06 0 12.806 5.745 12.806 12.807 0 7.06-5.746 12.806-12.807 12.806-.82 0-1.618-.09-2.395-.24-.11.496-.263.972-.46 1.417-.045.113-.076.232-.128.343.963.204 1.96.318 2.983.318 8.075 0 14.644-6.57 14.644-14.644 0-8.075-6.57-14.645-14.644-14.645z"/></g></g></svg>