<svg xmlns="http://www.w3.org/2000/svg" width="150" height="150" viewBox="0 0 150 150"><circle cx="74.759" cy="75" r="50.5" fill="#FDCA00"/><g fill="#3C3C3C"><path d="M79.406 54.298c4.422 0 8.02-3.6 8.02-8.022s-3.597-8.02-8.02-8.02-8.02 3.597-8.02 8.02 3.597 8.022 8.02 8.022zm0-14.76c3.715 0 6.737 3.02 6.737 6.737s-3.022 6.738-6.737 6.738c-3.715 0-6.737-3.022-6.737-6.738s3.02-6.737 6.736-6.737zm0 0M109.502 90.28c-.89-1.672-2.617-2.71-4.51-2.71-.83 0-1.656.206-2.39.598l-11.286 5.995-4.38-8.24c.244-.768.367-1.564.367-2.374v-2.292c.43.18.89.276 1.356.276 1.23 0 2.38-.657 3.007-1.72l5.325-9.193c.962-1.65.403-3.784-1.247-4.756l-8.658-5.052c-.84-3.532-4.022-6.066-7.682-6.066-4.272 0-7.76 3.41-7.892 7.65l-4.095 4.363-5.192-4.847c-.677-.64-1.56-.98-2.492-.95-.93.024-1.796.412-2.436 1.09-.64.676-.978 1.56-.95 2.49.025.93.412 1.796 1.092 2.438l7.776 7.24c.67.625 1.523.935 2.376.935.926 0 1.854-.365 2.54-1.09l1.374-1.468v7.918l-13.588 4.13c-.002 0-.003 0-.004.002-1.968.597-3.378 2.304-3.593 4.35-.07.68-.006 1.358.195 2.018l.003.01 5.196 17.1c.668 2.2 2.697 3.62 4.886 3.62.49 0 .987-.07 1.48-.223 1.305-.396 2.376-1.275 3.02-2.48.64-1.2.776-2.58.38-3.885l-3.717-12.23 9.244-2.81c.955.638 2.06 1.073 3.26 1.246l6.426 12.095c.888 1.673 2.617 2.71 4.51 2.71.15 0 .3-.006.45-.02.675-.06 1.324-.252 1.93-.57l.03-.016 15.774-8.382c2.487-1.32 3.435-4.415 2.115-6.9zM89.23 70.136l-1.927 3.314v-4.438l1.926 1.124zm6.652-.16l-5.323 9.19c-.366.62-1.015 1.02-1.726 1.077L91.8 75.16c.178-.306.074-.698-.23-.878-.307-.177-.7-.073-.878.23l-3.163 5.423c-.15-.09-.287-.198-.41-.318-.004-.004-.01-.008-.014-.014-.276-.274-.477-.617-.576-1.005-.148-.57-.064-1.162.236-1.673l3.893-6.697c.176-.307.073-.7-.233-.878l-3.4-1.985c-.015-.01-.03-.018-.046-.027l-6.34-3.702c-.507-.297-.866-.776-1.014-1.346-.147-.57-.063-1.163.235-1.67.396-.668 1.124-1.083 1.9-1.083.392 0 .778.104 1.12.306l12.215 7.127c1.043.614 1.396 1.962.787 3.007zM69.2 73.187c-.832.88-2.225.922-3.107.1l-7.773-7.238c-.43-.403-.673-.95-.688-1.54-.017-.587.196-1.145.6-1.572.406-.43.952-.674 1.54-.69.588-.017 1.146.198 1.577.606l5.663 5.285c.258.24.665.228.906-.03l3.588-3.827v6.443l-2.31 2.464zM64.78 91.89c-.34.104-.53.463-.428.8l3.904 12.84c.297.98.194 2.012-.286 2.912-.48.9-1.284 1.56-2.26 1.856-.06.018-.12.034-.18.05L61.524 95.65c-.093-.34-.446-.542-.788-.45-.34.093-.543.448-.45.79l3.94 14.45c-1.49-.147-2.82-1.17-3.28-2.69l-5.2-17.102c0-.004-.002-.01-.004-.014-.147-.492-.195-.998-.142-1.504.16-1.528 1.215-2.807 2.686-3.256h.005l13.216-4.018v1.69c0 2.18.875 4.16 2.31 5.594l-9.037 2.748zm10.793-2.938c-.043-.043-.09-.08-.145-.107-1.61-1.208-2.637-3.133-2.637-5.295V62.644c0-1.758.69-3.355 1.813-4.54v13.563c0 .354.288.642.643.642.354 0 .64-.288.64-.643v-14.62c1.022-.643 2.228-1.018 3.52-1.018 2.6 0 4.91 1.524 5.98 3.79l-1.856-1.084c-.537-.315-1.148-.482-1.768-.482-1.23 0-2.382.657-3.004 1.714-.473.804-.606 1.74-.373 2.644.232.9.803 1.657 1.607 2.132l6.028 3.52v7.396l-.36.62c-.472.8-.605 1.737-.372 2.64.136.526.388 1 .732 1.4v3.228c0 .2-.01.398-.027.596l-.672-1.265c-.888-1.672-2.617-2.712-4.51-2.712-.83 0-1.656.207-2.392.598-2.484 1.32-3.432 4.417-2.11 6.902l1.174 2.212c-.694-.208-1.336-.525-1.91-.93zm31.215 7.098L91 104.438c-.457.243-.948.39-1.457.435-.11.01-.223.016-.335.016-1.418 0-2.712-.78-3.378-2.033l-6.584-12.39v-.002l-1.806-3.397c-.988-1.86-.28-4.18 1.58-5.167.552-.29 1.17-.448 1.79-.448 1.418 0 2.713.778 3.378 2.03l6.298 11.85c.165.315.554.434.867.268l11.852-6.297c.55-.292 1.17-.447 1.79-.447.76 0 1.482.224 2.092.624l-11.023 6.235c-.308.176-.416.567-.242.875.175.31.566.417.875.243l11.368-6.433c.113.152.216.312.307.484.985 1.857.276 4.177-1.584 5.164zm0 0M51.28 72.803c-.09 0-.183-.017-.27-.05l-13.723-5.33c-.383-.148-.573-.58-.424-.962l7.943-20.452c.07-.185.213-.333.394-.412.18-.08.385-.084.57-.012l13.723 5.33c.383.148.573.58.425.962L51.974 72.33c-.072.183-.213.33-.394.41-.096.042-.198.063-.3.063zm-12.76-6.497l12.336 4.792L58.26 52.03l-12.337-4.79-7.404 19.066z"/><path d="M58.575 60.467c.21.38.29.83.25 1.335.236-.067.494-.105.776-.105.258 0 .493.033.712.09.036-.743-.1-1.426-.433-2.034-.946-1.723-3.025-2.155-3.113-2.173-.403-.08-.795.182-.875.584-.08.404.18.794.583.875.015 0 1.494.323 2.1 1.427zM57.097 64.934c-.1.056-.2.11-.306.147-1.19.41-2.495-.344-2.523-.36-.35-.21-.807-.098-1.02.252-.212.353-.1.81.252 1.02.06.038 1.17.697 2.532.697.395 0 .812-.057 1.23-.2.13-.044.258-.1.382-.157-.17-.247-.29-.526-.37-.818-.08-.186-.138-.382-.177-.58z"/></g></svg>