<svg xmlns="http://www.w3.org/2000/svg" width="150" height="150" viewBox="0 0 150 150"><circle cx="75.001" cy="75" r="50.5" fill="#FDCA00"/><g fill="#3C3C3C"><path d="M86.374 61.604c.277-.21.333-.604.123-.88-1.727-2.292-2.64-5.024-2.64-7.895.048-6.02 3.74-11.75 5.094-13.648.548.766 1.477 2.154 2.386 3.922.12.23.37.365.63.336.257-.03.473-.215.538-.468 1.104-4.272 3.468-7.896 4.493-9.333 1.025 1.436 3.39 5.06 4.494 9.332.067.252.28.438.54.468.26.028.51-.106.628-.336.91-1.77 1.84-3.157 2.385-3.922 1.354 1.9 5.047 7.628 5.094 13.64 0 2.88-.913 5.61-2.64 7.904-.21.276-.154.67.123.88.114.084.246.126.377.126.192 0 .38-.087.504-.25 1.894-2.512 2.894-5.506 2.894-8.664-.032-4.076-1.624-7.958-2.954-10.5-1.435-2.74-2.845-4.507-2.905-4.58-.118-.15-.3-.237-.49-.237s-.37.088-.49.237c-.05.063-1.086 1.362-2.28 3.443-1.658-5.054-4.647-8.814-4.786-8.987-.12-.15-.3-.234-.49-.234s-.37.084-.49.233c-.138.173-3.13 3.933-4.787 8.987-1.193-2.082-2.23-3.38-2.28-3.443-.12-.15-.3-.236-.49-.236s-.37.088-.49.237c-.06.074-1.47 1.84-2.905 4.58-1.328 2.543-2.922 6.425-2.954 10.506 0 3.153 1 6.146 2.893 8.657.205.277.6.333.877.124zm0 0"/><path d="M104.97 58.904c.072.025.143.037.214.037.257 0 .498-.16.592-.416.358-1.006.54-2.06.54-3.14-.037-4.987-3.573-9.475-3.724-9.662-.118-.147-.298-.234-.487-.236-.188 0-.37.083-.49.23-.03.036-.57.697-1.23 1.776-1.082-2.99-2.812-5.166-2.897-5.27-.12-.15-.3-.236-.49-.236s-.37.087-.49.235c-.084.105-1.815 2.283-2.896 5.272-.66-1.08-1.2-1.74-1.23-1.777-.12-.146-.298-.233-.49-.23-.19.002-.37.09-.488.24-.054.07-1.347 1.72-2.408 4.12-.142.318.003.688.32.83.317.14.688-.003.828-.32.608-1.375 1.308-2.5 1.763-3.174.35.502.84 1.258 1.313 2.18.12.233.37.366.63.338.26-.03.472-.215.538-.468.628-2.425 1.908-4.52 2.612-5.545.704 1.025 1.982 3.114 2.61 5.545.066.252.28.438.54.468.258.028.51-.106.63-.338.475-.923.963-1.68 1.313-2.18.945 1.387 2.94 4.727 2.968 8.21 0 .93-.156 1.844-.468 2.714-.118.324.053.684.38.8zm0 0M85.914 48.945c-.335-.09-.68.11-.77.444-.282 1.06-.43 2.097-.438 3.082 0 1.07.182 2.12.537 3.123.092.257.334.417.592.417.07 0 .14-.012.21-.037.328-.115.498-.475.384-.803-.31-.866-.467-1.774-.467-2.697.008-.875.14-1.804.396-2.765.088-.333-.11-.676-.446-.765zm0 0M98.64 99.344H44.73c-.403 0-.73-.327-.73-.73v-36.88c0-.405.327-.733.73-.733h53.908c.403 0 .73.33.73.733v36.88c0 .404-.326.73-.73.73zm-53.18-1.462h52.447v-35.42H45.46v35.42z"/><path d="M63.22 80.537h-4.99c-.404 0-.732-.327-.732-.73v-7.144c0-.404.328-.73.732-.73h4.988c.403 0 .73.326.73.73v7.143c0 .403-.326.73-.73.73zm-4.26-1.462h3.527v-5.68H58.96v5.68zM85.096 80.537h-4.99c-.402 0-.73-.327-.73-.73v-7.144c0-.404.328-.73.73-.73h4.99c.403 0 .73.326.73.73v7.143c0 .403-.327.73-.73.73zm-4.258-1.462h3.526v-5.68h-3.526v5.68z"/><path d="M58.23 76.965h-13.5c-.403 0-.73-.328-.73-.732 0-.404.327-.73.73-.73h13.5c.403 0 .73.327.73.73 0 .405-.326.732-.73.732zM98.595 76.965h-13.5c-.402 0-.73-.328-.73-.732 0-.404.328-.73.73-.73h13.5c.404 0 .73.327.73.73 0 .405-.326.732-.73.732zM80.106 76.965H63.22c-.404 0-.732-.328-.732-.732 0-.404.328-.73.73-.73h16.89c.403 0 .73.327.73.73 0 .405-.327.732-.732.732zM63.18 62.462c-.32 0-.614-.21-.704-.536-.03-.113-.75-2.797.97-5.058 1.456-1.917 4.155-2.89 8.02-2.89.404 0 .73.33.73.73 0 .405-.326.733-.73.733-3.385 0-5.69.778-6.856 2.31-1.285 1.692-.73 3.764-.725 3.785.107.39-.12.792-.51.9-.064.02-.13.027-.195.027z"/><path d="M80.188 62.462c-.064 0-.13-.01-.196-.026-.39-.108-.615-.51-.51-.897.01-.037.547-2.13-.732-3.8-1.17-1.525-3.473-2.298-6.848-2.298-.403 0-.73-.328-.73-.732 0-.402.327-.73.73-.73 3.866 0 6.564.972 8.02 2.89 1.72 2.26 1.002 4.944.97 5.057-.09.324-.382.535-.704.535zM47.986 91.328c-.403 0-.73-.328-.73-.732V81.99c0-.404.327-.73.73-.73.404 0 .73.326.73.73v8.606c.002.404-.325.732-.73.732zM47.986 94.86c-.403 0-.73-.325-.73-.73v-1.173c0-.404.327-.73.73-.73.404 0 .73.326.73.73v1.174c.002.405-.325.73-.73.73zM95.388 71.71c-.403 0-.73-.328-.73-.732v-5.44c0-.4.327-.73.73-.73.404 0 .732.33.732.73v5.44c0 .404-.328.73-.732.73zM100.618 65.538c-.298 0-.604-.012-.918-.037-.37-.03-.643-.353-.612-.722.03-.367.357-.645.722-.61 5.792.48 8.2-4.3 8.226-4.346.162-.332.563-.47.895-.307.332.162.47.562.307.894-.027.053-2.584 5.128-8.62 5.128z"/></g></svg>