<svg xmlns="http://www.w3.org/2000/svg" width="150" height="150" viewBox="0 0 150 150"><circle cx="75.001" cy="75" r="50.5" fill="#FDCA00"/><g fill="#3C3C3C"><path d="M75.814 77.067c-.572 0-1.034.463-1.034 1.033v12.404c0 .57.462 1.033 1.034 1.033h10.334c.572 0 1.036-.463 1.036-1.033 0-.572-.464-1.033-1.036-1.033h-9.302V78.1c0-.57-.46-1.033-1.032-1.033z"/><path d="M64.444 84.302V71.9c0-.57-.464-1.034-1.032-1.034H51.008c-.57 0-1.034.463-1.034 1.033s.464 1.034 1.034 1.034h11.368V83.27H51.007c-.57 0-1.034.46-1.034 1.03v12.405c0 .57.464 1.033 1.034 1.033s1.034-.463 1.034-1.033V85.337h4.133v18.604h-8.268c-1.14 0-2.067-.925-2.067-2.065v-22.74h11.37c.57 0 1.033-.464 1.033-1.034s-.464-1.032-1.034-1.032H45.84V66.733h11.37c.57 0 1.033-.465 1.033-1.035s-.464-1.033-1.034-1.033H52.04V57.43c0-.57-.464-1.034-1.034-1.034s-1.034.463-1.034 1.033v7.235H45.84v-16.54c0-1.138.927-2.065 2.067-2.065h2.066v5.168c0 .57.464 1.033 1.034 1.033h5.167v7.235c0 .572.464 1.035 1.034 1.035s1.034-.463 1.034-1.035v-8.268c0-.57-.464-1.033-1.034-1.033H52.04V46.06h28.94v18.605H64.444V52.26H74.78v6.204h-4.135V57.43c0-.57-.462-1.034-1.032-1.034-.572 0-1.034.463-1.034 1.033v2.065c0 .572.46 1.035 1.033 1.035h6.2c.57 0 1.033-.463 1.033-1.035v-8.268c0-.57-.462-1.033-1.032-1.033H63.412c-.572 0-1.036.463-1.036 1.033v14.47c0 .57.464 1.034 1.036 1.034h28.94c.57 0 1.033-.462 1.033-1.032s-.464-1.033-1.034-1.033h-9.303v-19.64c0-.57-.462-1.034-1.032-1.034H47.907c-2.28 0-4.135 1.856-4.135 4.136v53.748c0 2.28 1.854 4.135 4.135 4.135h9.302c.57 0 1.033-.466 1.033-1.036V85.337h5.17c.567 0 1.03-.463 1.03-1.035z"/><path d="M88.217 60.53c.572 0 1.032-.463 1.032-1.035v-8.268c0-.57-.46-1.033-1.033-1.033-.57 0-1.032.463-1.032 1.033v8.268c0 .572.46 1.035 1.032 1.035zM98.553 85.337c.57 0 1.034-.463 1.034-1.035V71.9c0-.57-.464-1.034-1.034-1.034h-22.74c-.57 0-1.033.463-1.033 1.033s.462 1.034 1.034 1.034h21.704V84.3c0 .574.464 1.037 1.035 1.037zM70.646 71.9c0-.57-.462-1.034-1.032-1.034-.572 0-1.034.463-1.034 1.033v12.4c0 .573.462 1.036 1.034 1.036.57 0 1.032-.463 1.032-1.035V71.9z"/><path d="M101.653 43.99H88.217c-.57 0-1.032.466-1.032 1.036s.462 1.033 1.032 1.033h13.437c1.14 0 2.067.927 2.067 2.065v10.338h-8.268V52.26h3.1c.57 0 1.035-.463 1.035-1.033s-.464-1.033-1.034-1.033h-4.135c-.57 0-1.032.463-1.032 1.033v8.268c0 .572.462 1.035 1.032 1.035h3.1v5.168c0 .57.465 1.033 1.035 1.033s1.034-.462 1.034-1.032V60.53h4.134v28.94h-5.167c-.57 0-1.034.462-1.034 1.034 0 .57.463 1.033 1.033 1.033h5.168v4.135H93.387v-17.57c0-.57-.464-1.034-1.034-1.034H82.016c-.57 0-1.034.463-1.034 1.033v6.202c0 .572.463 1.035 1.034 1.035h4.133c.57 0 1.035-.463 1.035-1.035 0-.57-.464-1.03-1.036-1.03h-3.102v-4.136h8.27v17.57c0 .57.464 1.033 1.034 1.033h11.37v4.134c0 1.14-.928 2.068-2.068 2.068h-37.21V97.74h21.704c.572 0 1.036-.464 1.036-1.034 0-.572-.464-1.033-1.036-1.033H63.412c-.572 0-1.036.46-1.036 1.033v8.268c0 .57.464 1.035 1.036 1.035h38.24c2.282 0 4.136-1.856 4.136-4.136V48.126c0-2.28-1.853-4.135-4.135-4.135z"/><path d="M69.613 89.472h-6.2c-.573 0-1.037.46-1.037 1.033 0 .57.464 1.033 1.036 1.033h6.2c.57 0 1.033-.463 1.033-1.033 0-.572-.46-1.033-1.032-1.033z"/></g></svg>