<svg xmlns="http://www.w3.org/2000/svg" width="150" height="150" viewBox="0 0 150 150"><circle cx="75.001" cy="74.999" r="50.5" fill="#FDCA00"/><g fill="#3C3C3C"><path d="M97.142 52.632c-14.834 0-21.486-7.656-21.58-7.767-.387-.463-1.174-.462-1.56 0-.065.078-6.644 7.766-21.58 7.766-.56 0-1.017.456-1.017 1.018v19.396c0 10.604 4.768 20.682 12.752 26.955 3.22 2.53 6.695 4.36 10.336 5.438.094.03.19.043.29.043s.192-.013.288-.042c3.642-1.08 7.118-2.91 10.337-5.44 7.984-6.273 12.75-16.35 12.75-26.954V53.648c0-.56-.455-1.016-1.015-1.016zm-1.016 20.414c0 9.984-4.477 19.464-11.975 25.356-2.93 2.304-6.08 3.984-9.368 5.002-3.29-1.017-6.44-2.698-9.37-5.002C57.916 92.51 53.44 83.03 53.44 73.046V54.653c12.44-.276 19.174-5.587 21.344-7.668 2.17 2.082 8.9 7.392 21.344 7.668v18.393z"/><path d="M74.21 52.636c-3.064 2.083-8.295 4.766-15.818 5.726-.508.064-.887.497-.887 1.008v13.677c0 8.748 3.895 17.033 10.42 22.16 2.057 1.616 4.238 2.883 6.486 3.765.12.047.245.07.372.07.125 0 .252-.023.37-.07 2.247-.88 4.43-2.147 6.487-3.764 6.524-5.128 10.42-13.413 10.42-22.16v-13.68c0-.51-.38-.942-.89-1.007-7.52-.96-12.754-3.642-15.818-5.725-.343-.234-.796-.234-1.142 0zm15.816 7.62v12.79c0 8.13-3.604 15.816-9.643 20.562-1.787 1.403-3.67 2.52-5.602 3.32-1.93-.802-3.813-1.917-5.6-3.32-6.038-4.746-9.645-12.433-9.645-20.563v-12.79c7.012-1.038 12.07-3.503 15.246-5.56 3.178 2.057 8.235 4.522 15.246 5.56z"/></g></svg>