<?xml version="1.0" encoding="UTF-8"?><!DOCTYPE svg PUBLIC "-//W3C//DTD SVG 1.1//EN" "http://www.w3.org/Graphics/SVG/1.1/DTD/svg11.dtd"><svg xmlns="http://www.w3.org/2000/svg" height="297" viewBox="0 0 306 297" width="306"><svg height="52" viewBox="0 0 183 52" width="183" x="0" y="0"><defs><style>.cls-1 { fill: #fff; fill-rule: evenodd; }</style></defs><path d="M180.064 22.673v8.69h-2.44v-8.69h-2.883v-2.037h8.257v2.037h-2.933zm-9.068-.048h-2.44v2.545c0 2.755-.35 4.87-1.977 5.826-.543.304-1.276.528-2.136.528l-.304-1.96c.527-.065.956-.29 1.228-.573.653-.666.813-2.036.813-3.66v-4.694h7.238v10.727h-2.422v-8.738zm-10.858 5.983h-3.077l-.763 2.755h-2.52l3.284-10.727h3.19l3.33 10.727h-2.614l-.828-2.755zm-1.02-4.09c-.192-.635-.383-1.43-.543-2.07h-.03c-.162.64-.32 1.45-.496 2.07l-.64 2.276h2.377l-.67-2.276zm-8.735-2.053c-1.928 0-3.427 1.162-3.427 3.547 0 2.152 1.275 3.506 3.443 3.506.733 0 1.545-.16 2.024-.35l.366 1.892c-.446.22-1.45.464-2.757.464-3.715 0-5.627-2.312-5.627-5.365 0-3.663 2.614-5.7 5.865-5.7 1.26 0 2.218.256 2.648.476l-.494 1.928c-.494-.207-1.18-.4-2.04-.4zm-10.044 4.41h-4.002v4.488H133.9V20.636h2.438v4.12h4v-4.12h2.426v10.727h-2.425v-4.49zm-13.328 4.66c-3.188 0-5.053-2.4-5.053-5.46 0-3.21 2.056-5.615 5.228-5.615 3.3 0 5.102 2.468 5.102 5.428 0 3.515-2.137 5.648-5.278 5.648zm.112-9.15c-1.642 0-2.6 1.562-2.6 3.646 0 2.103.99 3.58 2.616 3.58 1.643 0 2.583-1.56 2.583-3.642 0-1.93-.925-3.583-2.6-3.583zm-6.82 5.604c.38 1.145.73 2.307 1.24 3.373h-2.613c-.366-.734-.572-1.56-.828-2.356-.366-1.21-.86-2.133-2.168-2.133h-.462v4.49h-2.407V20.635h2.407v4.457h.208l2.964-4.457h2.95l-3.746 4.757c1.386.35 2.008 1.306 2.455 2.596zm-12.132.618h-3.077l-.764 2.755h-2.52l3.285-10.727h3.19l3.33 10.727H109l-.828-2.755zm-1.02-4.09c-.192-.635-.383-1.43-.543-2.07h-.033c-.16.64-.318 1.45-.494 2.07l-.638 2.276h2.377l-.67-2.276zm-8.73 6.845h-2.44V20.636h6.505v1.99h-4.065v8.737zM87.457 20.636h6.63v1.99h-4.19v2.227h3.952v1.973h-3.954v2.545h4.416v1.993h-6.855V20.636zm-4.42 6.622c-.048-1.29-.096-2.848-.096-4.41h-.047c-.334 1.37-.78 2.896-1.194 4.154l-1.31 4.183h-1.896l-1.148-4.15c-.35-1.26-.717-2.785-.973-4.187h-.03c-.065 1.446-.113 3.104-.19 4.44l-.194 4.075h-2.25l.687-10.727h3.237l1.052 3.582c.334 1.24.668 2.576.908 3.832h.048c.302-1.24.67-2.657 1.02-3.85l1.15-3.564h3.17l.59 10.727h-2.375l-.16-4.105zM.01 36.855l24.353-24.223 11.122 8.714 9.24-7.856 6.95 7.85v30.663H.01V36.855zm35.25-20.07L24.23 7.982.01 32.32V-.01h51.665v16.023l-6.817-7.625-9.597 8.398z" class="cls-1"/></svg><svg height="123" viewBox="-244 335 123 123" width="123" x="0" y="52"><circle cx="-182.5" cy="396.5" r="61.5" fill="#44a1d7"/><path d="M-155.3 378.5l-12.3-12.2c-.2-.2-.5-.3-.7-.3h-32.4c-1.8 0-3.3 1.5-3.3 3.2v57.5c0 1.8 1.5 3.2 3.3 3.2h42.4c1.8 0 3.3-1.5 3.3-3.2v-47.6c0-.2-.1-.4-.3-.6z" fill="#FFF"/><path d="M-161.2 428h-41.6c-1.8 0-3.2-1.4-3.2-3.2v-56.6c0-1.8 1.4-3.2 3.2-3.2h31.7c.3 0 .5.1.7.3l12 12c.2.2.3.5.3.7v46.8c.1 1.8-1.3 3.2-3.1 3.2zm-8.8-59.5v7.3c0 .6.5 1.2 1.2 1.2h7.4l-8.6-8.5zm9.9 10.5h-8.8c-1.8 0-3.2-1.4-3.2-3.2V367h-30.7c-.6 0-1.2.5-1.2 1.2v56.6c0 .6.5 1.2 1.2 1.2h41.6c.6 0 1.2-.5 1.2-1.2V379zm-9.9 41.4c-3 0-5.4-2.4-5.4-5.4s2.4-5.4 5.4-5.4c3 0 5.4 2.4 5.4 5.4s-2.4 5.4-5.4 5.4zm0-8.7c-1.8 0-3.4 1.5-3.4 3.3 0 1.8 1.5 3.3 3.4 3.3 1.8 0 3.4-1.5 3.4-3.3 0-1.8-1.5-3.3-3.4-3.3zm0 5.1c-1 0-1.8-.8-1.8-1.8s.8-1.8 1.8-1.8 1.8.8 1.8 1.8c.1 1-.7 1.8-1.8 1.8zm4.4-12.7h-32.8c-.6 0-1-.5-1-1 0-.6.5-1 1-1h32.8c.6 0 1 .5 1 1s-.4 1-1 1zm0-5.5h-32.8c-.6 0-1-.5-1-1 0-.6.5-1 1-1h32.8c.6 0 1 .5 1 1 0 .6-.4 1-1 1zm0-5.4h-32.8c-.6 0-1-.5-1-1 0-.6.5-1 1-1h32.8c.6 0 1 .5 1 1s-.4 1-1 1zm-9.8-5.5h-13.1c-.6 0-1-.5-1-1s.5-1 1-1h13.1c.6 0 1 .5 1 1s-.5 1-1 1zm-11-8.7h-12c-.6 0-1-.5-1-1 0-.6.5-1 1-1h12c.6 0 1 .5 1 1 0 .6-.4 1-1 1zm-4.4-5.4h-7.7c-.6 0-1-.5-1-1 0-.6.5-1 1-1h7.7c.6 0 1 .5 1 1 .1.5-.4 1-1 1zm4.4 37.1h7.7c.6 0 1 .5 1 1 0 .6-.5 1-1 1h-7.7c-.6 0-1-.5-1-1s.5-1 1-1zm0 5.5h7.7c.6 0 1 .5 1 1 0 .6-.5 1-1 1h-7.7c-.6 0-1-.5-1-1 0-.6.5-1 1-1z" fill="#322525"/></svg><svg height="123" viewBox="-244 335 123 123" width="123" x="183" y="0"><circle cx="-182.5" cy="396.5" r="61.5" fill="#44a1d7"/><path d="M-146.9 423.6l-1.9 5.8v.8c0 .5-.4.9-.9.9s-.9-.4-.9-.9v-.8l-1.9-5.8v-34.8c0-1.6 1.3-2.9 2.9-2.9 1.6 0 2.9 1.3 2.9 2.9v34.5c-.1.2-.1.3-.2.3zm-9.6 3.6h-2v2c0 1.1-.9 1.9-1.9 1.9h-43c-1 0-1.9-.9-1.9-1.9V374c0-1.1.9-1.9 1.9-1.9h2v-2c0-1.1.8-1.9 1.9-1.9h43c1 0 1.9.9 1.9 1.9v55.2c0 1.1-.9 1.9-1.9 1.9z" fill="#FFF"/><path d="M-151.8 419.9l-1.9 5.6v.8c0 .5-.4.9-.9.9s-.9-.4-.9-.9v-.8l-1.9-5.6v-34c0-1.6 1.3-2.8 2.8-2.8 1.5 0 2.8 1.3 2.8 2.8v34zm-2.8 2.6l1-3h-2l1 3zm1.1-36.6c0-.6-.5-1-1-1-.6 0-1 .5-1 1v1h2v-1zm0 2.8h-2v29h2v-29zm-7.7 34.7h-2v2c0 1-.8 1.9-1.8 1.9h-42c-1 0-1.8-.8-1.8-1.9v-53.9c0-1 .8-1.9 1.8-1.9h2v-2c0-1 .8-1.9 1.8-1.9h42c1 0 1.8.8 1.8 1.9v53.9c0 1.1-.8 1.9-1.8 1.9zm-42.9-52h-2.9s-.1 0-.1.1v53.9s0 .1.1.1h42s.1 0 .1-.1v-53.9s0-.1-.1-.1h-39.1zm42.9-3.8l-42-.1s-.1 0-.1.1v2h38.2c1 0 1.8.8 1.8 1.9v50.1h2s.1 0 .1-.1v-53.9zm-9.6 51h-30.5c-.5 0-.9-.4-.9-.9s.4-.9.9-.9h30.5c.5 0 .9.4.9.9s-.4.9-.9.9zm0-3.9h-30.5c-.5 0-.9-.4-.9-.9s.4-.9.9-.9h30.5c.5 0 .9.4.9.9s-.4.9-.9.9zm0-3.8h-3.8c-.5 0-.9-.4-.9-.9s.4-.9.9-.9h3.8c.5 0 .9.4.9.9s-.4.9-.9.9zm0-3.9h-19.1c-.5 0-.9-.4-.9-.9s.4-.9.9-.9h19.1c.5 0 .9.4.9.9s-.4.9-.9.9zm0-3.8h-30.5c-.5 0-.9-.4-.9-.9s.4-.9.9-.9h30.5c.5 0 .9.4.9.9s-.4.9-.9.9zm0-3.9h-6.7c-.5 0-.9-.4-.9-.9s.4-.9.9-.9h6.7c.5 0 .9.4.9.9s-.4.9-.9.9zm0-3.8h-14.3c-.5 0-.9-.4-.9-.9s.4-.9.9-.9h14.3c.5 0 .9.4.9.9s-.4.9-.9.9zm0-3.9h-30.5c-.5 0-.9-.4-.9-.9s.4-.9.9-.9h30.5c.5 0 .9.4.9.9s-.4.9-.9.9zm0-3.8h-3.8c-.5 0-.9-.4-.9-.9s.4-.9.9-.9h3.8c.5 0 .9.4.9.9s-.4.9-.9.9zm0-3.9h-19.1c-.5 0-.9-.4-.9-.9s.4-.9.9-.9h19.1c.5 0 .9.4.9.9s-.4.9-.9.9zm0-3.8h-30.5c-.5 0-.9-.4-.9-.9s.4-.9.9-.9h30.5c.5 0 .9.4.9.9s-.4.9-.9.9zm-30.5 5.9h22.9c.5 0 .9.4.9.9s-.4.9-.9.9h-22.9c-.5 0-.9-.4-.9-.9s.4-.9.9-.9zm0-3.9h7.6c.5 0 .9.4.9.9s-.4.9-.9.9h-7.6c-.5 0-.9-.4-.9-.9s.4-.9.9-.9zm0 15.4h20c.5 0 .9.4.9.9s-.4.9-.9.9h-20c-.5 0-.9-.4-.9-.9s.4-.9.9-.9zm0-3.8h12.4c.5 0 .9.4.9.9s-.4.9-.9.9h-12.4c-.5 0-.9-.4-.9-.9s.4-.9.9-.9zm0 15.4h22.9c.5 0 .9.4.9.9s-.4.9-.9.9h-22.9c-.5 0-.9-.4-.9-.9s.4-.9.9-.9zm0-3.9h7.6c.5 0 .9.4.9.9s-.4.9-.9.9h-7.6c-.5 0-.9-.4-.9-.9s.4-.9.9-.9z" fill="#322525"/></svg><svg height="122" viewBox="-244 336 122 122" width="122" x="0" y="175"><circle cx="-183" cy="397" r="61" fill="#44a1d7"/><path d="M-157.8 409.8l-10.4-2.6c0-.1-.1-.1-.1-.2l-3.1-3.1V401l.8-.8c2.9-3.3 4.6-7.7 4.9-12.5v-.6c0-.6.1-1.2.1-1.8l1-10.1c.3-3.1-.7-6.3-2.9-8.6-2.1-2.3-5.2-3.7-8.3-3.7h-11.4c-3.2 0-6.2 1.3-8.3 3.7-2.1 2.3-3.2 5.5-2.9 8.6l1 10.1c.1.6.1 1.2.1 1.8v.6c.3 4.8 2 9.2 4.9 12.5.2.3.5.5.8.8v2.9l-3.1 3.1s-.1.1-.1.2l-10.4 2.6c-4.4 1.1-6.8 3.8-6.8 7.5v7.3c0 1.8 1.5 3.3 3.3 3.3h54.3c1.8 0 3.3-1.5 3.3-3.3v-7.3c.1-3.7-2.3-6.4-6.7-7.5z" fill="#FFF"/><path d="M-159.9 407.6l-10.5-2.6c0-.1-.1-.1-.1-.2l-3.1-3.1v-3l.8-.8c2.9-3.3 4.7-7.9 5-12.7v-.6c0-.6.1-1.2.1-1.9l1-10.3c.3-3.2-.7-6.4-2.9-8.7-2.2-2.4-5.3-3.7-8.5-3.7h-11.6c-3.2 0-6.3 1.4-8.5 3.7-2.2 2.4-3.2 5.6-2.9 8.7l1 10.3c.1.6.1 1.2.1 1.9v.6c.3 4.8 2 9.4 5 12.7.2.3.5.6.8.8v3l-3.1 3.1c-.1 0-.1.1-.1.2l-10.5 2.6c-4.5 1.1-6.9 3.8-6.9 7.6v7.5c0 1.8 1.5 3.4 3.4 3.4h55.2c1.9 0 3.4-1.5 3.4-3.4v-7.5c-.2-3.8-2.7-6.5-7.1-7.6zm-25.3 11.6h2.5l.8 4.7h-4.4l.8-4.7h.3zm3.6-3.4c0 .7-.5 1.2-1.2 1.2h-2.3c-.7 0-1.2-.5-1.2-1.2v-1.7l2.4-1.6 2.4 1.6v1.7zm-10.5-15.3c2.4 1.7 5.2 2.7 8.1 2.7s5.7-.9 8.1-2.7v1.1l-8.1 8.1-8.1-8.1v-1.1zm12.2 12.1l-2.4-1.6 7.5-7.4 2.1 2.1c-.7 1.3-2.4 4.3-4.8 8.5h-.1l-2.3-1.6zm-16.8-47.4c1.8-1.9 4.3-3 6.9-3h11.6c2.6 0 5.1 1.1 6.9 3 1.8 1.9 2.6 4.5 2.4 7.1l-.7 6.5c-1.5-3.4-3.1-5.6-3.2-5.8-.3-.5-1-.6-1.5-.3-2.8 1.9-15.5 2.2-20.1 2.1-.3 0-.6.1-.8.4-1.3 1.5-2.4 3.1-3.1 4.5l-.8-7.5c-.2-2.5.6-5.1 2.4-7zm-1.1 19.9v-.6-.4c.2-.7 1.6-4.3 4-7.1 3 0 15.2 0 19.9-2 .9 1.4 2.9 4.8 3.9 9.1v1c-.5 9-6.6 16-13.8 16-7.5 0-13.6-7.1-14-16zm4.6 18.5l7.5 7.4-2.4 1.6-2.4 1.6h-.1c-2.4-4.2-4-7.2-4.8-8.5l2.2-2.1zm-19.6 19v-7.5c0-2.8 1.8-4.7 5.3-5.6l10.5-2.6c.6 1.1 1.9 3.4 4.6 8.2.3.5.8.9 1.4 1.1.2 0 .3.1.5.1.4 0 .9-.1 1.2-.4l.7-.5v.3c0 1 .4 1.9 1.1 2.5l-1 5.6h-14.1V418c0-.6-.5-1.1-1.1-1.1-.6 0-1.1.5-1.1 1.1v5.8h-7c-.5.1-1-.5-1-1.2zm57.6 0c0 .7-.5 1.2-1.2 1.2h-7V418c0-.6-.5-1.1-1.1-1.1-.6 0-1.1.5-1.1 1.1v5.8h-14.1l-1-5.6c.7-.6 1.1-1.5 1.1-2.5v-.3l.7.5c.4.2.8.4 1.2.4.2 0 .3 0 .5-.1.6-.1 1.1-.5 1.4-1.1 2.7-4.8 4-7.1 4.6-8.2l10.5 2.6c3.5.9 5.3 2.7 5.3 5.6v7.5z" fill="#322525"/></svg><svg height="122" viewBox="-244 336 122 122" width="122" x="122" y="175"><circle cx="-183" cy="397" r="61" fill="#44a1d7"/><path d="M-150.4 377.6c-.2-.3-.6-.5-1-.4h-.3l-67.3 18.3c-.5.1-.8.6-.9 1.1 0 .5.3 1 .8 1.1l24.6 8.1-2.2 17.6c-.1.5.2.9.6 1.2.2.1.4.2.6.2.2 0 .5-.1.7-.2l9-6.9 7.9 11.3c.2.3.6.5.9.5h.1c.4 0 .8-.3 1-.6l25.6-50c.2-.4.2-.9-.1-1.3z" fill="#FFF"/><path d="M-153.8 374.7c-.2-.3-.6-.5-1-.4h-.3l-67.3 18.3c-.5.1-.8.6-.9 1.1 0 .5.3 1 .8 1.1l24.6 8.1-2.2 17.6c-.1.5.2.9.6 1.2.2.1.4.2.6.2.2 0 .5-.1.7-.2l9-6.9 7.9 11.3c.2.3.6.5.9.5h.1c.4 0 .8-.3 1-.6l25.6-50c.3-.4.2-.9-.1-1.3zm-8 3.9l-34.9 22.3-21.3-7 56.2-15.3zm-35.5 39.6l1.6-12.8 5.3 7.6-6.9 5.2zm16.9 5l-14.5-20.7 37.3-23.8-22.8 44.5z" fill="#322525"/></svg><svg height="44" viewBox="-270 375 71 44" width="71" x="183" y="123"><path d="M-202.8 409.3l2.2 8.7c.1.3 0 .5-.2.7-.1.2-.4.2-.6.2h-.1l-10.6-1.9c-2.9 1.3-5.9 1.9-9.1 1.9-5 0-9.6-1.7-13.3-4.5-3.7 2.8-8.3 4.5-13.3 4.5-3.1 0-6.2-.7-9.1-1.9l-10.6 1.9h-.1c-.2 0-.4-.1-.6-.2-.2-.2-.3-.5-.2-.7l2.2-8.7c-2.5-3.7-3.8-7.9-3.8-12.3 0-12.1 9.9-22 22.2-22 5 0 9.6 1.7 13.3 4.5 3.7-2.8 8.3-4.5 13.3-4.5 12.2 0 22.2 9.9 22.2 22 0 4.4-1.3 8.7-3.8 12.3zm-45-32.7c-11.4 0-20.6 9.2-20.6 20.4 0 4.2 1.3 8.3 3.8 11.8.2.3.2.6 0 .9l-1.9 7.6 9.3-1.7c.1-.1.2-.1.4-.1.1 0 .2 0 .3.1 2.8 1.3 5.7 1.9 8.7 1.9 11.4 0 20.6-9.2 20.6-20.4s-9.3-20.5-20.6-20.5zm26.6 0c-4.5 0-8.7 1.5-12.1 3.9 4.6 4 7.6 9.9 7.6 16.5s-3 12.5-7.6 16.5c3.4 2.5 7.6 3.9 12.1 3.9 3 0 6-.7 8.7-1.9.3-.1.5-.1.8.1l9.2 1.7-2-7.7c-.1-.2-.1-.6 0-.8 2.5-3.5 3.8-7.5 3.8-11.8.1-11.3-9.1-20.4-20.5-20.4z" fill="#FFF"/></svg><svg height="43.3" viewBox="-275 376 60 44" width="59.3" x="123" y="52"><path d="M-216.9 405.6l-6.5 9.8c-1.8 2.2-3.7 3.3-5.8 3.5h-.6c-2.6 0-4.5-1.5-4.8-1.7l-10.7-7.2-10.7 7.2c-.3.3-2.2 1.7-4.8 1.7h-.6c-2.1-.2-4.1-1.3-5.8-3.4l-6.6-9.9c-.1-.1-2.6-3.5-.3-9 1.3-2.4 4.6-8.8 4.9-10.7l1.4-4.7c.4-1.2 2-3.2 4.9-2.7 1.1.2 3.2 1.3 3.3 4v.1l-.9 5.4 2.6-1.8c-.9-.8-1.5-1.7-1.6-2.7-.2-1.6.8-2.7.8-2.7 1.7-2.6 4.5-1.9 5.7-1.1l.2.1c-.1-.9.2-1.7.4-2.3 0 0 0-.1.1-.1.6-.9 1.3-1.4 2.2-1.6 1.7-.3 3.2.8 3.3.9l1.5 1 1.5-1c1.2-.8 4-1.6 5.5.7 0 0 .8 1 .7 2.3 1.3-.8 4-1.4 5.7 1.2 0 0 .9 1.1.8 2.7-.1 1-.7 1.9-1.6 2.7l2.6 1.8-.9-5.4v-.1c0-2.8 2.2-3.8 3.3-4 2.8-.5 4.4 1.5 4.8 2.7l1.4 4.6c.4 2 3.7 8.4 4.9 10.7 2.3 5.5-.2 8.9-.3 9zm-43.7-15.6c.8 2.1 2.9 9.2-2.8 13.7-.1.1-.3.2-.5.2s-.5-.1-.6-.3c-.3-.3-.2-.8.1-1.1 5.8-4.6 2.3-12.2 2.1-12.5 0-.1-.1-.2 0-.4v-.1l1.2-7.2c0-2-1.8-2.4-2-2.4-.2 0-.4-.1-.6-.1-1.8 0-2.4 1.6-2.5 1.7l-1.4 4.6c-.5 2.5-4.9 10.7-5 11-1.9 4.7.1 7.4.2 7.5l6.6 9.9c1.4 1.7 3 2.7 4.6 2.8 2.4.2 4.3-1.4 4.3-1.4l.1-.1 10.2-6.9-10.1-6.9c-1.4-1-2.3-2.1-2.4-3.2-.2-1.2.4-2.1.5-2.2.5-.8 1.1-1.4 1.8-1.7l-1.1-.7c-1.2-.8-1.8-1.8-2-2.8-.1-.8.1-1.5.4-2.1l-1.1.7zm21-11.7c-1.2-1.7-3.3-.4-3.4-.3l-1 .7 3.9 2.6c.5-.5.8-1.1.9-1.6.1-.9-.3-1.4-.4-1.4zm5.6 7c.8-.6 1.2-1.3 1.3-1.9.1-.9-.4-1.6-.5-1.6-1.4-2.1-3.4-.9-3.6-.8l-1.8 1.3 4.6 3zm15.9 11.8c-.2-.3-4.6-8.5-5-11l-1.4-4.5c-.1-.2-.8-2-3.1-1.6-.2 0-1.9.4-2 2.4l1.2 7.2c.1.3-.1.6-.4.8-.3.2-.6.2-.9 0l-18.2-12.5s-1.1-.8-2.1-.6c-.5.1-.8.4-1.2.8-.1.3-.8 2.3.9 3.4l14.9 10.3c.4.2.4.7.2 1.1-.2.4-.7.4-1.1.2l-14.9-10.3-2.8-1.9c-.2-.1-2.2-1.3-3.6.8-.1.1-.6.8-.5 1.7.1.7.5 1.3 1.3 2l3.1 2.1c.1 0 .1.1.2.1l13.9 9.5c.4.2.4.7.2 1.1-.2.4-.7.4-1.1.2l-14-9.6c-.5-.3-2.4-1.2-3.6.6 0 0 0 .1-.1.1 0 0-.8.9-.6 1.9.1.6.5 1.2 1.3 1.7l3.1 2.1c.3.2.5.3.5.3l11 7.4c.4.2.5.7.2 1.1-.2.4-.7.4-1.1.2l-11.4-7.7c-.3-.1-.6-.3-1-.2-.6.1-1.1.5-1.6 1.3 0 .1-.3.5-.2 1.1.1.7.7 1.5 1.8 2.2L-234 416l.1.1s1.9 1.6 4.3 1.4c1.7-.1 3.2-1.1 4.7-2.9l6.5-9.8c.3-.2 2.3-3 .3-7.7z" fill="#FFF"/></svg><svg height="44" viewBox="-283 375 45 44" width="45" x="254" y="123"><path d="M-250.8 419h-19.5c-7 0-12.8-5.7-12.8-12.7v-18.7c0-7 5.7-12.7 12.8-12.7h19.5c7 0 12.8 5.7 12.8 12.7v18.7c0 7-5.7 12.7-12.8 12.7zm11.2-31.4c0-6.1-5-11.1-11.2-11.1h-19.5c-6.2 0-11.2 5-11.2 11.1v18.7c0 6.1 5 11.1 11.2 11.1h19.5c6.2 0 11.2-5 11.2-11.1v-18.7zm-27.2 14.7l-5.3-5.1 3.4-3.5 5.3 5.2 10.8-10.7 3.6 3.4-14.3 14.2-3.5-3.5z" fill="#FFF"/></svg><svg height="44" viewBox="-283 375 44 44" width="44" x="123" y="96"><path d="M-245.4 412.5l-.1.1c-4 4-9.5 6.4-15.5 6.4s-11.5-2.5-15.5-6.4h-.1v-.1c-4-4-6.4-9.5-6.4-15.5s2.5-11.5 6.4-15.5v-.1h.1c4-4 9.5-6.4 15.5-6.4s11.5 2.4 15.5 6.4h.1v.1c4 4 6.4 9.5 6.4 15.5s-2.4 11.5-6.4 15.5zm-.6-29.4l-3.5 3.5c-.2.2-.3.2-.5.2s-.4-.1-.6-.2c-.3-.3-.3-.8 0-1.1l3.5-3.5c-3.5-3.2-8.1-5.2-13.1-5.4v5c0 .4-.3.8-.8.8-.4 0-.8-.3-.8-.8v-5c-5.1.2-9.6 2.2-13.1 5.4l3.5 3.5c.3.3.3.8 0 1.1-.2.2-.4.2-.5.2-.2 0-.4-.1-.5-.2l-3.5-3.5c-3.2 3.5-5.2 8.1-5.4 13.1h5c.4 0 .8.3.8.8 0 .4-.3.8-.8.8h-5c.2 5.1 2.2 9.6 5.4 13.1l3.5-3.5c.3-.3.8-.3 1.1 0 .3.3.3.8 0 1.1l-3.5 3.5c3.5 3.2 8.1 5.2 13.1 5.4v-5c0-.4.3-.8.8-.8.4 0 .8.3.8.8v5c5.1-.2 9.6-2.2 13.1-5.4l-3.5-3.5c-.3-.3-.3-.8 0-1.1.3-.3.8-.3 1.1 0l3.5 3.5c3.2-3.5 5.2-8.1 5.4-13.1h-5c-.4 0-.8-.3-.8-.8 0-.4.3-.8.8-.8h5c-.3-5-2.3-9.6-5.5-13.1zm-12.8 13c.1.2.1.4.1.7 0 1.2-.9 2.1-2.1 2.1-1.2 0-2.1-.9-2.1-2.1s.9-2.1 2.1-2.1c.3 0 .7.1 1 .2l6.6-6.6c.3-.3.8-.3 1.1 0 .3.3.3.8 0 1.1l-6.7 6.7z" fill="#FFF"/></svg><svg height="24" viewBox="-293 385 25 24" width="24.4" x="123" y="140"><path d="M-280.8 385c-6.7 0-12.2 5.4-12.2 12s5.5 12 12.2 12 12.2-5.4 12.2-12-5.5-12-12.2-12zm6.2 13.3c.6.5 1.2 1.1 1.7 1.7.2.3.4.5.6.9.2.4 0 .9-.4 1h-2.5c-.6.1-1.2-.2-1.6-.6-.3-.3-.7-.7-1-1.1l-.4-.4c-.3-.2-.6-.2-.8.2-.2.4-.2.8-.3 1.1 0 .6-.2.7-.8.8-1.3.1-2.5-.1-3.6-.8-1-.6-1.7-1.3-2.4-2.2-1.3-1.7-2.3-3.6-3.2-5.6-.2-.4-.1-.7.4-.7h2.4c.3 0 .6.2.7.5.4 1.1 1 2.1 1.7 3 .2.2.4.5.6.7.3.2.5.1.6-.2.1-.2.1-.4.1-.6.1-.7.1-1.5 0-2.2-.1-.5-.3-.8-.8-.8-.2 0-.2-.1-.1-.3.2-.2.4-.4.8-.4h2.8c.4.1.5.3.6.7v3.1c0 .2.1.7.4.8.2.1.4-.1.6-.3.7-.7 1.2-1.5 1.6-2.4.2-.4.4-.8.5-1.2.1-.3.3-.4.6-.4H-272.9c.5.1.6.3.4.7-.2.7-.7 1.3-1.1 1.8-.5.6-.9 1.2-1.4 1.8-.2.6-.1.9.4 1.4z" fill="#FFF"/></svg><svg height="23.9" viewBox="-293 386 25 24" width="24.4" x="148" y="140"><path d="M-280.8 385.1c-6.7 0-12.2 5.4-12.2 12s5.5 12 12.2 12c6.7 0 12.2-5.4 12.2-12 0-6.7-5.5-12-12.2-12zm3 12.4h-2v6.9h-2.9v-6.9h-1.4V395h1.4v-1.6c0-1.1.5-2.9 3-2.9h2.2v2.4h-1.6c-.3 0-.6.1-.6.7v1.4h2.2l-.3 2.5z" fill="#30488C"/></svg><svg height="23.9" viewBox="-293 386 25 24" width="24.4" x="244" y="175"><path d="M-280.8 385.1c-6.7 0-12.2 5.4-12.2 12s5.5 12 12.2 12c6.7 0 12.2-5.4 12.2-12 0-6.7-5.5-12-12.2-12zm6.2 13.2c.6.5 1.2 1.1 1.7 1.7.2.3.4.5.6.9.2.4 0 .9-.4 1h-2.5c-.6.1-1.2-.2-1.6-.6-.3-.3-.7-.7-1-1.1l-.4-.4c-.3-.2-.6-.2-.8.2-.2.4-.2.7-.3 1.1 0 .6-.2.7-.8.8-1.3.1-2.5-.1-3.6-.8-1-.5-1.7-1.3-2.4-2.2-1.3-1.7-2.3-3.6-3.2-5.5-.2-.4-.1-.7.4-.7h2.4c.3 0 .5.2.7.5.4 1.1 1 2.1 1.7 3 .2.2.4.5.6.7.3.2.5.1.6-.2.1-.2.1-.4.1-.6.1-.7.1-1.5 0-2.2-.1-.5-.3-.8-.8-.8-.2 0-.2-.1-.1-.3.2-.2.4-.4.8-.4h2.8c.4.1.5.3.6.7v3.1c0 .2.1.7.4.8.2.1.4-.1.6-.3.7-.7 1.2-1.5 1.6-2.4.2-.4.4-.8.5-1.2.1-.3.3-.4.6-.4H-272.9c.5.1.6.3.4.7-.2.7-.7 1.3-1.1 1.8-.5.6-.9 1.2-1.4 1.8-.2.5-.1.8.4 1.3z" fill="#49769C"/></svg><svg height="24" viewBox="-293 385 25 24" width="24.3" x="244" y="199"><path d="M-280.8 385c-6.7 0-12.2 5.4-12.2 12s5.5 12 12.2 12c6.7 0 12.2-5.4 12.2-12s-5.5-12-12.2-12zm3 12.4h-2v7h-2.9v-7h-1.4V395h1.4v-1.6c0-1.1.5-2.9 3-2.9h2.2v2.4h-1.6c-.3 0-.6.1-.6.7v1.4h2.2l-.3 2.4z" fill="#FFF"/></svg><svg height="24" viewBox="-300 385 10 24" width="10" x="167" y="96"><path d="M-290 403.5l-5 5.5-5-5.5.9-.9 3.5 3.8v-21.1c0-.2.3-.4.6-.4s.6.2.6.4v21.1l3.5-3.8.9.9z" fill="#322525"/></svg><svg height="16" viewBox="-297 389 17 16" width="17" x="269" y="175"><path d="M-280 403.8l-1.2 1.2-7.3-7.1-7.3 7.1-1.2-1.2 7.3-7.1-6.7-6.5 1.2-1.2 6.7 6.5 6.7-6.5 1.2 1.2-6.7 6.5 7.3 7.1z" fill="#F7F7F7"/></svg></svg>