<?xml version="1.0" standalone="no"?>
<!DOCTYPE svg PUBLIC "-//W3C//DTD SVG 20010904//EN"
 "http://www.w3.org/TR/2001/REC-SVG-20010904/DTD/svg10.dtd">
<svg version="1.0" xmlns="http://www.w3.org/2000/svg"
 width="700.000000pt" height="700.000000pt" viewBox="0 0 700.000000 700.000000"
 preserveAspectRatio="xMidYMid meet">
<metadata>
Created by potrace 1.11, written by Peter Selinger 2001-2013
</metadata>
<g transform="translate(0.000000,700.000000) scale(0.100000,-0.100000)"
fill="#000000" stroke="none">
<path d="M0 4823 l0 -2178 788 787 c2001 2001 2494 2489 2505 2480 7 -5 102
-80 212 -167 110 -88 221 -175 246 -195 44 -34 547 -432 585 -463 11 -9 113
-90 228 -182 207 -164 209 -165 230 -147 12 10 91 79 176 153 85 74 166 144
180 156 14 12 36 31 50 43 14 12 68 59 120 105 52 45 192 167 310 270 118 103
242 211 275 240 33 29 78 67 100 86 22 19 46 40 54 48 17 16 22 11 276 -274
44 -50 82 -92 85 -95 3 -3 43 -48 90 -100 138 -154 154 -172 165 -184 6 -6 71
-78 145 -161 74 -82 144 -161 157 -175 l23 -25 0 1078 0 1077 -3500 0 -3500 0
0 -2177z"/>
<path d="M3273 5277 c-18 -21 -1201 -1192 -1668 -1652 -117 -115 -526 -520
-909 -899 l-696 -689 0 -1019 0 -1018 3500 0 3500 0 0 2065 0 2066 -232 257
c-127 141 -265 295 -307 342 -42 46 -101 112 -131 145 -68 74 -206 228 -246
273 l-29 32 -90 -76 c-49 -42 -112 -95 -139 -118 -27 -23 -54 -46 -60 -51 -20
-18 -396 -337 -505 -428 -58 -49 -119 -101 -136 -116 -79 -70 -279 -238 -299
-250 -23 -15 -34 -8 -345 237 -19 15 -221 172 -450 350 -229 178 -431 335
-450 350 -19 15 -80 62 -135 105 -56 42 -108 83 -116 90 -31 26 -37 26 -57 4z
m-1796 -4400 c5 -3 9 -30 8 -59 l0 -53 -125 -1 -125 -1 -3 -66 -3 -67 121 0
120 0 0 -60 0 -60 -120 0 -120 0 0 -75 c0 -53 4 -75 13 -76 6 0 65 -1 130 -1
l117 -1 0 -52 c0 -33 -5 -54 -12 -57 -7 -2 -96 -4 -198 -4 l-185 1 -3 317 -2
317 37 3 c62 5 340 1 350 -5z m491 4 c8 -1 12 -20 12 -60 l0 -58 -97 -1 c-54
0 -107 0 -119 -1 -20 -1 -21 -5 -20 -258 l0 -258 -75 0 -74 0 0 315 0 314 23
6 c18 4 275 5 350 1z m362 -7 c4 -5 19 -49 34 -99 31 -101 73 -238 123 -400
19 -60 36 -115 38 -121 3 -10 -149 -13 -159 -3 -2 2 -14 38 -27 79 l-24 75
-91 1 -92 0 -17 -78 c-10 -43 -23 -79 -29 -79 -43 -5 -136 -3 -136 2 0 7 142
474 176 581 13 39 20 47 42 50 49 6 154 0 162 -8z m1205 1 c135 -36 219 -174
208 -339 -12 -183 -114 -292 -281 -301 -194 -11 -323 116 -323 318 -1 162 84
283 231 329 23 7 131 3 165 -7z m453 -113 c2 -107 5 -122 20 -123 19 -1 190
-1 210 0 9 1 12 32 12 121 0 107 2 120 18 121 9 1 42 1 72 1 l55 0 0 -316 c0
-174 -2 -316 -5 -317 -3 -1 -35 -2 -72 -3 l-68 -2 0 133 0 133 -120 0 -119 0
-3 -132 -3 -132 -67 -1 -68 -2 0 318 0 318 38 3 c20 2 51 3 67 2 l30 -1 3
-121z m964 109 l27 -10 -14 -48 c-18 -60 -17 -59 -35 -54 -8 2 -51 4 -95 5
-70 0 -85 -2 -115 -24 -65 -46 -92 -101 -91 -184 1 -141 73 -208 217 -202 38
2 76 6 86 10 13 6 18 -2 27 -45 6 -29 8 -56 3 -61 -25 -25 -205 -33 -267 -13
-167 57 -243 191 -214 378 21 129 112 222 249 253 60 14 179 11 222 -5z m465
5 c3 -3 27 -76 53 -163 27 -87 69 -225 94 -307 30 -96 43 -152 36 -156 -6 -3
-41 -6 -78 -5 l-67 1 -26 79 -25 80 -91 1 -91 1 -21 -82 -22 -81 -73 0 c-45 1
-72 5 -70 11 6 17 105 339 109 355 14 53 79 257 86 265 7 10 176 11 186 1z
m766 5 c4 -1 6 -144 5 -318 l-3 -317 -67 -1 -68 -1 0 258 c0 222 -2 258 -15
259 -8 1 -37 1 -65 1 -27 0 -54 0 -60 -1 -6 -1 -10 -50 -10 -126 0 -268 -59
-384 -202 -399 -41 -4 -46 -3 -47 17 -1 12 -2 40 -4 61 -2 31 2 40 17 42 27 4
64 42 76 79 17 53 20 92 20 272 l0 172 43 3 c33 2 347 1 380 -1z m-5679 -11
c4 -5 84 -271 90 -305 3 -11 10 -45 17 -75 l12 -55 32 115 c42 151 96 314 106
320 7 5 159 6 180 1 3 0 7 -25 8 -53 4 -95 18 -352 27 -491 l5 -87 -33 -1
c-73 -2 -99 -1 -103 3 -7 6 -20 238 -25 443 l-2 50 -19 -60 c-10 -33 -21 -69
-24 -80 -2 -11 -26 -92 -53 -180 l-48 -160 -57 -3 -56 -3 -11 40 c-6 22 -19
66 -29 98 -10 32 -30 110 -45 173 -44 184 -44 184 -47 115 -1 -33 -3 -71 -4
-85 -1 -14 -5 -95 -9 -180 -4 -85 -11 -158 -14 -162 -7 -6 -56 -11 -103 -9
-24 1 -26 4 -23 39 2 20 6 87 9 147 3 61 8 124 10 140 2 17 7 86 11 155 5 106
10 154 13 155 7 3 181 -2 185 -5z m2248 1 c4 -1 7 -57 6 -126 -1 -110 4 -148
15 -134 2 2 42 63 89 134 l84 131 86 -1 c92 0 95 -2 51 -50 -10 -11 -34 -40
-53 -65 -19 -25 -37 -47 -40 -50 -3 -3 -25 -30 -48 -59 l-43 -55 35 -18 c52
-27 81 -72 121 -188 20 -58 43 -115 50 -127 14 -21 13 -21 -38 -25 -111 -7
-109 -8 -141 95 -40 129 -67 163 -136 171 -35 4 -32 15 -31 -151 l1 -112 -38
-3 c-20 -2 -53 -2 -72 0 l-35 4 1 304 c1 167 4 310 7 318 5 12 65 15 129 7z
m4008 0 c3 0 4 -27 2 -59 l-4 -58 -84 2 -84 1 -1 -36 c0 -20 -1 -136 -1 -258
l-1 -221 -36 -4 c-20 -1 -53 -2 -73 0 l-38 3 0 257 0 258 -82 -1 -83 0 -3 49
c-2 27 -1 54 1 60 3 8 74 11 243 10 132 -1 241 -2 244 -3z"/>
<path d="M2210 705 c-7 -33 -18 -83 -26 -112 -23 -83 -23 -83 52 -83 58 0 65
2 60 18 -3 9 -16 55 -30 102 -41 144 -41 144 -56 75z"/>
<path d="M3394 765 c-120 -50 -141 -306 -32 -388 37 -28 98 -33 139 -12 64 34
91 90 93 195 1 121 -51 204 -134 214 -20 2 -49 -2 -66 -9z"/>
<path d="M5306 743 c-2 -10 -14 -58 -26 -108 -11 -49 -23 -98 -26 -107 -5 -16
3 -18 65 -18 39 0 71 2 71 4 0 2 -7 23 -16 47 -8 24 -17 51 -19 59 -16 62 -37
136 -40 138 -2 2 -6 -5 -9 -15z"/>
</g>
</svg>
