<svg version="1" xmlns="http://www.w3.org/2000/svg" width="933.333" height="933.333" viewBox="0 0 700.000000 700.000000"><path d="M0 217.7v217.8l78.8-78.7c200.1-200.1 249.4-248.9 250.5-248 .7.5 10.2 8 21.2 16.7 11 8.8 22.1 17.5 24.6 19.5 4.4 3.4 54.7 43.2 58.5 46.3 1.1.9 11.3 9 22.8 18.2 20.7 16.4 20.9 16.5 23 14.7 1.2-1 9.1-7.9 17.6-15.3 8.5-7.4 16.6-14.4 18-15.6 1.4-1.2 3.6-3.1 5-4.3 1.4-1.2 6.8-5.9 12-10.5 5.2-4.5 19.2-16.7 31-27s24.2-21.1 27.5-24c3.3-2.9 7.8-6.7 10-8.6 2.2-1.9 4.6-4 5.4-4.8 1.7-1.6 2.2-1.1 27.6 27.4 4.4 5 8.2 9.2 8.5 9.5.3.3 4.3 4.8 9 10 13.8 15.4 15.4 17.2 16.5 18.4.6.6 7.1 7.8 14.5 16.1 7.4 8.2 14.4 16.1 15.7 17.5l2.3 2.5V0H0v217.7z"/><path d="M327.3 172.3c-1.8 2.1-120.1 119.2-166.8 165.2-11.7 11.5-52.6 52-90.9 89.9L0 496.3V700h700V286.9l-23.2-25.7c-12.7-14.1-26.5-29.5-30.7-34.2-4.2-4.6-10.1-11.2-13.1-14.5-6.8-7.4-20.6-22.8-24.6-27.3l-2.9-3.2-9 7.6c-4.9 4.2-11.2 9.5-13.9 11.8-2.7 2.3-5.4 4.6-6 5.1-2 1.8-39.6 33.7-50.5 42.8-5.8 4.9-11.9 10.1-13.6 11.6-7.9 7-27.9 23.8-29.9 25-2.3 1.5-3.4.8-34.5-23.7-1.9-1.5-22.1-17.2-45-35s-43.1-33.5-45-35c-1.9-1.5-8-6.2-13.5-10.5-5.6-4.2-10.8-8.3-11.6-9-3.1-2.6-3.7-2.6-5.7-.4zm-179.6 440c.5.3.9 3 .8 5.9v5.3l-12.5.1-12.5.1-.3 6.6-.3 6.7H147v12h-24v7.5c0 5.3.4 7.5 1.3 7.6.6 0 6.5.1 13 .1l11.7.1v5.2c0 3.3-.5 5.4-1.2 5.7-.7.2-9.6.4-19.8.4l-18.5-.1-.3-31.7-.2-31.7 3.7-.3c6.2-.5 34-.1 35 .5zm49.1-.4c.8.1 1.2 2 1.2 6v5.8l-9.7.1c-5.4 0-10.7 0-11.9.1-2 .1-2.1.5-2 25.8v25.8h-14.9v-62.9l2.3-.6c1.8-.4 27.5-.5 35-.1zm36.2.7c.4.5 1.9 4.9 3.4 9.9 3.1 10.1 7.3 23.8 12.3 40 1.9 6 3.6 11.5 3.8 12.1.3 1-14.9 1.3-15.9.3-.2-.2-1.4-3.8-2.7-7.9l-2.4-7.5-9.1-.1h-9.2l-1.7 7.8c-1 4.3-2.3 7.9-2.9 7.9-4.3.5-13.6.3-13.6-.2 0-.7 14.2-47.4 17.6-58.1 1.3-3.9 2-4.7 4.2-5 4.9-.6 15.4 0 16.2.8zm120.5-.1c13.5 3.6 21.9 17.4 20.8 33.9-1.2 18.3-11.4 29.2-28.1 30.1-19.4 1.1-32.3-11.6-32.3-31.8-.1-16.2 8.4-28.3 23.1-32.9 2.3-.7 13.1-.3 16.5.7zm45.3 11.3c.2 10.7.5 12.2 2 12.3 1.9.1 19 .1 21 0 .9-.1 1.2-3.2 1.2-12.1 0-10.7.2-12 1.8-12.1.9-.1 4.2-.1 7.2-.1h5.5v31.6c0 17.4-.2 31.6-.5 31.7-.3.1-3.5.2-7.2.3l-6.8.2V649h-23.9l-.3 13.2-.3 13.2-6.7.1-6.8.2v-63.6l3.8-.3c2-.2 5.1-.3 6.7-.2l3 .1.3 12.1zm96.4-10.9l2.7 1-1.4 4.8c-1.8 6-1.7 5.9-3.5 5.4-.8-.2-5.1-.4-9.5-.5-7 0-8.5.2-11.5 2.4-6.5 4.6-9.2 10.1-9.1 18.4.1 14.1 7.3 20.8 21.7 20.2 3.8-.2 7.6-.6 8.6-1 1.3-.6 1.8.2 2.7 4.5.6 2.9.8 5.6.3 6.1-2.5 2.5-20.5 3.3-26.7 1.3-16.7-5.7-24.3-19.1-21.4-37.8 2.1-12.9 11.2-22.2 24.9-25.3 6-1.4 17.9-1.1 22.2.5zm46.5-.5c.3.3 2.7 7.6 5.3 16.3 2.7 8.7 6.9 22.5 9.4 30.7 3 9.6 4.3 15.2 3.6 15.6-.6.3-4.1.6-7.8.5l-6.7-.1-2.6-7.9-2.5-8-9.1-.1-9.1-.1-2.1 8.2-2.2 8.1h-7.3c-4.5-.1-7.2-.5-7-1.1.6-1.7 10.5-33.9 10.9-35.5 1.4-5.3 7.9-25.7 8.6-26.5.7-1 17.6-1.1 18.6-.1zm76.6-.5c.4.1.6 14.4.5 31.8l-.3 31.7-6.7.1-6.8.1v-25.8c0-22.2-.2-25.8-1.5-25.9-.8-.1-3.7-.1-6.5-.1-2.7 0-5.4 0-6 .1-.6.1-1 5-1 12.6 0 26.8-5.9 38.4-20.2 39.9-4.1.4-4.6.3-4.7-1.7-.1-1.2-.2-4-.4-6.1-.2-3.1.2-4 1.7-4.2 2.7-.4 6.4-4.2 7.6-7.9 1.7-5.3 2-9.2 2-27.2v-17.2l4.3-.3c3.3-.2 34.7-.1 38 .1zM50.4 613c.4.5 8.4 27.1 9 30.5.3 1.1 1 4.5 1.7 7.5l1.2 5.5 3.2-11.5c4.2-15.1 9.6-31.4 10.6-32 .7-.5 15.9-.6 18-.1.3 0 .7 2.5.8 5.3.4 9.5 1.8 35.2 2.7 49.1l.5 8.7-3.3.1c-7.3.2-9.9.1-10.3-.3-.7-.6-2-23.8-2.5-44.3l-.2-5-1.9 6c-1 3.3-2.1 6.9-2.4 8-.2 1.1-2.6 9.2-5.3 18l-4.8 16-5.7.3-5.6.3-1.1-4c-.6-2.2-1.9-6.6-2.9-9.8-1-3.2-3-11-4.5-17.3-4.4-18.4-4.4-18.4-4.7-11.5-.1 3.3-.3 7.1-.4 8.5-.1 1.4-.5 9.5-.9 18s-1.1 15.8-1.4 16.2c-.7.6-5.6 1.1-10.3.9-2.4-.1-2.6-.4-2.3-3.9.2-2 .6-8.7.9-14.7.3-6.1.8-12.4 1-14 .2-1.7.7-8.6 1.1-15.5.5-10.6 1-15.4 1.3-15.5.7-.3 18.1.2 18.5.5zm224.8-.1c.4.1.7 5.7.6 12.6-.1 11 .4 14.8 1.5 13.4.2-.2 4.2-6.3 8.9-13.4l8.4-13.1 8.6.1c9.2 0 9.5.2 5.1 5-1 1.1-3.4 4-5.3 6.5s-3.7 4.7-4 5c-.3.3-2.5 3-4.8 5.9l-4.3 5.5 3.5 1.8c5.2 2.7 8.1 7.2 12.1 18.8 2 5.8 4.3 11.5 5 12.7 1.4 2.1 1.3 2.1-3.8 2.5-11.1.7-10.9.8-14.1-9.5-4-12.9-6.7-16.3-13.6-17.1-3.5-.4-3.2-1.5-3.1 15.1l.1 11.2-3.8.3c-2 .2-5.3.2-7.2 0l-3.5-.4.1-30.4c.1-16.7.4-31 .7-31.8.5-1.2 6.5-1.5 12.9-.7zm400.8 0c.3 0 .4 2.7.2 5.9l-.4 5.8-8.4-.2-8.4-.1-.1 3.6c0 2-.1 13.6-.1 25.8l-.1 22.1-3.6.4c-2 .1-5.3.2-7.3 0l-3.8-.3v-51.5l-8.2.1h-8.3l-.3-4.9c-.2-2.7-.1-5.4.1-6 .3-.8 7.4-1.1 24.3-1 13.2.1 24.1.2 24.4.3z"/><path d="M221 629.5c-.7 3.3-1.8 8.3-2.6 11.2-2.3 8.3-2.3 8.3 5.2 8.3 5.8 0 6.5-.2 6-1.8-.3-.9-1.6-5.5-3-10.2-4.1-14.4-4.1-14.4-5.6-7.5zM339.4 623.5c-12 5-14.1 30.6-3.2 38.8 3.7 2.8 9.8 3.3 13.9 1.2 6.4-3.4 9.1-9 9.3-19.5.1-12.1-5.1-20.4-13.4-21.4-2-.2-4.9.2-6.6.9zM530.6 625.7c-.2 1-1.4 5.8-2.6 10.8-1.1 4.9-2.3 9.8-2.6 10.7-.5 1.6.3 1.8 6.5 1.8 3.9 0 7.1-.2 7.1-.4s-.7-2.3-1.6-4.7c-.8-2.4-1.7-5.1-1.9-5.9-1.6-6.2-3.7-13.6-4-13.8-.2-.2-.6.5-.9 1.5z"/></svg>