<?xml version="1.0" encoding="utf-8"?>
<!-- Generator: Adobe Illustrator 19.0.0, SVG Export Plug-In . SVG Version: 6.00 Build 0)  -->
<svg id="parashut" xmlns="http://www.w3.org/2000/svg" width="150" height="200" viewBox="-320 356 100 200"><path d="M-230 381.2c0-14-11.2-25.2-25-25.2s-25 11.3-25 25.2v.1c0 .3 0 .6.2.8l23.7 26.6v1.4c0 .6.5 1 1 1s1-.5 1-1v-1.3l23.7-26.6c.3-.4.4-.7.4-1zm-47.7.1c1.3-1.1 2.9-1.7 4.7-1.7 1.9 0 3.7.7 5.1 2.1l9.3 21-19.1-21.4zm21.7 22.1l-9.8-22c1.3-1.2 3-1.8 4.8-1.8 1.9 0 3.6.7 5 2v21.8zm4.6-.7l9.3-21c1.4-1.3 3.2-2.1 5.1-2.1 1.7 0 3.4.6 4.7 1.7l-19.1 21.4zm-2.6.8v-21.9c1.4-1.3 3.1-2 5-2 1.8 0 3.5.6 4.8 1.8l-9.8 22.1zm17-25.9c-2.2 0-4.3.8-6 2.2-1.7-1.4-3.8-2.2-6-2.2s-4.3.8-6 2.2c-1.7-1.4-3.8-2.2-6-2.2s-4.3.8-6 2.2c-1.7-1.4-3.8-2.2-6-2.2-1.8 0-3.4.5-4.9 1.4 1.1-11.7 10.9-20.9 22.9-20.9 11.9 0 21.8 9.2 22.9 20.9-1.5-.9-3.2-1.4-4.9-1.4z" fill="#322525"></path><!-- <path fill="#322525" d="M-256 408h2v16h-2z"/> --><line id="line" x1="-255" y1="408" x2="-255" y2="423" stroke="#322525" stroke-width="3"></line><circle id="ring" cx="-255" cy="430" r="7" fill="rgba(0,0,0,0)" stroke="#E70439" stroke-width="2"></circle><desc>Created with Snap</desc><defs></defs></svg>