<?xml version="1.0" encoding="utf-8"?>
<!-- Generator: Adobe Illustrator 19.0.0, SVG Export Plug-In . SVG Version: 6.00 Build 0)  -->
<svg version="1.1" id="Layer_1" xmlns="http://www.w3.org/2000/svg" xmlns:xlink="http://www.w3.org/1999/xlink" x="0px" y="0px"
	 width="50px" height="82px" viewBox="-280 356 50 82" style="enable-background:new -280 356 50 82;" xml:space="preserve">
<g>
	<path style="fill:#322525;" d="M-230,381.2C-230,381.2-230,381.2-230,381.2C-230,381.2-230,381.2-230,381.2
		C-230,381.2-230,381.2-230,381.2c0-14-11.2-25.2-25-25.2c-13.8,0-25,11.3-25,25.2c0,0,0,0.1,0,0.1c0,0.3,0,0.6,0.2,0.8l23.7,26.6
		v1.4c0,0.6,0.5,1,1,1s1-0.5,1-1v-1.3l23.7-26.6C-230.1,381.8-230,381.5-230,381.2L-230,381.2z M-277.7,381.3
		c1.3-1.1,2.9-1.7,4.7-1.7c1.9,0,3.7,0.7,5.1,2.1l9.3,21L-277.7,381.3z M-256,403.4l-9.8-22c1.3-1.2,3-1.8,4.8-1.8
		c1.9,0,3.6,0.7,5,2V403.4z M-251.4,402.7l9.3-21c1.4-1.3,3.2-2.1,5.1-2.1c1.7,0,3.4,0.6,4.7,1.7L-251.4,402.7z M-254,403.5v-21.9
		c1.4-1.3,3.1-2,5-2c1.8,0,3.5,0.6,4.8,1.8L-254,403.5z M-237,377.6C-237,377.6-237,377.6-237,377.6c-2.2,0-4.3,0.8-6,2.2
		c-1.7-1.4-3.8-2.2-6-2.2c0,0,0,0,0,0c-2.2,0-4.3,0.8-6,2.2c-1.7-1.4-3.8-2.2-6-2.2c0,0,0,0,0,0c-2.2,0-4.3,0.8-6,2.2
		c-1.7-1.4-3.8-2.2-6-2.2c-1.8,0-3.4,0.5-4.9,1.4c1.1-11.7,10.9-20.9,22.9-20.9c11.9,0,21.8,9.2,22.9,20.9
		C-233.6,378.1-235.3,377.6-237,377.6L-237,377.6z"/>
	<rect x="-256" y="408" style="fill:#322525;" width="2" height="16"/>
	<circle style="fill:none;stroke:#E70439;stroke-width:2;" cx="-255" cy="430" r="7"/>
</g>
</svg>
