<svg id="parashut" xmlns="http://www.w3.org/2000/svg" width="50" height="82" viewBox="0 0 50 82"><path fill="#FFF" d="M49.99 25.24l.004-.057v-.013-.008C49.994 11.288 38.782 0 25 0 11.217 0 .004 11.288.004 25.162c0 .026.002.052.004.077-.032.28.047.57.25.796l23.71 26.558v1.385c0 .563.455 1.02 1.015 1.02S26 54.543 26 53.98v-1.333l23.74-26.61c.2-.228.28-.518.25-.798zm-47.64.08c1.31-1.086 2.94-1.677 4.664-1.677 1.915 0 3.71.728 5.088 2.054l9.332 21L2.35 25.32zm21.635 22.114l-9.778-22c1.334-1.158 3.014-1.79 4.797-1.79 1.867 0 3.62.69 4.98 1.952v21.838zm4.58-.72l9.333-21.017c1.377-1.326 3.172-2.054 5.086-2.054 1.726 0 3.354.59 4.668 1.678L28.564 46.715zm-2.55.74v-21.86c1.36-1.26 3.114-1.95 4.98-1.95 1.784 0 3.464.63 4.798 1.79l-9.78 22.02zM42.984 21.6c-2.22 0-4.314.767-5.995 2.174-1.682-1.408-3.776-2.174-5.995-2.174-2.22 0-4.313.767-5.995 2.174-1.68-1.408-3.776-2.174-5.995-2.174-2.22 0-4.314.767-5.995 2.174-1.68-1.408-3.776-2.174-5.995-2.174-1.75 0-3.423.477-4.877 1.37C3.24 11.245 13.072 2.042 24.998 2.042c11.93 0 21.762 9.203 22.863 20.926-1.452-.893-3.126-1.37-4.876-1.37z"/><path id="ring" fill="#fdca00" d="M25 82c-4.41 0-8-3.59-8-8s3.59-8 8-8 8 3.59 8 8-3.59 8-8 8zm0-14c-3.31 0-6 2.69-6 6s2.69 6 6 6 6-2.69 6-6-2.69-6-6-6z"/></svg>