<?xml version="1.0" encoding="utf-8"?>
<!-- Generator: Adobe Illustrator 16.0.0, SVG Export Plug-In . SVG Version: 6.00 Build 0)  -->
<!DOCTYPE svg PUBLIC "-//W3C//DTD SVG 1.1//EN" "http://www.w3.org/Graphics/SVG/1.1/DTD/svg11.dtd">
<svg version="1.1" id="Layer_1" xmlns="http://www.w3.org/2000/svg" xmlns:xlink="http://www.w3.org/1999/xlink" x="0px" y="0px"
	 width="150px" height="150px" viewBox="0 0 150 150" style="enable-background:new 0 0 150 150;" xml:space="preserve">
<g>
	<g>
		<g>
			<circle style="fill:#FDCA00;" cx="74.759" cy="75" r="50.5"/>
		</g>
	</g>
</g>
<g>
	<g>
		<g>
			<path style="fill:#3C3C3C;" d="M93.659,56.1c-5.049-5.049-11.761-7.829-18.901-7.829s-13.852,2.78-18.9,7.829
				S48.029,67.86,48.029,75s2.78,13.852,7.829,18.9c5.048,5.049,11.761,7.829,18.9,7.829s13.852-2.78,18.901-7.829
				c5.048-5.049,7.829-11.761,7.829-18.9S98.708,61.147,93.659,56.1z M74.758,99.548c-13.536,0-24.547-11.013-24.547-24.548
				s11.012-24.548,24.547-24.548S99.306,61.465,99.306,75S88.294,99.548,74.758,99.548z"/>
			<path style="fill:#3C3C3C;" d="M65.573,57.03c2.862-1.469,5.952-2.213,9.185-2.213s6.323,0.744,9.185,2.213
				c0.159,0.082,0.33,0.12,0.497,0.12c0.396,0,0.778-0.216,0.972-0.592c0.275-0.537,0.063-1.194-0.472-1.47
				c-3.173-1.628-6.599-2.454-10.182-2.454c-3.583,0-7.008,0.826-10.181,2.454c-0.536,0.275-0.748,0.933-0.472,1.47
				C64.38,57.094,65.038,57.306,65.573,57.03z"/>
			<path style="fill:#3C3C3C;" d="M94.669,64.818c-0.275-0.535-0.932-0.747-1.469-0.473c-0.536,0.276-0.748,0.934-0.472,1.47
				c1.469,2.861,2.214,5.952,2.214,9.185s-0.745,6.323-2.214,9.185c-0.275,0.536-0.064,1.193,0.472,1.47
				c0.159,0.081,0.33,0.12,0.498,0.12c0.396,0,0.778-0.217,0.971-0.594c1.629-3.172,2.455-6.598,2.455-10.181
				S96.298,67.991,94.669,64.818z"/>
			<path style="fill:#3C3C3C;" d="M83.943,92.97c-2.862,1.469-5.952,2.213-9.185,2.213s-6.323-0.744-9.185-2.213
				c-0.536-0.275-1.193-0.063-1.468,0.472c-0.275,0.537-0.064,1.194,0.472,1.47c3.173,1.628,6.599,2.454,10.181,2.454
				c3.583,0,7.008-0.826,10.181-2.454c0.537-0.275,0.748-0.934,0.472-1.47C85.137,92.906,84.479,92.694,83.943,92.97z"/>
			<path style="fill:#3C3C3C;" d="M54.575,75c0-3.232,0.745-6.323,2.214-9.185c0.275-0.536,0.064-1.193-0.472-1.47
				c-0.537-0.274-1.194-0.062-1.469,0.473c-1.629,3.173-2.455,6.599-2.455,10.182s0.826,7.009,2.455,10.182
				c0.193,0.377,0.575,0.593,0.971,0.593c0.168,0,0.338-0.039,0.498-0.12c0.536-0.276,0.748-0.934,0.472-1.47
				C55.32,81.323,54.575,78.232,54.575,75z"/>
			<path style="fill:#3C3C3C;" d="M79.387,75L91.73,62.657c0.426-0.426,0.426-1.117,0-1.543l-3.086-3.086
				c-0.426-0.426-1.117-0.426-1.542,0L74.758,70.371L62.415,58.028c-0.426-0.426-1.117-0.426-1.543,0l-3.086,3.086
				c-0.426,0.426-0.426,1.117,0,1.543L70.129,75L57.787,87.343c-0.426,0.426-0.426,1.117,0,1.543l3.086,3.086
				c0.426,0.426,1.117,0.426,1.542,0l12.343-12.343l12.343,12.343c0.213,0.213,0.493,0.32,0.771,0.32s0.558-0.107,0.771-0.32
				l3.086-3.086c0.426-0.426,0.426-1.117,0-1.543L79.387,75z M87.873,89.657L75.53,77.314c-0.213-0.213-0.492-0.319-0.771-0.319
				s-0.559,0.106-0.771,0.319L61.644,89.657l-1.543-1.542l12.343-12.344c0.426-0.427,0.426-1.117,0-1.543L60.101,61.885l1.543-1.542
				l12.343,12.343c0.426,0.426,1.117,0.426,1.543,0l12.343-12.343l1.543,1.542L77.073,74.229c-0.426,0.426-0.426,1.116,0,1.543
				l12.343,12.344L87.873,89.657z"/>
		</g>
	</g>
</g>
</svg>
