<?xml version="1.0" encoding="utf-8"?>
<!-- Generator: Adobe Illustrator 16.0.0, SVG Export Plug-In . SVG Version: 6.00 Build 0)  -->
<!DOCTYPE svg PUBLIC "-//W3C//DTD SVG 1.1//EN" "http://www.w3.org/Graphics/SVG/1.1/DTD/svg11.dtd">
<svg version="1.1" id="Layer_1" xmlns="http://www.w3.org/2000/svg" xmlns:xlink="http://www.w3.org/1999/xlink" x="0px" y="0px"
	 width="150px" height="150px" viewBox="0 0 150 150" style="enable-background:new 0 0 150 150;" xml:space="preserve">
<g>
	<g>
		<g>
			<circle style="fill:#FDCA00;" cx="75.002" cy="75" r="50.5"/>
		</g>
	</g>
</g>
<g>
	<g>
		<g>
			<path style="fill:#3C3C3C;" d="M93.11,56.89c-4.837-4.837-11.27-7.502-18.11-7.502c-6.84,0-13.272,2.665-18.109,7.502
				C52.055,61.728,49.39,68.159,49.39,75s2.665,13.272,7.501,18.11c4.837,4.836,11.27,7.502,18.109,7.502
				c6.841,0,13.273-2.666,18.11-7.502c4.836-4.838,7.502-11.27,7.502-18.11S97.946,61.728,93.11,56.89z M75,98.571
				c-12.996,0-23.57-10.574-23.57-23.571S62.004,51.429,75,51.429c12.997,0,23.571,10.574,23.571,23.571S87.997,98.571,75,98.571z"
				/>
			<path style="fill:#3C3C3C;" d="M75,53.609c-7.259,0-13.162,5.903-13.162,13.162c0,1.97,1.604,3.571,3.571,3.571
				c1.97,0,3.57-1.602,3.57-3.571c0-3.319,2.701-6.021,6.021-6.021c3.32,0,6.021,2.701,6.021,6.021c0,3.348-2.7,6.071-6.021,6.071
				c-1.968,0-3.57,1.603-3.57,3.571v7.019c0,1.97,1.603,3.571,3.57,3.571c1.97,0,3.572-1.602,3.572-3.571v-3.943
				c2.579-0.731,4.905-2.261,6.618-4.363c1.917-2.351,2.973-5.318,2.973-8.354C88.163,59.513,82.259,53.609,75,53.609z
				 M77.337,77.697c-0.471,0.101-0.806,0.516-0.806,0.997v4.738c0,0.844-0.687,1.531-1.531,1.531c-0.843,0-1.531-0.688-1.531-1.531
				v-7.019c0-0.844,0.688-1.53,1.531-1.53c4.445,0,8.062-3.639,8.062-8.112c0-4.445-3.616-8.062-8.062-8.062
				s-8.061,3.616-8.061,8.062c0,0.844-0.687,1.53-1.53,1.53s-1.531-0.687-1.531-1.53c0-6.133,4.99-11.122,11.122-11.122
				c6.133,0,11.123,4.989,11.123,11.122C86.123,72.004,82.428,76.598,77.337,77.697z"/>
			<path style="fill:#3C3C3C;" d="M75,88.841c-1.968,0-3.57,1.602-3.57,3.57v0.409c0,1.968,1.603,3.57,3.57,3.57
				c1.97,0,3.572-1.603,3.572-3.57v-0.409C78.572,90.442,76.97,88.841,75,88.841z M76.531,92.82c0,0.844-0.687,1.53-1.531,1.53
				c-0.843,0-1.531-0.687-1.531-1.53v-0.409c0-0.844,0.688-1.529,1.531-1.529c0.845,0,1.531,0.686,1.531,1.529V92.82z"/>
			<path style="fill:#3C3C3C;" d="M55.417,79.078C55.141,77.747,55,76.373,55,75c0-0.563-0.456-1.02-1.02-1.02
				s-1.02,0.456-1.02,1.02c0,1.513,0.153,3.023,0.457,4.493c0.102,0.481,0.525,0.813,1,0.813c0.068,0,0.136-0.007,0.207-0.022
				C55.177,80.171,55.531,79.631,55.417,79.078z"/>
			<path style="fill:#3C3C3C;" d="M67.039,93.353c-4.488-1.95-8.102-5.468-10.173-9.906c-0.238-0.511-0.845-0.732-1.356-0.494
				s-0.73,0.846-0.492,1.356c2.281,4.891,6.263,8.767,11.209,10.915c0.133,0.058,0.271,0.085,0.405,0.085
				c0.395,0,0.771-0.229,0.937-0.614C67.793,94.178,67.557,93.577,67.039,93.353z"/>
		</g>
	</g>
</g>
</svg>
