<?xml version="1.0" encoding="utf-8"?>
<!-- Generator: Adobe Illustrator 16.0.0, SVG Export Plug-In . SVG Version: 6.00 Build 0)  -->
<!DOCTYPE svg PUBLIC "-//W3C//DTD SVG 1.1//EN" "http://www.w3.org/Graphics/SVG/1.1/DTD/svg11.dtd">
<svg version="1.1" id="Layer_1" xmlns="http://www.w3.org/2000/svg" xmlns:xlink="http://www.w3.org/1999/xlink" x="0px" y="0px"
	 width="150px" height="150px" viewBox="0 0 150 150" style="enable-background:new 0 0 150 150;" xml:space="preserve">
<g>
	<g>
		<g>
			<circle style="fill:#FDCA00;" cx="75.001" cy="75" r="50.5"/>
		</g>
	</g>
</g>
<g>
	<g>
		<g>
			<path style="fill:#3C3C3C;" d="M57.222,83.331c0,9.802,7.975,17.777,17.778,17.777c9.802,0,17.777-7.976,17.777-17.777
				c0-9.803-7.975-17.778-17.777-17.778C65.197,65.553,57.222,73.528,57.222,83.331L57.222,83.331z M90.505,82.217
				c-0.011-0.001-0.022-0.002-0.034-0.002h-2.38c-0.616,0-1.116,0.5-1.116,1.116s0.5,1.115,1.116,1.115h2.38
				c0.011,0,0.022-0.001,0.034-0.002c-0.546,7.686-6.705,13.845-14.39,14.392v-2.414c0-0.616-0.5-1.115-1.116-1.115
				s-1.116,0.499-1.116,1.115v2.414c-7.685-0.547-13.842-6.705-14.39-14.39h2.414c0.616,0,1.116-0.499,1.116-1.115
				s-0.5-1.116-1.116-1.116h-2.414c0.548-7.685,6.705-13.842,14.39-14.39v2.414c0,0.616,0.5,1.116,1.116,1.116
				c0.616,0,1.116-0.5,1.116-1.116v-2.414C83.801,68.373,89.959,74.531,90.505,82.217z"/>
			<path style="fill:#3C3C3C;" d="M76.553,80.2c-0.468-0.233-0.995-0.365-1.553-0.365c-1.538,0-2.846,0.998-3.312,2.38h-1.448
				c-0.616,0-1.116,0.5-1.116,1.116s0.5,1.115,1.116,1.115h1.448c0.051,0.15,0.111,0.297,0.181,0.438l-1.95,1.95
				c-0.436,0.436-0.436,1.143,0,1.578c0.218,0.218,0.503,0.326,0.789,0.326c0.286,0,0.571-0.108,0.789-0.326l1.951-1.95
				c0.468,0.232,0.995,0.364,1.553,0.364c1.538,0,2.846-0.998,3.312-2.38h5.019c0.616,0,1.116-0.499,1.116-1.116
				c0-0.616-0.5-1.115-1.116-1.115h-5.019c-0.051-0.15-0.111-0.297-0.181-0.438l5.989-5.988c0.436-0.437,0.436-1.143,0-1.578
				c-0.436-0.436-1.142-0.436-1.578,0L76.553,80.2L76.553,80.2z M75,84.595c-0.698,0-1.265-0.566-1.265-1.264
				s0.567-1.265,1.265-1.265c0.697,0,1.264,0.567,1.264,1.265S75.697,84.595,75,84.595z"/>
			<path style="fill:#3C3C3C;" d="M100.587,59.921c-0.324-1.209-1.099-2.219-2.184-2.845l-5.218-3.013l0.632-1.095
				c0.308-0.534,0.125-1.217-0.408-1.524s-1.216-0.126-1.524,0.408l-0.632,1.095l-3.237-1.868v-2.262
				c0-4.553-3.704-8.257-8.256-8.257h-9.521c-4.553,0-8.256,3.704-8.256,8.257v2.262l-3.236,1.868l-0.632-1.095
				c-0.308-0.534-0.991-0.716-1.524-0.408c-0.533,0.308-0.716,0.99-0.408,1.524l0.632,1.095l-5.218,3.013
				c-1.084,0.626-1.859,1.636-2.184,2.845c-0.324,1.21-0.158,2.472,0.468,3.557l1.785,3.092c0.308,0.533,0.805,0.915,1.4,1.074
				c0.198,0.054,0.4,0.079,0.601,0.079c0.399,0,0.793-0.104,1.149-0.31l7.279-4.202l0.687,1.189
				c-6.206,4.019-10.32,11.003-10.32,18.931c0,7.963,4.151,14.976,10.404,18.985l-3.116,5.453c-0.306,0.535-0.12,1.217,0.415,1.522
				c0.175,0.1,0.365,0.147,0.553,0.147c0.387,0,0.764-0.202,0.97-0.562l3.115-5.451c3.064,1.562,6.53,2.443,10.198,2.443
				c3.589,0,6.984-0.845,9.999-2.344l3.334,5.385c0.211,0.342,0.576,0.529,0.95,0.529c0.201,0,0.403-0.054,0.586-0.167
				c0.524-0.325,0.686-1.013,0.361-1.536l-3.283-5.303c6.356-3.99,10.591-11.061,10.591-19.103c0-7.928-4.115-14.912-10.32-18.931
				l0.687-1.189l7.279,4.202c0.355,0.205,0.75,0.31,1.149,0.31c0.2,0,0.402-0.025,0.601-0.079c0.595-0.159,1.092-0.541,1.4-1.074
				l1.785-3.092C100.745,62.393,100.911,61.131,100.587,59.921z M53.7,65.48c-0.006,0.004-0.026,0.016-0.056,0.008
				s-0.042-0.028-0.045-0.035l-1.785-3.092c-0.328-0.567-0.415-1.229-0.245-1.862c0.169-0.634,0.576-1.163,1.144-1.49l12.368-7.142
				c0.378-0.218,0.798-0.329,1.224-0.329c0.213,0,0.428,0.027,0.639,0.084c0.633,0.17,1.163,0.576,1.491,1.144l1.785,3.092
				c0.021,0.036,0.008,0.082-0.027,0.103L53.7,65.48z M95.306,83.331c0,11.197-9.109,20.306-20.306,20.306
				c-11.197,0-20.307-9.108-20.307-20.306S63.803,63.024,75,63.024C86.197,63.024,95.306,72.134,95.306,83.331z M85.288,63.281
				c-2.774-1.43-5.881-2.3-9.172-2.461v-6.127h0.074c0.616,0,1.116-0.5,1.116-1.116s-0.5-1.115-1.116-1.115h-2.38
				c-0.616,0-1.115,0.499-1.115,1.115s0.5,1.116,1.115,1.116h0.075v6.127c-3.291,0.161-6.397,1.031-9.172,2.461l-0.685-1.187
				l7.279-4.202c1.101-0.636,1.479-2.049,0.844-3.15l-1.785-3.092c-0.626-1.084-1.636-1.859-2.845-2.184
				c-1.117-0.299-2.28-0.18-3.306,0.335v-0.984c0-3.322,2.703-6.025,6.025-6.025h9.521c3.322,0,6.025,2.703,6.025,6.025v0.984
				c-1.025-0.514-2.188-0.635-3.306-0.335c-1.209,0.324-2.22,1.1-2.845,2.184l-1.785,3.092c-0.636,1.102-0.257,2.515,0.844,3.15
				l7.279,4.202L85.288,63.281z M98.186,62.361l-1.785,3.092c-0.004,0.007-0.015,0.027-0.045,0.035
				c-0.03,0.009-0.05-0.004-0.057-0.008L79.809,55.96c-0.036-0.021-0.048-0.066-0.027-0.103l1.785-3.092
				c0.328-0.567,0.857-0.974,1.491-1.144c0.211-0.057,0.426-0.085,0.639-0.085c0.425,0,0.845,0.112,1.223,0.33l12.368,7.141
				c0.568,0.328,0.974,0.857,1.144,1.491C98.601,61.132,98.514,61.794,98.186,62.361L98.186,62.361z"/>
		</g>
	</g>
	<path style="fill:#3C3C3C;" d="M107.339,62.931c-0.538,0-0.982-0.428-0.999-0.969c-0.24-7.711-6.815-10.86-7.095-10.991
		c-0.5-0.232-0.718-0.826-0.486-1.327s0.826-0.719,1.324-0.488c0.326,0.149,7.977,3.772,8.256,12.744
		c0.017,0.552-0.417,1.014-0.968,1.031C107.36,62.931,107.35,62.931,107.339,62.931z"/>
	<path style="fill:#3C3C3C;" d="M112.828,64.994c-0.538,0-0.982-0.428-0.999-0.969c-0.443-14.202-12.894-20.096-13.02-20.153
		c-0.502-0.23-0.721-0.824-0.49-1.326c0.23-0.502,0.826-0.723,1.326-0.49c0.137,0.062,13.702,6.481,14.183,21.907
		c0.017,0.552-0.417,1.014-0.968,1.031C112.849,64.994,112.838,64.994,112.828,64.994z"/>
	<path style="fill:#3C3C3C;" d="M42.426,62.931c-0.01,0-0.021,0-0.032,0c-0.552-0.018-0.985-0.479-0.968-1.031
		c0.28-8.972,7.931-12.595,8.256-12.744c0.501-0.23,1.095-0.011,1.326,0.49s0.012,1.094-0.488,1.325l0,0
		c-0.28,0.131-6.855,3.28-7.095,10.991C43.408,62.503,42.964,62.931,42.426,62.931z"/>
	<path style="fill:#3C3C3C;" d="M36.938,64.994c-0.01,0-0.021,0-0.032,0c-0.552-0.018-0.985-0.479-0.968-1.031
		c0.481-15.426,14.045-21.845,14.183-21.907c0.501-0.231,1.094-0.012,1.325,0.489s0.013,1.095-0.488,1.327
		c-0.126,0.058-12.579,5.989-13.021,20.153C37.919,64.566,37.476,64.994,36.938,64.994z"/>
</g>
</svg>
