<?xml version="1.0" encoding="utf-8"?>
<!-- Generator: Adobe Illustrator 16.0.0, SVG Export Plug-In . SVG Version: 6.00 Build 0)  -->
<!DOCTYPE svg PUBLIC "-//W3C//DTD SVG 1.1//EN" "http://www.w3.org/Graphics/SVG/1.1/DTD/svg11.dtd">
<svg version="1.1" id="Layer_1" xmlns="http://www.w3.org/2000/svg" xmlns:xlink="http://www.w3.org/1999/xlink" x="0px" y="0px"
	 width="150px" height="150px" viewBox="0 0 150 150" style="enable-background:new 0 0 150 150;" xml:space="preserve">
<g>
	<g>
		<g>
			<circle style="fill:#FDCA00;" cx="75.001" cy="74.999" r="50.5"/>
		</g>
	</g>
</g>
<g>
	<g>
		<g>
			<path style="fill:#3C3C3C;" d="M94.303,70.411c0-0.543-0.44-0.983-0.983-0.983H69.736c-0.543,0-0.983,0.44-0.983,0.983
				s0.44,0.983,0.983,0.983h23.583C93.862,71.395,94.303,70.954,94.303,70.411z"/>
			<path style="fill:#3C3C3C;" d="M73.666,78.605c-0.543,0-0.982,0.44-0.982,0.983s0.439,0.983,0.982,0.983h0.132
				c0.543,0,0.983-0.44,0.983-0.983s-0.44-0.983-0.983-0.983H73.666L73.666,78.605z"/>
			<path style="fill:#3C3C3C;" d="M99.543,60.255V50.088c0-3.435-2.794-6.229-6.229-6.229H56.639c-3.435,0-6.229,2.794-6.229,6.229
				v25.903c-3.642,0.172-6.551,3.19-6.551,6.876c0,3.796,3.086,6.884,6.879,6.884h17.968v3.406c0,0.438,0.206,0.854,0.565,1.138l0,0
				c0.611,0.482,1.534,0.482,2.146,0l5.095-4.024c0.481-0.38,0.757-0.928,0.757-1.503s-0.275-1.123-0.757-1.504l-5.095-4.023
				c-0.612-0.483-1.535-0.483-2.146,0c-0.359,0.283-0.565,0.698-0.565,1.138v3.406H52.377V50.088c0-2.35,1.912-4.262,4.262-4.262
				h36.677c2.35,0,4.261,1.912,4.261,4.262v10.161H81.201v-3.406c0-0.438-0.207-0.854-0.566-1.138c-0.611-0.482-1.533-0.482-2.145,0
				l-5.096,4.024c-0.481,0.38-0.758,0.928-0.758,1.503s0.276,1.123,0.758,1.504l5.096,4.023c0.611,0.483,1.533,0.483,2.145,0
				c0.359-0.283,0.566-0.698,0.566-1.138v-3.406h17.348c0.008,0,0.015,0,0.021,0h0.691c2.709,0,4.912,2.206,4.912,4.917
				c0,2.616-2.053,4.763-4.631,4.909v-6.417c0-0.543-0.439-0.983-0.983-0.983c-0.543,0-0.983,0.44-0.983,0.983v34.287
				c0,2.35-1.912,4.262-4.262,4.262H56.639c-2.35,0-4.262-1.912-4.262-4.262v-6.621c0-0.543-0.44-0.983-0.983-0.983
				s-0.983,0.44-0.983,0.983v6.621c0,3.435,2.794,6.229,6.229,6.229h36.677c3.434,0,6.228-2.794,6.228-6.229V74.011
				c3.663-0.148,6.598-3.177,6.598-6.878S103.206,60.403,99.543,60.255z M50.41,87.773c-2.557-0.17-4.584-2.306-4.584-4.906
				s2.027-4.736,4.584-4.906V87.773z M70.673,85.158l4.569,3.609l-4.569,3.609V85.158z M79.234,64.842l-4.57-3.609l4.57-3.609
				V64.842z"/>
			<path style="fill:#3C3C3C;" d="M93.319,87.784H81.527c-0.543,0-0.983,0.44-0.983,0.983s0.44,0.983,0.983,0.983h11.792
				c0.543,0,0.983-0.44,0.983-0.983S93.862,87.784,93.319,87.784z"/>
			<path style="fill:#3C3C3C;" d="M56.635,80.572h13.102c0.543,0,0.982-0.44,0.982-0.983s-0.439-0.983-0.982-0.983H56.635
				c-0.543,0-0.984,0.44-0.984,0.983S56.092,80.572,56.635,80.572z"/>
			<path style="fill:#3C3C3C;" d="M93.319,78.605H81.527c-0.543,0-0.983,0.44-0.983,0.983s0.44,0.983,0.983,0.983h11.792
				c0.543,0,0.983-0.44,0.983-0.983S93.862,78.605,93.319,78.605z"/>
			<path style="fill:#3C3C3C;" d="M69.409,61.232c0-0.543-0.44-0.983-0.983-0.983H56.635c-0.543,0-0.984,0.44-0.984,0.983
				s0.441,0.983,0.984,0.983h11.791C68.969,62.216,69.409,61.775,69.409,61.232z"/>
			<path style="fill:#3C3C3C;" d="M77.466,80.572h0.132c0.543,0,0.982-0.44,0.982-0.983s-0.439-0.983-0.982-0.983h-0.132
				c-0.543,0-0.983,0.44-0.983,0.983S76.923,80.572,77.466,80.572z"/>
			<path style="fill:#3C3C3C;" d="M65.674,69.428c-0.543,0-0.982,0.44-0.982,0.983s0.439,0.983,0.982,0.983h0.132
				c0.543,0,0.983-0.44,0.983-0.983c0-0.544-0.44-0.983-0.983-0.983H65.674z"/>
			<path style="fill:#3C3C3C;" d="M56.635,71.395h5.24c0.543,0,0.983-0.44,0.983-0.983s-0.44-0.983-0.983-0.983h-5.24
				c-0.543,0-0.984,0.44-0.984,0.983S56.092,71.395,56.635,71.395z"/>
		</g>
	</g>
</g>
</svg>
