<?xml version="1.0" encoding="utf-8"?>
<!-- Generator: Adobe Illustrator 16.0.0, SVG Export Plug-In . SVG Version: 6.00 Build 0)  -->
<!DOCTYPE svg PUBLIC "-//W3C//DTD SVG 1.1//EN" "http://www.w3.org/Graphics/SVG/1.1/DTD/svg11.dtd">
<svg version="1.1" id="Layer_1" xmlns="http://www.w3.org/2000/svg" xmlns:xlink="http://www.w3.org/1999/xlink" x="0px" y="0px"
	 width="101px" height="101px" viewBox="247.14 370.445 101 101" style="enable-background:new 247.14 370.445 101 101;"
	 xml:space="preserve">
<circle style="fill:#FDCA00;" cx="297.64" cy="420.945" r="49.64"/>
<rect x="267.703" y="404.216" style="fill:#FFFFFF;" width="61.875" height="13.974"/>
<rect x="267.703" y="422.697" style="fill:#F4AC06;" width="61.875" height="13.974"/>
<g>
	<path style="fill:#263A7A;" d="M308.855,446.348l-8.876-4.433l23.193-46.447c1.144-2.29,3.927-3.219,6.216-2.076l0.585,0.292
		c2.29,1.144,3.219,3.926,2.076,6.215L308.855,446.348z"/>
	<path style="fill:#121149;" d="M329.972,393.685l-0.343-0.171l-25.361,50.544l4.587,2.29l23.193-46.447
		C333.191,397.611,332.262,394.828,329.972,393.685z"/>
	<polygon style="fill:#FFD97B;" points="308.855,446.348 301.491,449.989 299.979,441.916 	"/>
	<polygon style="fill:#D48B07;" points="301.437,449.698 301.491,449.989 308.855,446.348 304.268,444.058 	"/>
</g>
</svg>
