<?xml version="1.0" encoding="utf-8"?>
<!-- Generator: Adobe Illustrator 16.0.0, SVG Export Plug-In . SVG Version: 6.00 Build 0)  -->
<!DOCTYPE svg PUBLIC "-//W3C//DTD SVG 1.1//EN" "http://www.w3.org/Graphics/SVG/1.1/DTD/svg11.dtd">
<svg version="1.1" id="Layer_1" xmlns="http://www.w3.org/2000/svg" xmlns:xlink="http://www.w3.org/1999/xlink" x="0px" y="0px"
	 width="150px" height="150px" viewBox="0 0 150 150" style="enable-background:new 0 0 150 150;" xml:space="preserve">
<g>
	<g>
		<g>
			<circle style="fill:#FDCA00;" cx="75.452" cy="75" r="50.5"/>
		</g>
	</g>
</g>
<g>
	<path style="fill:#3C3C3C;" d="M112.465,74.999c0-2.375-1.638-4.359-3.84-4.926c-0.198-17.199-5.253-27.91-28.245-28.242
		c-0.565-2.203-2.552-3.846-4.929-3.846c-2.378,0-4.364,1.643-4.93,3.846c-22.994,0.332-28.047,11.041-28.246,28.242
		c-2.201,0.566-3.839,2.551-3.839,4.926c0,2.377,1.638,4.361,3.839,4.928c0.199,17.201,5.254,27.91,28.246,28.242
		c0.565,2.203,2.552,3.846,4.93,3.846c2.377,0,4.363-1.643,4.929-3.846c22.993-0.332,28.047-11.041,28.245-28.242
		C110.827,79.36,112.465,77.376,112.465,74.999z M106.074,70.079c-0.562,0.146-1.094,0.369-1.563,0.686
		c-0.319-2.207-0.917-4.361-1.732-6.439c-0.009-0.029-0.004-0.061-0.017-0.092c-0.014-0.033-0.042-0.057-0.059-0.09
		c-0.93-2.32-2.132-4.547-3.658-6.609c-3.101-4.189-7.172-7.377-11.821-9.406c-0.026-0.014-0.045-0.039-0.073-0.051
		c-0.033-0.016-0.068-0.01-0.103-0.021c-2.3-0.986-4.726-1.711-7.265-2.09c-0.038-0.006-0.073-0.006-0.108-0.012
		c0.319-0.471,0.547-1.006,0.695-1.57C101.354,44.696,105.884,54.056,106.074,70.079z M86.453,99.433l-3.281-8.326
		c1.01-0.488,1.987-1.062,2.909-1.744c2.211-1.637,3.961-3.723,5.197-6.092l8.216,3.568c-1.862,3.793-4.602,7.117-8.096,9.703
		C89.84,97.698,88.179,98.651,86.453,99.433z M71.494,101.511c-1.918-0.287-3.768-0.787-5.541-1.455l3.564-8.199
		c1.06,0.369,2.16,0.648,3.295,0.818c0.894,0.133,1.786,0.199,2.675,0.199c1.814,0,3.6-0.283,5.312-0.822l3.279,8.322
		C80.081,101.737,75.793,102.151,71.494,101.511z M53.907,90.948c-1.154-1.559-2.107-3.221-2.889-4.945l8.319-3.279
		c0.487,1.01,1.068,1.986,1.751,2.908c1.637,2.209,3.722,3.959,6.093,5.197l-3.57,8.215C59.817,97.183,56.493,94.44,53.907,90.948z
		 M64.448,50.569l3.278,8.32c-1.01,0.486-1.985,1.066-2.908,1.75c-2.211,1.635-3.96,3.721-5.196,6.09l-8.215-3.57
		c1.861-3.791,4.602-7.117,8.096-9.703C61.062,52.302,62.723,51.349,64.448,50.569z M75.393,48.192c0.004,0,0.01,0,0.014,0
		c0.015,0,0.029,0.004,0.045,0.004c0.008,0,0.014-0.002,0.02-0.002c1.306,0.004,2.62,0.1,3.936,0.297
		c1.918,0.285,3.768,0.785,5.54,1.453l-3.562,8.201c-1.062-0.371-2.162-0.65-3.296-0.82c-2.719-0.404-5.433-0.168-7.981,0.635
		l-3.287-8.342C69.569,48.683,72.458,48.192,75.393,48.192z M96.994,59.052c1.153,1.559,2.107,3.221,2.889,4.945l-8.319,3.279
		c-0.488-1.01-1.068-1.984-1.751-2.906c-1.637-2.211-3.723-3.961-6.093-5.197l3.57-8.215C91.084,52.819,94.408,55.56,96.994,59.052z
		 M100.506,84.497l-8.201-3.562c0.37-1.061,0.649-2.162,0.819-3.297c0.406-2.719,0.168-5.432-0.633-7.98l8.334-3.285
		c1.365,3.998,1.776,8.285,1.136,12.584C101.673,80.874,101.174,82.726,100.506,84.497z M81.215,89.179
		c-0.055,0.012-0.111,0.006-0.166,0.029c-0.065,0.025-0.111,0.074-0.17,0.109c-2.424,0.924-5.052,1.229-7.691,0.83
		c-4.046-0.604-7.616-2.746-10.048-6.035c-0.788-1.062-1.41-2.213-1.893-3.408c-0.01-0.033-0.005-0.068-0.018-0.102
		c-0.016-0.039-0.048-0.064-0.066-0.1c-0.945-2.445-1.261-5.102-0.862-7.764c0.604-4.047,2.746-7.617,6.035-10.049
		c1.089-0.807,2.263-1.447,3.49-1.934c0.002,0,0.004,0,0.007,0c0.003-0.002,0.004-0.004,0.006-0.004
		c1.771-0.701,3.656-1.072,5.577-1.072c0.761,0,1.526,0.057,2.294,0.172c1.295,0.193,2.535,0.561,3.711,1.057
		c0.042,0.025,0.071,0.061,0.116,0.08c0.053,0.023,0.106,0.018,0.158,0.033c2.383,1.061,4.469,2.711,6.063,4.865
		c2.434,3.287,3.442,7.326,2.839,11.373c-0.198,1.324-0.576,2.592-1.091,3.791c-0.007,0.018-0.022,0.027-0.03,0.045
		c-0.01,0.018-0.006,0.041-0.013,0.061c-1.058,2.418-2.721,4.539-4.901,6.152C83.517,88.085,82.389,88.698,81.215,89.179z
		 M48.94,71.042c0.286-1.918,0.786-3.766,1.454-5.539l8.2,3.562c-0.37,1.061-0.649,2.162-0.818,3.297
		c-0.407,2.719-0.169,5.432,0.632,7.98l-8.331,3.285C48.712,79.63,48.3,75.343,48.94,71.042z M75.451,40.538
		c1.408,0,2.552,1.146,2.552,2.553c0,1.408-1.144,2.553-2.552,2.553s-2.554-1.145-2.554-2.553
		C72.897,41.685,74.043,40.538,75.451,40.538z M70.532,44.384c0.146,0.559,0.368,1.09,0.684,1.557
		c-2.211,0.318-4.363,0.916-6.446,1.732c-0.027,0.01-0.056,0.004-0.084,0.016c-0.033,0.014-0.055,0.039-0.085,0.057
		c-2.323,0.928-4.553,2.131-6.617,3.66c-4.187,3.102-7.377,7.172-9.405,11.82c-0.014,0.027-0.038,0.045-0.051,0.074
		c-0.014,0.033-0.011,0.068-0.021,0.104c-0.985,2.299-1.711,4.725-2.09,7.266c-0.005,0.035-0.005,0.072-0.012,0.107
		c-0.474-0.322-1.01-0.549-1.577-0.697C45.017,54.056,49.548,44.696,70.532,44.384z M40.989,74.999c0-1.406,1.145-2.551,2.552-2.551
		c1.408,0,2.554,1.145,2.554,2.551c0,1.408-1.146,2.553-2.554,2.553C42.134,77.552,40.989,76.407,40.989,74.999z M44.827,79.921
		c0.562-0.146,1.094-0.369,1.563-0.686c0.318,2.207,0.915,4.361,1.731,6.439c0.01,0.031,0.004,0.062,0.018,0.092
		c0.018,0.045,0.05,0.082,0.072,0.123c0.928,2.309,2.125,4.525,3.644,6.578c3.101,4.188,7.173,7.377,11.822,9.404
		c0.026,0.014,0.044,0.039,0.072,0.051c0.033,0.016,0.066,0.01,0.1,0.021c2.3,0.984,4.729,1.711,7.269,2.09
		c0.035,0.006,0.07,0.008,0.108,0.012c-0.321,0.471-0.547,1.006-0.694,1.572C49.548,105.304,45.017,95.944,44.827,79.921z
		 M75.451,109.462c-1.408,0-2.554-1.145-2.554-2.553c0-1.398,1.131-2.535,2.525-2.551c0.029,0,0.059,0.004,0.088,0.004
		c1.38,0.033,2.492,1.16,2.492,2.547C78.003,108.317,76.859,109.462,75.451,109.462z M80.37,105.618
		c-0.148-0.564-0.375-1.098-0.693-1.568c2.229-0.322,4.405-0.904,6.501-1.73c0.012-0.004,0.024-0.004,0.037-0.006
		c0.011-0.004,0.016-0.014,0.025-0.018c2.347-0.932,4.593-2.158,6.676-3.699c4.18-3.094,7.367-7.158,9.396-11.797
		c0.019-0.035,0.046-0.061,0.061-0.098c0.015-0.033,0.011-0.07,0.022-0.104c0.985-2.299,1.71-4.725,2.09-7.266
		c0.004-0.037,0.004-0.072,0.011-0.107c0.474,0.322,1.01,0.549,1.577,0.697C105.884,95.944,101.354,105.304,80.37,105.618z
		 M107.359,77.552c-1.408,0-2.553-1.145-2.553-2.553c0-1.406,1.145-2.551,2.553-2.551c1.407,0,2.553,1.145,2.553,2.551
		C109.912,76.407,108.767,77.552,107.359,77.552z"/>
</g>
</svg>
