<?xml version="1.0" encoding="utf-8"?>
<!-- Generator: Adobe Illustrator 16.0.0, SVG Export Plug-In . SVG Version: 6.00 Build 0)  -->
<!DOCTYPE svg PUBLIC "-//W3C//DTD SVG 1.1//EN" "http://www.w3.org/Graphics/SVG/1.1/DTD/svg11.dtd">
<svg version="1.1" id="Layer_1" xmlns="http://www.w3.org/2000/svg" xmlns:xlink="http://www.w3.org/1999/xlink" x="0px" y="0px"
	 width="150px" height="150px" viewBox="0 0 150 150" style="enable-background:new 0 0 150 150;" xml:space="preserve">
<g>
	<g>
		<g>
			<circle style="fill:#FDCA00;" cx="75.452" cy="75" r="50.5"/>
		</g>
	</g>
</g>
<g>
	<g>
		<path style="fill:#3C3C3C;" d="M134.887,75.97c0-11.871-9.659-21.531-21.531-21.531s-21.53,9.66-21.53,21.531
			c0,10.281,7.244,18.902,16.896,21.027v6.254h-3.814c-1.003,0-1.818,0.814-1.818,1.818v1.877c0,1.004,0.815,1.818,1.818,1.818
			h16.897c1.002,0,1.818-0.814,1.818-1.818v-1.877c0-1.004-0.816-1.818-1.818-1.818h-3.813v-6.254
			C127.643,94.872,134.887,86.251,134.887,75.97z M93.585,75.97c0-10.902,8.869-19.771,19.771-19.771s19.771,8.869,19.771,19.771
			s-8.87,19.771-19.771,19.771S93.585,86.872,93.585,75.97z M121.862,105.069v1.877c0,0.033-0.026,0.059-0.058,0.059h-16.897
			c-0.031,0-0.058-0.025-0.058-0.059v-1.877c0-0.033,0.026-0.059,0.058-0.059h16.897
			C121.836,105.011,121.862,105.036,121.862,105.069z M116.23,103.251h-5.749V97.31c0.94,0.125,1.9,0.191,2.874,0.191
			c0.976,0,1.935-0.066,2.875-0.191V103.251z"/>
		<path style="fill:#3C3C3C;" d="M131.132,75.97c0-9.803-7.974-17.775-17.776-17.775c-9.802,0-17.776,7.973-17.776,17.775
			s7.975,17.777,17.776,17.777C123.158,93.747,131.132,85.772,131.132,75.97z M97.34,75.97c0-8.83,7.185-16.016,16.016-16.016
			c8.832,0,16.017,7.186,16.017,16.016c0,8.832-7.185,16.016-16.017,16.016C104.524,91.985,97.34,84.802,97.34,75.97z"/>
		<path style="fill:#3C3C3C;" d="M113.355,79.667c2.039,0,3.696-1.66,3.696-3.697c0-1.236-0.611-2.332-1.547-3.004l2.099-5.248
			c0.181-0.451-0.039-0.963-0.49-1.143c-0.45-0.182-0.963,0.039-1.144,0.49l-2.099,5.244c-0.168-0.023-0.34-0.035-0.516-0.035
			c-2.038,0-3.696,1.658-3.696,3.695S111.317,79.667,113.355,79.667z M113.355,74.034c1.068,0,1.937,0.869,1.937,1.936
			c0,1.068-0.868,1.936-1.937,1.936c-1.067,0-1.936-0.867-1.936-1.936C111.42,74.903,112.288,74.034,113.355,74.034z"/>
		<path style="fill:#3C3C3C;" d="M105.496,69.354c0.173,0.172,0.397,0.258,0.622,0.258c0.226,0,0.451-0.086,0.623-0.258
			c0.344-0.344,0.344-0.9,0-1.244l-1.411-1.41c2.061-1.787,4.58-2.771,7.146-2.955v1.9c0,0.484,0.393,0.879,0.88,0.879
			c0.485,0,0.88-0.395,0.88-0.879v-1.9c2.565,0.184,5.084,1.168,7.145,2.955l-1.41,1.41c-0.344,0.344-0.344,0.9,0,1.244
			c0.172,0.172,0.397,0.258,0.622,0.258c0.226,0,0.451-0.086,0.622-0.258l1.411-1.41c1.786,2.061,2.771,4.58,2.954,7.146h-1.898
			c-0.486,0-0.88,0.393-0.88,0.879s0.394,0.881,0.88,0.881h1.898c-0.184,2.564-1.168,5.084-2.954,7.145l-1.411-1.41
			c-0.343-0.344-0.9-0.344-1.244,0s-0.344,0.9,0,1.244c0,0,2.041,2.043,2.055,2.055c0.173,0.172,0.397,0.258,0.623,0.258
			s0.451-0.086,0.623-0.258c5.467-5.467,5.467-14.361,0-19.828c-5.468-5.467-14.363-5.467-19.83,0s-5.467,14.361,0,19.828
			c0.344,0.344,0.9,0.346,1.244,0c0.014-0.012,2.056-2.055,2.056-2.055c0.344-0.344,0.344-0.9,0-1.244s-0.9-0.344-1.244,0
			l-1.411,1.41c-1.786-2.061-2.771-4.58-2.954-7.145h1.898c0.486,0,0.88-0.395,0.88-0.881s-0.394-0.879-0.88-0.879h-1.898
			c0.183-2.566,1.168-5.086,2.954-7.146L105.496,69.354z"/>
		<path style="fill:#3C3C3C;" d="M116.113,86.296c0-0.486-0.395-0.881-0.88-0.881h-3.755c-0.486,0-0.88,0.395-0.88,0.881
			s0.394,0.879,0.88,0.879h3.755C115.719,87.175,116.113,86.782,116.113,86.296z"/>
	</g>
	<path style="fill:#3C3C3C;" d="M104.119,107.776c-0.367-0.367-0.545-0.869-0.535-1.367c-0.393,0.107-0.802,0.184-1.233,0.184
		H36.947c-2.35,0-4.262-1.721-4.262-3.834s1.912-3.834,4.262-3.834h65.403c2.351,0,4.263,1.721,4.263,3.834
		c0,0.193-0.032,0.379-0.063,0.564c0.667-0.223,1.47,0.061,1.942,0.57c0.078-0.367,0.121-0.746,0.121-1.135
		c0-3.217-2.81-5.834-6.263-5.834H36.947c-3.453,0-6.262,2.617-6.262,5.834s2.809,5.834,6.262,5.834h65.403
		c0.831,0,1.622-0.154,2.349-0.43C104.488,108.073,104.29,107.946,104.119,107.776z"/>
	<path style="fill:#3C3C3C;" d="M54.265,98.925H37.158c-0.553,0-1-0.447-1-1V42.235c0-0.553,0.447-1,1-1h17.106c0.553,0,1,0.447,1,1
		v55.689C55.265,98.478,54.817,98.925,54.265,98.925z M38.158,96.925h15.106V43.235H38.158V96.925z"/>
	<path style="fill:#3C3C3C;" d="M50.6,89.704h-9.777c-0.553,0-1-0.447-1-1v-6.576c0-0.553,0.447-1,1-1H50.6c0.553,0,1,0.447,1,1
		v6.576C51.6,89.257,51.152,89.704,50.6,89.704z M41.822,87.704H49.6v-4.576h-7.777V87.704z"/>
	<path style="fill:#3C3C3C;" d="M67.706,89.704h-9.777c-0.553,0-1-0.447-1-1v-6.576c0-0.553,0.447-1,1-1h9.777c0.553,0,1,0.447,1,1
		v6.576C68.706,89.257,68.259,89.704,67.706,89.704z M58.929,87.704h7.777v-4.576h-7.777V87.704z"/>
	<path style="fill:#3C3C3C;" d="M84.812,89.704h-9.777c-0.553,0-1-0.447-1-1v-6.576c0-0.553,0.447-1,1-1h9.777c0.553,0,1,0.447,1,1
		v6.576C85.812,89.257,85.364,89.704,84.812,89.704z M76.034,87.704h7.777v-4.576h-7.777V87.704z"/>
	<path style="fill:#3C3C3C;" d="M72.37,98.925H53.265V41.235H72.37V98.925z M55.265,96.925H70.37V43.235H55.265V96.925z"/>
	<path style="fill:#3C3C3C;" d="M88.477,98.925H71.37c-0.553,0-1-0.447-1-1V42.235c0-0.553,0.447-1,1-1h17.106c0.553,0,1,0.447,1,1
		v55.689C89.477,98.478,89.029,98.925,88.477,98.925z M72.37,96.925h15.106V43.235H72.37V96.925z"/>
	<path style="fill:#3C3C3C;" d="M41.77,67.513c-0.553,0-1-0.447-1-1V47.458c0-0.553,0.447-1,1-1s1,0.447,1,1v19.055
		C42.77,67.065,42.322,67.513,41.77,67.513z"/>
	<path style="fill:#3C3C3C;" d="M57.929,78.956c-0.553,0-1-0.447-1-1V67.624c0-0.553,0.447-1,1-1s1,0.447,1,1v10.332
		C58.929,78.509,58.481,78.956,57.929,78.956z"/>
	<path style="fill:#3C3C3C;" d="M75.451,55.438c-0.553,0-1-0.447-1-1v-5.166c0-0.553,0.447-1,1-1s1,0.447,1,1v5.166
		C76.451,54.991,76.004,55.438,75.451,55.438z"/>
	<path style="fill:#3C3C3C;" d="M75.451,68.624c-0.553,0-1-0.447-1-1V57.228c0-0.553,0.447-1,1-1s1,0.447,1,1v10.396
		C76.451,68.177,76.004,68.624,75.451,68.624z"/>
</g>
</svg>
