<?xml version="1.0" encoding="utf-8"?>
<!-- Generator: Adobe Illustrator 16.0.0, SVG Export Plug-In . SVG Version: 6.00 Build 0)  -->
<!DOCTYPE svg PUBLIC "-//W3C//DTD SVG 1.1//EN" "http://www.w3.org/Graphics/SVG/1.1/DTD/svg11.dtd">
<svg version="1.1" id="Layer_1" xmlns="http://www.w3.org/2000/svg" xmlns:xlink="http://www.w3.org/1999/xlink" x="0px" y="0px"
	 width="101px" height="101px" viewBox="247.14 370.445 101 101" style="enable-background:new 247.14 370.445 101 101;"
	 xml:space="preserve">
<path style="fill:#FDCA00;" d="M347.354,420.854c0-27.49-22.293-49.783-49.783-49.783c-27.49,0-49.783,22.293-49.783,49.783
	s22.293,49.783,49.783,49.783C325.061,470.638,347.354,448.345,347.354,420.854z"/>
<path style="fill:#FBBF96;" d="M309.731,415.578l-6-4.114c0,0-0.762-0.923-3.732-1.144c-4.675-0.341-13.965-2.488-13.965-2.488
	c-5.719,1.706-5.217,6.782-5.217,6.782l14.969,2.87c0,0,6.902-0.542,8.607,0.542c4.174,2.609,6.24-1.686,6.24-1.686L309.731,415.578
	z"/>
<path style="fill:#FDD6B2;" d="M306.621,413.43l3.992,2.568c0,0-0.902,0.843-1.666,0.743
	C308.106,416.621,306.321,414.654,306.621,413.43z"/>
<path style="fill:#EDAC80;" d="M309.129,417.283l-7.184-1.907l-6.762-0.843l4.795-0.26c0,0,1.967-0.14,3.432,0.642
	C304.574,415.537,309.129,417.283,309.129,417.283z"/>
<g>
	<path style="fill:#FDD6B2;" d="M302.428,412.607c-0.121-0.02-0.201-0.16-0.182-0.281l0.262-1.164c0.039-0.12,0.16-0.201,0.279-0.18
		l0,0c0.121,0.02,0.201,0.16,0.182,0.281l-0.262,1.164C302.688,412.567,302.547,412.648,302.428,412.607L302.428,412.607z"/>
	<path style="fill:#FDD6B2;" d="M301.686,411.845c-0.121-0.04-0.201-0.161-0.182-0.281l0.119-0.622
		c0.021-0.121,0.162-0.2,0.281-0.18l0,0c0.121,0.04,0.201,0.16,0.182,0.281l-0.121,0.622
		C301.946,411.785,301.805,411.865,301.686,411.845L301.686,411.845z"/>
</g>
<path style="fill:#FBBF96;" d="M310.514,443.71c1.746-1.084,6.441-5.819,5.357-7.565l0,0c-1.084-1.746-3.371-2.267-5.117-1.204
	l-13.485,8.228c-1.745,1.084-2.608,2.749-1.524,4.495l0,0c1.083,1.745,2.468,1.766,4.815,0.742L310.514,443.71z"/>
<path style="fill:#EDAC80;" d="M305.035,439.274l-9.772,6.964c-0.06-1.727,0.723-2.248,1.727-2.869l10.715-7.024
	C307.465,436.707,305.438,439.015,305.035,439.274z"/>
<g>
	<path style="fill:#F1A977;" d="M294.661,420.474l3.351-2.83l-0.722-5.638l17.818-6.08l16.957,18.079c0,0-4.555,7.163-9.131,11.396
		c-4.574,4.235-12.641,8.429-12.641,8.429L294.661,420.474z"/>
	<path style="fill:#F1A977;" d="M314.365,433.495c1.746-1.083,2.268-3.37,1.205-5.116l0,0c-1.084-1.745-3.371-2.268-5.117-1.203
		l-19.083,11.839c-1.746,1.082-2.288,3.371-1.204,5.116l0,0c1.083,1.745,3.371,2.268,5.117,1.203L314.365,433.495z"/>
</g>
<path style="fill:#EDAC80;" d="M298.172,435.724l-8.547,6.521c-0.02-1.465,0.562-2.489,1.565-3.111l7.685-4.955
	C298.635,434.539,298.555,435.462,298.172,435.724z"/>
<g>
	<path style="fill:#F1A977;" d="M297.611,426.312c1.504-1.063,6.583-3.933,5.518-5.418l0.982-4.896
		c-1.062-1.485-11.597,5.8-12.44,6.401l-19.103,13.043c-2.147,1.525-2.488,3.612-1.425,5.117l0,0
		c1.063,1.484,3.15,1.845,4.635,0.782L297.611,426.312z"/>
	<path style="fill:#F1A977;" d="M310.012,443.429c1.625-0.723,2.107-3.09,1.283-4.435l0,0c-0.842-1.364-2.707-1.727-4.172-0.823
		l-20.308,12.281c-1.465,0.902-1.967,2.729-1.144,4.093l0,0c0.843,1.364,2.648,1.586,3.833,0.963l20.609-12.119"/>
</g>
<path style="fill:#EDAC80;" d="M305.557,439.194l-9.511,6.341c-1.123,0.663-9.089,5.017-8.247,4.494l20.607-12.821
	C308.186,437.509,305.877,438.974,305.557,439.194z"/>
<path style="fill:#F1A977;" d="M301.323,433.195c1.967-0.964,2.469-3.894,1.365-5.538l0,0c-1.082-1.646-3.412-2.007-5.177-0.823
	l-24.42,16.053c-1.766,1.184-2.308,3.451-1.204,5.097l0,0c1.084,1.626,3.332,1.826,4.756,1.004l24.801-15.892"/>
<path style="fill:#EDAC80;" d="M295.665,428.159l-11.417,8.267c-1.344,0.883-10.976,6.581-9.953,5.919l24.782-16.755
	C298.815,425.971,296.046,427.877,295.665,428.159z"/>
<path style="fill:#F1A977;" d="M305.156,438.372c1.846-0.943,2.287-3.752,1.223-5.297l0,0c-1.062-1.546-3.27-1.867-4.936-0.703
	l-23.035,15.671c-1.666,1.145-2.147,3.332-1.083,4.876l0,0c1.063,1.546,3.19,1.706,4.555,0.884l23.376-15.491"/>
<path style="fill:#EDAC80;" d="M299.678,433.677l-10.755,8.046c-1.265,0.843-10.334,6.442-9.391,5.779l23.355-16.334
	C302.647,431.529,300.039,433.396,299.678,433.677z"/>
<path style="fill:#FBBF96;" d="M285.111,443.71c-1.746-1.084-6.442-5.819-5.358-7.565l0,0c1.083-1.746,3.371-2.267,5.116-1.204
	l13.463,8.228c1.746,1.084,2.609,2.749,1.525,4.495l0,0c-1.084,1.745-2.468,1.766-4.815,0.742L285.111,443.71z"/>
<path style="fill:#EDAC80;" d="M290.588,439.274l9.771,6.964c0.061-1.727-0.721-2.248-1.725-2.869l-10.715-7.024
	C288.16,436.707,290.187,439.015,290.588,439.274z"/>
<g>
	<path style="fill:#FBBF96;" d="M300.961,420.474l-3.35-2.83l0.721-5.638l-17.817-6.1l-16.956,18.079c0,0,4.555,7.164,9.13,11.397
		c4.575,4.234,12.641,8.429,12.641,8.429L300.961,420.474z"/>
	<path style="fill:#FBBF96;" d="M281.258,433.495c-1.746-1.083-2.268-3.37-1.204-5.116l0,0c1.084-1.745,3.371-2.268,5.117-1.203
		l19.082,11.839c1.746,1.082,2.289,3.371,1.205,5.116l0,0c-1.084,1.745-3.371,2.268-5.117,1.203L281.258,433.495z"/>
</g>
<path style="fill:#EDAC80;" d="M297.45,435.724l8.548,6.521c0.02-1.465-0.561-2.489-1.564-3.111l-7.685-4.955
	C297.009,434.539,297.069,435.462,297.45,435.724z"/>
<path style="fill:#FBBF96;" d="M298.012,426.312c-1.484-1.063-6.581-3.933-5.518-5.418l-0.983-4.896
	c1.063-1.485,11.599,5.8,12.44,6.401l19.104,13.043c2.146,1.525,2.488,3.612,1.424,5.117l0,0c-1.062,1.484-3.15,1.845-4.635,0.782
	L298.012,426.312z"/>
<g>
	<path style="fill:#FDD6B2;" d="M319.604,439.797l1.344,0.942c0.943,0.683,2.309,0.401,3.029-0.622
		c0.723-1.023,0.543-2.387-0.4-3.05l-1.324-0.942c0,0-0.701,0.28-1.564,1.524C319.623,439.174,319.723,439.315,319.604,439.797z"/>
	<path style="fill:#FDD6B2;" d="M309.41,432.874c-0.102-0.08-0.141-0.221-0.061-0.342l2.428-3.41
		c0.08-0.101,0.221-0.141,0.342-0.061l0,0c0.1,0.08,0.141,0.222,0.061,0.341l-2.43,3.411
		C309.67,432.935,309.51,432.955,309.41,432.874L309.41,432.874z"/>
	<path style="fill:#FDD6B2;" d="M309.069,431.309c-0.1-0.061-0.121-0.2-0.039-0.301l1.203-1.686
		c0.061-0.101,0.201-0.121,0.301-0.061l0,0c0.1,0.08,0.121,0.201,0.039,0.301l-1.201,1.686
		C309.309,431.349,309.17,431.369,309.069,431.309L309.069,431.309z"/>
</g>
<path style="fill:#FBBF96;" d="M285.612,443.429c-1.625-0.723-2.107-3.09-1.284-4.435l0,0c0.842-1.364,2.709-1.727,4.173-0.823
	l20.306,12.281c1.467,0.902,1.967,2.729,1.145,4.093l0,0c-0.842,1.364-2.648,1.586-3.832,0.963l-20.588-12.119"/>
<path style="fill:#EDAC80;" d="M290.067,439.194l9.512,6.341c1.123,0.663,9.088,5.017,8.246,4.494l-20.607-12.821
	C287.437,437.509,289.745,438.974,290.067,439.194z"/>
<g>
	<path style="fill:#FDD6B2;" d="M305.576,454.224l1.225,0.742c0.863,0.522,2.027,0.201,2.588-0.723
		c0.562-0.922,0.342-2.106-0.521-2.628l-1.203-0.742c0,0-0.582,0.301-1.264,1.404C305.537,453.683,305.637,453.783,305.576,454.224z
		"/>
	<path style="fill:#FDD6B2;" d="M296.769,449.247c-0.101-0.06-0.121-0.18-0.061-0.28l1.946-3.07
		c0.061-0.101,0.201-0.121,0.281-0.061l0,0c0.1,0.061,0.119,0.201,0.061,0.281l-1.947,3.07
		C296.99,449.268,296.869,449.308,296.769,449.247L296.769,449.247z"/>
	<path style="fill:#FDD6B2;" d="M296.407,447.883c-0.081-0.06-0.121-0.16-0.06-0.26l0.962-1.506c0.06-0.08,0.161-0.12,0.261-0.06
		l0,0c0.08,0.06,0.12,0.16,0.061,0.26l-0.963,1.525C296.608,447.923,296.487,447.943,296.407,447.883L296.407,447.883z"/>
</g>
<path style="fill:#FBBF96;" d="M294.3,433.195c-1.966-0.964-2.467-3.894-1.363-5.538l0,0c1.083-1.646,3.411-2.007,5.177-0.823
	l24.439,16.072c1.766,1.185,2.307,3.451,1.203,5.098l0,0c-1.082,1.625-3.33,1.825-4.754,1.003L294.2,433.115"/>
<path style="fill:#EDAC80;" d="M299.979,428.159l11.418,8.267c1.344,0.883,10.977,6.581,9.953,5.919l-24.782-16.755
	C296.809,425.971,299.578,427.877,299.979,428.159z"/>
<g>
	<path style="fill:#FDD6B2;" d="M318.379,447.401l1.465,0.963c1.043,0.683,2.488,0.341,3.23-0.762
		c0.742-1.104,0.502-2.568-0.521-3.271l-1.465-0.963c0,0-0.742,0.341-1.625,1.685C318.36,446.72,318.479,446.859,318.379,447.401z"
		/>
	<path style="fill:#FDD6B2;" d="M307.764,440.84c-0.121-0.08-0.141-0.24-0.059-0.36l2.547-3.692c0.08-0.12,0.24-0.141,0.361-0.061
		l0,0c0.121,0.081,0.141,0.241,0.061,0.361l-2.549,3.692C308.045,440.9,307.885,440.94,307.764,440.84L307.764,440.84z"/>
	<path style="fill:#FDD6B2;" d="M307.383,439.174c-0.102-0.08-0.119-0.22-0.059-0.32l1.264-1.826c0.078-0.101,0.219-0.12,0.32-0.06
		l0,0c0.1,0.08,0.121,0.22,0.061,0.32l-1.264,1.826C307.623,439.215,307.483,439.234,307.383,439.174L307.383,439.174z"/>
</g>
<path style="fill:#FBBF96;" d="M290.468,438.372c-1.846-0.943-2.287-3.752-1.224-5.297l0,0c1.063-1.546,3.271-1.867,4.936-0.703
	l23.035,15.671c1.666,1.145,2.146,3.332,1.084,4.876l0,0c-1.064,1.546-3.191,1.706-4.555,0.884l-23.377-15.491"/>
<path style="fill:#EDAC80;" d="M295.946,433.677l10.736,8.046c1.283,0.843,10.354,6.442,9.389,5.779l-23.355-16.334
	C292.976,431.529,295.584,433.396,295.946,433.677z"/>
<g>
	<path style="fill:#FDD6B2;" d="M313.182,452.277l1.385,0.943c0.982,0.683,2.348,0.361,3.09-0.683
		c0.723-1.044,0.521-2.448-0.461-3.109l-1.385-0.943c0,0-0.703,0.301-1.564,1.564C313.182,451.636,313.283,451.776,313.182,452.277z
		"/>
	<path style="fill:#FDD6B2;" d="M303.17,445.876c-0.121-0.08-0.143-0.24-0.061-0.341l2.488-3.472c0.08-0.119,0.24-0.14,0.34-0.06
		l0,0c0.121,0.08,0.141,0.241,0.061,0.341l-2.486,3.472C303.43,445.937,303.289,445.957,303.17,445.876L303.17,445.876z"/>
	<path style="fill:#FDD6B2;" d="M302.828,444.271c-0.1-0.061-0.121-0.201-0.041-0.301l1.225-1.726
		c0.061-0.101,0.201-0.121,0.301-0.061l0,0c0.102,0.08,0.121,0.201,0.061,0.301l-1.225,1.726
		C303.069,444.332,302.928,444.352,302.828,444.271L302.828,444.271z"/>
</g>
<g>
	<path style="fill:#F5B78C;" d="M300.02,425.69c-0.822-0.261-1.324-1.044-1.125-1.886c0.121-0.522-0.682-0.783-0.803-0.241
		c-0.301,1.304,0.383,2.548,1.666,2.93C300.28,426.653,300.541,425.851,300.02,425.69L300.02,425.69z"/>
	<path style="fill:#F5B78C;" d="M296.206,432.693c-1.363-0.562-1.986-1.946-1.524-3.352c0.161-0.501-0.642-0.683-0.822-0.159
		c-0.582,1.745,0.28,3.571,1.966,4.253C296.326,433.637,296.708,432.895,296.206,432.693L296.206,432.693z"/>
	<path style="fill:#F5B78C;" d="M291.612,437.429c-0.983-0.381-1.485-1.385-1.164-2.407c0.161-0.502-0.622-0.823-0.783-0.302
		c-0.461,1.445,0.221,2.93,1.646,3.491C291.812,438.392,292.113,437.609,291.612,437.429L291.612,437.429z"/>
	<path style="fill:#F5B78C;" d="M286.736,442.706c-0.723-0.302-1.124-1.044-0.863-1.806c0.181-0.502-0.562-0.884-0.742-0.381
		c-0.401,1.163,0.06,2.427,1.224,2.93C286.856,443.649,287.238,442.906,286.736,442.706L286.736,442.706z"/>
</g>
<path style="fill:#EBF3F6;" d="M268.054,429.562l-16.394-12.761c-1.525-1.184-1.284-4.033,0.521-6.361l11.378-14.608
	c1.806-2.327,4.514-3.25,6.04-2.066l16.394,12.762C287.498,407.731,269.579,430.747,268.054,429.562z"/>
<path style="fill:#F1A977;" d="M285.893,415.578l6-4.114c0,0,0.763-0.923,3.732-1.144c4.674-0.341,13.965-2.488,13.965-2.488
	c5.719,1.706,5.219,6.782,5.219,6.782l-14.969,2.87c0,0-6.904-0.542-8.61,0.542c-4.174,2.609-6.24-1.686-6.24-1.686L285.893,415.578
	z"/>
<path style="fill:#FDD6B2;" d="M289.003,413.43l-3.993,2.568c0,0,0.903,0.843,1.666,0.743
	C287.518,416.621,289.304,414.654,289.003,413.43z"/>
<path style="fill:#EDAC80;" d="M286.515,417.283l7.183-1.907l6.763-0.843l-4.796-0.26c0,0-1.967-0.14-3.432,0.642
	C291.07,415.537,286.515,417.283,286.515,417.283z"/>
<g>
	<path style="fill:#FDD6B2;" d="M293.197,412.607c0.121-0.02,0.201-0.16,0.18-0.281l-0.261-1.164c-0.04-0.12-0.16-0.201-0.281-0.18
		l0,0c-0.12,0.02-0.2,0.16-0.18,0.281l0.26,1.164C292.936,412.567,293.076,412.648,293.197,412.607L293.197,412.607z"/>
	<path style="fill:#FDD6B2;" d="M293.939,411.845c0.121-0.04,0.2-0.161,0.181-0.281l-0.121-0.622c-0.02-0.121-0.16-0.2-0.281-0.18
		l0,0c-0.12,0.04-0.201,0.16-0.181,0.281l0.12,0.622C293.678,411.785,293.819,411.865,293.939,411.845L293.939,411.845z"/>
</g>
<path style="fill:#EBF3F6;" d="M329.094,429.562l16.393-12.761c1.527-1.184,1.285-4.033-0.52-6.361l-11.379-14.608
	c-1.805-2.327-4.514-3.25-6.039-2.066l-16.393,12.762C309.651,407.731,327.569,430.747,329.094,429.562z"/>
<path style="fill:#996699;" d="M284.368,404.04l-21.912-18.44c-7.806,7.765-13.022,18.1-14.327,29.637l16.635,13.985
	C266.429,430.506,286.033,405.324,284.368,404.04z"/>
<path style="fill:#3371BF;" d="M331.381,428.7l15.652-13.243c-1.244-11.558-6.441-21.932-14.227-29.738l-21.029,17.778
	C310.131,404.802,329.737,429.984,331.381,428.7z"/>
</svg>
