<?xml version="1.0" encoding="utf-8"?>
<!-- Generator: Adobe Illustrator 16.0.0, SVG Export Plug-In . SVG Version: 6.00 Build 0)  -->
<!DOCTYPE svg PUBLIC "-//W3C//DTD SVG 1.1//EN" "http://www.w3.org/Graphics/SVG/1.1/DTD/svg11.dtd">
<svg version="1.1" id="Layer_1" xmlns="http://www.w3.org/2000/svg" xmlns:xlink="http://www.w3.org/1999/xlink" x="0px" y="0px"
	 width="150px" height="150px" viewBox="0 0 150 150" style="enable-background:new 0 0 150 150;" xml:space="preserve">
<g>
	<g>
		<g>
			<circle style="fill:#FDCA00;" cx="75" cy="75" r="50.5"/>
		</g>
	</g>
</g>
<g>
	<path style="fill:#3C3C3C;" d="M107.612,107.729c-2.058-5.747-7.543-9.608-13.649-9.608c-1.587,0-3.141,0.254-4.628,0.755
		c-3.165-4.112-7.991-6.618-13.171-6.836c-1.458-3.749-0.654-5.706,0.27-7.952c0.956-2.324,2.031-4.939,0.347-9.415
		c2.884-1.855,5.286-4.203,6.981-6.831c1.93-2.996,2.951-6.376,2.951-9.776c0-1.447-0.188-2.891-0.549-4.303
		c-0.011-0.079-0.032-0.155-0.06-0.229c-0.493-1.823-1.279-3.592-2.342-5.241c-1.85-2.869-4.539-5.403-7.779-7.328
		c-0.004-0.003-0.008-0.005-0.012-0.007c-0.077-0.045-0.159-0.08-0.246-0.104c-0.011-0.003-0.021-0.005-0.032-0.008
		c-0.033-0.009-0.066-0.015-0.1-0.021c-0.012-0.001-0.023-0.004-0.036-0.006c-0.042-0.004-0.084-0.008-0.127-0.008
		c-0.003,0-0.006,0-0.009,0c-0.042,0-0.085,0.004-0.126,0.008c-0.012,0.002-0.024,0.005-0.036,0.006
		c-0.034,0.006-0.067,0.012-0.1,0.021c-0.011,0.003-0.021,0.005-0.032,0.008c-0.087,0.024-0.169,0.061-0.246,0.104
		c-0.004,0.002-0.008,0.004-0.013,0.007c-3.24,1.925-5.93,4.459-7.778,7.328c-1.062,1.649-1.848,3.414-2.34,5.235
		c-0.031,0.077-0.052,0.158-0.063,0.239c-0.361,1.41-0.548,2.854-0.548,4.299c0,3.4,1.021,6.78,2.951,9.776
		c1.789,2.774,4.366,5.235,7.467,7.137c1.634,3.963,0.811,5.968-0.14,8.278c-0.914,2.221-1.936,4.71-0.552,8.835
		c-4.867,0.436-9.354,2.891-12.35,6.784c-1.487-0.501-3.04-0.755-4.627-0.755c-6.107,0-11.592,3.861-13.649,9.608
		c-0.203,0.567,0.093,1.192,0.66,1.396c0.567,0.202,1.192-0.092,1.396-0.66c0.044-0.123,0.091-0.245,0.139-0.366
		c1.846-4.679,6.399-7.795,11.455-7.795c1.594,0,3.146,0.301,4.612,0.894c0.473,0.191,1.014,0.03,1.305-0.389
		c2.875-4.136,7.593-6.604,12.621-6.604s9.747,2.469,12.621,6.604c0.291,0.419,0.833,0.58,1.305,0.389
		c1.467-0.593,3.019-0.894,4.613-0.894c5.056,0,9.609,3.116,11.455,7.795c0.048,0.121,0.095,0.243,0.139,0.366
		c0.16,0.446,0.581,0.725,1.028,0.725c0.123,0,0.246-0.021,0.368-0.064C107.52,108.922,107.814,108.297,107.612,107.729z
		 M76.515,63.184l2.857-2.598c0.446-0.406,0.479-1.096,0.073-1.542c-0.405-0.445-1.095-0.479-1.541-0.073l-1.39,1.264V43.909
		c3.676,2.6,6.204,5.949,7.337,9.655l-2.718,2.471c-0.446,0.405-0.479,1.096-0.074,1.541c0.215,0.237,0.511,0.357,0.808,0.357
		c0.262,0,0.525-0.093,0.733-0.283l1.789-1.627c0.091,0.674,0.138,1.355,0.138,2.043c0,5.465-2.896,10.538-8.014,14.157V63.184z
		 M74.333,72.223c-5.119-3.618-8.014-8.691-8.014-14.156c0-0.688,0.048-1.369,0.138-2.043l7.876,7.16V72.223z M74.333,60.234
		l-7.337-6.67c1.133-3.706,3.661-7.056,7.337-9.655V60.234z"/>
	<path style="fill:#3C3C3C;" d="M55.748,102.49c-0.642,0-1.164,0.521-1.164,1.164c0,0.642,0.521,1.164,1.164,1.164
		s1.164-0.522,1.164-1.164C56.912,103.012,56.39,102.49,55.748,102.49z"/>
	<path style="fill:#3C3C3C;" d="M85.427,102.49c-0.643,0-1.165,0.521-1.165,1.164c0,0.642,0.522,1.164,1.165,1.164
		c0.642,0,1.163-0.522,1.163-1.164C86.59,103.012,86.069,102.49,85.427,102.49z"/>
	<path style="fill:#3C3C3C;" d="M81.644,98.854c-0.642,0-1.164,0.521-1.164,1.163c0,0.643,0.522,1.164,1.164,1.164
		c0.642,0,1.165-0.521,1.165-1.164C82.809,99.375,82.286,98.854,81.644,98.854z"/>
</g>
</svg>
