<?xml version="1.0" encoding="utf-8"?>
<!-- Generator: Adobe Illustrator 16.0.0, SVG Export Plug-In . SVG Version: 6.00 Build 0)  -->
<!DOCTYPE svg PUBLIC "-//W3C//DTD SVG 1.1//EN" "http://www.w3.org/Graphics/SVG/1.1/DTD/svg11.dtd">
<svg version="1.1" id="Layer_1" xmlns="http://www.w3.org/2000/svg" xmlns:xlink="http://www.w3.org/1999/xlink" x="0px" y="0px"
	 width="150px" height="150px" viewBox="0 0 150 150" style="enable-background:new 0 0 150 150;" xml:space="preserve">
<g>
	<g>
		<g>
			<circle style="fill:#FDCA00;" cx="75.001" cy="74.999" r="50.5"/>
		</g>
	</g>
</g>
<g>
	<g>
		<path style="fill:#3C3C3C;" d="M121.125,81.588c-4.719-4.717-10.989-7.316-17.661-7.316s-12.944,2.6-17.663,7.316
			c-4.716,4.717-7.314,10.99-7.314,17.662s2.599,12.943,7.314,17.66c4.719,4.719,10.991,7.316,17.663,7.316
			s12.942-2.598,17.661-7.316c4.718-4.717,7.316-10.988,7.316-17.66S125.843,86.305,121.125,81.588L121.125,81.588z
			 M103.464,122.236c-12.677,0-22.988-10.311-22.988-22.986s10.312-22.988,22.988-22.988s22.988,10.312,22.988,22.988
			S116.141,122.236,103.464,122.236L103.464,122.236z M103.464,122.236"/>
		<path style="fill:#3C3C3C;" d="M107.887,99.051l6.932-6.932c1.246-1.246,1.246-3.275,0-4.521
			c-0.604-0.604-1.408-0.936-2.262-0.936c-0.854,0-1.657,0.332-2.262,0.936l-6.932,6.932l-6.931-6.932
			c-0.604-0.604-1.407-0.936-2.262-0.936c-0.853,0-1.655,0.332-2.26,0.936c-1.247,1.246-1.247,3.275,0,4.521l6.931,6.932
			l-6.931,6.932c-1.247,1.246-1.247,3.275,0,4.521c0.604,0.604,1.407,0.938,2.26,0.938c0.854,0,1.658-0.334,2.262-0.938l6.931-6.934
			l6.932,6.934c0.604,0.604,1.407,0.938,2.262,0.938c0.854,0,1.658-0.334,2.262-0.938c1.246-1.246,1.246-3.275,0-4.521
			L107.887,99.051z M113.41,109.096c-0.229,0.229-0.531,0.354-0.854,0.354s-0.625-0.125-0.854-0.354l-7.635-7.635
			c-0.188-0.188-0.441-0.291-0.705-0.291c-0.265,0-0.516,0.104-0.703,0.291l-7.635,7.635c-0.229,0.229-0.533,0.354-0.854,0.354
			c-0.322,0-0.624-0.125-0.853-0.354c-0.471-0.471-0.471-1.234,0-1.705l7.635-7.637c0.188-0.186,0.291-0.439,0.291-0.703
			s-0.104-0.518-0.291-0.703l-7.635-7.637c-0.471-0.469-0.471-1.236,0-1.707c0.229-0.227,0.53-0.354,0.853-0.354
			c0.321,0,0.625,0.127,0.854,0.354l7.635,7.637c0.389,0.389,1.019,0.389,1.408,0l7.635-7.637c0.229-0.227,0.531-0.354,0.854-0.354
			s0.625,0.127,0.854,0.354c0.471,0.471,0.471,1.238,0,1.707l-7.637,7.637c-0.187,0.186-0.289,0.439-0.289,0.703
			s0.103,0.518,0.289,0.703l7.637,7.637C113.881,107.861,113.881,108.625,113.41,109.096L113.41,109.096z M113.41,109.096"/>
		<path style="fill:#3C3C3C;" d="M95.294,80.959c-0.247-0.49-0.849-0.686-1.337-0.436c-3.402,1.73-6.273,4.357-8.301,7.598
			c-2.088,3.33-3.189,7.18-3.189,11.129c0,0.549,0.445,0.994,0.995,0.994c0.548,0,0.995-0.445,0.995-0.994
			c0-7.195,3.986-13.689,10.401-16.953C95.348,82.049,95.544,81.449,95.294,80.959L95.294,80.959z M95.294,80.959"/>
		<path style="fill:#3C3C3C;" d="M99.383,80.66c0.066,0,0.135-0.008,0.202-0.021c1.269-0.262,2.572-0.396,3.879-0.396
			c0.55,0,0.995-0.445,0.995-0.994s-0.445-0.996-0.995-0.996c-1.442,0-2.883,0.148-4.282,0.438
			c-0.537,0.111-0.885,0.637-0.772,1.176C98.506,80.336,98.921,80.66,99.383,80.66L99.383,80.66z M99.383,80.66"/>
	</g>
	<path style="fill:#3C3C3C;" d="M87.734,27.926l18.027,18.02v29.568c0.109,0.043,0.211,0.096,0.317,0.145
		c0.679,0.213,1.288,0.512,1.835,0.877V45.5c0-0.285-0.113-0.559-0.314-0.76l-18.66-18.652c-0.201-0.201-0.475-0.314-0.76-0.314
		H40.314c-0.595,0-1.076,0.482-1.076,1.076v85.006c0,0.596,0.481,1.076,1.076,1.076h44.307c-0.576-0.648-1.011-1.377-1.322-2.152
		H41.391V27.926H87.734z"/>
	<path style="fill:#3C3C3C;" d="M106.838,46.576H88.18c-0.594,0-1.076-0.48-1.076-1.076V26.85c0-0.436,0.263-0.826,0.664-0.994
		c0.402-0.166,0.865-0.074,1.174,0.232L107.6,44.74c0.307,0.309,0.399,0.77,0.232,1.172
		C107.666,46.314,107.273,46.576,106.838,46.576z M89.256,44.424h14.984L89.256,29.447V44.424z"/>
	<path style="fill:#3C3C3C;" d="M71.6,58.551H52.777c-0.594,0-1.076-0.482-1.076-1.076s0.482-1.076,1.076-1.076H71.6
		c0.594,0,1.076,0.482,1.076,1.076S72.193,58.551,71.6,58.551z"/>
	<path style="fill:#3C3C3C;" d="M86.781,58.551H74.82c-0.595,0-1.076-0.482-1.076-1.076s0.481-1.076,1.076-1.076h11.961
		c0.595,0,1.076,0.482,1.076,1.076S87.376,58.551,86.781,58.551z"/>
	<path style="fill:#3C3C3C;" d="M90.703,65.186h-7.844c-0.596,0-1.076-0.482-1.076-1.076s0.48-1.076,1.076-1.076h7.844
		c0.594,0,1.076,0.482,1.076,1.076S91.297,65.186,90.703,65.186z"/>
	<path style="fill:#3C3C3C;" d="M80.037,65.186h-27.26c-0.594,0-1.076-0.482-1.076-1.076s0.482-1.076,1.076-1.076h27.26
		c0.594,0,1.076,0.482,1.076,1.076S80.631,65.186,80.037,65.186z"/>
	<path style="fill:#3C3C3C;" d="M83.266,72.359H52.777c-0.594,0-1.076-0.482-1.076-1.076s0.482-1.076,1.076-1.076h30.488
		c0.594,0,1.076,0.482,1.076,1.076S83.859,72.359,83.266,72.359z"/>
	<path style="fill:#3C3C3C;" d="M69.941,79.328H52.777c-0.594,0-1.076-0.48-1.076-1.076c0-0.594,0.482-1.076,1.076-1.076h17.164
		c0.594,0,1.075,0.482,1.075,1.076C71.017,78.848,70.535,79.328,69.941,79.328z"/>
	<path style="fill:#3C3C3C;" d="M59.951,98.363h-7.174c-0.594,0-1.076-0.482-1.076-1.076s0.482-1.076,1.076-1.076h7.174
		c0.594,0,1.076,0.482,1.076,1.076S60.545,98.363,59.951,98.363z"/>
	<path style="fill:#3C3C3C;" d="M64.973,42.23H52.777c-0.594,0-1.076-0.482-1.076-1.076s0.482-1.076,1.076-1.076h12.195
		c0.594,0,1.076,0.482,1.076,1.076S65.566,42.23,64.973,42.23z"/>
	<path style="fill:#3C3C3C;" d="M71.6,42.23h-3.318c-0.594,0-1.075-0.482-1.075-1.076s0.481-1.076,1.075-1.076H71.6
		c0.594,0,1.076,0.482,1.076,1.076S72.193,42.23,71.6,42.23z"/>
</g>
</svg>
