<?xml version="1.0" encoding="utf-8"?>
<!-- Generator: Adobe Illustrator 16.0.0, SVG Export Plug-In . SVG Version: 6.00 Build 0)  -->
<!DOCTYPE svg PUBLIC "-//W3C//DTD SVG 1.1//EN" "http://www.w3.org/Graphics/SVG/1.1/DTD/svg11.dtd">
<svg version="1.1" id="Layer_1" xmlns="http://www.w3.org/2000/svg" xmlns:xlink="http://www.w3.org/1999/xlink" x="0px" y="0px"
	 width="150px" height="150px" viewBox="0 0 150 150" style="enable-background:new 0 0 150 150;" xml:space="preserve">
<g>
	<g>
		<g>
			<circle style="fill:#FDCA00;" cx="75.001" cy="74.999" r="50.5"/>
		</g>
	</g>
</g>
<g>
	<g>
		<path style="fill:#3C3C3C;" d="M84.154,42.682c-12.278,0-22.267,9.989-22.267,22.267c0,5.052,1.692,9.715,4.539,13.456
			l-4.511,4.51c-0.029,0.029-0.054,0.06-0.079,0.09c-0.369-0.076-0.749-0.116-1.135-0.116c-1.473,0-2.857,0.572-3.899,1.614
			L43.399,97.904c-1.041,1.041-1.615,2.426-1.615,3.899c0,1.472,0.574,2.856,1.615,3.897c1.042,1.042,2.427,1.616,3.899,1.616
			c1.473,0,2.858-0.574,3.899-1.616L64.6,92.3c1.042-1.041,1.615-2.426,1.615-3.898c0-0.386-0.041-0.766-0.117-1.136
			c0.031-0.023,0.061-0.05,0.09-0.079l4.51-4.51c3.74,2.846,8.404,4.538,13.456,4.538c12.277,0,22.266-9.988,22.266-22.267
			C106.42,52.671,96.431,42.682,84.154,42.682z M49.717,104.222c-0.646,0.646-1.505,1.002-2.419,1.002
			c-0.913,0-1.772-0.355-2.418-1.003c-0.646-0.646-1.001-1.504-1.001-2.417c0-0.914,0.355-1.772,1.001-2.418l12.103-12.104
			l4.837,4.837L49.717,104.222z M63.293,90.63l-4.82-4.819c0.639-0.55,1.432-0.827,2.227-0.827c0.876,0,1.752,0.333,2.419,1
			c0.646,0.646,1.001,1.504,1.001,2.418C64.121,89.229,63.828,90.011,63.293,90.63z M65.2,85.213c-0.178-0.25-0.378-0.488-0.6-0.711
			c-0.222-0.221-0.46-0.421-0.711-0.6l3.887-3.886c0.419,0.454,0.856,0.892,1.312,1.311L65.2,85.213z M84.154,85.121
			c-11.124,0-20.173-9.05-20.173-20.173s9.049-20.172,20.173-20.172c11.123,0,20.172,9.049,20.172,20.172
			S95.277,85.121,84.154,85.121z"/>
		<path style="fill:#3C3C3C;" d="M84.154,47.148c-9.815,0-17.8,7.984-17.8,17.8c0,9.814,7.985,17.799,17.8,17.799
			c9.814,0,17.799-7.984,17.799-17.799C101.953,55.133,93.968,47.148,84.154,47.148z M84.154,80.654
			c-8.66,0-15.706-7.047-15.706-15.706c0-8.66,7.045-15.705,15.706-15.705c8.66,0,15.705,7.045,15.705,15.705
			C99.859,73.607,92.813,80.654,84.154,80.654z"/>
		<path style="fill:#3C3C3C;" d="M91.424,53.771c-0.484-0.316-1.133-0.18-1.449,0.305c-0.316,0.484-0.179,1.134,0.305,1.449
			c3.2,2.086,5.111,5.608,5.111,9.423c0,2.605-0.912,5.146-2.568,7.15c-0.368,0.446-0.305,1.106,0.141,1.476
			c0.195,0.16,0.432,0.239,0.666,0.239c0.302,0,0.601-0.13,0.808-0.381c1.965-2.38,3.048-5.393,3.048-8.484
			C97.485,60.423,95.219,56.244,91.424,53.771z"/>
		<path style="fill:#3C3C3C;" d="M86.576,51.836c-0.794-0.146-1.609-0.221-2.422-0.221c-0.579,0-1.047,0.47-1.047,1.048
			s0.469,1.047,1.047,1.047c0.687,0,1.375,0.062,2.044,0.186c0.064,0.012,0.127,0.018,0.19,0.018c0.496,0,0.936-0.354,1.029-0.858
			C87.521,52.486,87.145,51.94,86.576,51.836z"/>
	</g>
</g>
</svg>
