<?xml version="1.0" encoding="utf-8"?>
<!-- Generator: Adobe Illustrator 16.0.0, SVG Export Plug-In . SVG Version: 6.00 Build 0)  -->
<!DOCTYPE svg PUBLIC "-//W3C//DTD SVG 1.1//EN" "http://www.w3.org/Graphics/SVG/1.1/DTD/svg11.dtd">
<svg version="1.1" id="Layer_1" xmlns="http://www.w3.org/2000/svg" xmlns:xlink="http://www.w3.org/1999/xlink" x="0px" y="0px"
	 width="150px" height="150px" viewBox="0 0 150 150" style="enable-background:new 0 0 150 150;" xml:space="preserve">
<g>
	<g>
		<g>
			<circle style="fill:#FDCA00;" cx="75.001" cy="74.999" r="50.5"/>
		</g>
	</g>
</g>
<g>
	<g>
		<path style="fill:#3C3C3C;" d="M96.61,74.234c-2.699-4.002-6.149-7.076-8.922-9.547c-2.485-2.213-4.676-4.166-5.227-5.853
			c1.156-0.451,1.978-1.576,1.978-2.891c0-1.281-0.781-2.383-1.891-2.855l2.292-8.993c0.246-0.868,0.089-1.669-0.43-2.201
			c-0.523-0.536-1.328-0.711-2.208-0.48c-0.016,0.006-0.033,0.01-0.049,0.016c-0.043,0.014-4.317,1.378-5.737,1.785
			c-0.923,0.265-2.542,0.266-3.467,0.004c-1.435-0.41-5.754-1.779-5.797-1.793c-0.016-0.006-0.033-0.01-0.049-0.015
			c-0.88-0.229-1.684-0.054-2.207,0.481c-0.523,0.537-0.678,1.346-0.426,2.221c0.003,0.009,0.006,0.02,0.01,0.03l2.91,8.973
			c-1.077,0.487-1.829,1.571-1.829,2.828c0,1.314,0.822,2.439,1.978,2.891c-0.551,1.687-2.742,3.64-5.227,5.853
			c-2.773,2.471-6.223,5.545-8.921,9.547c-3.182,4.717-4.729,9.79-4.729,15.508c0,5.157,2.072,9.888,5.834,13.322
			c4.029,3.679,9.659,5.623,16.279,5.623h8.449c6.621,0,12.25-1.944,16.279-5.623c3.762-3.435,5.834-8.166,5.834-13.322
			C101.338,84.024,99.792,78.951,96.61,74.234L96.61,74.234z M77.095,57.066c-0.001,0-0.002,0-0.003,0h-4.183
			c-0.001,0-0.003,0-0.004,0h-4.242c-0.618,0-1.122-0.503-1.122-1.122c0-0.618,0.502-1.121,1.12-1.122c0,0,0.001,0.001,0.001,0.001
			c0.001,0,0.002-0.001,0.004-0.001h5.273c0.001,0,0.002,0.001,0.003,0.001c0.001,0,0.003-0.001,0.004-0.001h2.105
			c0.002,0,0.003,0.001,0.004,0.001c0.002,0,0.002-0.001,0.003-0.001h5.277c0.62,0,1.123,0.503,1.123,1.122
			s-0.503,1.122-1.123,1.122H77.095L77.095,57.066z M66.332,43.293c0.047-0.003,0.128,0,0.25,0.029
			c0.408,0.13,4.408,1.396,5.826,1.801c1.278,0.363,3.279,0.362,4.556-0.004c1.403-0.402,5.359-1.664,5.765-1.795
			c0.119-0.027,0.199-0.031,0.247-0.027c0.002,0.049-0.003,0.137-0.041,0.268c-0.003,0.01-0.005,0.02-0.007,0.028l-2.359,9.25
			h-3.243l0.749-2.995c0.133-0.53-0.19-1.068-0.72-1.201c-0.53-0.133-1.068,0.191-1.201,0.722l-0.869,3.475h-0.566l-0.869-3.475
			c-0.133-0.53-0.671-0.854-1.201-0.722c-0.53,0.133-0.854,0.671-0.721,1.201l0.749,2.995h-3.293l-3.013-9.293
			C66.335,43.426,66.33,43.343,66.332,43.293L66.332,43.293z M94.169,101.603c-3.658,3.34-8.826,5.104-14.944,5.104h-8.449
			c-6.118,0-11.286-1.765-14.944-5.104c-3.347-3.055-5.189-7.267-5.189-11.859c0-12.006,7.505-18.693,12.987-23.576
			c2.955-2.632,5.364-4.778,5.908-7.12h1.977l-0.622,1.865c-0.173,0.52,0.107,1.08,0.626,1.252c0.104,0.036,0.209,0.052,0.313,0.052
			c0.415,0,0.801-0.262,0.939-0.677l0.831-2.492h2.797l0.831,2.492c0.139,0.415,0.525,0.677,0.939,0.677
			c0.104,0,0.209-0.016,0.313-0.052c0.52-0.172,0.799-0.732,0.626-1.252l-0.621-1.865h1.977c0.544,2.342,2.953,4.488,5.908,7.12
			c5.481,4.883,12.987,11.57,12.987,23.576C99.358,94.336,97.516,98.548,94.169,101.603L94.169,101.603z"/>
		<path style="fill:#3C3C3C;" d="M75,79.115c2.326,0,4.291,1.239,4.291,2.706c0,0.546,0.444,0.99,0.99,0.99
			c0.547,0,0.99-0.444,0.99-0.99c0-2.376-2.25-4.286-5.281-4.631v-1.179c0-0.546-0.443-0.99-0.99-0.99
			c-0.547,0-0.99,0.444-0.99,0.99v1.179c-3.031,0.345-5.281,2.255-5.281,4.631c0,2.628,2.754,4.688,6.271,4.688
			c2.326,0,4.291,1.238,4.291,2.705c0,1.468-1.965,2.707-4.291,2.707s-4.291-1.239-4.291-2.707c0-0.547-0.444-0.989-0.99-0.989
			c-0.547,0-0.99,0.442-0.99,0.989c0,2.377,2.25,4.286,5.281,4.631v1.179c0,0.547,0.443,0.99,0.99,0.99
			c0.547,0,0.99-0.443,0.99-0.99v-1.179c3.03-0.345,5.281-2.254,5.281-4.631c0-2.628-2.754-4.687-6.271-4.687
			c-2.326,0-4.291-1.239-4.291-2.706S72.674,79.115,75,79.115z"/>
		<path style="fill:#3C3C3C;" d="M75,69.741c-8.699,0-15.777,7.077-15.777,15.777c0,8.698,7.078,15.776,15.777,15.776
			c8.7,0,15.777-7.078,15.777-15.776C90.777,76.818,83.7,69.741,75,69.741z M75,99.314c-7.607,0-13.796-6.189-13.796-13.796
			c0-7.608,6.188-13.798,13.796-13.798s13.796,6.189,13.796,13.798C88.796,93.125,82.607,99.314,75,99.314z"/>
	</g>
	<g>
		<path style="fill:#3C3C3C;" d="M54.463,101.062c-0.148-0.163-0.297-0.31-0.445-0.46c-1.935,0.622-4.082,0.951-6.408,0.951h-6.751
			c-4.889,0-9.019-1.411-11.942-4.079c-2.674-2.441-4.146-5.808-4.146-9.477c0-9.595,5.998-14.938,10.377-18.84
			c2.362-2.103,4.286-3.818,4.722-5.689h1.579l-0.497,1.49c-0.138,0.415,0.086,0.863,0.5,1.001C41.535,65.987,41.62,66,41.702,66
			c0.332,0,0.64-0.209,0.751-0.541l0.664-1.991h2.235l0.664,1.991C46.126,65.791,46.435,66,46.766,66
			c0.083,0,0.167-0.013,0.25-0.041c0.415-0.138,0.639-0.586,0.5-1.001l-0.496-1.49H48.6c0.435,1.871,2.36,3.587,4.722,5.689
			c0.76,0.678,1.57,1.402,2.388,2.182c0.375-0.43,0.791-0.761,1.231-1.014c-0.891-0.854-1.765-1.635-2.568-2.35
			c-1.986-1.769-3.736-3.33-4.176-4.678c0.924-0.359,1.581-1.26,1.581-2.31c0-1.023-0.624-1.904-1.511-2.282l1.832-7.186
			c0.196-0.694,0.071-1.334-0.344-1.76c-0.418-0.428-1.061-0.567-1.764-0.384c-0.013,0.006-0.027,0.009-0.04,0.013
			c-0.035,0.012-3.45,1.102-4.584,1.427c-0.737,0.211-2.032,0.212-2.77,0.003c-1.146-0.328-4.598-1.422-4.633-1.433
			c-0.013-0.004-0.026-0.008-0.04-0.012c-0.703-0.183-1.346-0.043-1.764,0.386c-0.417,0.429-0.542,1.074-0.34,1.773
			c0.002,0.007,0.005,0.017,0.008,0.024l2.325,7.17c-0.861,0.39-1.462,1.256-1.462,2.26c0,1.05,0.657,1.95,1.581,2.31
			c-0.44,1.348-2.191,2.909-4.176,4.678c-2.216,1.974-4.973,4.431-7.129,7.628c-2.542,3.77-3.778,7.823-3.778,12.393
			c0,4.121,1.656,7.901,4.662,10.646c3.22,2.939,7.718,4.493,13.009,4.493h6.751c2.837,0,5.436-0.461,7.743-1.328
			C55.027,101.599,54.727,101.353,54.463,101.062z M49.298,61.886h-3.39c-0.001,0-0.001,0-0.002,0H39.17
			c-0.494,0-0.897-0.402-0.897-0.897c0-0.493,0.401-0.896,0.896-0.896l0.001,0.001c0,0,0.001-0.001,0.002-0.001h4.214
			c0.001,0,0.002,0.001,0.003,0.001s0.002-0.001,0.003-0.001h1.683c0.001,0,0.002,0.001,0.003,0.001
			c0.001,0,0.002-0.001,0.002-0.001h4.217c0.495,0,0.897,0.402,0.897,0.896C50.195,61.483,49.793,61.886,49.298,61.886z
			 M37.337,51.084c-0.027-0.1-0.031-0.165-0.03-0.205c0.038-0.003,0.102,0,0.199,0.023c0.326,0.104,3.522,1.116,4.655,1.439
			c1.021,0.29,2.621,0.289,3.641-0.004c1.122-0.321,4.282-1.329,4.607-1.434c0.095-0.022,0.159-0.025,0.197-0.022
			c0.002,0.039-0.003,0.109-0.033,0.214c-0.002,0.008-0.004,0.016-0.006,0.022l-1.885,7.393h-2.592l0.598-2.394
			c0.106-0.425-0.152-0.854-0.575-0.961c-0.423-0.105-0.854,0.153-0.959,0.577l-0.694,2.777h-0.453l-0.694-2.777
			c-0.106-0.424-0.536-0.683-0.959-0.577c-0.423,0.106-0.682,0.536-0.576,0.961l0.598,2.394h-2.631L37.337,51.084z"/>
		<path style="fill:#3C3C3C;" d="M44.234,79.504c1.858,0,3.428,0.99,3.428,2.162c0,0.437,0.355,0.791,0.791,0.791
			c0.438,0,0.792-0.354,0.792-0.791c0-1.898-1.798-3.425-4.22-3.7v-0.941c0-0.437-0.354-0.791-0.791-0.791
			c-0.438,0-0.791,0.354-0.791,0.791v0.941c-2.422,0.275-4.22,1.802-4.22,3.7c0,2.101,2.201,3.746,5.011,3.746
			c1.858,0,3.428,0.989,3.428,2.161c0,1.174-1.57,2.163-3.428,2.163c-1.859,0-3.429-0.989-3.429-2.163
			c0-0.437-0.354-0.79-0.791-0.79c-0.438,0-0.792,0.354-0.792,0.79c0,1.899,1.798,3.426,4.22,3.701v0.941
			c0,0.437,0.354,0.791,0.791,0.791c0.437,0,0.791-0.354,0.791-0.791v-0.941c2.421-0.275,4.22-1.802,4.22-3.701
			c0-2.1-2.201-3.745-5.011-3.745c-1.859,0-3.429-0.989-3.429-2.162C40.806,80.494,42.375,79.504,44.234,79.504z"/>
		<path style="fill:#3C3C3C;" d="M49.874,95.061c-0.07-0.293-0.123-0.589-0.161-0.888c-1.616,0.931-3.484,1.472-5.479,1.472
			c-6.079,0-11.024-4.945-11.024-11.023c0-6.08,4.945-11.025,11.024-11.025c3.415,0,6.471,1.561,8.494,4.006
			c0.185-0.564,0.382-1.127,0.601-1.688c-2.296-2.398-5.521-3.9-9.095-3.9c-6.951,0-12.607,5.656-12.607,12.608
			c0,6.95,5.656,12.606,12.607,12.606c2.117,0,4.111-0.53,5.864-1.456C50.019,95.542,49.936,95.318,49.874,95.061z"/>
	</g>
	<g>
		<path style="fill:#3C3C3C;" d="M121.111,71.87c-2.505-3.715-5.708-6.568-8.281-8.861c-2.307-2.054-4.34-3.867-4.851-5.433
			c1.073-0.418,1.835-1.463,1.835-2.683c0-1.189-0.725-2.212-1.755-2.65l2.127-8.348c0.228-0.806,0.083-1.549-0.399-2.043
			c-0.486-0.497-1.232-0.66-2.049-0.446c-0.015,0.006-0.031,0.01-0.046,0.015c-0.041,0.013-4.007,1.279-5.325,1.657
			c-0.856,0.246-2.36,0.247-3.218,0.004c-1.332-0.381-5.341-1.651-5.381-1.664c-0.015-0.006-0.03-0.01-0.045-0.014
			c-0.817-0.213-1.563-0.05-2.049,0.446c-0.485,0.499-0.629,1.249-0.396,2.062c0.003,0.008,0.006,0.019,0.009,0.028l2.701,8.328
			c-1,0.452-1.698,1.458-1.698,2.625c0,1.22,0.763,2.265,1.835,2.683c-0.512,1.565-2.545,3.379-4.852,5.433
			c-0.915,0.815-1.911,1.705-2.925,2.676c0.544,0.308,1.071,0.653,1.574,1.042c0.882-0.832,1.753-1.613,2.574-2.345
			c2.743-2.442,4.979-4.435,5.484-6.608h1.834l-0.577,1.731c-0.16,0.481,0.1,1.002,0.582,1.162c0.096,0.033,0.194,0.048,0.291,0.048
			c0.385,0,0.744-0.243,0.872-0.628l0.771-2.313h2.596l0.771,2.313c0.129,0.385,0.487,0.628,0.872,0.628
			c0.096,0,0.194-0.015,0.291-0.048c0.482-0.16,0.742-0.681,0.582-1.162l-0.577-1.731h1.835c0.505,2.174,2.741,4.166,5.484,6.608
			c5.087,4.532,12.054,10.739,12.054,21.884c0,4.263-1.71,8.172-4.817,11.007c-3.395,3.101-8.192,4.738-13.871,4.738h-7.842
			c-0.594,0-1.171-0.028-1.745-0.063c-0.137,0.258-0.267,0.521-0.427,0.762c-0.241,0.359-0.512,0.676-0.795,0.974
			c0.966,0.099,1.949,0.166,2.968,0.166h7.842c6.145,0,11.371-1.805,15.11-5.219c3.492-3.188,5.416-7.58,5.416-12.365
			C125.5,80.957,124.064,76.248,121.111,71.87z M93.042,43.389c-0.032-0.114-0.037-0.191-0.035-0.238
			c0.044-0.002,0.119,0,0.231,0.027c0.378,0.121,4.091,1.297,5.408,1.672c1.187,0.337,3.043,0.336,4.229-0.004
			c1.302-0.373,4.974-1.545,5.351-1.666c0.11-0.025,0.185-0.029,0.229-0.025c0.002,0.045-0.003,0.127-0.038,0.248
			c-0.002,0.01-0.005,0.019-0.006,0.026l-2.19,8.586h-3.01l0.695-2.78c0.124-0.492-0.176-0.991-0.668-1.114
			c-0.492-0.124-0.991,0.178-1.114,0.67l-0.806,3.225h-0.526l-0.806-3.225c-0.124-0.492-0.623-0.794-1.115-0.67
			c-0.492,0.123-0.792,0.622-0.669,1.114l0.695,2.78h-3.056L93.042,43.389z M106.935,55.935H95.171
			c-0.574,0-1.042-0.467-1.042-1.041s0.466-1.041,1.04-1.042c0,0,0.001,0.001,0.001,0.001c0,0,0.002-0.001,0.003-0.001h4.895
			c0.001,0,0.002,0.001,0.003,0.001c0.001,0,0.002-0.001,0.003-0.001h1.954c0.002,0,0.003,0.001,0.004,0.001
			c0.002,0,0.002-0.001,0.003-0.001h4.898c0.575,0,1.042,0.467,1.042,1.042C107.977,55.468,107.51,55.935,106.935,55.935z"/>
		<path style="fill:#3C3C3C;" d="M101.972,74.614V73.52c0-0.507-0.411-0.919-0.919-0.919c-0.507,0-0.918,0.412-0.918,0.919v1.095
			c-1.574,0.179-2.903,0.822-3.785,1.732c0.019,0.075,0.029,0.153,0.045,0.229c0.053,0.05,0.115,0.085,0.166,0.137
			c0.355,0.361,0.662,0.733,0.932,1.113c0.657-0.833,2.016-1.426,3.56-1.426c2.159,0,3.982,1.15,3.982,2.512
			c0,0.507,0.412,0.919,0.919,0.919s0.919-0.412,0.919-0.919C106.874,76.707,104.785,74.934,101.972,74.614z"/>
		<path style="fill:#3C3C3C;" d="M101.053,81.424c-0.786,0-1.511-0.166-2.136-0.426c0.16,0.658,0.26,1.333,0.319,2.021
			c0.572,0.143,1.171,0.244,1.816,0.244c2.159,0,3.982,1.149,3.982,2.511c0,1.362-1.824,2.513-3.982,2.513
			c-0.547,0-1.059-0.09-1.534-0.226c0.052,0.641,0.078,1.28,0.064,1.917c0.179,0.04,0.362,0.073,0.552,0.095v1.094
			c0,0.508,0.411,0.919,0.918,0.919c0.508,0,0.919-0.411,0.919-0.919v-1.094c2.812-0.32,4.901-2.092,4.901-4.299
			C106.874,83.335,104.317,81.424,101.053,81.424z"/>
		<path style="fill:#3C3C3C;" d="M101.053,67.699c-3.148,0-6.06,1.008-8.45,2.705c0.475,0.396,0.919,0.831,1.328,1.303
			c2.038-1.369,4.488-2.17,7.122-2.17c7.061,0,12.806,5.745,12.806,12.807c0,7.061-5.745,12.806-12.806,12.806
			c-0.82,0-1.618-0.09-2.395-0.239c-0.11,0.495-0.263,0.971-0.461,1.416c-0.044,0.113-0.075,0.232-0.127,0.343
			c0.963,0.204,1.959,0.318,2.983,0.318c8.075,0,14.644-6.569,14.644-14.644C115.697,74.269,109.128,67.699,101.053,67.699z"/>
	</g>
</g>
</svg>
