<?xml version="1.0" encoding="utf-8"?>
<!-- Generator: Adobe Illustrator 16.0.0, SVG Export Plug-In . SVG Version: 6.00 Build 0)  -->
<!DOCTYPE svg PUBLIC "-//W3C//DTD SVG 1.1//EN" "http://www.w3.org/Graphics/SVG/1.1/DTD/svg11.dtd">
<svg version="1.1" id="Layer_1" xmlns="http://www.w3.org/2000/svg" xmlns:xlink="http://www.w3.org/1999/xlink" x="0px" y="0px"
	 width="101px" height="101px" viewBox="247.14 370.445 101 101" style="enable-background:new 247.14 370.445 101 101;"
	 xml:space="preserve">
<path style="fill:#FDCA00;" d="M347.547,420.547c0-27.56-22.349-49.908-49.908-49.908c-27.559,0-49.907,22.349-49.907,49.908
	c0,27.558,22.349,49.908,49.907,49.908C325.198,470.455,347.547,448.105,347.547,420.547z"/>
<polygon style="fill:#565656;" points="309.286,416.162 306.068,413.306 289.03,413.306 285.811,416.162 "/>
<g>
	<path style="fill:#3A3A3C;" d="M326.968,437.062c0,0-14.281-11.063-17.682-20.9h-23.475c-3.4,9.816-17.682,20.9-17.682,20.9
		H326.968z"/>
	<polygon style="fill:#3A3A3C;" points="305.183,408.578 289.915,408.578 289.03,413.306 306.068,413.306 	"/>
</g>
<rect x="268.129" y="437.062" style="fill:#2C2C2D;" width="58.839" height="2.193"/>
<rect x="266.077" y="439.194" style="fill:#3A3A3C;" width="62.944" height="7.121"/>
<path style="fill:#262626;" d="M334.271,406.707c-1.509-3.057-17.923-11.929-36.61-11.929c-18.729,0-35.164,8.851-36.673,11.929
	c-1.368,2.776,0.785,11.044,1.026,11.969c0.081,0.262,0.342,0.443,0.624,0.382l17.923-3.279c0.262-0.04,0.442-0.281,0.442-0.543
	l-0.362-8.549c0.161-2.978,1.871-3.42,2.856-3.42c0.121,0,0.202,0,0.221,0s0.04,0,0.061,0l13.88,0.181l13.819-0.181
	c0.02,0,0.04,0,0.061,0c0.02,0,0.101-0.021,0.221-0.021c1.006,0,2.695,0.442,2.856,3.42l-0.362,8.549
	c-0.02,0.261,0.182,0.502,0.442,0.543l17.924,3.279c0.04,0,0.061,0,0.101,0c0.241,0,0.462-0.161,0.523-0.402
	C333.486,417.751,335.618,409.483,334.271,406.707z"/>
<g>
	<path style="fill:#3A3A3C;" d="M309.529,397.776L309.529,397.776c-0.986,0-1.791,0.804-1.791,1.77c0,1.569-0.361,4.144-1.025,4.928
		c-0.906,1.086-3.279,1.147-8.591,1.147c-0.039,0-1.126,0-1.166,0c-5.29,0-7.684-0.061-8.589-1.147
		c-0.684-0.824-1.006-3.44-1.026-4.928c0-0.985-0.804-1.77-1.79-1.77l0,0c-0.986,0-1.791,0.804-1.77,1.79
		c0,0.845,0.1,5.109,1.83,7.202c1.972,2.374,5.049,2.434,11.083,2.434c0.121,0,1.528,0,1.649,0c6.035,0,9.113-0.041,11.084-2.434
		c1.729-2.092,1.831-6.377,1.831-7.202C311.32,398.58,310.514,397.776,309.529,397.776z"/>
	<path style="fill:#3A3A3C;" d="M334.915,412.42l-20.601-3.862c-0.341-0.06-0.663,0.161-0.724,0.503l-1.228,6.558
		c-0.02,0.161,0,0.322,0.102,0.462c0.101,0.141,0.241,0.222,0.402,0.262l20.599,3.862c0.041,0,0.08,0.021,0.12,0.021
		c0.122,0,0.242-0.04,0.343-0.1c0.141-0.101,0.222-0.242,0.261-0.403l1.228-6.558C335.478,412.802,335.256,412.48,334.915,412.42z"
		/>
	<path style="fill:#3A3A3C;" d="M260.365,412.42l20.598-3.862c0.342-0.06,0.665,0.161,0.725,0.503l1.228,6.558
		c0.04,0.161,0,0.322-0.101,0.462c-0.101,0.141-0.241,0.222-0.402,0.262l-20.599,3.862c-0.04,0-0.081,0.021-0.121,0.021
		c-0.121,0-0.241-0.041-0.342-0.1c-0.141-0.101-0.221-0.242-0.261-0.403l-1.227-6.558
		C259.801,412.802,260.022,412.48,260.365,412.42z"/>
</g>
<path style="fill:#262626;" d="M284.101,424.369c0-6.216,6.095-6.839,13.176-6.839c7.081,0,13.176,0.623,13.176,6.839
	c0,9.938-6.095,13.739-13.176,13.739C290.196,438.128,284.101,434.326,284.101,424.369z"/>
<ellipse style="fill:#DBDBD3;" cx="297.278" cy="424.369" rx="13.176" ry="10.541"/>
<ellipse style="fill:#C6C6C4;" cx="297.278" cy="424.369" rx="7.685" ry="6.156"/>
<ellipse style="fill:#DBDBD3;" cx="297.278" cy="424.369" rx="6.979" ry="5.592"/>
<g>
	<ellipse style="fill:#C4B596;" cx="297.278" cy="424.369" rx="5.431" ry="4.345"/>
	<ellipse style="fill:#C4B596;" cx="297.278" cy="415.981" rx="1.709" ry="1.569"/>
</g>
<path style="fill:#B2A184;" d="M297.278,417.208c0.944,0,1.428-0.343,1.428-0.343c-0.303,0.423-0.824,0.685-1.428,0.685
	s-1.106-0.282-1.428-0.685C295.85,416.865,296.332,417.208,297.278,417.208z"/>
<ellipse style="fill:#C4B596;" cx="297.278" cy="432.657" rx="1.709" ry="1.569"/>
<path style="fill:#B2A184;" d="M297.278,433.884c0.944,0,1.428-0.342,1.428-0.342c-0.303,0.423-0.824,0.685-1.428,0.685
	s-1.106-0.282-1.428-0.685C295.85,433.522,296.332,433.884,297.278,433.884z"/>
<ellipse style="fill:#C4B596;" cx="286.978" cy="424.027" rx="1.71" ry="1.569"/>
<path style="fill:#B2A184;" d="M286.978,425.254c0.945,0,1.428-0.342,1.428-0.342c-0.302,0.423-0.824,0.685-1.428,0.685
	s-1.107-0.282-1.428-0.685C285.571,424.893,286.032,425.254,286.978,425.254z"/>
<path style="fill:#C4B596;" d="M306.108,424.027c0-0.865,0.765-1.569,1.71-1.569c0.946,0,1.711,0.704,1.711,1.569
	s-0.765,1.569-1.711,1.569C306.872,425.597,306.108,424.893,306.108,424.027z"/>
<path style="fill:#B2A184;" d="M307.818,425.254c0.946,0,1.429-0.342,1.429-0.342c-0.302,0.423-0.825,0.685-1.429,0.685
	c-0.583,0-1.105-0.282-1.428-0.685C306.39,424.893,306.872,425.254,307.818,425.254z"/>
<ellipse style="fill:#C4B596;" cx="306.369" cy="428.19" rx="1.71" ry="1.569"/>
<path style="fill:#B2A184;" d="M306.369,429.418c0.945,0,1.428-0.341,1.428-0.341c-0.301,0.421-0.823,0.683-1.428,0.683
	c-0.583,0-1.105-0.281-1.429-0.683C304.941,429.057,305.424,429.418,306.369,429.418z"/>
<ellipse style="fill:#C4B596;" cx="288.104" cy="428.19" rx="1.71" ry="1.569"/>
<path style="fill:#B2A184;" d="M288.104,429.418c0.946,0,1.428-0.341,1.428-0.341c-0.302,0.421-0.825,0.683-1.428,0.683
	c-0.583,0-1.105-0.281-1.428-0.683C286.696,429.057,287.159,429.418,288.104,429.418z"/>
<ellipse style="fill:#C4B596;" cx="302.447" cy="431.45" rx="1.71" ry="1.569"/>
<path style="fill:#B2A184;" d="M302.447,432.677c0.945,0,1.43-0.342,1.43-0.342c-0.302,0.423-0.826,0.685-1.43,0.685
	c-0.583,0-1.105-0.282-1.428-0.685C301.038,432.315,301.502,432.677,302.447,432.677z"/>
<ellipse style="fill:#C4B596;" cx="291.926" cy="431.45" rx="1.71" ry="1.569"/>
<path style="fill:#B2A184;" d="M291.926,432.677c0.945,0,1.428-0.342,1.428-0.342c-0.3,0.423-0.823,0.685-1.428,0.685
	c-0.583,0-1.106-0.282-1.428-0.685C290.498,432.315,290.98,432.677,291.926,432.677z"/>
<ellipse style="fill:#C4B596;" cx="302.568" cy="417.168" rx="1.71" ry="1.569"/>
<path style="fill:#B2A184;" d="M302.568,418.395c0.945,0,1.428-0.342,1.428-0.342c-0.302,0.422-0.824,0.684-1.428,0.684
	s-1.105-0.282-1.428-0.684C301.16,418.053,301.622,418.395,302.568,418.395z"/>
<ellipse style="fill:#C4B596;" cx="306.148" cy="419.984" rx="1.711" ry="1.569"/>
<path style="fill:#B2A184;" d="M306.148,421.211c0.946,0,1.429-0.342,1.429-0.342c-0.302,0.422-0.823,0.684-1.429,0.684
	c-0.602,0-1.105-0.281-1.428-0.684C304.72,420.849,305.202,421.211,306.148,421.211z"/>
<ellipse style="fill:#C4B596;" cx="292.087" cy="417.168" rx="1.71" ry="1.569"/>
<path style="fill:#B2A184;" d="M292.087,418.395c0.945,0,1.429-0.342,1.429-0.342c-0.303,0.422-0.826,0.684-1.429,0.684
	s-1.107-0.282-1.428-0.684C290.659,418.053,291.141,418.395,292.087,418.395z"/>
<ellipse style="fill:#C4B596;" cx="288.427" cy="419.984" rx="1.709" ry="1.569"/>
<path style="fill:#B2A184;" d="M288.427,421.211c0.944,0,1.428-0.342,1.428-0.342c-0.303,0.422-0.826,0.684-1.428,0.684
	c-0.584,0-1.107-0.281-1.428-0.684C286.999,420.849,287.481,421.211,288.427,421.211z"/>
<path style="fill:#B5B5B1;" d="M306.209,430.888c0.744,1.086,0.544,1.407,0.2,1.648c-0.342,0.241-0.724,0.301-1.469-0.784
	c-0.743-1.086-1.549-2.938-1.206-3.179C304.097,428.332,305.485,429.8,306.209,430.888z"/>
<g>
	<path style="fill:#FDCA00;" d="M334.273,403.488c0,0,3.751,2.271,4.665,6.56"/>
	<path style="fill:#26241E;" d="M338.937,410.887c-0.387,0-0.735-0.27-0.819-0.664c-0.827-3.889-4.245-5.996-4.279-6.017
		c-0.396-0.24-0.523-0.755-0.282-1.152c0.239-0.396,0.755-0.522,1.15-0.283c0.166,0.101,4.072,2.512,5.052,7.103
		c0.096,0.453-0.192,0.898-0.645,0.995C339.054,410.881,338.994,410.887,338.937,410.887z"/>
</g>
<g>
	<path style="fill:#FDCA00;" d="M336.114,400.719c0,0,5.29,3.339,6.478,9.48"/>
	<path style="fill:#26241E;" d="M342.589,411.038c-0.393,0-0.745-0.278-0.822-0.679c-1.102-5.694-6.052-8.899-6.103-8.93
		c-0.39-0.248-0.506-0.766-0.259-1.157c0.248-0.39,0.765-0.508,1.155-0.261c0.229,0.145,5.61,3.606,6.853,10.029
		c0.088,0.455-0.209,0.895-0.664,0.982C342.696,411.033,342.643,411.038,342.589,411.038z"/>
</g>
<g>
	<path style="fill:#FDCA00;" d="M261.504,402.491c0,0-3.752,2.271-4.666,6.56"/>
	<path style="fill:#26241E;" d="M256.839,409.889c-0.058,0-0.117-0.006-0.175-0.019c-0.453-0.096-0.742-0.542-0.646-0.994
		c0.978-4.591,4.886-7.002,5.052-7.102c0.396-0.24,0.911-0.113,1.151,0.283c0.239,0.396,0.113,0.911-0.282,1.15
		c-0.062,0.038-3.46,2.167-4.28,6.018C257.575,409.619,257.226,409.889,256.839,409.889z"/>
</g>
<g>
	<path style="fill:#FDCA00;" d="M259.662,399.722c0,0-5.289,3.338-6.477,9.479"/>
	<path style="fill:#26241E;" d="M253.187,410.04c-0.053,0-0.107-0.005-0.16-0.016c-0.455-0.088-0.752-0.527-0.665-0.982
		c1.242-6.423,6.624-9.885,6.853-10.029c0.392-0.247,0.909-0.13,1.156,0.261c0.247,0.391,0.13,0.909-0.26,1.156l0,0
		c-0.05,0.032-5.001,3.236-6.103,8.931C253.931,409.761,253.58,410.04,253.187,410.04z"/>
</g>
</svg>
