<?xml version="1.0" encoding="utf-8"?>
<!-- Generator: Adobe Illustrator 16.0.0, SVG Export Plug-In . SVG Version: 6.00 Build 0)  -->
<!DOCTYPE svg PUBLIC "-//W3C//DTD SVG 1.1//EN" "http://www.w3.org/Graphics/SVG/1.1/DTD/svg11.dtd">
<svg version="1.1" id="Layer_1" xmlns="http://www.w3.org/2000/svg" xmlns:xlink="http://www.w3.org/1999/xlink" x="0px" y="0px"
	 width="150px" height="150px" viewBox="0 0 150 150" style="enable-background:new 0 0 150 150;" xml:space="preserve">
<g>
	<g>
		<g>
			<circle style="fill:#FDCA00;" cx="75.001" cy="75" r="50.5"/>
		</g>
	</g>
</g>
<g>
	<g>
		<path style="fill:#3C3C3C;" d="M86.374,61.604c0.277-0.209,0.333-0.604,0.123-0.881c-1.727-2.291-2.64-5.023-2.64-7.894
			c0.048-6.019,3.74-11.749,5.094-13.647c0.547,0.766,1.476,2.154,2.385,3.922c0.12,0.23,0.371,0.365,0.629,0.336
			c0.258-0.029,0.474-0.215,0.539-0.468c1.104-4.272,3.468-7.896,4.493-9.333c1.025,1.437,3.389,5.062,4.494,9.333
			c0.066,0.252,0.28,0.438,0.539,0.468c0.259,0.028,0.51-0.106,0.628-0.336c0.91-1.769,1.839-3.157,2.385-3.922
			c1.354,1.9,5.047,7.628,5.094,13.641c0,2.878-0.913,5.61-2.641,7.903c-0.209,0.276-0.153,0.67,0.124,0.879
			c0.114,0.085,0.246,0.127,0.377,0.127c0.192,0,0.38-0.087,0.504-0.251c1.893-2.511,2.893-5.505,2.893-8.663
			c-0.032-4.076-1.624-7.958-2.954-10.5c-1.435-2.74-2.845-4.507-2.905-4.581c-0.118-0.149-0.299-0.236-0.489-0.236
			c-0.191,0-0.37,0.087-0.49,0.236c-0.052,0.063-1.087,1.362-2.28,3.443c-1.659-5.054-4.648-8.814-4.787-8.987
			c-0.119-0.149-0.299-0.234-0.49-0.234c-0.19,0-0.37,0.085-0.489,0.234c-0.138,0.173-3.129,3.933-4.787,8.987
			c-1.193-2.082-2.229-3.38-2.281-3.443c-0.118-0.149-0.299-0.236-0.488-0.236c-0.191,0-0.371,0.087-0.491,0.236
			c-0.06,0.074-1.471,1.841-2.905,4.581c-1.328,2.542-2.922,6.424-2.954,10.505c0,3.153,1,6.146,2.893,8.657
			C85.702,61.757,86.097,61.813,86.374,61.604L86.374,61.604z M86.374,61.604"/>
		<path style="fill:#3C3C3C;" d="M104.971,58.904c0.071,0.025,0.142,0.037,0.213,0.037c0.257,0,0.498-0.161,0.592-0.417
			c0.358-1.006,0.541-2.061,0.541-3.141c-0.038-4.986-3.574-9.474-3.725-9.661c-0.118-0.147-0.298-0.234-0.487-0.236
			c-0.188,0-0.369,0.083-0.49,0.229c-0.029,0.037-0.57,0.698-1.229,1.777c-1.083-2.989-2.813-5.166-2.898-5.271
			c-0.119-0.148-0.299-0.235-0.49-0.235c-0.19,0-0.37,0.087-0.49,0.235c-0.084,0.104-1.815,2.282-2.896,5.271
			c-0.659-1.08-1.2-1.741-1.229-1.777c-0.122-0.146-0.299-0.233-0.492-0.229c-0.19,0.001-0.369,0.09-0.487,0.239
			c-0.054,0.069-1.347,1.719-2.408,4.119c-0.142,0.319,0.003,0.689,0.32,0.831c0.317,0.139,0.688-0.003,0.828-0.321
			c0.608-1.374,1.308-2.5,1.763-3.173c0.351,0.501,0.839,1.257,1.313,2.179c0.119,0.233,0.37,0.366,0.629,0.338
			c0.26-0.029,0.473-0.215,0.539-0.468c0.628-2.425,1.908-4.519,2.612-5.545c0.704,1.025,1.982,3.114,2.611,5.545
			c0.065,0.252,0.278,0.438,0.54,0.468c0.257,0.028,0.508-0.106,0.628-0.338c0.476-0.923,0.964-1.68,1.314-2.18
			c0.945,1.387,2.941,4.727,2.968,8.211c0,0.93-0.157,1.843-0.469,2.713C104.474,58.428,104.645,58.788,104.971,58.904
			L104.971,58.904z M104.971,58.904"/>
		<path style="fill:#3C3C3C;" d="M85.914,48.945c-0.335-0.091-0.68,0.109-0.77,0.444c-0.282,1.062-0.43,2.098-0.438,3.083
			c0,1.07,0.182,2.12,0.537,3.123c0.092,0.257,0.334,0.417,0.592,0.417c0.069,0,0.141-0.012,0.21-0.037
			c0.328-0.115,0.498-0.475,0.384-0.803c-0.309-0.866-0.466-1.774-0.466-2.697c0.008-0.875,0.141-1.804,0.396-2.765
			C86.448,49.377,86.25,49.034,85.914,48.945L85.914,48.945z M85.914,48.945"/>
	</g>
	<path style="fill:#3C3C3C;" d="M98.639,99.344H44.73c-0.403,0-0.731-0.327-0.731-0.731v-36.88c0-0.404,0.328-0.732,0.731-0.732
		h53.908c0.403,0,0.73,0.328,0.73,0.732v36.88C99.369,99.017,99.042,99.344,98.639,99.344z M45.461,97.882h52.446v-35.42H45.461
		V97.882z"/>
	<path style="fill:#3C3C3C;" d="M63.219,80.537H58.23c-0.404,0-0.732-0.327-0.732-0.731v-7.143c0-0.404,0.328-0.73,0.732-0.73h4.988
		c0.403,0,0.73,0.326,0.73,0.73v7.143C63.949,80.209,63.622,80.537,63.219,80.537z M58.961,79.075h3.526v-5.681h-3.526V79.075z"/>
	<path style="fill:#3C3C3C;" d="M85.096,80.537h-4.989c-0.403,0-0.73-0.327-0.73-0.731v-7.143c0-0.404,0.327-0.73,0.73-0.73h4.989
		c0.403,0,0.73,0.326,0.73,0.73v7.143C85.826,80.209,85.499,80.537,85.096,80.537z M80.838,79.075h3.526v-5.681h-3.526V79.075z"/>
	<path style="fill:#3C3C3C;" d="M58.23,76.965h-13.5c-0.403,0-0.731-0.328-0.731-0.732c0-0.404,0.328-0.731,0.731-0.731h13.5
		c0.403,0,0.73,0.328,0.73,0.731C58.961,76.638,58.634,76.965,58.23,76.965z"/>
	<path style="fill:#3C3C3C;" d="M98.595,76.965H85.096c-0.403,0-0.731-0.328-0.731-0.732c0-0.404,0.328-0.731,0.731-0.731h13.499
		c0.404,0,0.731,0.328,0.731,0.731C99.326,76.638,98.999,76.965,98.595,76.965z"/>
	<path style="fill:#3C3C3C;" d="M80.106,76.965H63.219c-0.403,0-0.731-0.328-0.731-0.732c0-0.404,0.328-0.731,0.731-0.731h16.888
		c0.404,0,0.731,0.328,0.731,0.731C80.838,76.638,80.511,76.965,80.106,76.965z"/>
	<path style="fill:#3C3C3C;" d="M63.18,62.462c-0.32,0-0.614-0.211-0.704-0.536c-0.031-0.113-0.75-2.797,0.97-5.058
		c1.456-1.917,4.155-2.889,8.021-2.889c0.403,0,0.73,0.328,0.73,0.73c0,0.404-0.327,0.732-0.73,0.732
		c-3.386,0-5.692,0.777-6.857,2.31c-1.285,1.691-0.73,3.763-0.725,3.784c0.107,0.389-0.12,0.792-0.509,0.9
		C63.311,62.454,63.244,62.462,63.18,62.462z"/>
	<path style="fill:#3C3C3C;" d="M80.188,62.462c-0.064,0-0.13-0.009-0.196-0.026c-0.389-0.108-0.615-0.509-0.509-0.897
		c0.009-0.036,0.546-2.129-0.733-3.799c-1.169-1.525-3.473-2.298-6.848-2.298c-0.403,0-0.73-0.328-0.73-0.732
		c0-0.402,0.327-0.73,0.73-0.73c3.866,0,6.564,0.972,8.021,2.889c1.72,2.261,1.001,4.945,0.97,5.058
		C80.803,62.251,80.51,62.462,80.188,62.462z"/>
	<path style="fill:#3C3C3C;" d="M47.986,91.328c-0.403,0-0.731-0.328-0.731-0.732V81.99c0-0.404,0.328-0.731,0.731-0.731
		c0.404,0,0.731,0.327,0.731,0.731v8.606C48.718,91,48.391,91.328,47.986,91.328z"/>
	<path style="fill:#3C3C3C;" d="M47.986,94.861c-0.403,0-0.731-0.326-0.731-0.73v-1.174c0-0.404,0.328-0.731,0.731-0.731
		c0.404,0,0.731,0.327,0.731,0.731v1.174C48.718,94.535,48.391,94.861,47.986,94.861z"/>
	<path style="fill:#3C3C3C;" d="M95.388,71.709c-0.403,0-0.73-0.327-0.73-0.731v-5.439c0-0.402,0.327-0.73,0.73-0.73
		c0.404,0,0.732,0.328,0.732,0.73v5.439C96.12,71.382,95.792,71.709,95.388,71.709z"/>
	<path style="fill:#3C3C3C;" d="M100.618,65.538c-0.298,0-0.604-0.012-0.918-0.037c-0.369-0.031-0.643-0.354-0.612-0.723
		c0.03-0.367,0.357-0.645,0.722-0.61c5.792,0.479,8.201-4.299,8.226-4.346c0.162-0.332,0.563-0.469,0.895-0.307
		c0.331,0.162,0.469,0.562,0.306,0.894C109.21,60.463,106.653,65.538,100.618,65.538z"/>
</g>
</svg>
