<?xml version="1.0" encoding="utf-8"?>
<!-- Generator: Adobe Illustrator 16.0.0, SVG Export Plug-In . SVG Version: 6.00 Build 0)  -->
<!DOCTYPE svg PUBLIC "-//W3C//DTD SVG 1.1//EN" "http://www.w3.org/Graphics/SVG/1.1/DTD/svg11.dtd">
<svg version="1.1" id="Layer_1" xmlns="http://www.w3.org/2000/svg" xmlns:xlink="http://www.w3.org/1999/xlink" x="0px" y="0px"
	 width="150px" height="150px" viewBox="0 0 150 150" style="enable-background:new 0 0 150 150;" xml:space="preserve">
<g>
	<g>
		<g>
			<circle style="fill:#FDCA00;" cx="75.002" cy="75" r="50.5"/>
		</g>
	</g>
</g>
<g>
	<g>
		<path style="fill:#3C3C3C;" d="M107.113,79.632c-3.317-3.317-7.727-5.145-12.416-5.145c-4.691,0-9.102,1.827-12.419,5.145
			c-3.315,3.316-5.143,7.727-5.143,12.417c0,4.691,1.827,9.101,5.143,12.417c3.317,3.318,7.728,5.144,12.419,5.144
			c4.689,0,9.099-1.826,12.416-5.144c3.317-3.317,5.145-7.726,5.145-12.417C112.258,87.359,110.431,82.949,107.113,79.632
			L107.113,79.632z M94.697,108.211c-8.913,0-16.163-7.25-16.163-16.162c0-8.911,7.25-16.162,16.163-16.162
			c8.912,0,16.162,7.251,16.162,16.162C110.859,100.961,103.609,108.211,94.697,108.211L94.697,108.211z M94.697,108.211"/>
		<path style="fill:#3C3C3C;" d="M97.807,91.909l4.873-4.873c0.877-0.876,0.877-2.303,0-3.179c-0.426-0.424-0.99-0.658-1.59-0.658
			c-0.602,0-1.165,0.233-1.591,0.658l-4.874,4.874l-4.872-4.874c-0.424-0.424-0.989-0.658-1.59-0.658
			c-0.6,0-1.164,0.233-1.589,0.658c-0.877,0.876-0.877,2.303,0,3.179l4.872,4.873l-4.872,4.874c-0.877,0.876-0.877,2.303,0,3.179
			c0.425,0.424,0.989,0.659,1.589,0.659c0.601,0,1.166-0.235,1.59-0.659l4.872-4.875l4.874,4.875
			c0.426,0.424,0.989,0.659,1.591,0.659c0.6,0,1.164-0.235,1.59-0.659c0.877-0.876,0.877-2.302,0-3.179L97.807,91.909z
			 M101.689,98.971c-0.161,0.161-0.374,0.249-0.6,0.249c-0.228,0-0.44-0.088-0.601-0.249l-5.368-5.368
			c-0.132-0.132-0.31-0.205-0.496-0.205c-0.186,0-0.361,0.073-0.493,0.205l-5.368,5.368c-0.161,0.161-0.374,0.249-0.601,0.249
			s-0.438-0.088-0.6-0.249c-0.331-0.331-0.331-0.868,0-1.198l5.368-5.369c0.132-0.131,0.204-0.31,0.204-0.495
			c0-0.186-0.072-0.363-0.204-0.493l-5.368-5.37c-0.331-0.33-0.331-0.87,0-1.2c0.161-0.16,0.373-0.249,0.6-0.249
			s0.439,0.089,0.601,0.249l5.368,5.368c0.273,0.274,0.716,0.274,0.989,0l5.368-5.368c0.16-0.16,0.373-0.249,0.601-0.249
			c0.226,0,0.438,0.089,0.6,0.249c0.331,0.33,0.331,0.87,0,1.2l-5.369,5.37c-0.131,0.13-0.203,0.308-0.203,0.493
			c0,0.185,0.072,0.364,0.203,0.495l5.369,5.369C102.021,98.104,102.021,98.641,101.689,98.971L101.689,98.971z M101.689,98.971"/>
		<path style="fill:#3C3C3C;" d="M88.953,79.19c-0.174-0.345-0.598-0.482-0.94-0.306c-2.393,1.217-4.41,3.063-5.836,5.342
			c-1.468,2.341-2.242,5.048-2.242,7.823c0,0.386,0.312,0.699,0.699,0.699c0.385,0,0.699-0.313,0.699-0.699
			c0-5.058,2.803-9.624,7.313-11.918C88.99,79.956,89.128,79.535,88.953,79.19L88.953,79.19z M88.953,79.19"/>
		<path style="fill:#3C3C3C;" d="M91.828,78.979c0.046,0,0.094-0.005,0.142-0.015c0.891-0.184,1.809-0.279,2.728-0.279
			c0.385,0,0.698-0.313,0.698-0.699c0-0.386-0.313-0.7-0.698-0.7c-1.015,0-2.028,0.104-3.012,0.307
			c-0.377,0.078-0.622,0.448-0.543,0.827C91.211,78.752,91.502,78.979,91.828,78.979L91.828,78.979z M91.828,78.979"/>
	</g>
	<path style="fill:#3C3C3C;" d="M83.638,41.903l12.675,12.669v20.789c0.077,0.03,0.147,0.067,0.223,0.102
		c0.477,0.15,0.905,0.36,1.29,0.617v-21.82c0-0.2-0.08-0.393-0.221-0.534L84.485,40.611c-0.142-0.141-0.334-0.221-0.535-0.221
		H50.298c-0.417,0-0.757,0.339-0.757,0.757v59.765c0,0.419,0.34,0.757,0.757,0.757h31.15c-0.404-0.456-0.71-0.968-0.929-1.514
		H51.055V41.903H83.638z"/>
	<path style="fill:#3C3C3C;" d="M97.068,55.016H83.95c-0.417,0-0.757-0.338-0.757-0.756V41.147c0-0.307,0.186-0.581,0.467-0.699
		c0.283-0.117,0.608-0.052,0.826,0.163l13.118,13.114c0.215,0.216,0.28,0.541,0.164,0.824
		C97.651,54.832,97.375,55.016,97.068,55.016z M84.707,53.502h10.535L84.707,42.973V53.502z"/>
	<path style="fill:#3C3C3C;" d="M72.294,63.435H59.061c-0.418,0-0.757-0.339-0.757-0.756c0-0.418,0.339-0.756,0.757-0.756h13.233
		c0.417,0,0.756,0.338,0.756,0.756C73.05,63.096,72.711,63.435,72.294,63.435z"/>
	<path style="fill:#3C3C3C;" d="M82.967,63.435h-8.409c-0.418,0-0.756-0.339-0.756-0.756c0-0.418,0.338-0.756,0.756-0.756h8.409
		c0.418,0,0.758,0.338,0.758,0.756C83.725,63.096,83.385,63.435,82.967,63.435z"/>
	<path style="fill:#3C3C3C;" d="M85.725,68.1h-5.514c-0.419,0-0.758-0.339-0.758-0.757s0.339-0.756,0.758-0.756h5.514
		c0.417,0,0.758,0.339,0.758,0.756S86.142,68.1,85.725,68.1z"/>
	<path style="fill:#3C3C3C;" d="M78.226,68.1H59.061c-0.418,0-0.757-0.339-0.757-0.757s0.339-0.756,0.757-0.756h19.165
		c0.418,0,0.757,0.339,0.757,0.756S78.644,68.1,78.226,68.1z"/>
	<path style="fill:#3C3C3C;" d="M80.496,73.143H59.061c-0.418,0-0.757-0.339-0.757-0.756s0.339-0.757,0.757-0.757h21.436
		c0.417,0,0.757,0.34,0.757,0.757S80.913,73.143,80.496,73.143z"/>
	<path style="fill:#3C3C3C;" d="M71.127,78.043H59.061c-0.418,0-0.757-0.338-0.757-0.756s0.339-0.758,0.757-0.758h12.066
		c0.418,0,0.758,0.339,0.758,0.758S71.545,78.043,71.127,78.043z"/>
	<path style="fill:#3C3C3C;" d="M64.104,91.427h-5.044c-0.418,0-0.757-0.339-0.757-0.757s0.339-0.757,0.757-0.757h5.044
		c0.417,0,0.756,0.339,0.756,0.757S64.521,91.427,64.104,91.427z"/>
	<path style="fill:#3C3C3C;" d="M67.635,51.96h-8.574c-0.418,0-0.757-0.339-0.757-0.757c0-0.417,0.339-0.756,0.757-0.756h8.574
		c0.417,0,0.756,0.339,0.756,0.756C68.391,51.621,68.052,51.96,67.635,51.96z"/>
	<path style="fill:#3C3C3C;" d="M72.294,51.96h-2.333c-0.418,0-0.756-0.339-0.756-0.757c0-0.417,0.338-0.756,0.756-0.756h2.333
		c0.417,0,0.756,0.339,0.756,0.756C73.05,51.621,72.711,51.96,72.294,51.96z"/>
</g>
</svg>
