<?xml version="1.0" encoding="utf-8"?>
<!-- Generator: Adobe Illustrator 16.0.0, SVG Export Plug-In . SVG Version: 6.00 Build 0)  -->
<!DOCTYPE svg PUBLIC "-//W3C//DTD SVG 1.1//EN" "http://www.w3.org/Graphics/SVG/1.1/DTD/svg11.dtd">
<svg version="1.1" id="Layer_1" xmlns="http://www.w3.org/2000/svg" xmlns:xlink="http://www.w3.org/1999/xlink" x="0px" y="0px"
	 width="150px" height="150px" viewBox="0 0 150 150" style="enable-background:new 0 0 150 150;" xml:space="preserve">
<g>
	<g>
		<g>
			<circle style="fill:#FDCA00;" cx="74.759" cy="75" r="50.5"/>
		</g>
	</g>
</g>
<g>
	<path style="fill:#3C3C3C;" d="M79.406,54.298c4.422,0,8.02-3.6,8.02-8.022s-3.597-8.02-8.02-8.02s-8.021,3.597-8.021,8.02
		S74.983,54.298,79.406,54.298L79.406,54.298z M79.406,39.538c3.715,0,6.737,3.021,6.737,6.737s-3.022,6.738-6.737,6.738
		c-3.715,0-6.737-3.022-6.737-6.738S75.69,39.538,79.406,39.538L79.406,39.538z M79.406,39.538"/>
	<path style="fill:#3C3C3C;" d="M109.502,90.28c-0.889-1.672-2.617-2.711-4.51-2.711c-0.829,0-1.656,0.207-2.391,0.599
		l-11.285,5.995l-4.379-8.24c0.243-0.768,0.366-1.564,0.366-2.374v-2.291c0.429,0.181,0.89,0.276,1.356,0.276h0.001
		c1.229,0,2.38-0.657,3.007-1.719l5.325-9.194c0.962-1.651,0.403-3.785-1.247-4.757l-8.658-5.052
		c-0.839-3.532-4.022-6.066-7.682-6.066c-4.272,0-7.76,3.409-7.892,7.649l-4.095,4.364l-5.192-4.846
		c-0.677-0.64-1.561-0.98-2.492-0.951c-0.931,0.025-1.796,0.413-2.436,1.09c-0.64,0.677-0.978,1.562-0.951,2.491
		c0.026,0.931,0.413,1.796,1.093,2.438l7.776,7.238c0.669,0.626,1.523,0.936,2.376,0.936c0.926,0,1.854-0.365,2.54-1.09l1.374-1.468
		v7.918l-13.588,4.131c-0.002,0-0.003,0-0.004,0.001c-1.968,0.597-3.378,2.304-3.593,4.349c-0.072,0.681-0.007,1.359,0.194,2.019
		c0.001,0.003,0.002,0.007,0.003,0.011l5.196,17.099c0.668,2.199,2.697,3.619,4.886,3.619c0.49,0,0.987-0.07,1.48-0.222
		c1.305-0.396,2.376-1.275,3.019-2.479c0.642-1.2,0.777-2.582,0.38-3.886l-3.716-12.229l9.244-2.81
		c0.955,0.637,2.059,1.072,3.261,1.245l6.425,12.095c0.888,1.673,2.617,2.711,4.511,2.711c0.149,0,0.3-0.007,0.448-0.02
		c0.676-0.06,1.325-0.253,1.93-0.571c0.011-0.005,0.021-0.011,0.031-0.016l15.774-8.382C109.874,95.86,110.822,92.765,109.502,90.28
		L109.502,90.28z M89.229,70.136l-1.926,3.314v-4.438L89.229,70.136z M95.882,69.977l-5.323,9.19
		c-0.365,0.618-1.014,1.02-1.725,1.076l2.965-5.082c0.179-0.307,0.075-0.699-0.23-0.879c-0.306-0.177-0.699-0.073-0.877,0.231
		l-3.163,5.422c-0.15-0.089-0.286-0.198-0.409-0.318c-0.004-0.004-0.01-0.008-0.014-0.014c-0.276-0.274-0.477-0.617-0.576-1.005
		c-0.148-0.569-0.064-1.162,0.236-1.673l3.893-6.697c0.177-0.307,0.074-0.699-0.232-0.878l-3.401-1.985
		c-0.014-0.01-0.03-0.018-0.045-0.027l-6.34-3.702c-0.508-0.297-0.867-0.776-1.015-1.346c-0.147-0.57-0.063-1.163,0.235-1.67
		c0.395-0.668,1.123-1.083,1.9-1.083c0.391,0,0.777,0.104,1.118,0.306l12.216,7.127C96.138,67.584,96.491,68.932,95.882,69.977
		L95.882,69.977z M69.199,73.187c-0.831,0.88-2.224,0.921-3.106,0.098l-7.773-7.237c-0.429-0.403-0.673-0.95-0.688-1.539
		c-0.017-0.588,0.196-1.146,0.601-1.573c0.405-0.429,0.951-0.674,1.538-0.689c0.589-0.018,1.147,0.197,1.578,0.605l5.664,5.285
		c0.258,0.241,0.665,0.228,0.906-0.03l3.589-3.827v6.443L69.199,73.187z M64.779,91.888c-0.339,0.104-0.53,0.463-0.427,0.801
		l3.904,12.84c0.297,0.979,0.194,2.011-0.286,2.911c-0.48,0.9-1.284,1.561-2.26,1.856c-0.059,0.018-0.12,0.034-0.179,0.049
		L61.523,95.65c-0.093-0.341-0.446-0.542-0.788-0.45c-0.341,0.093-0.543,0.448-0.451,0.789l3.942,14.452
		c-1.491-0.148-2.821-1.17-3.282-2.691l-5.199-17.102c0-0.004-0.002-0.01-0.004-0.014c-0.148-0.492-0.196-0.998-0.143-1.504
		c0.161-1.528,1.215-2.807,2.686-3.256c0.001,0,0.003,0,0.005,0l13.217-4.018v1.69c0,2.18,0.875,4.161,2.309,5.594L64.779,91.888z
		 M75.573,88.95c-0.043-0.043-0.091-0.079-0.145-0.107c-1.611-1.208-2.637-3.133-2.637-5.295V62.644c0-1.758,0.69-3.355,1.812-4.541
		v13.564c0,0.354,0.288,0.642,0.643,0.642c0.354,0,0.641-0.287,0.641-0.642V57.048c1.021-0.644,2.227-1.019,3.52-1.019
		c2.598,0,4.908,1.525,5.98,3.79l-1.857-1.083c-0.537-0.315-1.148-0.482-1.768-0.482c-1.229,0-2.382,0.657-3.004,1.714
		c-0.473,0.804-0.606,1.741-0.373,2.644c0.232,0.901,0.803,1.657,1.607,2.132l6.028,3.52v7.396l-0.36,0.619
		c-0.472,0.802-0.605,1.738-0.372,2.64c0.136,0.527,0.388,1,0.732,1.4v3.229c0,0.201-0.009,0.398-0.027,0.596l-0.672-1.265
		c-0.889-1.671-2.618-2.711-4.512-2.711c-0.829,0-1.655,0.207-2.391,0.598c-2.484,1.32-3.432,4.417-2.111,6.902l1.175,2.212
		C76.788,89.672,76.146,89.355,75.573,88.95L75.573,88.95z M106.788,96.048L91,104.438c0,0,0,0.001,0,0.001
		c-0.457,0.242-0.948,0.389-1.457,0.434c-0.111,0.01-0.223,0.016-0.335,0.016c-1.418,0-2.712-0.778-3.378-2.032l-6.584-12.391
		l-0.001-0.001l-1.805-3.397c-0.988-1.86-0.279-4.18,1.581-5.167c0.551-0.292,1.17-0.449,1.789-0.449
		c1.418,0,2.713,0.778,3.378,2.03l6.298,11.851c0.165,0.314,0.554,0.433,0.867,0.267l11.852-6.297
		c0.551-0.292,1.169-0.447,1.789-0.447c0.76,0,1.483,0.224,2.093,0.624l-11.023,6.235c-0.308,0.176-0.416,0.567-0.242,0.875
		c0.175,0.309,0.566,0.417,0.875,0.243l11.368-6.433c0.113,0.152,0.216,0.312,0.307,0.484
		C109.357,92.741,108.648,95.061,106.788,96.048L106.788,96.048z M106.788,96.048"/>
	<path style="fill:#3C3C3C;" d="M51.28,72.803c-0.091,0-0.183-0.017-0.269-0.05l-13.724-5.329c-0.383-0.149-0.573-0.581-0.424-0.963
		l7.943-20.453c0.071-0.185,0.213-0.333,0.394-0.412c0.18-0.08,0.385-0.084,0.569-0.012l13.724,5.329
		c0.383,0.149,0.573,0.58,0.425,0.963l-7.944,20.453c-0.072,0.184-0.213,0.332-0.394,0.411
		C51.484,72.782,51.382,72.803,51.28,72.803z M38.519,66.306l12.337,4.792l7.404-19.067l-12.337-4.792L38.519,66.306z"/>
	<path style="fill:#3C3C3C;" d="M58.575,60.467c0.209,0.381,0.289,0.83,0.25,1.335c0.236-0.067,0.494-0.105,0.776-0.105
		c0.257,0,0.492,0.033,0.711,0.089c0.036-0.742-0.1-1.425-0.433-2.033c-0.945-1.723-3.024-2.155-3.112-2.173
		c-0.403-0.079-0.795,0.182-0.875,0.584c-0.081,0.404,0.181,0.794,0.583,0.875C56.49,59.041,57.969,59.363,58.575,60.467z"/>
	<path style="fill:#3C3C3C;" d="M57.097,64.934c-0.1,0.056-0.199,0.11-0.306,0.147c-1.191,0.409-2.496-0.345-2.524-0.361
		c-0.351-0.211-0.807-0.098-1.02,0.252c-0.212,0.353-0.1,0.81,0.252,1.021c0.06,0.037,1.17,0.696,2.533,0.696
		c0.395,0,0.812-0.056,1.23-0.198c0.131-0.045,0.258-0.101,0.382-0.158c-0.17-0.247-0.289-0.526-0.369-0.818
		C57.194,65.329,57.136,65.133,57.097,64.934z"/>
</g>
</svg>
