<?xml version="1.0" encoding="utf-8"?>
<!-- Generator: Adobe Illustrator 16.0.0, SVG Export Plug-In . SVG Version: 6.00 Build 0)  -->
<!DOCTYPE svg PUBLIC "-//W3C//DTD SVG 1.1//EN" "http://www.w3.org/Graphics/SVG/1.1/DTD/svg11.dtd">
<svg version="1.1" id="Layer_1" xmlns="http://www.w3.org/2000/svg" xmlns:xlink="http://www.w3.org/1999/xlink" x="0px" y="0px"
	 width="150px" height="150px" viewBox="0 0 150 150" style="enable-background:new 0 0 150 150;" xml:space="preserve">
<g>
	<g>
		<g>
			<circle style="fill:#FDCA00;" cx="75.001" cy="75" r="50.5"/>
		</g>
	</g>
</g>
<g>
	<g>
		<g>
			<path style="fill:#3C3C3C;" d="M75.814,77.067c-0.572,0-1.034,0.463-1.034,1.033v12.404c0,0.57,0.462,1.033,1.034,1.033h10.334
				c0.572,0,1.036-0.463,1.036-1.033c0-0.572-0.464-1.033-1.036-1.033h-9.302V78.101C76.847,77.53,76.385,77.067,75.814,77.067z"/>
			<path style="fill:#3C3C3C;" d="M64.444,84.302V71.899c0-0.57-0.464-1.033-1.032-1.033H51.008c-0.57,0-1.034,0.463-1.034,1.033
				s0.464,1.035,1.034,1.035h11.368v10.336h-5.167h-6.201c-0.57,0-1.034,0.461-1.034,1.031v12.404c0,0.57,0.464,1.033,1.034,1.033
				s1.034-0.463,1.034-1.033V85.337h4.133v18.604h-8.268c-1.141,0-2.067-0.926-2.067-2.066V79.136h11.369
				c0.57,0,1.034-0.465,1.034-1.035s-0.464-1.033-1.034-1.033H45.84V66.733h11.369c0.57,0,1.034-0.465,1.034-1.035
				s-0.464-1.033-1.034-1.033h-5.167v-7.236c0-0.57-0.464-1.033-1.034-1.033s-1.034,0.463-1.034,1.033v7.236H45.84V48.126
				c0-1.139,0.927-2.066,2.067-2.066h2.066v5.168c0,0.57,0.464,1.033,1.034,1.033h5.167v7.234c0,0.572,0.464,1.035,1.034,1.035
				s1.034-0.463,1.034-1.035v-8.268c0-0.57-0.464-1.033-1.034-1.033h-5.167V46.06h28.939v18.605H64.444V52.261H74.78v6.203h-4.135
				v-1.035c0-0.57-0.462-1.033-1.032-1.033c-0.572,0-1.034,0.463-1.034,1.033v2.066c0,0.572,0.462,1.035,1.034,1.035h6.201
				c0.57,0,1.032-0.463,1.032-1.035v-8.268c0-0.57-0.462-1.033-1.032-1.033H63.412c-0.572,0-1.036,0.463-1.036,1.033v14.471
				c0,0.57,0.464,1.033,1.036,1.033h28.939c0.57,0,1.034-0.463,1.034-1.033s-0.464-1.033-1.034-1.033h-9.304V45.026
				c0-0.57-0.462-1.035-1.032-1.035H47.907c-2.281,0-4.135,1.855-4.135,4.135v53.748c0,2.279,1.854,4.135,4.135,4.135h9.302
				c0.57,0,1.034-0.465,1.034-1.035V85.337h5.169C63.98,85.337,64.444,84.874,64.444,84.302z"/>
			<path style="fill:#3C3C3C;" d="M88.217,60.53c0.572,0,1.032-0.463,1.032-1.035v-8.268c0-0.57-0.46-1.033-1.032-1.033
				c-0.57,0-1.032,0.463-1.032,1.033v8.268C87.185,60.067,87.646,60.53,88.217,60.53z"/>
			<path style="fill:#3C3C3C;" d="M98.553,85.337c0.57,0,1.034-0.463,1.034-1.035V71.899c0-0.57-0.464-1.033-1.034-1.033H75.814
				c-0.572,0-1.034,0.463-1.034,1.033s0.462,1.035,1.034,1.035h21.704v11.367C97.519,84.874,97.982,85.337,98.553,85.337z"/>
			<path style="fill:#3C3C3C;" d="M70.646,71.899c0-0.57-0.462-1.033-1.032-1.033c-0.572,0-1.034,0.463-1.034,1.033v12.402
				c0,0.572,0.462,1.035,1.034,1.035c0.57,0,1.032-0.463,1.032-1.035V71.899z"/>
			<path style="fill:#3C3C3C;" d="M101.653,43.991H88.217c-0.57,0-1.032,0.465-1.032,1.035s0.462,1.033,1.032,1.033h13.437
				c1.141,0,2.067,0.928,2.067,2.066v10.338h-8.269v-6.203h3.101c0.57,0,1.034-0.463,1.034-1.033s-0.464-1.033-1.034-1.033h-4.135
				c-0.57,0-1.032,0.463-1.032,1.033v8.268c0,0.572,0.462,1.035,1.032,1.035h3.101v5.168c0,0.57,0.464,1.033,1.034,1.033
				s1.034-0.463,1.034-1.033V60.53h4.134v28.941h-5.168c-0.57,0-1.034,0.461-1.034,1.033c0,0.57,0.464,1.033,1.034,1.033h5.168
				v4.135H93.386V78.101c0-0.57-0.464-1.033-1.034-1.033H82.016c-0.571,0-1.034,0.463-1.034,1.033v6.201
				c0,0.572,0.463,1.035,1.034,1.035h4.133c0.572,0,1.036-0.463,1.036-1.035c0-0.57-0.464-1.031-1.036-1.031h-3.101v-4.135h8.27
				v17.57c0,0.57,0.464,1.033,1.034,1.033h11.369v4.135c0,1.141-0.927,2.068-2.067,2.068H64.444v-6.203h21.704
				c0.572,0,1.036-0.463,1.036-1.033c0-0.572-0.464-1.033-1.036-1.033H63.412c-0.572,0-1.036,0.461-1.036,1.033v8.268
				c0,0.57,0.464,1.035,1.036,1.035h38.241c2.281,0,4.135-1.855,4.135-4.135V48.126C105.788,45.847,103.935,43.991,101.653,43.991z"
				/>
			<path style="fill:#3C3C3C;" d="M69.613,89.472h-6.201c-0.572,0-1.036,0.461-1.036,1.033c0,0.57,0.464,1.033,1.036,1.033h6.201
				c0.568,0,1.032-0.463,1.032-1.033C70.646,89.933,70.184,89.472,69.613,89.472z"/>
		</g>
	</g>
</g>
</svg>
