<?xml version="1.0" encoding="utf-8"?>
<!-- Generator: Adobe Illustrator 16.0.0, SVG Export Plug-In . SVG Version: 6.00 Build 0)  -->
<!DOCTYPE svg PUBLIC "-//W3C//DTD SVG 1.1//EN" "http://www.w3.org/Graphics/SVG/1.1/DTD/svg11.dtd">
<svg version="1.1" id="Layer_1" xmlns="http://www.w3.org/2000/svg" xmlns:xlink="http://www.w3.org/1999/xlink" x="0px" y="0px"
	 width="150px" height="150px" viewBox="0 0 150 150" style="enable-background:new 0 0 150 150;" xml:space="preserve">
<g>
	<g>
		<g>
			<circle style="fill:#FDCA00;" cx="75.425" cy="75" r="50.5"/>
		</g>
	</g>
</g>
<g>
	<path style="fill:#3C3C3C;" d="M104.459,66.421c-0.58-10.876-10.543-19.561-22.705-19.561c-4.432,0-8.592,1.248-12.074,3.415
		c-2.863-3.521-7.135-5.581-11.738-5.581c-8.355,0-15.15,6.796-15.15,15.15c0,2.902,0.822,5.725,2.385,8.16
		c0.918,1.438,2.096,2.717,3.439,3.774c-0.262,1.024-0.414,2.103-0.414,3.218c0,6.273,4.551,10.824,10.824,10.824v-2.162
		c-5.1,0-8.654-3.562-8.654-8.662c0-5.369,3.883-9.74,8.654-9.74h3.061l0.17-0.882c1.67-8.894,9.871-15.353,19.498-15.353
		c11.338,0,20.564,8.255,20.564,18.402v1.083h1.084c3.826,0,6.494,4.56,6.494,8.657c0,3.941-2.553,6.494-6.494,6.494v2.162
		c5.094,0,8.656-3.558,8.656-8.656C112.059,72.302,109.045,67.117,104.459,66.421L104.459,66.421z M60.314,63.096h-1.289
		c-4.201,0-7.838,2.648-9.635,6.5c-0.918-0.808-1.738-1.732-2.395-2.759c-1.336-2.082-2.039-4.502-2.039-6.992
		c0-7.16,5.822-12.984,12.984-12.984c3.891,0,7.5,1.707,9.957,4.641C64.158,54.376,61.416,58.403,60.314,63.096L60.314,63.096z
		 M60.314,63.096"/>
	<path style="fill:#3C3C3C;" d="M44.957,94.483h32.471c2.383,0,4.326,1.938,4.326,4.327s-1.943,4.329-4.326,4.329
		c-2.389,0-4.334-1.94-4.334-4.329h-2.162c0,3.583,2.912,6.495,6.496,6.495c3.578,0,6.488-2.912,6.488-6.495
		s-2.91-6.495-6.488-6.495H44.957V94.483z M44.957,94.483"/>
	<path style="fill:#3C3C3C;" d="M91.494,87.987H47.119v2.166h44.375c3.584,0,6.496-2.916,6.496-6.494
		c0-3.584-2.912-6.494-6.496-6.494c-3.582,0-6.494,2.91-6.494,6.494h2.168c0-2.389,1.938-4.328,4.326-4.328s4.33,1.939,4.33,4.328
		S93.883,87.987,91.494,87.987L91.494,87.987z M91.494,87.987"/>
</g>
</svg>
