<?xml version="1.0" encoding="utf-8"?>
<!-- Generator: Adobe Illustrator 16.0.0, SVG Export Plug-In . SVG Version: 6.00 Build 0)  -->
<!DOCTYPE svg PUBLIC "-//W3C//DTD SVG 1.1//EN" "http://www.w3.org/Graphics/SVG/1.1/DTD/svg11.dtd">
<svg version="1.1" id="Layer_1" xmlns="http://www.w3.org/2000/svg" xmlns:xlink="http://www.w3.org/1999/xlink" x="0px" y="0px"
	 width="150px" height="150px" viewBox="0 0 150 150" style="enable-background:new 0 0 150 150;" xml:space="preserve">
<g>
	<g>
		<g>
			<circle style="fill:#FDCA00;" cx="74.781" cy="75" r="50.5"/>
		</g>
	</g>
</g>
<g>
	<path style="fill:#3C3C3C;" d="M98.418,76.245c-1.896,0-3.439,1.543-3.439,3.439s1.543,3.439,3.439,3.439s3.44-1.543,3.44-3.439
		S100.314,76.245,98.418,76.245z M98.418,80.929c-0.686,0-1.244-0.559-1.244-1.244c0-0.688,0.559-1.244,1.244-1.244
		c0.687,0,1.245,0.557,1.245,1.244C99.663,80.37,99.104,80.929,98.418,80.929z"/>
	<path style="fill:#3C3C3C;" d="M108.957,79.757h-1.861c-1.12-4.145-3.752-7.982-7.58-11.102v-8.877
		c0-0.607-0.491-1.098-1.098-1.098c-3.302,0-6.271,2.008-7.515,5.037c-4.507-1.758-9.564-2.695-14.732-2.695
		c-8.363,0-16.238,2.389-22.176,6.727c-4.91,3.588-8.026,8.16-9.021,13.129c-2.914-0.371-5.176-2.863-5.176-5.877
		c0-2.111,1.137-4.078,2.965-5.137c0.525-0.303,0.705-0.975,0.401-1.5s-0.976-0.703-1.501-0.4c-2.504,1.449-4.061,4.145-4.061,7.037
		c0,4.123,3.09,7.537,7.076,8.053c-0.032,0.436-0.051,0.873-0.051,1.314v12.879c0,2.814,2.019,5.164,4.684,5.678v6.033
		c0,1.896,1.544,3.439,3.44,3.439h4.684c1.896,0,3.439-1.543,3.439-3.439v-5.93h25.907v5.93c0,1.896,1.543,3.439,3.439,3.439h4.684
		c1.896,0,3.439-1.543,3.439-3.439v-5.93h3.586c3.188,0,5.782-2.592,5.782-5.781v-2.414h1.244c1.896,0,3.439-1.543,3.439-3.439
		v-8.197C112.396,81.3,110.854,79.757,108.957,79.757L108.957,79.757z M97.32,60.978v6.059c-0.232-0.154-0.467-0.309-0.706-0.459
		c-1.168-0.736-2.401-1.402-3.689-1.998C93.687,62.696,95.358,61.349,97.32,60.978z M57.436,110.202h-4.684
		c-0.687,0-1.244-0.559-1.244-1.244v-1.244h7.172v1.244C58.68,109.644,58.121,110.202,57.436,110.202z M94.905,110.202h-4.684
		c-0.687,0-1.244-0.559-1.244-1.244v-1.244h7.172v1.244C96.149,109.644,95.592,110.202,94.905,110.202z M110.201,91.394
		c0,0.686-0.559,1.244-1.244,1.244h-1.244v-7.1c0-0.605-0.492-1.098-1.098-1.098c-0.606,0-1.099,0.492-1.099,1.098v8.197v3.512
		c0,1.979-1.607,3.588-3.586,3.588h-4.683c-0.606,0-1.099,0.49-1.099,1.098v3.586h-7.172v-3.586c0-0.607-0.491-1.098-1.098-1.098
		H59.777c-0.606,0-1.098,0.49-1.098,1.098v3.586h-7.172v-3.586c0-0.607-0.492-1.098-1.099-1.098c-1.977,0-3.586-1.609-3.586-3.588
		V84.368c0-11.662,13.165-21.15,29.348-21.15c7.086,0,13.931,1.854,19.273,5.217c5.206,3.277,8.657,7.771,9.717,12.654
		c0.109,0.504,0.557,0.863,1.072,0.863h2.724c0.686,0,1.244,0.559,1.244,1.244V91.394L110.201,91.394z"/>
	<path style="fill:#3C3C3C;" d="M80.978,65.974c-3.562-0.4-7.282-0.35-10.816,0.154c-0.601,0.086-1.018,0.641-0.933,1.24
		c0.078,0.549,0.548,0.945,1.086,0.943c0.052,0,0.104-0.002,0.156-0.01c3.351-0.477,6.883-0.527,10.261-0.146
		c0.602,0.068,1.146-0.365,1.214-0.967C82.013,66.585,81.58,66.042,80.978,65.974L80.978,65.974z"/>
	<path style="fill:#3C3C3C;" d="M76.171,58.534c5.77,0,10.465-4.695,10.465-10.465c0-5.771-4.695-10.467-10.465-10.467
		c-5.771,0-10.466,4.695-10.466,10.467C65.705,53.839,70.399,58.534,76.171,58.534z M76.171,39.798c4.56,0,8.27,3.711,8.27,8.271
		c0,4.559-3.71,8.27-8.27,8.27c-4.561,0-8.271-3.711-8.271-8.27C67.9,43.509,71.61,39.798,76.171,39.798z"/>
	<path style="fill:#3C3C3C;" d="M76.17,49.067c-0.553,0-1-0.447-1-1v-5.424c0-0.553,0.447-1,1-1s1,0.447,1,1v5.424
		C77.17,48.62,76.723,49.067,76.17,49.067z"/>
	<path style="fill:#3C3C3C;" d="M81.952,49.067h-5.424c-0.553,0-1-0.447-1-1s0.447-1,1-1h5.424c0.553,0,1,0.447,1,1
		S82.505,49.067,81.952,49.067z"/>
</g>
</svg>
