<?xml version="1.0" encoding="utf-8"?>
<!-- Generator: Adobe Illustrator 16.0.0, SVG Export Plug-In . SVG Version: 6.00 Build 0)  -->
<!DOCTYPE svg PUBLIC "-//W3C//DTD SVG 1.1//EN" "http://www.w3.org/Graphics/SVG/1.1/DTD/svg11.dtd">
<svg version="1.1" id="Layer_1" xmlns="http://www.w3.org/2000/svg" xmlns:xlink="http://www.w3.org/1999/xlink" x="0px" y="0px"
	 width="150px" height="150px" viewBox="0 0 150 150" style="enable-background:new 0 0 150 150;" xml:space="preserve">
<g>
	<g>
		<g>
			<circle style="fill:#FDCA00;" cx="75.001" cy="74.999" r="50.5"/>
		</g>
	</g>
</g>
<g>
	<path style="fill:#3C3C3C;" d="M104.44,93.482c-1.352,0-2.075,0.467-2.656,0.843c-0.481,0.312-0.799,0.517-1.55,0.517
		c-0.751,0-1.069-0.206-1.55-0.517c-0.581-0.376-1.304-0.843-2.656-0.843c-1.352,0-2.075,0.467-2.656,0.843
		c-0.448,0.289-0.754,0.487-1.399,0.513c-3.977-4.854-9.727-7.734-15.968-8.015c-0.225-8.579-3.365-16.826-8.907-23.365
		c0.004-0.204,0.006-0.413,0.005-0.629l9.854,1.649c0.056,0.01,0.112,0.015,0.168,0.015c0.23,0,0.456-0.078,0.637-0.225
		c0.227-0.182,0.365-0.45,0.38-0.74c0.138-2.604-2.023-6.278-5.027-8.546c-2.223-1.68-4.49-2.248-6.383-1.6
		c-0.366,0.126-0.713,0.28-1.042,0.459c-0.885-0.34-1.815-0.514-2.775-0.514c-3.13,0-5.936,1.877-7.147,4.724
		c-0.357,0.113-0.708,0.255-1.051,0.432c-1.782,0.911-2.948,2.937-3.285,5.703c-0.454,3.735,0.688,7.843,2.655,9.552
		c0.187,0.162,0.424,0.25,0.668,0.25c0.042,0,0.085-0.002,0.128-0.008c0.288-0.037,0.547-0.195,0.711-0.434l4.048-5.892
		c0.906,1.105,2.468,2.579,4.582,2.964c0.061,0.012,0.122,0.017,0.183,0.017c0.207,0,0.411-0.064,0.583-0.185
		c0.065-0.046,0.172-0.131,0.305-0.269c1.353,2.824,3.851,9.307,3.178,17.601c-4.052,1.256-7.676,3.678-10.443,7.055
		c-0.646-0.025-0.953-0.223-1.401-0.513c-0.581-0.376-1.304-0.843-2.656-0.843c-1.352,0-2.075,0.467-2.655,0.843
		c-0.481,0.311-0.799,0.517-1.55,0.517s-1.069-0.206-1.55-0.517c-0.581-0.376-1.304-0.843-2.655-0.843
		c-0.562,0-1.019,0.457-1.019,1.02s0.456,1.019,1.019,1.019c0.75,0,1.069,0.205,1.55,0.517c0.581,0.375,1.304,0.842,2.656,0.842
		c1.352,0,2.075-0.467,2.655-0.842c0.481-0.312,0.799-0.517,1.55-0.517c0.751,0,1.069,0.205,1.55,0.517
		c0.581,0.375,1.303,0.842,2.655,0.842c1.352,0,2.074-0.467,2.655-0.842c0.481-0.312,0.799-0.517,1.55-0.517
		c0.75,0,1.069,0.205,1.55,0.517c0.581,0.375,1.304,0.842,2.656,0.842s2.075-0.467,2.655-0.842c0.481-0.312,0.799-0.517,1.55-0.517
		c0.751,0,1.069,0.205,1.55,0.517c0.581,0.375,1.304,0.842,2.655,0.842s2.074-0.467,2.655-0.842c0.481-0.312,0.799-0.517,1.55-0.517
		c0.751,0,1.069,0.205,1.55,0.517c0.581,0.375,1.304,0.842,2.655,0.842c1.352,0,2.075-0.467,2.656-0.842
		c0.481-0.312,0.799-0.517,1.55-0.517c0.751,0,1.069,0.205,1.55,0.517c0.581,0.375,1.304,0.842,2.656,0.842
		c1.352,0,2.074-0.467,2.655-0.842c0.481-0.312,0.799-0.517,1.55-0.517s1.069,0.205,1.551,0.517
		c0.581,0.375,1.304,0.842,2.656,0.842s2.075-0.467,2.656-0.842c0.481-0.312,0.799-0.517,1.551-0.517
		c0.562,0,1.019-0.456,1.019-1.019S105.002,93.482,104.44,93.482z M67.392,55.311c1.663-0.568,3.53,0.568,4.495,1.297
		c1.978,1.494,3.601,3.798,4.081,5.64L63.98,60.24C64.135,58.876,64.774,56.207,67.392,55.311z M62.914,55.365
		c0.289,0,0.573,0.022,0.854,0.064c-0.581,0.705-1.04,1.551-1.363,2.523c-0.139,0.421-0.24,0.826-0.314,1.202
		c-0.321-0.207-0.684-0.417-1.083-0.608c-0.925-0.444-1.853-0.701-2.763-0.774C59.301,56.29,61.028,55.365,62.914,55.365z
		 M54.676,71.284c-0.992-1.624-1.522-4.392-1.223-6.853c0.146-1.2,0.625-3.333,2.19-4.134c0.664-0.341,1.358-0.511,2.076-0.511
		c0.759,0,1.546,0.19,2.355,0.571c0.607,0.286,1.117,0.631,1.484,0.911L54.676,71.284z M64.036,68.472
		c-1.526-0.507-2.651-1.842-3.18-2.582l2.531-3.684l1.675,0.28C65.12,66.166,64.426,67.832,64.036,68.472z M66.46,67.995
		c0.143-0.452,0.273-0.981,0.379-1.6c4.423,5.887,6.92,13.026,7.126,20.429c-1.158,0.054-2.298,0.196-3.414,0.424
		C71.183,77.15,67.493,69.826,66.46,67.995z M84.959,94.325c-0.481,0.311-0.799,0.517-1.55,0.517c-0.75,0-1.069-0.206-1.55-0.517
		c-0.581-0.376-1.304-0.843-2.656-0.843s-2.075,0.467-2.655,0.843c-0.481,0.311-0.799,0.517-1.55,0.517s-1.069-0.206-1.55-0.517
		c-0.581-0.376-1.304-0.843-2.655-0.843c-1.352,0-2.075,0.467-2.656,0.843c-0.481,0.311-0.799,0.517-1.55,0.517
		s-1.069-0.206-1.55-0.517c-0.581-0.376-1.304-0.843-2.655-0.843c-0.06,0-0.117,0.003-0.173,0.005
		c3.549-2.99,8.038-4.65,12.791-4.65c4.754,0,9.242,1.66,12.792,4.65c-0.058-0.002-0.116-0.004-0.177-0.004
		C86.263,93.482,85.541,93.949,84.959,94.325z"/>
	<path style="fill:#3C3C3C;" d="M81.862,75.631c0.02,1.592,1.321,2.883,2.918,2.883h10.323c1.161,0,2.106-0.944,2.106-2.105
		c0-0.038,0.031-0.068,0.067-0.068h1.63c1.61,0,2.921-1.311,2.921-2.92c0-1.61-1.311-2.92-2.921-2.92h-5.889
		c0.011-0.158,0.017-0.316,0.017-0.477c0-3.857-3.139-6.994-6.995-6.994c-3.857,0-6.995,3.137-6.995,6.994
		C79.044,72.264,80.087,74.313,81.862,75.631z M99.789,73.419c0,0.488-0.396,0.884-0.883,0.884h-1.63
		c-1.161,0-2.105,0.944-2.105,2.105c0,0.037-0.031,0.067-0.068,0.067H84.78c-0.487,0-0.883-0.396-0.883-0.884
		c0-0.485,0.396-0.883,0.883-0.883h1.63c1.161,0,2.105-0.942,2.105-2.104c0-0.037,0.03-0.068,0.068-0.068h10.323
		C99.393,72.536,99.789,72.934,99.789,73.419z M86.039,65.066c2.733,0,4.958,2.224,4.958,4.957c0,0.16-0.01,0.318-0.025,0.477
		h-2.389c-1.161,0-2.105,0.943-2.105,2.104c0,0.038-0.03,0.068-0.067,0.068h-1.63c-0.851,0-1.616,0.367-2.15,0.95
		c-0.982-0.926-1.548-2.211-1.548-3.6C81.082,67.29,83.305,65.066,86.039,65.066z"/>
</g>
</svg>
