<?xml version="1.0" encoding="utf-8"?>
<!-- Generator: Adobe Illustrator 16.0.0, SVG Export Plug-In . SVG Version: 6.00 Build 0)  -->
<!DOCTYPE svg PUBLIC "-//W3C//DTD SVG 1.1//EN" "http://www.w3.org/Graphics/SVG/1.1/DTD/svg11.dtd">
<svg version="1.1" id="Layer_1" xmlns="http://www.w3.org/2000/svg" xmlns:xlink="http://www.w3.org/1999/xlink" x="0px" y="0px"
	 width="150px" height="150px" viewBox="0 0 150 150" style="enable-background:new 0 0 150 150;" xml:space="preserve">
<g>
	<g>
		<g>
			<circle style="fill:#FDCA00;" cx="75.001" cy="74.999" r="50.5"/>
		</g>
	</g>
</g>
<g>
	<path style="fill:#3C3C3C;" d="M97.142,52.632c-14.834,0-21.486-7.656-21.58-7.767c-0.387-0.463-1.174-0.462-1.561,0.001
		c-0.064,0.077-6.643,7.765-21.578,7.765c-0.562,0-1.018,0.455-1.018,1.017v19.396c0,10.604,4.768,20.682,12.752,26.955
		c3.219,2.53,6.695,4.36,10.336,5.439c0.094,0.029,0.191,0.043,0.289,0.043s0.193-0.014,0.289-0.043
		c3.641-1.08,7.117-2.909,10.336-5.439c7.984-6.274,12.75-16.351,12.75-26.955V53.648C98.157,53.087,97.702,52.632,97.142,52.632z
		 M96.126,73.046c0,9.984-4.477,19.464-11.975,25.356c-2.932,2.304-6.082,3.984-9.369,5.002c-3.289-1.017-6.439-2.698-9.369-5.002
		c-7.498-5.892-11.975-15.372-11.975-25.356V54.653c12.441-0.276,19.174-5.587,21.344-7.668c2.17,2.082,8.9,7.392,21.344,7.668
		V73.046z"/>
	<path style="fill:#3C3C3C;" d="M74.21,52.636c-3.064,2.083-8.295,4.766-15.818,5.726c-0.508,0.064-0.887,0.497-0.887,1.008v13.677
		c0,8.748,3.895,17.033,10.42,22.161c2.057,1.615,4.238,2.882,6.486,3.764c0.119,0.047,0.244,0.07,0.371,0.07
		c0.125,0,0.252-0.023,0.371-0.07c2.246-0.881,4.43-2.147,6.486-3.764c6.525-5.128,10.42-13.413,10.42-22.161V59.369
		c0-0.511-0.379-0.943-0.889-1.008c-7.521-0.96-12.754-3.643-15.818-5.726C75.009,52.401,74.556,52.401,74.21,52.636z
		 M90.026,60.255v12.791c0,8.129-3.604,15.816-9.643,20.562c-1.787,1.403-3.67,2.52-5.602,3.319c-1.932-0.801-3.814-1.916-5.6-3.319
		c-6.039-4.746-9.646-12.433-9.646-20.563V60.255c7.012-1.038,12.07-3.503,15.246-5.56C77.958,56.752,83.015,59.217,90.026,60.255z"
		/>
</g>
</svg>
