<svg xmlns="http://www.w3.org/2000/svg" width="150" height="150" viewBox="0 0 150 150"><circle cx="76.119" cy="74.999" r="50.5" fill="#FDCA00"/><g fill="#3C3C3C"><path d="M135.554 75.97c0-11.872-9.66-21.53-21.53-21.53s-21.53 9.658-21.53 21.53c0 10.28 7.243 18.9 16.895 21.026v6.254h-3.815c-1.003 0-1.818.815-1.818 1.818v1.878c0 1.003.815 1.818 1.818 1.818h16.897c1.002 0 1.818-.815 1.818-1.818v-1.878c0-1.003-.816-1.818-1.818-1.818h-3.813v-6.254c9.65-2.125 16.894-10.745 16.894-21.026zm-41.302 0c0-10.902 8.87-19.77 19.77-19.77s19.772 8.868 19.772 19.77c0 10.9-8.87 19.77-19.77 19.77S94.25 86.87 94.25 75.97zm28.277 29.098v1.878c0 .032-.027.06-.06.06h-16.896c-.03 0-.058-.027-.058-.06v-1.878c0-.032.026-.06.058-.06h16.897c.033.002.06.028.06.06zm-5.633-1.818h-5.75v-5.94c.94.125 1.9.19 2.875.19.976 0 1.935-.065 2.875-.19v5.94z"/><path d="M131.8 75.97c0-9.803-7.975-17.776-17.777-17.776-9.802 0-17.776 7.974-17.776 17.776s7.975 17.776 17.776 17.776c9.802 0 17.776-7.975 17.776-17.776zm-33.793 0c0-8.83 7.185-16.017 16.016-16.017 8.832 0 16.017 7.186 16.017 16.017s-7.185 16.016-16.017 16.016S98.007 84.8 98.007 75.97z"/><path d="M114.022 79.666c2.04 0 3.696-1.66 3.696-3.696 0-1.237-.61-2.333-1.547-3.004l2.1-5.248c.18-.45-.04-.963-.49-1.144-.45-.18-.963.04-1.144.49l-2.1 5.245c-.167-.024-.34-.037-.515-.037-2.037 0-3.695 1.658-3.695 3.696 0 2.037 1.66 3.696 3.697 3.696zm0-5.633c1.068 0 1.937.87 1.937 1.937s-.87 1.936-1.938 1.936c-1.067 0-1.936-.868-1.936-1.936s.87-1.937 1.936-1.937z"/><path d="M106.163 69.354c.173.172.397.258.622.258.226 0 .45-.086.623-.258.344-.344.344-.9 0-1.244l-1.41-1.41c2.06-1.787 4.58-2.772 7.145-2.956v1.9c0 .485.393.88.88.88.485 0 .88-.395.88-.88v-1.9c2.565.184 5.084 1.17 7.145 2.956l-1.41 1.41c-.344.343-.344.9 0 1.244.172.172.397.258.622.258.226 0 .45-.086.622-.258l1.41-1.41c1.787 2.06 2.772 4.58 2.955 7.145h-1.898c-.487 0-.88.393-.88.88 0 .484.393.88.88.88h1.897c-.184 2.564-1.168 5.084-2.954 7.145l-1.41-1.41c-.344-.345-.9-.345-1.245 0-.344.343-.344.9 0 1.243 0 0 2.04 2.043 2.055 2.056.173.172.397.258.623.258s.45-.086.623-.258c5.466-5.467 5.466-14.362 0-19.83-5.47-5.466-14.364-5.466-19.83 0s-5.468 14.363 0 19.83c.343.344.9.345 1.243 0l2.056-2.056c.343-.343.343-.9 0-1.243-.345-.345-.9-.345-1.245 0l-1.41 1.41c-1.787-2.06-2.772-4.58-2.955-7.146h1.898c.486 0 .88-.396.88-.88 0-.487-.394-.88-.88-.88H101.8c.183-2.567 1.168-5.087 2.954-7.147l1.41 1.41z"/><path d="M116.78 86.295c0-.485-.395-.88-.88-.88h-3.755c-.486 0-.88.395-.88.88 0 .486.394.88.88.88h3.755c.486 0 .88-.394.88-.88zM104.786 107.775c-.367-.367-.545-.87-.535-1.367-.392.108-.8.184-1.232.184H37.614c-2.35 0-4.262-1.72-4.262-3.833 0-2.115 1.912-3.835 4.262-3.835h65.403c2.35 0 4.263 1.72 4.263 3.834 0 .19-.032.377-.063.562.667-.222 1.47.06 1.942.57.077-.366.12-.745.12-1.134 0-3.217-2.81-5.834-6.263-5.834H37.614c-3.453 0-6.262 2.617-6.262 5.834s2.81 5.833 6.262 5.833h65.403c.83 0 1.622-.153 2.35-.43-.212-.087-.41-.214-.58-.385z"/><path d="M54.932 98.925H37.825c-.553 0-1-.447-1-1v-55.69c0-.553.447-1 1-1H54.93c.554 0 1 .447 1 1v55.69c.002.553-.446 1-.998 1zm-16.107-2H53.93v-53.69H38.826v53.69z"/><path d="M51.267 89.704H41.49c-.553 0-1-.447-1-1v-6.577c0-.553.447-1 1-1h9.777c.553 0 1 .447 1 1v6.577c0 .553-.448 1-1 1zm-8.778-2h7.776v-4.577H42.49v4.577zM68.373 89.704h-9.777c-.553 0-1-.447-1-1v-6.577c0-.553.447-1 1-1h9.777c.553 0 1 .447 1 1v6.577c0 .553-.447 1-1 1zm-8.777-2h7.777v-4.577h-7.777v4.577zM85.48 89.704H75.7c-.553 0-1-.447-1-1v-6.577c0-.553.447-1 1-1h9.777c.552 0 1 .447 1 1v6.577c0 .553-.45 1-1 1zm-8.78-2h7.778v-4.577H76.7v4.577z"/><path d="M73.037 98.925H53.932v-57.69h19.105v57.69zm-17.105-2h15.105v-53.69H55.932v53.69z"/><path d="M89.144 98.925H72.037c-.553 0-1-.447-1-1v-55.69c0-.553.447-1 1-1h17.106c.553 0 1 .447 1 1v55.69c0 .553-.447 1-1 1zm-16.107-2h15.106v-53.69H73.037v53.69zM42.437 67.512c-.553 0-1-.447-1-1V47.457c0-.553.447-1 1-1s1 .447 1 1v19.055c0 .552-.448 1-1 1zM58.596 78.955c-.553 0-1-.447-1-1v-10.33c0-.554.447-1 1-1s1 .446 1 1v10.33c0 .553-.448 1-1 1z"/><path d="M76.118 55.438c-.553 0-1-.447-1-1v-5.165c0-.553.447-1 1-1s1 .447 1 1v5.165c0 .552-.447 1-1 1zM76.118 68.624c-.553 0-1-.447-1-1V57.227c0-.553.447-1 1-1s1 .447 1 1v10.397c0 .553-.447 1-1 1z"/></g></svg>