<svg xmlns="http://www.w3.org/2000/svg" width="150" height="150" viewBox="0 0 150 150"><circle cx="75.001" cy="74.999" r="50.5" fill="#FDCA00"/><g fill="#3C3C3C"><path d="M94.303 70.41c0-.542-.44-.982-.983-.982H69.736c-.543 0-.983.44-.983.983s.44.984.983.984H93.32c.542 0 .983-.44.983-.983zM73.666 78.605c-.543 0-.982.44-.982.983s.44.983.982.983h.132c.543 0 .983-.44.983-.982s-.44-.983-.982-.983h-.132z"/><path d="M99.543 60.255V50.088c0-3.435-2.794-6.23-6.23-6.23H56.64c-3.436 0-6.23 2.795-6.23 6.23V75.99c-3.642.173-6.55 3.19-6.55 6.877 0 3.796 3.085 6.884 6.878 6.884h17.968v3.407c0 .438.206.854.565 1.138.612.482 1.535.482 2.147 0l5.095-4.024c.48-.38.757-.927.757-1.502s-.276-1.123-.758-1.504l-5.095-4.023c-.612-.482-1.535-.482-2.146 0-.358.284-.564.7-.564 1.14v3.405h-16.33V50.088c0-2.35 1.913-4.262 4.263-4.262h36.676c2.35 0 4.26 1.912 4.26 4.262v10.16H81.202v-3.405c0-.438-.206-.854-.565-1.138-.61-.482-1.533-.482-2.145 0l-5.096 4.024c-.48.38-.758.927-.758 1.502s.276 1.123.758 1.504l5.096 4.023c.61.482 1.533.482 2.145 0 .36-.284.566-.7.566-1.14v-3.405H99.26c2.71 0 4.913 2.206 4.913 4.917 0 2.616-2.053 4.763-4.63 4.91v-6.418c0-.543-.44-.983-.984-.983s-.984.44-.984.984V99.91c0 2.35-1.912 4.263-4.262 4.263H56.64c-2.35 0-4.263-1.912-4.263-4.262v-6.62c0-.543-.44-.983-.983-.983s-.983.44-.983.983v6.62c0 3.436 2.795 6.23 6.23 6.23h36.677c3.434 0 6.228-2.794 6.228-6.23v-25.9c3.663-.147 6.598-3.176 6.598-6.877s-2.937-6.73-6.6-6.878zM50.41 87.773c-2.557-.17-4.584-2.306-4.584-4.906s2.027-4.736 4.584-4.906v9.813zm20.263-2.615l4.57 3.61-4.57 3.608v-7.218zm8.56-20.316l-4.57-3.61 4.57-3.608v7.218z"/><path d="M93.32 87.784H81.526c-.543 0-.983.44-.983.983s.44.983.983.983H93.32c.542 0 .982-.44.982-.983s-.44-.983-.983-.983zM56.635 80.572h13.102c.543 0 .982-.44.982-.983s-.44-.984-.983-.984H56.635c-.543 0-.984.44-.984.983s.442.982.985.982zM93.32 78.605H81.526c-.543 0-.983.44-.983.983s.44.983.983.983H93.32c.542 0 .982-.44.982-.982s-.44-.983-.983-.983zM69.41 61.232c0-.543-.44-.983-.984-.983h-11.79c-.544 0-.985.44-.985.982s.442.983.985.983h11.79c.544 0 .984-.44.984-.983zM77.466 80.572h.132c.543 0 .982-.44.982-.983s-.44-.984-.982-.984h-.132c-.543 0-.983.44-.983.983s.44.982.983.982zM65.674 69.428c-.543 0-.982.44-.982.983s.44.984.982.984h.132c.543 0 .983-.44.983-.983 0-.543-.44-.982-.984-.982h-.132zM56.635 71.395h5.24c.543 0 .983-.44.983-.983s-.44-.983-.983-.983h-5.24c-.543 0-.984.44-.984.982s.442.983.985.983z"/></g></svg>