<svg xmlns="http://www.w3.org/2000/svg" width="101" height="101" viewBox="247.14 370.445 101 101"><circle cx="297.64" cy="420.945" r="49.64" fill="#FDCA00"/><path fill="#FFF" d="M267.703 404.216h61.875v13.974h-61.875z"/><path fill="#F4AC06" d="M267.703 422.697h61.875v13.974h-61.875z"/><path d="M308.855 446.348l-8.876-4.433 23.192-46.447c1.144-2.29 3.927-3.22 6.216-2.076l.585.292c2.29 1.144 3.22 3.926 2.076 6.215l-23.195 46.448z" fill="#263A7A"/><path d="M329.972 393.685l-.343-.17-25.362 50.543 4.587 2.29 23.193-46.447c1.143-2.29.214-5.072-2.076-6.215z" fill="#121149"/><path fill="#FFD97B" d="M308.855 446.348l-7.364 3.64-1.51-8.072"/><path fill="#D48B07" d="M301.437 449.698l.054.29 7.365-3.64-4.587-2.29"/></svg>