<svg xmlns="http://www.w3.org/2000/svg" width="150" height="150" viewBox="0 0 150 150"><circle cx="75.452" cy="75" r="50.5" fill="#FDCA00"/><g fill="#3C3C3C"><path d="M134.887 75.97c0-11.87-9.66-21.53-21.53-21.53s-21.53 9.66-21.53 21.53c0 10.28 7.243 18.902 16.895 21.027v6.254h-3.814c-1.003 0-1.818.815-1.818 1.82v1.876c0 1.004.815 1.818 1.818 1.818h16.897c1.002 0 1.818-.814 1.818-1.818v-1.877c0-1.005-.816-1.82-1.818-1.82h-3.813v-6.253c9.65-2.125 16.895-10.746 16.895-21.027zm-41.302 0c0-10.902 8.87-19.77 19.77-19.77s19.772 8.868 19.772 19.77-8.87 19.77-19.77 19.77-19.772-8.868-19.772-19.77zm28.277 29.1v1.876c0 .033-.026.06-.058.06h-16.897c-.03 0-.058-.026-.058-.06v-1.877c0-.034.025-.06.057-.06h16.897c.032 0 .058.026.058.06zm-5.632-1.82h-5.75v-5.94c.94.125 1.9.19 2.875.19.976 0 1.935-.065 2.875-.19v5.94z"/><path d="M131.132 75.97c0-9.803-7.974-17.775-17.776-17.775S95.58 66.168 95.58 75.97s7.975 17.777 17.776 17.777c9.802 0 17.776-7.975 17.776-17.777zm-33.792 0c0-8.83 7.185-16.016 16.016-16.016 8.832 0 16.017 7.186 16.017 16.016 0 8.832-7.185 16.016-16.017 16.016S97.34 84.802 97.34 75.97z"/><path d="M113.355 79.667c2.04 0 3.696-1.66 3.696-3.697 0-1.236-.61-2.332-1.546-3.004l2.1-5.248c.18-.45-.04-.963-.49-1.143-.45-.182-.964.04-1.145.49l-2.1 5.244c-.168-.024-.34-.036-.516-.036-2.038 0-3.696 1.658-3.696 3.695s1.66 3.697 3.697 3.697zm0-5.633c1.068 0 1.937.87 1.937 1.936 0 1.068-.868 1.936-1.937 1.936-1.067 0-1.936-.867-1.936-1.936 0-1.067.868-1.936 1.935-1.936z"/><path d="M105.496 69.354c.173.172.397.258.622.258.226 0 .45-.086.623-.258.345-.344.345-.9 0-1.244l-1.41-1.41c2.06-1.787 4.58-2.77 7.146-2.955v1.9c0 .484.393.88.88.88.485 0 .88-.396.88-.88v-1.9c2.565.184 5.084 1.168 7.145 2.955l-1.41 1.41c-.343.344-.343.9 0 1.244.173.172.398.258.623.258.226 0 .45-.086.622-.258l1.41-1.41c1.787 2.06 2.772 4.58 2.955 7.146h-1.898c-.486 0-.88.393-.88.88s.394.88.88.88h1.898c-.184 2.564-1.168 5.084-2.954 7.145l-1.41-1.41c-.344-.344-.9-.344-1.245 0s-.343.9 0 1.244c0 0 2.042 2.042 2.056 2.054.173.172.397.258.623.258s.45-.086.622-.258c5.467-5.467 5.467-14.36 0-19.828-5.468-5.467-14.363-5.467-19.83 0s-5.467 14.36 0 19.828c.344.344.9.346 1.244 0 .014-.012 2.056-2.055 2.056-2.055.344-.345.344-.9 0-1.245s-.9-.344-1.244 0l-1.41 1.41c-1.787-2.06-2.772-4.58-2.955-7.145h1.898c.487 0 .88-.395.88-.88s-.393-.88-.88-.88h-1.897c.183-2.566 1.168-5.086 2.954-7.146l1.41 1.41z"/><path d="M116.113 86.296c0-.486-.395-.88-.88-.88h-3.755c-.486 0-.88.394-.88.88s.394.88.88.88h3.755c.486 0 .88-.394.88-.88zM104.12 107.776c-.368-.367-.546-.87-.536-1.367-.393.106-.802.183-1.233.183H36.948c-2.35 0-4.262-1.72-4.262-3.834s1.912-3.835 4.262-3.835h65.403c2.35 0 4.263 1.72 4.263 3.834 0 .192-.032.378-.063.563.667-.223 1.47.06 1.942.57.078-.367.12-.746.12-1.135 0-3.217-2.81-5.834-6.262-5.834H36.947c-3.453 0-6.262 2.617-6.262 5.834s2.81 5.834 6.262 5.834h65.403c.83 0 1.622-.154 2.35-.43-.212-.09-.41-.216-.58-.386z"/><path d="M54.265 98.925H37.158c-.553 0-1-.447-1-1v-55.69c0-.553.447-1 1-1h17.106c.553 0 1 .447 1 1v55.69c0 .553-.447 1-1 1zm-16.107-2h15.106v-53.69H38.158v53.69z"/><path d="M50.6 89.704h-9.777c-.553 0-1-.447-1-1v-6.576c0-.553.447-1 1-1H50.6c.553 0 1 .447 1 1v6.576c0 .553-.448 1-1 1zm-8.778-2H49.6v-4.576h-7.777v4.576zM67.706 89.704H57.93c-.554 0-1-.447-1-1v-6.576c0-.553.446-1 1-1h9.776c.553 0 1 .447 1 1v6.576c0 .553-.447 1-1 1zm-8.777-2h7.776v-4.576H58.93v4.576zM84.812 89.704h-9.777c-.553 0-1-.447-1-1v-6.576c0-.553.447-1 1-1h9.777c.553 0 1 .447 1 1v6.576c0 .553-.448 1-1 1zm-8.778-2h7.777v-4.576h-7.776v4.576z"/><path d="M72.37 98.925H53.265v-57.69H72.37v57.69zm-17.105-2H70.37v-53.69H55.265v53.69z"/><path d="M88.477 98.925H71.37c-.553 0-1-.447-1-1v-55.69c0-.553.447-1 1-1h17.106c.553 0 1 .447 1 1v55.69c0 .553-.447 1-1 1zm-16.107-2h15.106v-53.69H72.37v53.69zM41.77 67.513c-.553 0-1-.447-1-1V47.458c0-.553.447-1 1-1s1 .447 1 1v19.055c0 .552-.448 1-1 1zM57.93 78.956c-.554 0-1-.447-1-1V67.624c0-.553.446-1 1-1s1 .447 1 1v10.332c0 .553-.45 1-1 1z"/><path d="M75.45 55.438c-.552 0-1-.447-1-1v-5.166c0-.553.448-1 1-1s1 .447 1 1v5.166c0 .553-.446 1-1 1zM75.45 68.624c-.552 0-1-.447-1-1V57.228c0-.553.448-1 1-1s1 .447 1 1v10.396c0 .553-.446 1-1 1z"/></g></svg>