<svg xmlns="http://www.w3.org/2000/svg" width="101" height="101" viewBox="247.14 370.445 101 101"><path d="M347.354 420.854c0-27.49-22.293-49.783-49.783-49.783-27.49 0-49.782 22.294-49.782 49.784s22.293 49.783 49.783 49.783c27.49 0 49.784-22.292 49.784-49.783z" fill="#FDCA00"/><path d="M309.73 415.578l-6-4.114s-.76-.923-3.73-1.144c-4.676-.34-13.966-2.488-13.966-2.488-5.72 1.706-5.217 6.782-5.217 6.782l14.97 2.87s6.9-.542 8.606.542c4.174 2.61 6.24-1.686 6.24-1.686l-.902-.762z" fill="#FBBF96"/><path d="M306.62 413.43l3.993 2.568s-.902.843-1.666.743c-.84-.12-2.626-2.086-2.326-3.31z" fill="#FDD6B2"/><path d="M309.13 417.283l-7.185-1.907-6.762-.843 4.795-.26s1.967-.14 3.432.642c1.164.622 5.72 2.368 5.72 2.368z" fill="#EDAC80"/><g fill="#FDD6B2"><path d="M302.428 412.607c-.12-.02-.2-.16-.182-.28l.262-1.165c.04-.12.16-.2.28-.18.12.02.2.16.18.28l-.26 1.165c-.02.14-.16.22-.28.18zM301.686 411.845c-.12-.04-.2-.16-.182-.28l.12-.623c.02-.12.16-.2.28-.18.12.04.2.16.182.28l-.12.623c-.02.12-.16.2-.28.18z"/></g><path d="M310.514 443.71c1.746-1.084 6.44-5.82 5.357-7.565-1.083-1.746-3.37-2.267-5.116-1.204l-13.485 8.23c-1.746 1.083-2.61 2.748-1.525 4.494 1.083 1.745 2.468 1.766 4.815.742l9.954-4.696z" fill="#FBBF96"/><path d="M305.035 439.274l-9.772 6.964c-.06-1.727.723-2.248 1.727-2.87l10.715-7.023c-.24.362-2.267 2.67-2.67 2.93z" fill="#EDAC80"/><g fill="#F1A977"><path d="M294.66 420.474l3.352-2.83-.722-5.638 17.818-6.08 16.957 18.08s-4.555 7.162-9.13 11.395c-4.575 4.236-12.642 8.43-12.642 8.43l-15.632-23.356z"/><path d="M314.365 433.495c1.746-1.083 2.268-3.37 1.205-5.116-1.084-1.746-3.37-2.27-5.117-1.204l-19.083 11.84c-1.746 1.08-2.288 3.37-1.204 5.115 1.083 1.746 3.37 2.27 5.117 1.204l19.082-11.84z"/></g><path d="M298.172 435.724l-8.547 6.52c-.02-1.464.562-2.488 1.565-3.11l7.685-4.955c-.24.36-.32 1.282-.703 1.544z" fill="#EDAC80"/><g fill="#F1A977"><path d="M297.61 426.312c1.505-1.063 6.584-3.933 5.52-5.418l.98-4.896c-1.06-1.485-11.596 5.8-12.44 6.4l-19.102 13.044c-2.147 1.525-2.488 3.612-1.425 5.117 1.063 1.483 3.15 1.844 4.635.78l21.833-15.028zM310.012 443.43c1.625-.724 2.107-3.09 1.283-4.436-.842-1.364-2.707-1.727-4.172-.823l-20.308 12.282c-1.465.902-1.967 2.73-1.144 4.093.844 1.364 2.65 1.586 3.834.963l20.61-12.12"/></g><path d="M305.557 439.194l-9.51 6.34c-1.124.664-9.09 5.018-8.248 4.495l20.606-12.822c-.22.3-2.53 1.766-2.85 1.986z" fill="#EDAC80"/><path d="M301.323 433.195c1.967-.964 2.47-3.894 1.365-5.538-1.082-1.646-3.412-2.007-5.177-.823l-24.42 16.053c-1.765 1.184-2.307 3.45-1.203 5.097 1.084 1.626 3.332 1.826 4.756 1.004l24.8-15.892" fill="#F1A977"/><path d="M295.665 428.16l-11.417 8.266c-1.344.883-10.976 6.58-9.953 5.92l24.782-16.756c-.262.38-3.03 2.287-3.412 2.57z" fill="#EDAC80"/><path d="M305.156 438.372c1.846-.943 2.287-3.752 1.223-5.297-1.063-1.546-3.27-1.867-4.937-.703l-23.035 15.67c-1.666 1.146-2.147 3.333-1.083 4.877 1.063 1.545 3.19 1.705 4.555.883l23.376-15.49" fill="#F1A977"/><path d="M299.678 433.677l-10.755 8.046c-1.265.843-10.334 6.442-9.39 5.78l23.354-16.335c-.24.36-2.848 2.228-3.21 2.51z" fill="#EDAC80"/><path d="M285.11 443.71c-1.745-1.084-6.44-5.82-5.357-7.565 1.083-1.746 3.37-2.267 5.116-1.204l13.462 8.23c1.746 1.083 2.61 2.748 1.525 4.494-1.084 1.745-2.468 1.766-4.815.742l-9.93-4.696z" fill="#FBBF96"/><path d="M290.588 439.274l9.77 6.964c.062-1.727-.72-2.248-1.724-2.87l-10.715-7.023c.24.362 2.267 2.67 2.668 2.93z" fill="#EDAC80"/><g fill="#FBBF96"><path d="M300.96 420.474l-3.35-2.83.722-5.638-17.817-6.1-16.956 18.08s4.554 7.163 9.13 11.396c4.574 4.234 12.64 8.43 12.64 8.43l15.63-23.338z"/><path d="M281.258 433.495c-1.746-1.083-2.268-3.37-1.204-5.116 1.084-1.746 3.37-2.27 5.117-1.204l19.083 11.84c1.746 1.08 2.29 3.37 1.205 5.115-1.084 1.746-3.37 2.27-5.117 1.204l-19.082-11.84z"/></g><path d="M297.45 435.724l8.548 6.52c.02-1.464-.56-2.488-1.564-3.11l-7.685-4.955c.26.36.32 1.282.7 1.544z" fill="#EDAC80"/><path d="M298.012 426.312c-1.484-1.063-6.58-3.933-5.518-5.418l-.983-4.896c1.064-1.485 11.6 5.8 12.44 6.4l19.105 13.044c2.146 1.525 2.488 3.612 1.424 5.117-1.063 1.483-3.15 1.844-4.636.78l-21.832-15.028z" fill="#FBBF96"/><g fill="#FDD6B2"><path d="M319.604 439.797l1.344.942c.943.682 2.31.4 3.03-.623.722-1.023.542-2.387-.4-3.05l-1.325-.942s-.7.28-1.564 1.524c-1.067 1.524-.967 1.665-1.086 2.147zM309.41 432.874c-.102-.08-.14-.22-.06-.342l2.427-3.41c.08-.1.22-.14.342-.06.1.08.14.22.06.34l-2.43 3.41c-.08.123-.24.143-.34.062zM309.07 431.31c-.1-.062-.122-.2-.04-.302l1.203-1.686c.06-.1.2-.12.3-.06.1.08.122.2.04.3l-1.2 1.686c-.064.1-.203.12-.304.06z"/></g><path d="M285.612 443.43c-1.625-.724-2.107-3.09-1.284-4.436.842-1.364 2.71-1.727 4.173-.823l20.307 12.282c1.467.902 1.967 2.73 1.145 4.093-.842 1.364-2.648 1.586-3.832.963l-20.588-12.12" fill="#FBBF96"/><path d="M290.067 439.194l9.512 6.34c1.122.664 9.087 5.018 8.245 4.495l-20.607-12.822c.22.3 2.527 1.766 2.85 1.986z" fill="#EDAC80"/><g fill="#FDD6B2"><path d="M305.576 454.224l1.225.742c.864.522 2.028.2 2.59-.723.56-.922.34-2.106-.522-2.628l-1.203-.742s-.582.3-1.264 1.404c-.863 1.406-.763 1.506-.824 1.947zM296.77 449.247c-.102-.06-.122-.18-.062-.28l1.946-3.07c.06-.1.2-.12.28-.06.1.06.12.2.062.28l-1.947 3.07c-.06.08-.18.12-.28.06zM296.407 447.883c-.08-.06-.12-.16-.06-.26l.962-1.506c.06-.08.16-.12.26-.06.08.06.12.16.06.26l-.962 1.525c-.06.08-.18.1-.26.04z"/></g><path d="M294.3 433.195c-1.966-.964-2.467-3.894-1.363-5.538 1.083-1.646 3.41-2.007 5.177-.823l24.44 16.072c1.765 1.185 2.306 3.45 1.202 5.098-1.082 1.625-3.33 1.825-4.754 1.003L294.2 433.115" fill="#FBBF96"/><path d="M299.98 428.16l11.417 8.266c1.344.883 10.977 6.58 9.953 5.92l-24.782-16.756c.24.38 3.01 2.287 3.41 2.57z" fill="#EDAC80"/><g fill="#FDD6B2"><path d="M318.38 447.4l1.464.964c1.043.683 2.488.34 3.23-.762.742-1.104.502-2.568-.52-3.27l-1.466-.964s-.742.34-1.625 1.685c-1.103 1.667-.984 1.806-1.084 2.348zM307.764 440.84c-.12-.08-.14-.24-.06-.36l2.548-3.692c.08-.12.24-.14.36-.06.122.08.142.24.062.36l-2.55 3.692c-.08.12-.24.16-.36.06zM307.383 439.174c-.102-.08-.12-.22-.06-.32l1.265-1.826c.078-.1.22-.12.32-.06.1.08.12.22.06.32l-1.263 1.826c-.082.1-.222.12-.322.06z"/></g><path d="M290.468 438.372c-1.846-.943-2.287-3.752-1.224-5.297 1.063-1.546 3.27-1.867 4.936-.703l23.035 15.67c1.666 1.146 2.146 3.333 1.084 4.877-1.065 1.545-3.192 1.705-4.556.883l-23.377-15.49" fill="#FBBF96"/><path d="M295.946 433.677l10.736 8.046c1.283.843 10.354 6.442 9.39 5.78l-23.356-16.335c.26.36 2.868 2.228 3.23 2.51z" fill="#EDAC80"/><g fill="#FDD6B2"><path d="M313.182 452.277l1.385.943c.982.683 2.348.36 3.09-.683.723-1.044.52-2.448-.46-3.11l-1.386-.942s-.702.3-1.563 1.564c-1.065 1.586-.964 1.726-1.065 2.227zM303.17 445.876c-.12-.08-.143-.24-.06-.34l2.487-3.473c.08-.12.24-.14.34-.06.12.08.14.24.06.34l-2.485 3.473c-.082.12-.223.14-.342.06zM302.828 444.27c-.1-.06-.12-.2-.04-.3l1.224-1.726c.06-.1.2-.12.3-.06.103.08.122.2.062.3l-1.225 1.726c-.08.122-.222.142-.322.06z"/></g><g fill="#F5B78C"><path d="M300.02 425.69c-.822-.26-1.324-1.044-1.125-1.886.12-.522-.682-.783-.803-.24-.3 1.303.383 2.547 1.666 2.93.522.16.783-.643.262-.804zM296.206 432.693c-1.363-.562-1.986-1.946-1.524-3.352.16-.5-.642-.682-.822-.158-.582 1.745.28 3.57 1.966 4.253.5.202.882-.54.38-.742zM291.612 437.43c-.983-.382-1.485-1.386-1.164-2.408.16-.502-.622-.823-.783-.302-.46 1.445.22 2.93 1.646 3.49.502.182.803-.6.302-.78zM286.736 442.706c-.723-.302-1.124-1.044-.863-1.806.18-.502-.562-.884-.742-.38-.4 1.162.06 2.426 1.225 2.93.5.2.883-.544.38-.744z"/></g><path d="M268.054 429.562l-16.394-12.76c-1.525-1.185-1.284-4.034.52-6.362l11.38-14.608c1.805-2.327 4.513-3.25 6.04-2.066l16.393 12.762c1.505 1.203-16.414 24.22-17.94 23.034z" fill="#EBF3F6"/><path d="M285.893 415.578l6-4.114s.763-.923 3.732-1.144c4.674-.34 13.965-2.488 13.965-2.488 5.72 1.706 5.22 6.782 5.22 6.782l-14.97 2.87s-6.904-.542-8.61.542c-4.174 2.61-6.24-1.686-6.24-1.686l.903-.762z" fill="#F1A977"/><path d="M289.003 413.43l-3.993 2.568s.903.843 1.666.743c.842-.12 2.628-2.086 2.327-3.31z" fill="#FDD6B2"/><path d="M286.515 417.283l7.183-1.907 6.763-.843-4.795-.26s-1.967-.14-3.432.642c-1.163.622-5.718 2.368-5.718 2.368z" fill="#EDAC80"/><g fill="#FDD6B2"><path d="M293.197 412.607c.12-.02.2-.16.18-.28l-.26-1.165c-.04-.12-.16-.2-.282-.18-.12.02-.2.16-.18.28l.26 1.165c.02.14.16.22.282.18zM293.94 411.845c.12-.04.2-.16.18-.28l-.12-.623c-.02-.12-.16-.2-.282-.18-.12.04-.2.16-.18.28l.12.623c.02.12.16.2.28.18z"/></g><path d="M329.094 429.562l16.393-12.76c1.527-1.185 1.285-4.034-.52-6.362l-11.38-14.608c-1.804-2.327-4.513-3.25-6.038-2.066l-16.394 12.762c-1.505 1.203 16.413 24.22 17.938 23.034z" fill="#EBF3F6"/><path d="M284.368 404.04l-21.912-18.44c-7.806 7.765-13.022 18.1-14.327 29.637l16.634 13.985c1.665 1.284 21.27-23.898 19.604-25.182z" fill="#969"/><path d="M331.38 428.7l15.653-13.243c-1.244-11.558-6.44-21.932-14.227-29.738l-21.03 17.777c-1.645 1.305 17.96 26.487 19.605 25.203z" fill="#3371BF"/></svg>