<svg xmlns="http://www.w3.org/2000/svg" width="150" height="150" viewBox="0 0 150 150"><circle cx="75.001" cy="74.999" r="50.5" fill="#FDCA00"/><g fill="#3C3C3C"><path d="M121.125 81.588c-4.72-4.717-10.99-7.316-17.66-7.316s-12.945 2.6-17.664 7.316c-4.715 4.717-7.313 10.99-7.313 17.662s2.6 12.943 7.314 17.66c4.72 4.72 10.992 7.316 17.664 7.316s12.942-2.598 17.66-7.316c4.72-4.717 7.317-10.988 7.317-17.66s-2.597-12.945-7.315-17.662zm-17.66 40.648c-12.678 0-22.99-10.31-22.99-22.986s10.313-22.988 22.99-22.988S126.45 86.574 126.45 99.25s-10.31 22.986-22.988 22.986zm0 0"/><path d="M107.887 99.05l6.932-6.93c1.245-1.247 1.245-3.276 0-4.522-.605-.604-1.41-.936-2.263-.936-.854 0-1.657.332-2.262.936l-6.932 6.932-6.93-6.932c-.605-.604-1.408-.936-2.263-.936-.853 0-1.655.332-2.26.936-1.247 1.246-1.247 3.275 0 4.52l6.93 6.933-6.93 6.933c-1.247 1.246-1.247 3.275 0 4.52.604.605 1.407.94 2.26.94.854 0 1.658-.335 2.262-.94l6.93-6.933 6.933 6.934c.604.604 1.407.938 2.262.938.854 0 1.658-.334 2.262-.938 1.245-1.246 1.245-3.275 0-4.52l-6.933-6.933zm5.523 10.046c-.23.23-.53.354-.854.354s-.625-.125-.854-.354l-7.635-7.635c-.188-.187-.44-.29-.705-.29-.265 0-.516.104-.703.29l-7.636 7.636c-.23.23-.533.354-.854.354-.322 0-.624-.125-.853-.354-.47-.47-.47-1.234 0-1.705l7.635-7.636c.188-.186.29-.44.29-.703s-.103-.517-.29-.702l-7.635-7.637c-.47-.468-.47-1.235 0-1.706.23-.227.53-.354.853-.354.32 0 .625.127.854.354l7.635 7.637c.388.39 1.018.39 1.407 0l7.635-7.636c.23-.227.53-.354.854-.354s.625.127.854.354c.47.47.47 1.238 0 1.707l-7.637 7.638c-.187.186-.29.44-.29.703s.104.52.29.704l7.637 7.637c.47.47.47 1.235 0 1.706zm0 0"/><path d="M95.294 80.96c-.247-.49-.85-.687-1.337-.437-3.402 1.73-6.273 4.357-8.3 7.598-2.09 3.33-3.19 7.18-3.19 11.13 0 .55.445.994.995.994.548 0 .995-.445.995-.994 0-7.195 3.986-13.69 10.4-16.953.49-.248.687-.848.437-1.338zm0 0M99.383 80.66c.066 0 .135-.008.202-.02 1.27-.263 2.572-.397 3.88-.397.55 0 .994-.445.994-.994s-.446-.997-.996-.997c-1.442 0-2.883.148-4.282.438-.537.112-.885.638-.772 1.177.096.47.51.793.973.793zm0 0"/><path d="M87.734 27.926l18.027 18.02v29.568c.11.043.212.096.318.145.68.212 1.288.51 1.835.876V45.5c0-.285-.113-.56-.314-.76L88.94 26.088c-.202-.2-.476-.314-.76-.314H40.313c-.595 0-1.076.482-1.076 1.076v85.006c0 .596.48 1.076 1.076 1.076H84.62c-.575-.648-1.01-1.377-1.32-2.152H41.39V27.926h46.344z"/><path d="M106.838 46.576H88.18c-.594 0-1.076-.48-1.076-1.076V26.85c0-.436.263-.826.664-.994.402-.166.865-.074 1.174.232L107.6 44.74c.307.31.4.77.232 1.172-.166.402-.56.664-.994.664zm-17.582-2.152h14.984L89.256 29.447v14.977zM71.6 58.55H52.777c-.594 0-1.076-.48-1.076-1.075s.483-1.076 1.077-1.076H71.6c.594 0 1.076.48 1.076 1.075s-.483 1.076-1.076 1.076zM86.78 58.55H74.82c-.595 0-1.076-.48-1.076-1.075s.48-1.076 1.076-1.076h11.96c.596 0 1.077.48 1.077 1.075s-.48 1.076-1.076 1.076zM90.703 65.186H82.86c-.597 0-1.077-.482-1.077-1.076s.48-1.076 1.076-1.076h7.843c.594 0 1.076.482 1.076 1.076s-.483 1.076-1.077 1.076zM80.037 65.186h-27.26c-.594 0-1.076-.482-1.076-1.076s.483-1.076 1.077-1.076h27.26c.594 0 1.076.482 1.076 1.076s-.482 1.076-1.076 1.076zM83.266 72.36h-30.49c-.593 0-1.075-.483-1.075-1.077s.483-1.076 1.077-1.076h30.488c.594 0 1.076.482 1.076 1.076s-.48 1.076-1.074 1.076zM69.94 79.328H52.778c-.594 0-1.076-.48-1.076-1.076 0-.594.483-1.076 1.077-1.076H69.94c.595 0 1.076.482 1.076 1.076 0 .596-.48 1.076-1.075 1.076zM59.95 98.363h-7.173c-.594 0-1.076-.482-1.076-1.076s.483-1.076 1.077-1.076h7.174c.595 0 1.077.483 1.077 1.077s-.482 1.076-1.076 1.076zM64.973 42.23H52.777c-.594 0-1.076-.482-1.076-1.076s.483-1.076 1.077-1.076h12.195c.594 0 1.076.482 1.076 1.076s-.482 1.076-1.075 1.076zM71.6 42.23h-3.318c-.594 0-1.075-.482-1.075-1.076s.48-1.076 1.075-1.076H71.6c.594 0 1.076.482 1.076 1.076s-.483 1.076-1.076 1.076z"/></g></svg>