<svg xmlns="http://www.w3.org/2000/svg" width="150" height="150" viewBox="0 0 150 150"><circle cx="75.001" cy="74.999" r="50.5" fill="#FDCA00"/><g fill="#3C3C3C"><path d="M84.154 42.682c-12.278 0-22.267 9.99-22.267 22.267 0 5.05 1.692 9.714 4.54 13.455l-4.512 4.51c-.03.03-.054.06-.08.09-.368-.076-.748-.116-1.134-.116-1.472 0-2.856.57-3.898 1.613L43.4 97.903c-1.042 1.042-1.616 2.427-1.616 3.9 0 1.472.574 2.856 1.615 3.897 1.04 1.042 2.426 1.616 3.898 1.616 1.473 0 2.858-.574 3.9-1.616L64.6 92.3c1.042-1.04 1.615-2.426 1.615-3.898 0-.386-.04-.766-.117-1.136.03-.023.06-.05.09-.08l4.51-4.51c3.74 2.847 8.404 4.54 13.456 4.54 12.277 0 22.266-9.99 22.266-22.268 0-12.277-9.99-22.266-22.266-22.266zm-34.437 61.54c-.646.646-1.505 1.002-2.42 1.002-.912 0-1.77-.355-2.417-1.003-.646-.645-1-1.503-1-2.416 0-.914.354-1.772 1-2.418l12.103-12.104 4.837 4.837-12.103 12.102zM63.293 90.63l-4.82-4.82c.64-.55 1.432-.826 2.227-.826.876 0 1.752.333 2.42 1 .645.646 1 1.504 1 2.418 0 .827-.292 1.61-.827 2.228zm1.907-5.417c-.178-.25-.378-.488-.6-.71-.222-.222-.46-.422-.71-.6l3.886-3.887c.42.454.856.892 1.312 1.31L65.2 85.214zm18.954-.092c-11.124 0-20.173-9.05-20.173-20.172s9.05-20.172 20.174-20.172c11.123 0 20.172 9.05 20.172 20.172S95.276 85.12 84.154 85.12z"/><path d="M84.154 47.148c-9.815 0-17.8 7.984-17.8 17.8 0 9.814 7.985 17.8 17.8 17.8 9.814 0 17.8-7.985 17.8-17.8 0-9.815-7.986-17.8-17.8-17.8zm0 33.506c-8.66 0-15.706-7.047-15.706-15.706 0-8.66 7.045-15.705 15.706-15.705 8.66 0 15.705 7.045 15.705 15.705s-7.047 15.706-15.706 15.706z"/><path d="M91.424 53.77c-.484-.315-1.133-.18-1.45.306-.315.484-.178 1.134.306 1.45 3.2 2.085 5.11 5.607 5.11 9.422 0 2.605-.91 5.146-2.567 7.15-.368.446-.305 1.106.14 1.476.196.16.433.24.667.24.302 0 .6-.13.808-.382 1.965-2.38 3.048-5.393 3.048-8.484 0-4.525-2.267-8.704-6.062-11.177zM86.576 51.836c-.794-.146-1.61-.22-2.422-.22-.58 0-1.047.47-1.047 1.047s.47 1.047 1.047 1.047c.687 0 1.375.062 2.044.186.064.012.127.018.19.018.496 0 .936-.354 1.03-.858.103-.57-.273-1.116-.842-1.22z"/></g></svg>