<svg xmlns="http://www.w3.org/2000/svg" width="101" height="101" viewBox="247.14 370.445 101 101"><path d="M347.547 420.547c0-27.56-22.35-49.908-49.908-49.908-27.56 0-49.908 22.348-49.908 49.907 0 27.558 22.35 49.908 49.907 49.908 27.558 0 49.907-22.35 49.907-49.908z" fill="#FDCA00"/><path fill="#565656" d="M309.286 416.162l-3.218-2.856H289.03l-3.22 2.856"/><g fill="#3A3A3C"><path d="M326.968 437.062s-14.28-11.063-17.682-20.9H285.81c-3.4 9.816-17.68 20.9-17.68 20.9h58.838zM305.183 408.578h-15.268l-.885 4.728h17.038"/></g><path fill="#2C2C2D" d="M268.13 437.062h58.838v2.193h-58.84z"/><path fill="#3A3A3C" d="M266.077 439.194h62.944v7.12h-62.943z"/><path d="M334.27 406.707c-1.508-3.057-17.922-11.93-36.61-11.93-18.728 0-35.163 8.852-36.672 11.93-1.368 2.776.785 11.044 1.026 11.97.08.26.342.442.624.38l17.923-3.278c.263-.04.443-.282.443-.544l-.362-8.55c.162-2.977 1.872-3.42 2.857-3.42H283.78l13.88.182 13.818-.18h.06c.02 0 .102-.022.222-.022 1.006 0 2.695.442 2.856 3.42l-.362 8.55c-.02.26.182.5.442.542l17.924 3.28h.1c.242 0 .463-.162.524-.403.242-.884 2.374-9.152 1.027-11.928z" fill="#262626"/><g fill="#3A3A3C"><path d="M309.53 397.776c-.987 0-1.792.804-1.792 1.77 0 1.57-.36 4.144-1.025 4.928-.906 1.086-3.28 1.147-8.59 1.147h-1.167c-5.29 0-7.684-.06-8.59-1.146-.683-.824-1.005-3.44-1.025-4.928 0-.985-.803-1.77-1.79-1.77-.985 0-1.79.804-1.77 1.79 0 .845.1 5.11 1.83 7.202 1.973 2.374 5.05 2.434 11.084 2.434h1.65c6.034 0 9.112-.04 11.083-2.434 1.73-2.092 1.83-6.377 1.83-7.202.063-.986-.743-1.79-1.728-1.79zM334.915 412.42l-20.6-3.862c-.342-.06-.664.16-.725.503l-1.228 6.56c-.02.16 0 .32.102.46.1.142.24.223.402.263l20.6 3.862c.04 0 .08.02.12.02.12 0 .24-.04.342-.1.14-.1.222-.24.26-.402l1.23-6.558c.06-.363-.162-.685-.503-.745zM260.365 412.42l20.598-3.862c.342-.06.665.16.725.503l1.228 6.56c.04.16 0 .32-.1.46-.102.142-.242.223-.403.263l-20.6 3.862c-.04 0-.08.02-.12.02-.12 0-.24-.04-.342-.1-.14-.1-.22-.24-.26-.402l-1.227-6.558c-.062-.363.16-.685.502-.745z"/></g><path d="M284.1 424.37c0-6.217 6.096-6.84 13.177-6.84 7.08 0 13.176.623 13.176 6.84 0 9.937-6.095 13.738-13.176 13.738-7.08.02-13.176-3.782-13.176-13.74z" fill="#262626"/><ellipse cx="297.278" cy="424.369" rx="13.176" ry="10.541" fill="#DBDBD3"/><ellipse cx="297.278" cy="424.369" rx="7.685" ry="6.156" fill="#C6C6C4"/><ellipse cx="297.278" cy="424.369" rx="6.979" ry="5.592" fill="#DBDBD3"/><g fill="#C4B596"><ellipse cx="297.278" cy="424.369" rx="5.431" ry="4.345"/><ellipse cx="297.278" cy="415.981" rx="1.709" ry="1.569"/></g><path d="M297.278 417.208c.944 0 1.428-.343 1.428-.343-.303.423-.824.685-1.428.685s-1.106-.282-1.428-.685c0 0 .482.343 1.428.343z" fill="#B2A184"/><ellipse cx="297.278" cy="432.657" rx="1.709" ry="1.569" fill="#C4B596"/><path d="M297.278 433.884c.944 0 1.428-.342 1.428-.342-.303.423-.824.685-1.428.685s-1.106-.282-1.428-.685c0-.02.482.342 1.428.342z" fill="#B2A184"/><ellipse cx="286.978" cy="424.027" rx="1.71" ry="1.569" fill="#C4B596"/><path d="M286.978 425.254c.945 0 1.428-.342 1.428-.342-.302.423-.824.685-1.428.685s-1.107-.282-1.428-.685c.02-.02.482.342 1.428.342z" fill="#B2A184"/><path d="M306.108 424.027c0-.865.765-1.57 1.71-1.57.946 0 1.71.705 1.71 1.57s-.764 1.57-1.71 1.57-1.71-.704-1.71-1.57z" fill="#C4B596"/><path d="M307.818 425.254c.946 0 1.43-.342 1.43-.342-.303.423-.826.685-1.43.685-.583 0-1.105-.282-1.428-.685 0-.02.482.342 1.428.342z" fill="#B2A184"/><ellipse cx="306.369" cy="428.19" rx="1.71" ry="1.569" fill="#C4B596"/><path d="M306.37 429.418c.944 0 1.427-.34 1.427-.34-.3.42-.823.682-1.428.682-.584 0-1.106-.28-1.43-.683 0-.02.484.34 1.43.34z" fill="#B2A184"/><ellipse cx="288.104" cy="428.19" rx="1.71" ry="1.569" fill="#C4B596"/><path d="M288.104 429.418c.946 0 1.428-.34 1.428-.34-.302.42-.825.682-1.428.682-.583 0-1.105-.28-1.428-.683.02-.02.483.34 1.428.34z" fill="#B2A184"/><ellipse cx="302.447" cy="431.45" rx="1.71" ry="1.569" fill="#C4B596"/><path d="M302.447 432.677c.945 0 1.43-.342 1.43-.342-.302.423-.826.685-1.43.685-.583 0-1.105-.282-1.428-.685.018-.02.482.342 1.427.342z" fill="#B2A184"/><ellipse cx="291.926" cy="431.45" rx="1.71" ry="1.569" fill="#C4B596"/><path d="M291.926 432.677c.945 0 1.428-.342 1.428-.342-.3.423-.823.685-1.428.685-.583 0-1.106-.282-1.428-.685 0-.02.482.342 1.428.342z" fill="#B2A184"/><ellipse cx="302.568" cy="417.168" rx="1.71" ry="1.569" fill="#C4B596"/><path d="M302.568 418.395c.945 0 1.428-.342 1.428-.342-.302.422-.824.684-1.428.684s-1.105-.282-1.428-.684c.02 0 .482.342 1.428.342z" fill="#B2A184"/><ellipse cx="306.148" cy="419.984" rx="1.711" ry="1.569" fill="#C4B596"/><path d="M306.148 421.21c.946 0 1.43-.34 1.43-.34-.303.42-.824.683-1.43.683-.602 0-1.105-.28-1.428-.684 0-.02.482.34 1.428.34z" fill="#B2A184"/><ellipse cx="292.087" cy="417.168" rx="1.71" ry="1.569" fill="#C4B596"/><path d="M292.087 418.395c.945 0 1.43-.342 1.43-.342-.304.422-.827.684-1.43.684s-1.107-.282-1.428-.684c0 0 .48.342 1.427.342z" fill="#B2A184"/><ellipse cx="288.427" cy="419.984" rx="1.709" ry="1.569" fill="#C4B596"/><path d="M288.427 421.21c.944 0 1.428-.34 1.428-.34-.303.42-.826.683-1.428.683-.584 0-1.107-.28-1.428-.684 0-.02.48.34 1.427.34z" fill="#B2A184"/><path d="M306.21 430.888c.743 1.086.543 1.407.2 1.648-.343.24-.725.3-1.47-.784-.743-1.086-1.55-2.938-1.206-3.18.363-.24 1.75 1.228 2.475 2.316z" fill="#B5B5B1"/><path d="M334.273 403.488s3.75 2.27 4.665 6.56" fill="#FDCA00"/><path d="M338.937 410.887c-.387 0-.735-.27-.82-.664-.826-3.89-4.244-5.996-4.278-6.017-.397-.24-.524-.755-.283-1.152.24-.396.755-.522 1.15-.283.166.102 4.072 2.513 5.052 7.104.095.453-.193.898-.646.995-.06.01-.12.017-.177.017z" fill="#26241E"/><path d="M336.114 400.72s5.29 3.338 6.478 9.48" fill="#FDCA00"/><path d="M342.59 411.038c-.394 0-.746-.278-.823-.68-1.102-5.693-6.052-8.898-6.103-8.93-.39-.247-.506-.765-.26-1.156.25-.39.766-.508 1.156-.26.23.144 5.61 3.605 6.853 10.028.088.455-.21.895-.664.982-.054.01-.107.016-.16.016z" fill="#26241E"/><g><path d="M261.504 402.49s-3.752 2.272-4.666 6.56" fill="#FDCA00"/><path d="M256.84 409.89c-.06 0-.118-.007-.176-.02-.453-.096-.742-.542-.646-.994.978-4.59 4.886-7.002 5.052-7.102.396-.24.91-.113 1.15.283.24.396.114.91-.28 1.15-.063.038-3.46 2.167-4.28 6.018-.085.394-.434.664-.82.664z" fill="#26241E"/></g><g><path d="M259.662 399.722s-5.29 3.338-6.477 9.48" fill="#FDCA00"/><path d="M253.187 410.04c-.053 0-.107-.005-.16-.016-.455-.088-.752-.527-.665-.982 1.242-6.423 6.624-9.885 6.853-10.03.392-.246.91-.13 1.156.262.248.39.13.91-.26 1.156-.05.032-5 3.236-6.102 8.93-.077.4-.428.68-.82.68z" fill="#26241E"/></g></svg>