<svg xmlns="http://www.w3.org/2000/svg" width="150" height="150" viewBox="0 0 150 150"><circle cx="75.002" cy="75" r="50.5" fill="#FDCA00"/><g fill="#3C3C3C"><path d="M107.113 79.632c-3.317-3.317-7.727-5.145-12.416-5.145-4.69 0-9.102 1.827-12.42 5.145-3.314 3.316-5.142 7.727-5.142 12.417 0 4.69 1.827 9.1 5.143 12.416 3.317 3.318 7.728 5.144 12.42 5.144 4.688 0 9.098-1.826 12.415-5.144 3.317-3.317 5.145-7.726 5.145-12.417 0-4.69-1.827-9.1-5.145-12.418zm-12.416 28.58c-8.913 0-16.163-7.25-16.163-16.163 0-8.912 7.25-16.163 16.163-16.163 8.912 0 16.162 7.25 16.162 16.162 0 8.91-7.25 16.16-16.163 16.16zm0 0"/><path d="M97.807 91.91l4.873-4.874c.877-.876.877-2.303 0-3.18-.426-.423-.99-.657-1.59-.657-.602 0-1.165.232-1.59.657l-4.875 4.874-4.872-4.873c-.424-.424-.99-.658-1.59-.658-.6 0-1.164.232-1.59.657-.876.876-.876 2.303 0 3.18l4.873 4.872-4.872 4.873c-.877.876-.877 2.303 0 3.18.425.423.99.658 1.59.658.6 0 1.165-.234 1.59-.658l4.87-4.875 4.875 4.875c.425.424.988.66 1.59.66.6 0 1.164-.236 1.59-.66.877-.876.877-2.302 0-3.18l-4.873-4.873zm3.882 7.06c-.162.162-.375.25-.6.25-.23 0-.44-.088-.602-.25l-5.368-5.367c-.132-.132-.31-.205-.496-.205s-.36.073-.493.205l-5.367 5.368c-.16.162-.374.25-.6.25s-.44-.088-.6-.25c-.332-.33-.332-.867 0-1.197l5.367-5.37c.132-.13.204-.31.204-.494 0-.187-.072-.364-.204-.494l-5.368-5.37c-.33-.33-.33-.87 0-1.2.16-.16.373-.25.6-.25s.44.09.6.25l5.37 5.368c.272.274.715.274.988 0l5.368-5.368c.16-.16.373-.25.6-.25.227 0 .44.09.6.25.332.33.332.87 0 1.2l-5.368 5.37c-.13.13-.203.308-.203.493 0 .184.072.363.203.494l5.37 5.37c.33.33.33.867 0 1.197zm0 0"/><path d="M88.953 79.19c-.174-.345-.598-.482-.94-.306-2.393 1.217-4.41 3.063-5.836 5.342-1.468 2.34-2.242 5.048-2.242 7.823 0 .385.312.698.7.698.384 0 .698-.313.698-.7 0-5.057 2.803-9.623 7.313-11.917.344-.174.482-.595.307-.94zm0 0M91.828 78.98c.046 0 .094-.006.142-.016.89-.184 1.81-.28 2.728-.28.385 0 .698-.312.698-.698 0-.386-.313-.7-.698-.7-1.015 0-2.028.104-3.012.307-.377.078-.622.448-.543.827.068.332.36.56.685.56zm0 0"/><path d="M83.638 41.903l12.675 12.67V75.36c.077.03.147.068.223.103.477.15.905.36 1.29.617V54.26c0-.2-.08-.393-.22-.534L84.485 40.61c-.143-.14-.335-.22-.536-.22H50.298c-.417 0-.757.34-.757.757v59.765c0 .42.34.757.758.757h31.15c-.404-.457-.71-.97-.93-1.515H51.056V41.903h32.583z"/><path d="M97.068 55.016H83.95c-.417 0-.757-.338-.757-.756V41.147c0-.307.186-.58.467-.7.283-.116.608-.05.826.164l13.118 13.115c.215.216.28.54.164.824-.117.282-.393.466-.7.466zm-12.36-1.514H95.24l-10.535-10.53v10.53zM72.294 63.435H59.06c-.417 0-.756-.34-.756-.756 0-.42.34-.757.757-.757h13.234c.417 0 .756.338.756.756 0 .416-.34.755-.756.755zM82.967 63.435h-8.41c-.417 0-.755-.34-.755-.756 0-.42.338-.757.756-.757h8.41c.417 0 .757.338.757.756 0 .416-.34.755-.758.755zM85.725 68.1H80.21c-.418 0-.757-.34-.757-.757s.34-.756.758-.756h5.515c.417 0 .758.34.758.756s-.34.757-.758.757zM78.226 68.1H59.06c-.417 0-.756-.34-.756-.757s.34-.756.757-.756h19.166c.418 0 .757.34.757.756s-.34.757-.757.757zM80.496 73.143H59.06c-.417 0-.756-.34-.756-.756s.34-.757.757-.757h21.437c.417 0 .757.34.757.757s-.34.756-.758.756zM71.127 78.043H59.06c-.417 0-.756-.338-.756-.756s.34-.758.757-.758h12.067c.418 0 .758.338.758.757s-.34.756-.758.756zM64.104 91.427H59.06c-.418 0-.757-.34-.757-.757s.34-.757.757-.757h5.044c.417 0 .756.34.756.757s-.34.757-.756.757zM67.635 51.96H59.06c-.417 0-.756-.34-.756-.757s.34-.756.757-.756h8.575c.417 0 .756.34.756.756 0 .418-.338.757-.755.757zM72.294 51.96H69.96c-.417 0-.755-.34-.755-.757s.338-.756.756-.756h2.334c.417 0 .756.34.756.756 0 .418-.34.757-.756.757z"/></g></svg>