<svg xmlns="http://www.w3.org/2000/svg" width="150" height="150" viewBox="0 0 150 150"><circle cx="75.425" cy="75" r="50.5" fill="#FDCA00"/><g fill="#3C3C3C"><path d="M104.46 66.42c-.58-10.875-10.544-19.56-22.706-19.56-4.432 0-8.592 1.248-12.074 3.415-2.863-3.52-7.135-5.58-11.738-5.58-8.355 0-15.15 6.795-15.15 15.15 0 2.9.822 5.724 2.385 8.16.918 1.437 2.096 2.716 3.44 3.773-.263 1.024-.415 2.103-.415 3.218 0 6.273 4.55 10.824 10.824 10.824v-2.162c-5.1 0-8.654-3.562-8.654-8.662 0-5.37 3.883-9.74 8.654-9.74h3.06l.17-.882c1.67-8.894 9.872-15.353 19.5-15.353 11.337 0 20.563 8.256 20.563 18.403v1.083h1.083c3.826 0 6.494 4.56 6.494 8.657 0 3.94-2.553 6.494-6.494 6.494v2.162c5.094 0 8.656-3.56 8.656-8.657 0-4.86-3.015-10.046-7.6-10.742zm-44.146-3.324h-1.29c-4.2 0-7.837 2.648-9.634 6.5-.918-.808-1.738-1.732-2.395-2.76-1.336-2.08-2.04-4.5-2.04-6.99 0-7.16 5.823-12.985 12.985-12.985 3.89 0 7.5 1.708 9.957 4.642-3.74 2.874-6.48 6.9-7.583 11.594zm0 0M44.957 94.483h32.47c2.384 0 4.327 1.938 4.327 4.327s-1.943 4.33-4.326 4.33c-2.39 0-4.334-1.94-4.334-4.33h-2.162c0 3.583 2.912 6.495 6.496 6.495 3.578 0 6.488-2.912 6.488-6.495s-2.91-6.495-6.488-6.495h-32.47v2.168zm0 0"/><path d="M91.494 87.987H47.12v2.166h44.374c3.584 0 6.496-2.916 6.496-6.494 0-3.585-2.912-6.495-6.496-6.495-3.582 0-6.494 2.91-6.494 6.494h2.168c0-2.39 1.938-4.33 4.326-4.33s4.33 1.94 4.33 4.33-1.94 4.327-4.33 4.327zm0 0"/></g></svg>