<svg xmlns="http://www.w3.org/2000/svg" width="150" height="150" viewBox="0 0 150 150"><circle cx="74.781" cy="75" r="50.5" fill="#FDCA00"/><g fill="#3C3C3C"><path d="M98.418 76.245c-1.896 0-3.44 1.543-3.44 3.44s1.544 3.438 3.44 3.438 3.44-1.543 3.44-3.44-1.544-3.438-3.44-3.438zm0 4.684c-.686 0-1.244-.56-1.244-1.245 0-.688.56-1.244 1.244-1.244.687 0 1.245.558 1.245 1.245 0 .685-.56 1.244-1.245 1.244z"/><path d="M108.957 79.757h-1.86c-1.12-4.145-3.753-7.982-7.58-11.102v-8.877c0-.607-.492-1.098-1.1-1.098-3.3 0-6.27 2.008-7.514 5.037-4.507-1.758-9.564-2.695-14.732-2.695-8.362 0-16.237 2.39-22.175 6.727-4.91 3.587-8.026 8.16-9.02 13.128-2.915-.37-5.177-2.863-5.177-5.877 0-2.11 1.137-4.077 2.965-5.136.525-.303.705-.975.4-1.5s-.975-.703-1.5-.4c-2.504 1.45-4.06 4.145-4.06 7.037 0 4.124 3.09 7.538 7.075 8.054-.032.436-.05.873-.05 1.314v12.88c0 2.813 2.018 5.163 4.683 5.677v6.033c0 1.896 1.545 3.44 3.44 3.44h4.685c1.896 0 3.44-1.544 3.44-3.44v-5.93H86.78v5.93c0 1.896 1.544 3.44 3.44 3.44h4.684c1.896 0 3.44-1.544 3.44-3.44v-5.93h3.585c3.187 0 5.78-2.592 5.78-5.78v-2.415h1.245c1.896 0 3.44-1.543 3.44-3.44v-8.196c0-1.897-1.54-3.44-3.438-3.44zM97.32 60.977v6.06c-.232-.154-.467-.31-.706-.46-1.168-.735-2.4-1.4-3.69-1.997.763-1.884 2.434-3.23 4.396-3.602zm-39.884 49.225h-4.684c-.687 0-1.244-.56-1.244-1.244v-1.244h7.172v1.244c0 .686-.56 1.244-1.244 1.244zm37.47 0H90.22c-.686 0-1.243-.56-1.243-1.244v-1.244h7.172v1.244c0 .686-.558 1.244-1.245 1.244zM110.2 91.394c0 .686-.558 1.244-1.243 1.244h-1.244v-7.1c0-.605-.492-1.098-1.098-1.098-.606 0-1.1.492-1.1 1.098v11.709c0 1.98-1.606 3.588-3.585 3.588h-4.683c-.606 0-1.1.49-1.1 1.098v3.586h-7.17v-3.587c0-.607-.492-1.098-1.1-1.098h-28.1c-.606 0-1.098.49-1.098 1.098v3.586h-7.173v-3.587c0-.607-.492-1.098-1.1-1.098-1.976 0-3.585-1.61-3.585-3.588v-12.88c0-11.66 13.165-21.15 29.348-21.15 7.086 0 13.93 1.855 19.273 5.218 5.206 3.277 8.657 7.77 9.717 12.654.11.503.557.862 1.072.862h2.724c.686 0 1.244.56 1.244 1.244v8.198z"/><path d="M80.978 65.974c-3.562-.4-7.282-.35-10.816.154-.6.086-1.018.64-.933 1.24.077.55.547.945 1.085.943.052 0 .104 0 .156-.01 3.352-.476 6.884-.526 10.262-.145.602.068 1.146-.365 1.214-.967.067-.603-.366-1.146-.968-1.214zM76.17 58.534c5.77 0 10.466-4.695 10.466-10.465 0-5.772-4.695-10.468-10.465-10.468S65.706 42.297 65.706 48.07c0 5.77 4.694 10.464 10.466 10.464zm0-18.736c4.56 0 8.27 3.71 8.27 8.27s-3.71 8.27-8.27 8.27-8.27-3.71-8.27-8.27 3.71-8.27 8.27-8.27z"/><path d="M76.17 49.067c-.553 0-1-.447-1-1v-5.424c0-.553.447-1 1-1s1 .447 1 1v5.424c0 .553-.447 1-1 1z"/><path d="M81.952 49.067h-5.424c-.553 0-1-.447-1-1s.447-1 1-1h5.424c.553 0 1 .447 1 1s-.447 1-1 1z"/></g></svg>