<svg xmlns="http://www.w3.org/2000/svg" width="150" height="150" viewBox="0 0 150 150"><circle cx="75.001" cy="74.999" r="50.5" fill="#FDCA00"/><g fill="#3C3C3C"><path d="M104.44 93.482c-1.352 0-2.075.467-2.656.843-.48.312-.8.517-1.55.517s-1.07-.206-1.55-.517c-.58-.376-1.304-.843-2.656-.843s-2.075.467-2.656.843c-.448.29-.754.487-1.4.513-3.976-4.854-9.726-7.734-15.967-8.015-.225-8.58-3.365-16.826-8.907-23.365.004-.204.006-.413.005-.63l9.854 1.65c.056.01.112.015.168.015.23 0 .456-.078.637-.225.227-.182.365-.45.38-.74.138-2.604-2.023-6.278-5.027-8.546-2.223-1.68-4.49-2.248-6.383-1.6-.366.126-.713.28-1.042.46-.885-.34-1.815-.515-2.775-.515-3.13 0-5.936 1.877-7.147 4.724-.357.114-.708.256-1.05.433-1.783.91-2.95 2.937-3.286 5.703-.454 3.735.688 7.843 2.655 9.552.187.162.424.25.668.25.042 0 .085-.002.128-.008.288-.037.547-.195.71-.434l4.05-5.892c.905 1.105 2.467 2.58 4.58 2.964.062.012.123.017.184.017.207 0 .41-.064.583-.185.065-.046.172-.13.305-.27 1.353 2.825 3.85 9.308 3.178 17.602-4.052 1.256-7.676 3.678-10.443 7.055-.646-.025-.953-.223-1.4-.513-.582-.376-1.305-.843-2.657-.843s-2.075.468-2.655.844c-.48.31-.8.517-1.55.517s-1.07-.205-1.55-.516c-.58-.376-1.304-.843-2.655-.843-.562 0-1.02.458-1.02 1.02s.457 1.02 1.02 1.02c.75 0 1.07.205 1.55.517.58.375 1.304.842 2.656.842 1.35 0 2.074-.468 2.654-.843.48-.312.8-.517 1.55-.517s1.07.205 1.55.517c.58.375 1.303.842 2.655.842 1.35 0 2.073-.468 2.654-.843.48-.312.8-.517 1.55-.517s1.07.205 1.55.517c.58.375 1.304.842 2.656.842s2.075-.468 2.655-.843c.48-.312.8-.517 1.55-.517s1.07.205 1.55.517c.58.375 1.304.842 2.655.842s2.074-.468 2.655-.843c.48-.312.8-.517 1.55-.517s1.07.205 1.55.517c.58.375 1.304.842 2.655.842 1.352 0 2.075-.468 2.656-.843.48-.312.8-.517 1.55-.517s1.07.205 1.55.517c.58.375 1.304.842 2.656.842s2.074-.468 2.655-.843c.48-.312.8-.517 1.55-.517s1.07.205 1.55.517c.582.375 1.305.842 2.657.842s2.075-.468 2.656-.843c.48-.312.8-.517 1.55-.517.563 0 1.02-.456 1.02-1.02s-.458-1.018-1.02-1.018zm-37.048-38.17c1.663-.57 3.53.567 4.495 1.296 1.978 1.494 3.6 3.798 4.08 5.64L63.98 60.24c.155-1.364.794-4.033 3.412-4.93zm-4.478.053c.29 0 .573.022.854.064-.58.704-1.04 1.55-1.363 2.522-.14.42-.24.826-.314 1.202-.32-.207-.683-.417-1.082-.608-.925-.444-1.853-.7-2.763-.774 1.056-1.482 2.783-2.407 4.67-2.407zm-8.238 15.92c-.992-1.625-1.522-4.393-1.223-6.854.146-1.2.625-3.332 2.19-4.133.664-.34 1.358-.51 2.076-.51.758 0 1.545.19 2.354.57.607.286 1.117.63 1.484.91l-6.882 10.017zm9.36-2.813c-1.526-.507-2.65-1.842-3.18-2.582l2.53-3.684 1.676.28c.058 3.68-.636 5.346-1.026 5.986zm2.424-.477c.143-.452.273-.98.38-1.6 4.422 5.887 6.92 13.026 7.125 20.43-1.158.053-2.298.195-3.414.423.633-10.098-3.057-17.422-4.09-19.253zm18.5 26.33c-.482.31-.8.517-1.55.517s-1.07-.206-1.55-.517c-.582-.376-1.305-.843-2.657-.843s-2.075.467-2.655.843c-.48.31-.8.517-1.55.517s-1.07-.206-1.55-.517c-.58-.376-1.304-.843-2.655-.843-1.352 0-2.075.467-2.656.843-.48.31-.8.517-1.55.517s-1.07-.206-1.55-.517c-.58-.376-1.304-.843-2.655-.843-.06 0-.117.003-.173.005 3.548-2.99 8.037-4.65 12.79-4.65 4.754 0 9.242 1.66 12.792 4.65-.058-.002-.116-.004-.177-.004-1.352 0-2.074.466-2.656.842z"/><path d="M81.862 75.63c.02 1.593 1.32 2.884 2.918 2.884h10.323c1.16 0 2.106-.944 2.106-2.105 0-.04.03-.07.066-.07h1.63c1.61 0 2.92-1.31 2.92-2.92 0-1.61-1.31-2.92-2.92-2.92h-5.89c.012-.157.018-.315.018-.476 0-3.857-3.14-6.994-6.995-6.994-3.858 0-6.996 3.137-6.996 6.994 0 2.24 1.043 4.29 2.818 5.607zm17.927-2.21c0 .487-.397.883-.884.883h-1.63c-1.16 0-2.105.944-2.105 2.105 0 .037-.03.067-.067.067H84.78c-.487 0-.883-.396-.883-.884 0-.484.396-.882.883-.882h1.63c1.16 0 2.105-.942 2.105-2.104 0-.037.03-.068.068-.068h10.323c.487 0 .883.398.883.883zm-13.75-8.354c2.732 0 4.957 2.224 4.957 4.957 0 .16-.01.318-.025.477h-2.39c-1.16 0-2.104.943-2.104 2.104 0 .038-.03.068-.067.068h-1.63c-.85 0-1.615.367-2.15.95-.98-.926-1.547-2.21-1.547-3.6 0-2.732 2.222-4.956 4.956-4.956z"/></g></svg>